<svg width="84" height="50" viewBox="0 0 84 50" fill="none" xmlns="http://www.w3.org/2000/svg">
<g clip-path="url(#clip0_816_17128)">
<path d="M23.7376 18.2418C23.7376 19.2583 23.8475 20.0825 24.0398 20.6869C24.2596 21.2913 24.5343 21.9506 24.919 22.6649C25.0563 22.8847 25.1113 23.1044 25.1113 23.2968C25.1113 23.5715 24.9464 23.8462 24.5893 24.1209L22.8585 25.2748C22.6113 25.4396 22.364 25.522 22.1442 25.522C21.8695 25.522 21.5948 25.3847 21.3201 25.1374C20.9354 24.7253 20.6058 24.2858 20.331 23.8462C20.0563 23.3792 19.7816 22.8572 19.4794 22.2253C17.3365 24.7528 14.6442 26.0165 11.4025 26.0165C9.09478 26.0165 7.25412 25.3572 5.90797 24.0385C4.56181 22.7198 3.875 20.9616 3.875 18.7638C3.875 16.4286 4.69918 14.533 6.375 13.1044C8.05082 11.6759 10.2761 10.9616 13.1058 10.9616C14.0398 10.9616 15.0014 11.044 16.0179 11.1814C17.0343 11.3187 18.0783 11.5385 19.1772 11.7858V9.78027C19.1772 7.69236 18.7376 6.23631 17.886 5.38466C17.0069 4.53302 15.5233 4.12093 13.408 4.12093C12.4464 4.12093 11.4574 4.23082 10.4409 4.47807C9.42445 4.72532 8.43544 5.02752 7.4739 5.41214C7.03434 5.60444 6.70467 5.71433 6.51236 5.76928C6.32006 5.82422 6.18269 5.8517 6.0728 5.8517C5.68819 5.8517 5.49588 5.57697 5.49588 5.00005V3.65389C5.49588 3.21433 5.55082 2.88466 5.68819 2.69236C5.82555 2.50005 6.0728 2.30774 6.45742 2.11543C7.41896 1.62093 8.5728 1.20884 9.91896 0.879169C11.2651 0.522026 12.6937 0.357191 14.2047 0.357191C17.4739 0.357191 19.864 1.09895 21.4025 2.58247C22.9135 4.06598 23.6827 6.31873 23.6827 9.34071V18.2418H23.7376ZM12.5838 22.4176C13.4904 22.4176 14.4244 22.2528 15.4135 21.9231C16.4025 21.5935 17.2816 20.9891 18.0234 20.1649C18.4629 19.6429 18.7926 19.066 18.9574 18.4066C19.1223 17.7473 19.2321 16.9506 19.2321 16.0165V14.8627C18.4354 14.6704 17.5838 14.5055 16.7047 14.3957C15.8255 14.2858 14.9739 14.2308 14.1223 14.2308C12.2816 14.2308 10.9354 14.588 10.0288 15.3297C9.12225 16.0715 8.68269 17.1154 8.68269 18.4891C8.68269 19.7803 9.01236 20.7418 9.69918 21.4011C10.3585 22.088 11.3201 22.4176 12.5838 22.4176ZM34.6442 25.3847C34.1497 25.3847 33.8201 25.3022 33.6003 25.1099C33.3805 24.9451 33.1882 24.5605 33.0233 24.0385L26.5673 2.80225C26.4025 2.2528 26.3201 1.89565 26.3201 1.70335C26.3201 1.26378 26.5398 1.01653 26.9794 1.01653H29.6717C30.1937 1.01653 30.5508 1.09895 30.7431 1.29126C30.9629 1.45609 31.1277 1.84071 31.2926 2.36269L35.908 20.5495L40.1937 2.36269C40.331 1.81324 40.4959 1.45609 40.7157 1.29126C40.9354 1.12642 41.32 1.01653 41.8146 1.01653H44.0124C44.5343 1.01653 44.8915 1.09895 45.1113 1.29126C45.331 1.45609 45.5233 1.84071 45.6332 2.36269L49.9739 20.7693L54.7266 2.36269C54.8915 1.81324 55.0838 1.45609 55.2761 1.29126C55.4959 1.12642 55.853 1.01653 56.3475 1.01653H58.9025C59.342 1.01653 59.5893 1.23631 59.5893 1.70335C59.5893 1.84071 59.5618 1.97807 59.5343 2.14291C59.5069 2.30774 59.4519 2.52752 59.342 2.82972L52.7211 24.066C52.5563 24.6154 52.364 24.9726 52.1442 25.1374C51.9244 25.3022 51.5673 25.4121 51.1003 25.4121H48.7376C48.2157 25.4121 47.8585 25.3297 47.6387 25.1374C47.4189 24.9451 47.2266 24.588 47.1168 24.0385L42.8585 6.31873L38.6277 24.011C38.4904 24.5605 38.3255 24.9176 38.1058 25.1099C37.886 25.3022 37.5014 25.3847 37.0069 25.3847H34.6442ZM69.9464 26.1264C68.5179 26.1264 67.0893 25.9616 65.7157 25.6319C64.342 25.3022 63.2706 24.9451 62.5563 24.533C62.1168 24.2858 61.8146 24.011 61.7047 23.7638C61.5948 23.5165 61.5398 23.2418 61.5398 22.9946V21.5935C61.5398 21.0165 61.7596 20.7418 62.1717 20.7418C62.3365 20.7418 62.5014 20.7693 62.6662 20.8242C62.831 20.8792 63.0783 20.9891 63.353 21.099C64.2871 21.511 65.3036 21.8407 66.375 22.0605C67.4739 22.2803 68.5453 22.3902 69.6442 22.3902C71.375 22.3902 72.7212 22.088 73.6552 21.4836C74.5893 20.8792 75.0838 20 75.0838 18.8737C75.0838 18.1044 74.8365 17.4726 74.342 16.9506C73.8475 16.4286 72.9135 15.9616 71.5673 15.522L67.5838 14.2858C65.5783 13.6539 64.0948 12.7198 63.1882 11.4836C62.2816 10.2748 61.8146 8.92862 61.8146 7.50005C61.8146 6.3462 62.0618 5.32972 62.5563 4.4506C63.0508 3.57148 63.7102 2.80225 64.5343 2.19785C65.3585 1.56598 66.2926 1.09895 67.3915 0.769279C68.4904 0.439609 69.6442 0.302246 70.853 0.302246C71.4574 0.302246 72.0893 0.329719 72.6937 0.412136C73.3255 0.494554 73.9025 0.604444 74.4794 0.714334C75.0288 0.851697 75.5508 0.989059 76.0453 1.15389C76.5398 1.31873 76.9244 1.48356 77.1992 1.6484C77.5838 1.86818 77.8585 2.08796 78.0233 2.33521C78.1882 2.55499 78.2706 2.85719 78.2706 3.24181V4.53302C78.2706 5.10994 78.0508 5.41214 77.6387 5.41214C77.419 5.41214 77.0618 5.30225 76.5948 5.08247C75.0288 4.36818 73.2706 4.01104 71.3201 4.01104C69.7541 4.01104 68.5179 4.25829 67.6662 4.78027C66.8146 5.30225 66.375 6.09895 66.375 7.22532C66.375 7.99455 66.6497 8.6539 67.1992 9.17587C67.7486 9.69785 68.7651 10.2198 70.2212 10.6869L74.1222 11.9231C76.1003 12.555 77.5288 13.4341 78.3805 14.5605C79.2321 15.6869 79.6442 16.9781 79.6442 18.4066C79.6442 19.588 79.397 20.6594 78.9299 21.5935C78.4354 22.5275 77.7761 23.3517 76.9244 24.011C76.0728 24.6979 75.0563 25.1924 73.875 25.5495C72.6387 25.9341 71.3475 26.1264 69.9464 26.1264Z" fill="#252F3E"/>
<path fill-rule="evenodd" clip-rule="evenodd" d="M75.1381 39.4781C66.0996 46.154 52.9678 49.6979 41.6766 49.6979C25.8524 49.6979 11.5942 43.8463 0.824923 34.121C-0.0267252 33.3518 0.742506 32.3078 1.75899 32.9122C13.4073 39.6704 27.7755 43.7638 42.6381 43.7638C52.6656 43.7638 63.6821 41.6759 73.8194 37.3902C75.3304 36.7034 76.6216 38.3792 75.1381 39.4781Z" fill="#FF9900"/>
<path fill-rule="evenodd" clip-rule="evenodd" d="M78.9024 35.1925C77.7486 33.7089 71.2651 34.4782 68.3255 34.8353C67.4464 34.9452 67.309 34.176 68.1057 33.5991C73.2706 29.9727 81.7596 31.0166 82.7486 32.2254C83.7376 33.4617 82.4739 41.9507 77.6387 46.0166C76.8969 46.6485 76.1827 46.3188 76.5123 45.4947C77.6112 42.7749 80.0563 36.6485 78.9024 35.1925Z" fill="#FF9900"/>
</g>
<defs>
<clipPath id="clip0_816_17128">
<rect width="83.5165" height="50" fill="white"/>
</clipPath>
</defs>
</svg>
