<svg width="200" height="38" viewBox="0 0 200 38" fill="none" xmlns="http://www.w3.org/2000/svg">
<mask id="mask0_816_17156" style="mask-type:luminance" maskUnits="userSpaceOnUse" x="0" y="0" width="200" height="38">
<path d="M200 0H0V37.3409H200V0Z" fill="white"/>
</mask>
<g mask="url(#mask0_816_17156)">
<path d="M118.819 13.1423C117.778 12.9177 113.909 12.9892 112.811 13.0025V27.0432C117.136 27.0432 120.463 27.6222 122.91 24.3582C125.164 21.3438 124.965 14.4632 118.819 13.1423ZM120.553 24.2717C118.753 25.6026 116.918 25.3713 114.564 25.3663V14.6961C116.332 14.6761 117.528 14.6279 118.568 14.8458C121.358 15.433 122.38 17.8402 122.38 19.6835C122.414 22.0208 121.756 23.38 120.55 24.2634" fill="#757374"/>
<path d="M130.141 25.7191C128.5 25.7191 127.147 24.6228 127.017 22.5583H134.636C134.735 18.8202 132.517 17.1633 129.978 17.1184C127.553 17.0751 125.28 19.0315 125.224 22.0942C125.159 25.6193 127.653 27.3628 130.083 27.3628C131.893 27.3628 133.465 26.5942 134.329 24.7409L132.732 24.0755C132.296 25.1502 131.436 25.7391 130.145 25.7391M129.927 18.7504C131.559 18.7504 132.529 19.6304 132.745 21.0794H127.145C127.478 19.6986 128.443 18.7504 129.922 18.7504" fill="#757374"/>
<path d="M140.382 25.7191C138.738 25.7191 137.379 24.6228 137.258 22.5583H144.877C144.975 18.8202 142.758 17.1633 140.219 17.1184C137.793 17.0751 135.521 19.0315 135.466 22.0942C135.401 25.6193 137.893 27.3628 140.324 27.3628C142.135 27.3628 143.706 26.5942 144.571 24.7409L142.972 24.0755C142.538 25.1502 141.676 25.7391 140.387 25.7391M140.167 18.7703C141.798 18.7703 142.769 19.6504 142.984 21.0993H137.384C137.717 19.7186 138.682 18.7703 140.162 18.7703" fill="#757374"/>
<path d="M151.332 17.1114C149.982 17.0931 148.795 17.5656 147.923 18.775C147.919 18.7826 147.912 18.7886 147.904 18.7918C147.896 18.7951 147.887 18.7955 147.878 18.793C147.87 18.7904 147.863 18.7851 147.858 18.7779C147.853 18.7707 147.851 18.7621 147.851 18.7534V17.4225H146.133V31.2752H147.931C147.931 31.2752 147.875 26.7636 147.863 25.7488C147.862 25.7361 147.865 25.7235 147.873 25.713C147.88 25.7025 147.89 25.6947 147.902 25.6909C147.914 25.6871 147.927 25.6874 147.939 25.6919C147.951 25.6963 147.961 25.7047 147.968 25.7155C148.756 26.89 150.044 27.3508 151.305 27.3508C153.562 27.3508 155.813 25.2713 155.785 22.2286C155.758 19.4155 153.689 17.1364 151.332 17.1064M150.999 25.7205C146.77 25.7205 146.808 18.7501 150.934 18.7501C152.598 18.7501 154 20.036 154 22.222C154 24.734 152.232 25.7155 151.005 25.7155" fill="#757374"/>
<path d="M191.198 27.3645C192.547 27.3811 193.735 26.9086 194.607 25.7009C194.611 25.6933 194.618 25.6873 194.626 25.6841C194.634 25.6808 194.643 25.6804 194.651 25.6829C194.659 25.6855 194.667 25.6908 194.671 25.6979C194.676 25.7051 194.679 25.7138 194.678 25.7225V27.0534H196.397V12.9761H194.598C194.598 12.9761 194.538 17.5426 194.691 18.7404C194.691 18.797 194.617 18.8203 194.587 18.772C193.886 17.6275 192.577 17.1201 191.224 17.1201C188.967 17.1201 186.716 19.1996 186.744 22.2423C186.74 23.1739 186.968 24.0919 187.41 24.9123C188.215 26.3696 189.669 27.3445 191.206 27.3661M191.562 18.7404C195.791 18.7404 195.734 25.7275 191.609 25.7275C189.945 25.7275 188.543 24.4415 188.543 22.2556C188.543 19.7436 190.329 18.7437 191.562 18.7471" fill="#757374"/>
<path d="M169.188 12.9761L164.227 21.6933L159.251 12.9761H157.498V27.0367H159.251V16.1901L163.685 24.0306H164.79L169.158 16.3349C169.163 16.327 169.17 16.321 169.179 16.3176C169.188 16.3142 169.197 16.3137 169.206 16.3161C169.215 16.3185 169.223 16.3238 169.229 16.331C169.234 16.3383 169.238 16.3472 169.238 16.3565L169.181 27.0351H170.933V12.9761H169.188Z" fill="#757374"/>
<path d="M175.072 17.4192H173.311V27.0347H175.072V17.4192Z" fill="#757374"/>
<path d="M183.73 27.0349H185.52L185.5 20.9628C185.359 18.2478 183.962 17.1366 181.827 17.1133C180.641 17.1332 179.413 17.7222 178.809 18.7503C178.804 18.7593 178.796 18.7664 178.786 18.7704C178.777 18.7744 178.766 18.7752 178.756 18.7725C178.746 18.7699 178.737 18.764 178.73 18.7558C178.724 18.7476 178.72 18.7375 178.72 18.727V17.4327H177.008V27.0349H178.77V21.5168C178.801 20.1177 179.912 18.5223 181.663 18.7386C182.934 18.8384 183.677 19.6419 183.725 21.3754L183.73 27.0349Z" fill="#757374"/>
<path d="M175.47 14.0904C175.471 14.3415 175.396 14.5871 175.257 14.7961C175.118 15.005 174.92 15.168 174.688 15.2643C174.456 15.3606 174.201 15.386 173.954 15.3372C173.708 15.2884 173.482 15.1677 173.304 14.9902C173.126 14.8128 173.005 14.5866 172.956 14.3403C172.907 14.094 172.932 13.8387 173.028 13.6067C173.124 13.3747 173.287 13.1763 173.496 13.0368C173.704 12.8972 173.95 12.8228 174.201 12.8228C174.368 12.8225 174.533 12.8552 174.687 12.9188C174.841 12.9824 174.981 13.0757 175.098 13.1935C175.216 13.3112 175.31 13.451 175.374 13.6049C175.437 13.7588 175.47 13.9238 175.47 14.0904Z" fill="#757374"/>
</g>
<mask id="mask1_816_17156" style="mask-type:luminance" maskUnits="userSpaceOnUse" x="0" y="0" width="200" height="38">
<path d="M200 0H0V37.3409H200V0Z" fill="white"/>
</mask>
<g mask="url(#mask1_816_17156)">
<path d="M58.0095 18.2994H50.2788V20.5785H55.7803C55.5125 23.7676 52.859 25.1284 50.3537 25.1284C49.56 25.1316 48.7736 24.9766 48.0405 24.6727C47.3073 24.3687 46.6421 23.9217 46.0835 23.3579C45.5249 22.794 45.0842 22.1246 44.7871 21.3886C44.49 20.6527 44.3425 19.8649 44.3531 19.0713C44.3531 15.6293 47.0148 12.9776 50.3603 12.9776C51.8879 12.9745 53.3571 13.5637 54.4594 14.6212L56.0515 12.9759C56.0515 12.9759 54.0069 10.6968 50.2788 10.6968C45.5309 10.6968 41.8594 14.7027 41.8594 19.0314C41.8831 21.2753 42.7967 23.418 44.3995 24.9886C46.0022 26.5592 48.163 27.4293 50.4069 27.4075C54.8803 27.4075 58.1559 24.3432 58.1559 19.8116C58.1659 19.305 58.119 18.7989 58.0162 18.3027L58.0095 18.2994Z" fill="#757374"/>
<path d="M64.3102 16.6662C63.6041 16.6538 62.9026 16.7824 62.2469 17.0446C61.5911 17.3068 60.9943 17.6972 60.4914 18.193C59.9884 18.6888 59.5895 19.28 59.318 19.9319C59.0465 20.5839 58.9079 21.2834 58.9102 21.9897C58.9102 24.8993 61.0978 27.4046 64.3468 27.4046C67.2897 27.4046 69.7002 25.1555 69.7002 22.0529C69.7002 18.4945 66.8954 16.6628 64.3102 16.6628M67.3546 22.0379C67.3546 24.0109 65.8939 25.2969 64.3335 25.2969C62.62 25.2969 61.2675 23.9244 61.2675 22.0229C61.2675 20.1614 62.5984 18.7723 64.3418 18.7723C65.9189 18.7723 67.3546 20.0549 67.3546 22.0379Z" fill="#757374"/>
<path d="M76.027 16.6676C75.3209 16.6552 74.6194 16.7839 73.9637 17.0461C73.3079 17.3083 72.7111 17.6987 72.2082 18.1945C71.7052 18.6903 71.3063 19.2815 71.0348 19.9334C70.7633 20.5853 70.6247 21.2849 70.627 21.9911C70.627 24.9007 72.8129 27.4044 76.0636 27.4044C79.0048 27.4044 81.4154 25.1569 81.4154 22.0527C81.4154 18.4959 78.6122 16.6643 76.027 16.6643M76.0586 18.7737C77.6041 18.7737 79.0697 20.0231 79.0697 22.0394C79.0697 24.0107 77.6107 25.2967 76.0503 25.2967C74.3368 25.2967 72.9843 23.9242 72.9843 22.0227C72.9893 20.1662 74.3251 18.7771 76.0636 18.7771L76.0586 18.7737Z" fill="#757374"/>
<path d="M87.5048 16.6659C84.6185 16.6659 82.3477 19.1946 82.3477 22.0327C82.3477 26.729 87.8558 29.0563 90.3994 26.1035V27.1632C90.3994 29.0164 89.2748 30.126 87.5713 30.126C85.931 30.126 85.1075 28.9066 84.8214 28.2129L82.7569 29.0763C83.4905 30.6251 84.9645 32.2371 87.5813 32.2371C90.4527 32.2371 92.6403 30.4288 92.6403 26.6358V16.8556H90.4077V17.8987C90.0406 17.497 89.5913 17.1791 89.0904 16.9664C88.5895 16.7537 88.0488 16.6512 87.5048 16.6659ZM90.5824 22.0443C90.5824 24.1421 89.1334 25.2983 87.6828 25.2983C86.144 25.2983 84.7116 24.0489 84.7116 22.0643C84.7116 20.0014 86.1989 18.772 87.7061 18.772C89.1517 18.772 90.5741 20.0114 90.5741 22.0443" fill="#757374"/>
<path d="M102.8 16.6595C100.078 16.6595 97.791 18.8222 97.791 22.0246C97.791 27.4096 104.331 29.3793 107.561 25.0557L105.705 23.8213C105.224 24.5682 104.419 25.3002 103.073 25.3002C101.564 25.3002 100.87 24.4684 100.439 23.6716L107.641 20.6771L107.267 19.8004C106.571 18.0869 104.949 16.6545 102.802 16.6545L102.8 16.6595ZM104.883 19.8736L100.072 21.8832C99.8655 20.3277 101.339 18.7224 102.9 18.7224C103.838 18.7224 104.563 19.2082 104.896 19.8703" fill="#757374"/>
<path d="M96.5126 11.2708H94.3066V27.1015H96.5126V11.2708Z" fill="#757374"/>
</g>
<mask id="mask2_816_17156" style="mask-type:luminance" maskUnits="userSpaceOnUse" x="2" y="5" width="28" height="31">
<path d="M2.80273 19.4522C2.80303 23.6374 4.44791 27.6549 7.38276 30.6386C10.3176 33.6223 14.3074 35.3333 18.492 35.4027C19.639 35.4275 20.7824 35.2656 21.8774 34.9236C27.1044 33.1535 29.5067 28.5254 29.4118 24.4679C29.3401 22.1673 28.53 19.9508 27.1011 18.1463C25.9617 16.6714 24.453 15.5236 22.7275 14.8191C23.3924 15.3911 23.9252 16.1005 24.2894 16.8983C24.6536 17.6962 24.8404 18.5635 24.837 19.4405C24.837 22.7178 22.097 25.4977 18.7815 25.4977C18.2309 25.4977 17.1578 25.3912 17.1578 25.3912C14.5413 25.0414 12.1317 23.7809 10.3521 21.8311C8.7126 20.0099 7.68718 17.7192 7.42086 15.2832C7.14869 12.8491 7.68725 10.3931 8.95302 8.29616C9.64201 7.12855 10.5227 6.0853 11.5582 5.21021C8.92436 6.54206 6.71155 8.57836 5.16584 11.0927C3.62013 13.607 2.80211 16.5008 2.80273 19.4522Z" fill="white"/>
</mask>
<g mask="url(#mask2_816_17156)">
<path d="M10.8047 -7.01803L-11.0488 26.3904L21.5034 47.6838L43.3569 14.2754L10.8047 -7.01803Z" fill="url(#paint0_linear_816_17156)"/>
</g>
<mask id="mask3_816_17156" style="mask-type:luminance" maskUnits="userSpaceOnUse" x="8" y="3" width="27" height="31">
<path d="M15.5531 3.93925C13.0549 4.73968 10.9321 6.41968 9.57915 8.66717C8.39613 10.6297 7.89436 12.928 8.15179 15.2051C8.5261 18.6637 10.6904 22.4051 14.7213 24.0088C13.7977 23.1884 13.1452 22.1067 12.8506 20.907C12.5559 19.7073 12.6329 18.4463 13.0715 17.2914C13.51 16.1365 14.2892 15.1422 15.3059 14.4404C16.3225 13.7386 17.5285 13.3624 18.7638 13.3618C19.4778 13.3615 20.1904 13.4244 20.8932 13.5498C23.8161 14.147 26.0354 15.5927 27.6773 17.7088C29.2028 19.6338 30.0669 21.9995 30.1411 24.4546C30.1788 26.9083 29.4431 29.3115 28.0383 31.3236C27.3179 32.3546 26.4213 33.2505 25.3899 33.9704C28.7065 32.4585 31.4056 29.8569 33.0382 26.598C34.6708 23.3392 35.1386 19.6196 34.3637 16.058C33.5887 12.4964 31.6179 9.30746 28.7788 7.02155C25.9398 4.73563 22.4038 3.49056 18.7588 3.49341C17.6739 3.47534 16.5926 3.62459 15.5531 3.93592" fill="white"/>
</mask>
<g mask="url(#mask3_816_17156)">
<path d="M11.2146 -5.36775L-2.05273 30.2644L31.5575 42.7788L44.8247 7.14668L11.2146 -5.36775Z" fill="url(#paint1_linear_816_17156)"/>
</g>
<defs>
<linearGradient id="paint0_linear_816_17156" x1="4.94579" y1="13.0735" x2="28.517" y2="28.4922" gradientUnits="userSpaceOnUse">
<stop stop-color="#268ECD"/>
<stop offset="1" stop-color="#0476BC"/>
</linearGradient>
<linearGradient id="paint1_linear_816_17156" x1="34.1166" y1="23.2522" x2="7.75297" y2="13.4359" gradientUnits="userSpaceOnUse">
<stop stop-color="#ACD3F1"/>
<stop offset="1" stop-color="#7BB4E3"/>
</linearGradient>
</defs>
</svg>
