<svg width="180" height="38" viewBox="0 0 180 38" fill="none" xmlns="http://www.w3.org/2000/svg">
<g clip-path="url(#clip0_816_17102)">
<path d="M8.27278 37.7966H7.05281L6.3652 36.0221H3.19329L2.50568 37.7966H1.33008L4.10272 30.7874H5.52231L8.27278 37.7966ZM3.61474 34.9352H5.94376L4.76816 31.9186L3.61474 34.9352Z" fill="black"/>
<path d="M14.283 30.7873C15.7691 30.7873 16.9003 31.2975 16.9003 32.6949C16.9003 33.4047 16.4345 34.0036 15.8135 34.181C16.4789 34.3807 17.0556 34.9796 17.0556 35.7781C17.0556 37.1755 16.0353 37.7744 14.4382 37.7744H11.5547V30.7651H14.283V30.7873ZM12.6859 31.852V33.7374H14.2386C15.0149 33.7374 15.7026 33.6265 15.7026 32.7836C15.7026 31.9851 15.0149 31.852 14.2164 31.852H12.6859ZM12.6859 34.8021V36.7319H14.3717C15.2589 36.7319 15.8578 36.5544 15.8578 35.7559C15.8578 34.9574 15.2589 34.8021 14.3717 34.8021H12.6859Z" fill="black"/>
<path d="M19.6508 37.7966H18.5195V30.7874H19.6508V37.7966Z" fill="black"/>
<path d="M27.6144 32.1404L26.6607 32.7615C26.2392 32.1404 25.5516 31.7412 24.7087 31.7412C23.2891 31.7412 22.2244 32.7837 22.2244 34.292C22.2244 35.8003 23.2669 36.8428 24.7087 36.8428C25.5294 36.8428 26.217 36.4658 26.6607 35.8447L27.5701 36.5101C26.9712 37.3752 25.9287 37.9297 24.7087 37.9297C22.5571 37.9297 21.0488 36.3992 21.0488 34.292C21.0488 32.207 22.5571 30.6543 24.7087 30.6543C25.9509 30.6765 27.0599 31.231 27.6144 32.1404Z" fill="black"/>
<path d="M35.6674 34.292C35.6674 36.377 34.1591 37.9297 32.0075 37.9297C29.856 37.9297 28.3477 36.3992 28.3477 34.292C28.3477 32.207 29.856 30.6543 32.0075 30.6543C34.1369 30.6765 35.6674 32.207 35.6674 34.292ZM29.5233 34.292C29.5233 35.8003 30.5658 36.8428 32.0075 36.8428C33.4271 36.8428 34.4918 35.8003 34.4918 34.292C34.4918 32.7837 33.4493 31.7412 32.0075 31.7412C30.5658 31.7634 29.5233 32.7837 29.5233 34.292Z" fill="black"/>
<path d="M45.9133 32.1404L44.9595 32.7615C44.538 32.1404 43.8504 31.7412 43.0075 31.7412C41.588 31.7412 40.5233 32.7837 40.5233 34.292C40.5233 35.8003 41.5658 36.8428 43.0075 36.8428C43.8282 36.8428 44.5159 36.4658 44.9595 35.8447L45.8689 36.5101C45.27 37.3752 44.2275 37.9297 43.0075 37.9297C40.856 37.9297 39.3477 36.3992 39.3477 34.292C39.3477 32.207 40.856 30.6543 43.0075 30.6543C44.2497 30.6765 45.3587 31.231 45.9133 32.1404Z" fill="black"/>
<path d="M53.9663 34.292C53.9663 36.377 52.4579 37.9297 50.3064 37.9297C48.1548 37.9297 46.6465 36.3992 46.6465 34.292C46.6465 32.207 48.1548 30.6543 50.3064 30.6543C52.4579 30.6765 53.9663 32.207 53.9663 34.292ZM47.8221 34.292C47.8221 35.8003 48.8646 36.8428 50.3064 36.8428C51.726 36.8428 52.7907 35.8003 52.7907 34.292C52.7907 32.7837 51.7481 31.7412 50.3064 31.7412C48.8646 31.7634 47.8221 32.7837 47.8221 34.292Z" fill="black"/>
<path d="M62.9049 37.7966H61.7736V32.0295L59.733 37.109H58.5352L56.4945 32.096V37.7966H55.3633V30.7874H57.0934L59.1341 35.7781L61.1747 30.7874H62.9049V37.7966Z" fill="black"/>
<path d="M65.8324 35.0461V37.7966H64.7012V30.7874H67.4073C69.0265 30.7874 69.8916 31.6081 69.8916 32.9167C69.8916 34.2254 69.0265 35.0461 67.4073 35.0461H65.8324ZM65.8324 31.852V33.9814H67.3851C68.2945 33.9814 68.716 33.6487 68.716 32.9167C68.716 32.2069 68.2945 31.852 67.3851 31.852H65.8324Z" fill="black"/>
<path d="M76.7454 37.7966H75.5255L74.8379 36.0221H71.6659L70.9783 37.7966H69.8027L72.5754 30.7874H73.995L76.7454 37.7966ZM72.0874 34.9352H74.4164L73.2408 31.9186L72.0874 34.9352Z" fill="black"/>
<path d="M83.8211 37.7966H82.8007L78.8969 32.7393V37.7966H77.7656V30.7874H78.786L82.6898 35.8447V30.7874H83.8211V37.7966Z" fill="black"/>
<path d="M88.6134 34.9574V37.7966H87.4822V34.9352L84.7539 30.7874H86.107L88.0589 33.9371L90.0108 30.8095H91.3195L88.6134 34.9574Z" fill="black"/>
<path d="M42.3655 23.4455H25.1973V0.46582H42.2324V4.65806H29.7666V9.75972H41.6557V13.952H29.7666V19.2533H42.3655V23.4455Z" fill="black"/>
<path d="M63.1491 23.4455H46.4023V0.46582H50.9938V19.1645H63.1491V23.4455Z" fill="black"/>
<path d="M83.6015 23.4455H66.877V0.46582H71.4463V19.1645H83.6015V23.4455Z" fill="black"/>
<path d="M120.355 23.4455H116.052L104.384 8.09613V23.4455H99.793V0.46582H104.074L115.763 15.8152V0.46582H120.355V23.4455Z" fill="black"/>
<path d="M131.845 13.9963H129.738V23.4455H125.146V0.46582H129.738V9.75972H131.89L139.498 0.46582H145.265L135.616 11.6673L145.975 23.4455H140.03L131.845 13.9963Z" fill="black"/>
<path d="M91.7627 0.46582V3.9039C91.7627 4.52497 91.2525 5.03514 90.6314 5.03514H87.1934V23.4455H91.7849V6.14419C91.7849 5.52312 92.295 5.01295 92.9161 5.01295H96.3542V0.46582H91.7627Z" fill="black"/>
<path d="M21.9372 5.19039L17.9889 7.60813C16.7024 5.61183 14.5952 4.43623 12.0444 4.43623C7.87431 4.43623 4.79113 7.49723 4.79113 11.9556C4.81331 16.5693 7.98521 19.475 12.0444 19.475C14.5952 19.475 16.658 18.3216 18.0333 16.3253L21.7819 19.0092C19.7412 22.0037 16.281 23.8669 12.0665 23.8669C4.99076 23.8669 0 18.854 0 11.9335C0 5.01294 4.99076 0 12.0665 0C16.3031 0.0221811 20.0518 1.97412 21.9372 5.19039Z" fill="black"/>
<path d="M166.203 9.64881V14.2403H162.743C162.099 14.2403 161.589 14.7505 161.589 15.3937V18.854H158.151C157.508 18.854 156.998 19.3642 156.998 20.0074V23.4677H152.406V18.854H155.867C156.51 18.854 157.02 18.3438 157.02 17.7006V14.2403H160.48C161.123 14.2403 161.634 13.7301 161.634 13.0869V10.7801C161.634 10.1368 161.123 9.62663 160.48 9.62663H157.02V6.21074C157.02 5.56748 156.51 5.05732 155.867 5.05732H152.406V0.46582H156.998V3.92608C156.998 4.56933 157.508 5.0795 158.151 5.0795H161.611V8.53976C161.611 9.18301 162.122 9.69318 162.765 9.69318H166.203V9.64881Z" fill="#000041"/>
<path d="M180 9.64881V14.2403H176.54C175.897 14.2403 175.387 14.7505 175.387 15.3937V18.854H171.927C171.283 18.854 170.773 19.3642 170.773 20.0074V23.4677H166.182V18.854H169.642C170.285 18.854 170.795 18.3438 170.795 17.7006V14.2403H174.256C174.899 14.2403 175.409 13.7301 175.409 13.0869V10.7801C175.409 10.1368 174.899 9.62663 174.256 9.62663H170.795V6.21074C170.795 5.56748 170.285 5.05732 169.642 5.05732H166.182V0.46582H170.773V3.92608C170.773 4.56933 171.283 5.0795 171.927 5.0795H175.387V8.53976C175.387 9.18301 175.897 9.69318 176.54 9.69318H180V9.64881Z" fill="#0000FA"/>
</g>
<defs>
<clipPath id="clip0_816_17102">
<rect width="180" height="37.9298" fill="white"/>
</clipPath>
</defs>
</svg>
