<svg width="143" height="60" viewBox="0 0 143 60" fill="none" xmlns="http://www.w3.org/2000/svg">
<g clip-path="url(#clip0_816_16932)">
<mask id="mask0_816_16932" style="mask-type:luminance" maskUnits="userSpaceOnUse" x="0" y="0" width="143" height="60">
<path d="M142.979 0H0V60H142.979V0Z" fill="white"/>
</mask>
<g mask="url(#mask0_816_16932)">
<path d="M34.6444 33.3096C37.1041 33.3096 42.5641 34.1649 42.5641 37.3596V40.0979H39.161V38.5277C39.161 37.0149 36.4741 36.5011 34.8139 36.5011C30.8956 36.5011 28.0392 39.2394 28.0392 43.5191C28.0392 48.083 31.0139 51.0511 35.0156 51.0511C36.2469 51.0511 39.4199 50.6521 39.4199 49.0532V47.483H42.8233V50.25C42.8233 53.2755 37.5905 54.2457 34.7884 54.2457C28.6405 54.2457 24.1816 49.5957 24.1816 43.6915C24.1785 37.7011 28.7525 33.3096 34.6444 33.3096Z" fill="#6B7A83"/>
<path d="M44.3771 51.1977H46.4946V36.3636H44.2363V33.6541H50.1249V40.7296C50.1249 41.4413 50.0388 41.9551 50.0388 41.9551H50.0962C50.8095 40.5572 52.6105 39.0158 55.1276 39.0158C58.3583 39.0158 60.2168 40.7009 60.2168 44.5498V51.1977H62.3343V53.9072H56.5861V45.2902C56.5861 43.5221 56.1288 42.3253 54.2991 42.3253C51.7242 42.3253 50.1249 44.5498 50.1249 47.2307V51.1977H52.2138V53.9072H44.3803V51.1977H44.3771Z" fill="#6B7A83"/>
<path d="M70.6595 39.0127C74.8627 39.0127 77.1497 42.0669 77.1497 45.9159C77.1497 46.3435 77.0632 47.1446 77.0632 47.1446H66.9714C67.1987 49.8255 69.1436 51.1946 71.3473 51.1946C73.7208 51.1946 75.5792 49.6531 75.5792 49.6531L76.9803 52.2223C76.9803 52.2223 74.7507 54.2489 71.0913 54.2489C66.2581 54.2489 63.2578 50.767 63.2578 46.6308C63.2578 42.1531 66.2872 39.0127 70.6595 39.0127ZM73.4074 45.0031C73.3496 43.0052 72.1215 41.8084 70.5765 41.8084C68.7181 41.8084 67.4032 43.0914 67.0579 45.0031H73.4074Z" fill="#6B7A83"/>
<path d="M78.8197 51.1978H80.9338V42.6669C80.9338 42.268 80.7068 42.0701 80.3038 42.0701H78.6758V39.3605H82.4788C83.7646 39.3605 84.3949 39.9605 84.3949 40.985V41.6424C84.3949 41.9552 84.3372 42.2712 84.3372 42.2712H84.3949C85.137 40.7871 86.9666 39.019 89.3689 39.019C91.3999 39.019 92.8584 39.9605 93.4278 42.185H93.4852C94.285 40.4744 96.2299 39.019 98.5457 39.019C101.492 39.019 103.235 40.7297 103.235 44.5531V51.201H105.352V53.9105H99.6043V45.2393C99.6043 43.5829 99.2909 42.3286 97.6019 42.3286C95.1167 42.3286 93.8851 44.8116 93.8851 47.4924V51.201H96.0027V53.9105H90.2835V45.2393C90.2835 43.669 90.0276 42.3286 88.3131 42.3286C85.7382 42.3286 84.5676 45.0382 84.5676 47.6648V51.2041H86.6561V53.9137H78.8229V51.1978H78.8197Z" fill="#6B7A83"/>
<path d="M106.625 51.1977H108.743V42.07H106.484V39.3605H112.373V51.2009H114.462V53.9105H106.628V51.1977H106.625ZM108.711 33.6509H112.37V36.8743H108.711V33.6509Z" fill="#6B7A83"/>
<path d="M115.925 51.1979H118.04V42.0702H115.781V39.3606H118.04V38.7032C118.04 33.9957 121.814 33.3989 123.759 33.3989C124.616 33.3989 125.246 33.5138 125.246 33.5138V36.4245C125.246 36.4245 124.875 36.3383 124.13 36.3383C123.301 36.3383 121.67 36.5074 121.67 38.6202V39.3638H124.958V42.0734H121.67V51.201H124.13V53.9106H115.925V51.1979Z" fill="#6B7A83"/>
<path d="M130.111 56.9298C131.282 56.9298 132.225 56.301 132.686 55.2447L133.086 54.3319L128.083 42.067H126.34V39.3574H133.517V42.067H131.803L134.461 49.4266C134.717 50.1383 134.778 50.9393 134.778 50.9393H134.864C134.864 50.9393 134.979 50.1415 135.264 49.4266L137.893 42.067H136.208V39.3574H143.097V42.067H141.441L136.064 55.7872C134.947 58.6691 132.775 59.8947 130.287 59.8947C128.173 59.8947 126.74 58.8957 126.74 58.8957L127.914 56.2436C127.91 56.2468 128.768 56.9298 130.111 56.9298Z" fill="#6B7A83"/>
<path d="M7.15448 7.03714C7.66627 6.5265 7.66627 5.69672 7.15448 5.18608C6.64269 4.67544 5.81105 4.67544 5.29927 5.18608C4.78748 5.69672 4.78748 6.5265 5.29927 7.03714C5.81105 7.54778 6.64269 7.54778 7.15448 7.03714ZM8.56509 17.668C9.00969 17.6201 9.4671 17.5882 9.95329 17.5882C10.27 17.5882 10.577 17.601 10.8777 17.6233C11.0153 17.6457 11.124 17.7478 11.1432 17.8882V17.8722C11.3095 18.284 11.7094 18.5776 12.1828 18.5776C12.8033 18.5776 13.3087 18.0765 13.3087 17.4542C13.3087 16.835 12.8065 16.3308 12.1828 16.3308C11.7094 16.3308 11.3095 16.6244 11.1432 17.0361V17.0201C11.124 17.1605 11.0153 17.2659 10.8745 17.285C10.577 17.3074 10.27 17.3201 9.95329 17.3201C9.47032 17.3201 9.01288 17.285 8.5715 17.2403C8.44033 17.2148 8.33798 17.1159 8.3188 16.9818V16.9914C8.11087 16.1552 7.35921 15.5329 6.45398 15.5329C5.38882 15.5329 4.5284 16.3946 4.5284 17.4542C4.5284 18.5137 5.39204 19.3754 6.45398 19.3754C7.35599 19.3754 8.10768 18.7531 8.3188 17.9169V17.9233C8.33479 17.7925 8.43714 17.6967 8.56509 17.668ZM10.7082 11.234L10.7018 11.2403C10.8073 11.1605 10.9481 11.1637 11.0568 11.234C11.4023 11.5148 11.751 11.8148 12.0964 12.1563C12.3203 12.3797 12.5282 12.6063 12.7233 12.8329C12.8065 12.9446 12.8097 13.0946 12.7233 13.2095L12.7361 13.1967C12.5602 13.6052 12.637 14.0967 12.9728 14.4286C13.411 14.8659 14.1243 14.8659 14.5626 14.4286C15.0008 13.9914 15.0008 13.2797 14.5626 12.8425C14.2267 12.5074 13.7373 12.434 13.3279 12.6063L13.3407 12.5935C13.2287 12.6797 13.0784 12.6765 12.9632 12.5935C12.7361 12.3988 12.509 12.1914 12.2851 11.968C11.9429 11.6265 11.6454 11.2818 11.3639 10.9371C11.2903 10.8254 11.2871 10.685 11.3671 10.5765L11.3607 10.5829C11.8053 9.84565 11.7158 8.87225 11.076 8.23714C10.3244 7.48714 9.10566 7.48714 8.35078 8.23714C7.59909 8.98714 7.59909 10.2031 8.35078 10.9563C8.9937 11.5882 9.96612 11.6776 10.7082 11.234ZM7.20567 21.8584C8.06929 21.4978 8.89773 21.1882 9.69101 20.9137C9.7422 20.9042 9.79336 20.9201 9.82537 20.9552C9.98849 21.0797 10.2092 21.1212 10.4107 21.035C10.7082 20.9105 10.8521 20.5659 10.7242 20.2691C10.5994 19.9722 10.254 19.8286 9.95651 19.9563C9.755 20.0425 9.62705 20.2276 9.60146 20.4318V20.4286C9.60465 20.4957 9.55668 20.5595 9.48309 20.5818H9.48631C8.74742 20.9457 7.96055 21.3095 7.11612 21.6637C6.30366 22.0052 5.51999 22.2988 4.76511 22.5605C4.67875 22.5829 4.59238 22.5637 4.52201 22.5127C4.49642 22.4871 4.47401 22.4616 4.44522 22.4361C4.44203 22.4297 4.43565 22.4265 4.43243 22.4201L4.43565 22.4265C4.16377 22.1935 3.77351 22.1137 3.42168 22.2637C2.92269 22.4712 2.68918 23.0425 2.89709 23.5403C3.105 24.0382 3.67758 24.2712 4.17656 24.0637C4.53159 23.9169 4.74593 23.585 4.77149 23.2276L4.77468 23.2308C4.77468 23.2276 4.77468 23.2244 4.77468 23.218C4.77791 23.1797 4.77468 23.1382 4.77468 23.0999C4.78748 23.0233 4.83229 22.9563 4.89944 22.9084C5.62234 22.5574 6.38683 22.2031 7.20567 21.8584ZM1.51848 16.1457C0.792387 16.1457 0.207031 16.7329 0.207031 17.4542C0.207031 18.1754 0.795585 18.7627 1.51848 18.7627C2.24137 18.7627 2.82992 18.1754 2.82992 17.4542C2.82992 16.7329 2.24457 16.1457 1.51848 16.1457ZM3.43767 12.6701C3.79272 12.8137 4.17976 12.734 4.45164 12.4978L4.44845 12.501C4.45164 12.4978 4.45483 12.4946 4.45483 12.4914C4.48362 12.4659 4.51241 12.4371 4.538 12.4052C4.60196 12.3605 4.68194 12.3414 4.76192 12.3574C5.52318 12.6159 6.31324 12.9063 7.1353 13.2414C8.00214 13.5957 8.80818 13.9627 9.56306 14.3265C9.60465 14.3552 9.63025 14.4031 9.63025 14.451C9.65584 14.6552 9.78379 14.8371 9.98849 14.9201C10.2892 15.0414 10.6314 14.8978 10.753 14.601C10.8745 14.301 10.7306 13.9595 10.4331 13.8382C10.2284 13.7552 10.0077 13.7967 9.84775 13.9244L9.85094 13.9212C9.80616 13.9722 9.72621 13.9818 9.65903 13.9467H9.66222C8.88175 13.6818 8.06929 13.385 7.22166 13.0403C6.40601 12.7052 5.64471 12.3605 4.92503 12.0159C4.84828 11.968 4.80028 11.8946 4.78748 11.8116C4.7907 11.7765 4.7907 11.7414 4.78748 11.7063C4.78748 11.6999 4.78751 11.6935 4.7907 11.6871L4.78748 11.6935C4.76192 11.3361 4.54119 11.0074 4.18614 10.8605C3.68715 10.6563 3.1146 10.8957 2.90989 11.3935C2.69878 11.8946 2.93868 12.4659 3.43767 12.6701ZM17.5981 2.72225C18.3241 2.72225 18.9095 2.13501 18.9095 1.41374C18.9095 0.69246 18.321 0.105225 17.5981 0.105225C16.872 0.105225 16.2866 0.69246 16.2866 1.41374C16.2866 2.13501 16.872 2.72225 17.5981 2.72225ZM30.2743 12.0191C29.5546 12.3637 28.7933 12.7084 27.9777 13.0435C27.13 13.3882 26.3176 13.685 25.5371 13.9499H25.5403C25.4731 13.985 25.3964 13.9754 25.3484 13.9244L25.3516 13.9276C25.1917 13.7999 24.9677 13.7584 24.7662 13.8414C24.4656 13.9627 24.3216 14.3074 24.4464 14.6042C24.5711 14.901 24.9134 15.0478 25.2108 14.9233C25.4155 14.8403 25.5435 14.6552 25.5691 14.4542C25.5659 14.4031 25.5915 14.3584 25.6363 14.3297C26.3943 13.9627 27.2004 13.5988 28.064 13.2446C28.8861 12.9095 29.6761 12.6191 30.4374 12.3605C30.5174 12.3478 30.5973 12.3637 30.6613 12.4084C30.6869 12.4371 30.7157 12.4659 30.7445 12.4946C30.7477 12.4978 30.7509 12.501 30.7509 12.5042L30.7477 12.501C31.0164 12.7371 31.4066 12.8201 31.7617 12.6733C32.2608 12.4691 32.5005 11.901 32.2959 11.3999C32.091 10.902 31.5218 10.6627 31.0196 10.8669C30.6645 11.0105 30.447 11.3425 30.4182 11.6999L30.415 11.6935C30.4182 11.6999 30.415 11.7063 30.4182 11.7127C30.415 11.7478 30.415 11.7829 30.4182 11.818C30.3991 11.8978 30.3511 11.9744 30.2743 12.0191ZM24.3184 17.6233C24.6191 17.601 24.9262 17.5882 25.2428 17.5882C25.729 17.5882 26.1864 17.6233 26.6311 17.668C26.759 17.6967 26.8582 17.7925 26.8773 17.9233V17.9169C27.0852 18.7531 27.8369 19.3754 28.7421 19.3754C29.8073 19.3754 30.6677 18.5137 30.6677 17.4542C30.6677 16.3946 29.8041 15.5329 28.7421 15.5329C27.8401 15.5329 27.0885 16.1552 26.8773 16.9914V16.9818C26.8582 17.1159 26.7558 17.2148 26.6246 17.2403C26.1832 17.285 25.7258 17.3201 25.2428 17.3201C24.9262 17.3201 24.6191 17.3074 24.3216 17.285C24.1809 17.2627 24.0753 17.1605 24.0529 17.0201V17.0361C23.8866 16.6244 23.4868 16.3308 23.0134 16.3308C22.3929 16.3308 21.8874 16.8318 21.8874 17.4542C21.8874 18.0733 22.3896 18.5776 23.0134 18.5776C23.4868 18.5776 23.8866 18.284 24.0529 17.8722V17.8882C24.0721 17.7478 24.1777 17.6457 24.3184 17.6233ZM29.8936 7.03714C30.4054 6.5265 30.4054 5.69672 29.8936 5.18608C29.3819 4.67544 28.5502 4.67544 28.0384 5.18608C27.5266 5.69672 27.5266 6.5265 28.0384 7.03714C28.5502 7.54778 29.3819 7.54778 29.8936 7.03714ZM23.829 10.5797L23.8226 10.5733C23.9058 10.6818 23.9026 10.8254 23.8258 10.934C23.5475 11.2786 23.2469 11.6233 22.9046 11.9648C22.6807 12.1882 22.4536 12.3957 22.2265 12.5903C22.1146 12.6733 21.961 12.6765 21.8491 12.5903L21.8619 12.6031C21.4524 12.4276 20.9598 12.5042 20.6272 12.8393C20.189 13.2765 20.189 13.9882 20.6272 14.4254C21.0654 14.8627 21.7787 14.8627 22.2169 14.4254C22.5528 14.0903 22.6263 13.602 22.4536 13.1935L22.4664 13.2063C22.3832 13.0946 22.3832 12.9446 22.4664 12.8297C22.6615 12.6031 22.8694 12.3765 23.0933 12.1531C23.4356 11.8116 23.7842 11.5116 24.1329 11.2308C24.2448 11.1605 24.3824 11.1574 24.4879 11.2371L24.4816 11.2308C25.2204 11.6744 26.196 11.585 26.8326 10.9467C27.5843 10.1967 27.5843 8.98076 26.8326 8.22757C26.0809 7.47757 24.8622 7.47757 24.1073 8.22757C23.4772 8.87225 23.3844 9.84246 23.829 10.5797ZM5.29927 27.8712C4.78748 28.3818 4.78748 29.2116 5.29927 29.7222C5.81105 30.2329 6.64269 30.2329 7.15448 29.7222C7.66627 29.2116 7.66627 28.3818 7.15448 27.8712C6.64269 27.3605 5.81105 27.3605 5.29927 27.8712ZM23.378 30.2552L23.3844 30.252C23.378 30.2552 23.3716 30.252 23.3652 30.2552C23.33 30.252 23.2949 30.252 23.2597 30.2552C23.1765 30.2393 23.1029 30.1914 23.055 30.118C22.7095 29.3999 22.364 28.6403 22.0282 27.8265C21.6827 26.9808 21.3853 26.1701 21.1198 25.3914V25.3946C21.0846 25.3276 21.0942 25.251 21.1454 25.2031L21.1422 25.2063C21.2701 25.0467 21.3117 24.8233 21.2285 24.6222C21.107 24.3223 20.7615 24.1786 20.464 24.3031C20.1634 24.4244 20.0194 24.7691 20.1442 25.0659C20.2274 25.2701 20.4129 25.3978 20.6144 25.4233C20.6656 25.4201 20.7104 25.4457 20.7391 25.4903C21.107 26.2467 21.4716 27.051 21.8267 27.9127C22.1625 28.7329 22.4536 29.5212 22.7127 30.2808C22.7255 30.3605 22.7095 30.4403 22.6647 30.5042C22.6359 30.5297 22.6072 30.5584 22.5783 30.5871C22.5751 30.5903 22.572 30.5935 22.5688 30.5935L22.572 30.5903C22.3353 30.8584 22.2553 31.2478 22.3992 31.602C22.6039 32.0999 23.1733 32.3393 23.6755 32.135C24.1745 31.9308 24.4144 31.3627 24.2097 30.8616C24.0689 30.501 23.7363 30.2808 23.378 30.2552ZM24.4879 23.6744L24.4944 23.668C24.3856 23.751 24.2416 23.7478 24.1329 23.6712C23.7874 23.3935 23.442 23.0935 23.0997 22.752C22.8758 22.5286 22.6679 22.302 22.4728 22.0754C22.3896 21.9637 22.3864 21.8105 22.4728 21.6988L22.46 21.7116C22.6359 21.3031 22.5592 20.8116 22.2233 20.4797C21.7851 20.0425 21.0718 20.0425 20.6336 20.4797C20.1954 20.9169 20.1954 21.6286 20.6336 22.0659C20.9694 22.401 21.4588 22.4744 21.8683 22.302L21.8555 22.3148C21.9674 22.2318 22.1177 22.2318 22.2329 22.3148C22.46 22.5095 22.6871 22.7169 22.911 22.9403C23.2533 23.2818 23.5539 23.6297 23.8354 23.9776C23.9058 24.0893 23.909 24.2265 23.829 24.3318L23.8354 24.3254C23.3908 25.0627 23.4804 26.0361 24.1201 26.6712C24.8718 27.4212 26.0905 27.4212 26.8454 26.6712C27.597 25.9212 27.597 24.7052 26.8454 23.952C26.1992 23.3201 25.2268 23.2308 24.4879 23.6744ZM28.0384 27.8712C27.5266 28.3818 27.5266 29.2116 28.0384 29.7222C28.5502 30.2329 29.3819 30.2329 29.8936 29.7222C30.4054 29.2116 30.4054 28.3818 29.8936 27.8712C29.3819 27.3605 28.5502 27.3605 28.0384 27.8712ZM20.4065 10.6148C20.7039 10.7393 21.0494 10.5988 21.1741 10.302C21.2605 10.101 21.2189 9.87757 21.0942 9.71799C21.0558 9.68289 21.043 9.63502 21.0526 9.58395C21.3277 8.79246 21.638 7.96268 21.9994 7.10417C22.3417 6.28714 22.6967 5.52438 23.0518 4.80629C23.0997 4.73927 23.1669 4.69778 23.2437 4.68182C23.2853 4.68502 23.3236 4.68502 23.362 4.68182C23.3652 4.68182 23.3684 4.68182 23.3748 4.68182L23.3716 4.67863C23.7299 4.65629 24.0625 4.43927 24.2097 4.08502C24.4176 3.58714 24.1841 3.01586 23.6851 2.80842C23.1861 2.60097 22.6135 2.83395 22.4056 3.33182C22.2585 3.68608 22.3352 4.07225 22.5688 4.34353L22.5624 4.34034C22.5688 4.34353 22.572 4.34991 22.5783 4.3531C22.6007 4.37863 22.6263 4.40416 22.6551 4.4297C22.7031 4.49991 22.7223 4.58608 22.7031 4.67225C22.4376 5.42225 22.1433 6.20416 21.8043 7.01799C21.4493 7.86055 21.0846 8.64246 20.7199 9.38289V9.3797C20.6976 9.4531 20.6336 9.50097 20.5664 9.49778H20.5696C20.3649 9.52012 20.1794 9.64778 20.093 9.85204C19.9683 10.1457 20.109 10.4903 20.4065 10.6148ZM33.6746 16.1457C32.9482 16.1457 32.3629 16.7329 32.3629 17.4542C32.3629 18.1754 32.9514 18.7627 33.6746 18.7627C34.3975 18.7627 34.986 18.1754 34.986 17.4542C34.986 16.7329 34.4007 16.1457 33.6746 16.1457ZM31.7617 22.2637C31.4098 22.1169 31.0196 22.1935 30.7477 22.4265L30.7509 22.4201C30.7477 22.4265 30.7413 22.4297 30.7381 22.4361C30.7125 22.4584 30.6869 22.484 30.6613 22.5127C30.591 22.5605 30.5046 22.5797 30.4182 22.5605C29.6665 22.2957 28.8829 22.002 28.0672 21.6637C27.2228 21.3095 26.4391 20.9457 25.697 20.5818H25.7002C25.6267 20.5595 25.5787 20.4957 25.5819 20.4286V20.4318C25.5595 20.2276 25.4315 20.0425 25.2268 19.9563C24.9293 19.8318 24.5839 19.9722 24.4591 20.2691C24.3344 20.5659 24.4752 20.9105 24.7726 21.035C24.9742 21.1212 25.198 21.0797 25.358 20.9552C25.3932 20.9169 25.4411 20.9042 25.4923 20.9137C26.2856 21.1882 27.1172 21.4978 27.9777 21.8584C28.7965 22.1999 29.561 22.5542 30.2807 22.9084C30.3479 22.9563 30.3894 23.0233 30.4054 23.0999C30.4022 23.1414 30.4022 23.1797 30.4054 23.218C30.4054 23.2212 30.4054 23.2244 30.4054 23.2308L30.4086 23.2276C30.431 23.585 30.6485 23.9169 31.0036 24.0637C31.5026 24.2712 32.075 24.0382 32.2831 23.5403C32.4941 23.0457 32.2608 22.4744 31.7617 22.2637ZM18.0619 26.7127H18.0683C17.9371 26.6935 17.8411 26.5946 17.8124 26.4669C17.7644 26.0233 17.7324 25.5669 17.7324 25.0818C17.7324 24.7659 17.7452 24.4595 17.7676 24.1595C17.79 24.0222 17.8923 23.9137 18.0331 23.8946H18.0171C18.4297 23.7286 18.724 23.3297 18.724 22.8574C18.724 22.2382 18.2218 21.734 17.5981 21.734C16.9775 21.734 16.4721 22.235 16.4721 22.8574C16.4721 23.3297 16.7664 23.7286 17.179 23.8946H17.1631C17.3038 23.9137 17.4093 24.0222 17.4285 24.1627C17.4509 24.4595 17.4637 24.7659 17.4637 25.0818C17.4637 25.5637 17.4286 26.0201 17.3837 26.4605C17.3582 26.5914 17.259 26.6935 17.1247 26.7127H17.1343C16.2962 26.9201 15.6725 27.6701 15.6725 28.5733C15.6725 29.6361 16.5361 30.4946 17.5981 30.4946C18.66 30.4946 19.5236 29.6329 19.5236 28.5733C19.5236 27.6733 18.8999 26.9233 18.0619 26.7127ZM14.7289 24.2935C14.4282 24.1723 14.0859 24.3159 13.9644 24.6127C13.8812 24.8169 13.9228 25.0371 14.0508 25.1967L14.0476 25.1935C14.0987 25.2382 14.1084 25.318 14.0731 25.385V25.3818C13.8077 26.1605 13.5102 26.9712 13.1648 27.8169C12.8289 28.6308 12.4834 29.3903 12.138 30.1084C12.09 30.185 12.0164 30.2329 11.9333 30.2457C11.8981 30.2425 11.8629 30.2425 11.8277 30.2457C11.8213 30.2457 11.8149 30.2457 11.8085 30.2425L11.8149 30.2457C11.4567 30.2712 11.1272 30.4914 10.9801 30.8457C10.7754 31.3435 11.0153 31.9148 11.5142 32.1191C12.0132 32.3233 12.5858 32.084 12.7905 31.5861C12.9344 31.2318 12.8545 30.8457 12.6178 30.5744L12.621 30.5776C12.6178 30.5744 12.6146 30.5712 12.6114 30.5712C12.5858 30.5425 12.557 30.5137 12.525 30.4882C12.4802 30.4244 12.461 30.3446 12.4771 30.2648C12.7361 29.5052 13.0272 28.7169 13.3631 27.8967C13.7181 27.0318 14.0859 26.2276 14.4506 25.4744C14.4794 25.4329 14.5274 25.4074 14.5754 25.4074C14.7801 25.3818 14.9624 25.2542 15.0456 25.0499C15.1735 24.7563 15.0295 24.4148 14.7289 24.2935ZM14.6233 9.49459C14.5593 9.49778 14.4954 9.44991 14.473 9.3765V9.3797C14.1084 8.64246 13.7437 7.85736 13.3886 7.0148C13.0464 6.20416 12.7521 5.42225 12.4898 4.66906C12.4674 4.58289 12.4866 4.49672 12.5378 4.42651C12.5634 4.40097 12.589 4.37863 12.6146 4.34991C12.621 4.34672 12.6242 4.34034 12.6306 4.33714L12.6242 4.34034C12.8577 4.06906 12.9376 3.6797 12.7873 3.32863C12.5794 2.83076 12.0069 2.59779 11.5079 2.80523C11.0089 3.01268 10.7754 3.58395 10.9833 4.08182C11.1304 4.43608 11.4631 4.64991 11.8213 4.67544L11.8181 4.67863C11.8213 4.67863 11.8245 4.67863 11.8309 4.67863C11.8693 4.68182 11.9109 4.67863 11.9492 4.67863C12.026 4.6914 12.0932 4.73608 12.1412 4.8031C12.4962 5.52119 12.8481 6.28395 13.1935 7.10097C13.555 7.96268 13.8653 8.78927 14.1403 9.58076C14.1499 9.63182 14.1339 9.68289 14.0987 9.7148C13.974 9.87757 13.9324 10.0978 14.0188 10.2988C14.1435 10.5957 14.489 10.7393 14.7864 10.6116C15.0839 10.4871 15.2279 10.1425 15.0999 9.84565C15.0167 9.64459 14.828 9.51693 14.6233 9.49459ZM17.5981 4.41374C16.5329 4.41374 15.6725 5.27544 15.6725 6.33502C15.6725 7.23502 16.2962 7.98502 17.1343 8.19565H17.1247C17.259 8.2148 17.3582 8.31693 17.3837 8.44778C17.4286 8.88821 17.4637 9.34459 17.4637 9.82651C17.4637 10.1425 17.4509 10.4488 17.4285 10.7457C17.4061 10.8861 17.3038 10.9914 17.1631 11.0137H17.179C16.7664 11.1797 16.4721 11.5786 16.4721 12.051C16.4721 12.6701 16.9743 13.1744 17.5981 13.1744C18.2186 13.1744 18.724 12.6733 18.724 12.051C18.724 11.5786 18.4297 11.1797 18.0171 11.0137H18.0331C17.8923 10.9946 17.79 10.8861 17.7676 10.7488C17.7452 10.4488 17.7324 10.1425 17.7324 9.82651C17.7324 9.3414 17.7676 8.88502 17.8124 8.4414C17.8411 8.31374 17.9371 8.21161 18.0683 8.19565H18.0619C18.8999 7.98821 19.5236 7.23821 19.5236 6.33502C19.5236 5.27544 18.66 4.41374 17.5981 4.41374ZM11.3639 24.3286L11.3703 24.335C11.2903 24.2297 11.2935 24.0893 11.3639 23.9808C11.6454 23.6361 11.9461 23.2882 12.2883 22.9435C12.5122 22.7201 12.7393 22.5127 12.9664 22.318C13.0784 22.235 13.2287 22.2318 13.3439 22.318L13.3311 22.3052C13.7405 22.4808 14.2331 22.4042 14.5658 22.0691C15.004 21.6318 15.004 20.9201 14.5658 20.4829C14.1275 20.0457 13.4142 20.0457 12.976 20.4829C12.6402 20.818 12.5666 21.3063 12.7393 21.7148L12.7265 21.702C12.8129 21.8137 12.8097 21.9637 12.7265 22.0786C12.5314 22.3052 12.3235 22.5318 12.0996 22.7552C11.7573 23.0967 11.4119 23.3935 11.0664 23.6744C10.9545 23.7478 10.8137 23.751 10.705 23.6712L10.7114 23.6776C9.9725 23.234 8.99693 23.3233 8.36038 23.9616C7.60869 24.7116 7.60869 25.9276 8.36038 26.6808C9.11207 27.4308 10.3307 27.4308 11.0856 26.6808C11.7189 26.0393 11.8085 25.0691 11.3639 24.3286ZM17.5981 32.1861C16.872 32.1861 16.2866 32.7733 16.2866 33.4946C16.2866 34.2159 16.8752 34.8031 17.5981 34.8031C18.3241 34.8031 18.9095 34.2159 18.9095 33.4946C18.9095 32.7733 18.321 32.1861 17.5981 32.1861Z" fill="url(#paint0_linear_816_16932)"/>
<path d="M8.29382 13.6084C8.48257 13.152 8.26504 12.6318 7.81086 12.4403C7.35345 12.252 6.83206 12.4691 6.64015 12.9222C6.45141 13.3786 6.66891 13.8988 7.12312 14.0903C7.58053 14.2818 8.10511 14.0648 8.29382 13.6084ZM11.9627 19.9435C12.2314 19.7999 12.5097 19.6563 12.8167 19.5318C13.015 19.4488 13.2133 19.3786 13.4085 19.3148C13.5012 19.2925 13.5972 19.3308 13.6452 19.4137L13.642 19.4042C13.8563 19.6212 14.1857 19.701 14.4832 19.5765C14.8735 19.4137 15.0622 18.9669 14.899 18.5776C14.7359 18.1882 14.2881 17.9999 13.8979 18.1627C13.6004 18.2871 13.4245 18.5744 13.4277 18.8776L13.4245 18.868C13.4469 18.9605 13.4085 19.0563 13.3253 19.1042C13.143 19.1967 12.9543 19.2829 12.7527 19.3659C12.4489 19.4903 12.1514 19.5893 11.8603 19.6754C11.7708 19.6946 11.6812 19.6595 11.6332 19.5797L11.6364 19.5861C11.2878 19.1137 10.6512 18.9159 10.0819 19.152C9.41014 19.4297 9.09348 20.1956 9.37178 20.8659C9.65005 21.5361 10.4177 21.852 11.0894 21.5744C11.6588 21.3382 11.9691 20.751 11.8827 20.1701L11.8859 20.1765C11.8507 20.0808 11.8891 19.9946 11.9627 19.9435ZM11.63 15.3286L11.6268 15.335C11.6748 15.2552 11.7612 15.2233 11.8507 15.2393C12.1418 15.3254 12.4393 15.4244 12.7464 15.5488C12.9447 15.6318 13.1366 15.7212 13.3189 15.8105C13.4021 15.8616 13.4405 15.9542 13.4181 16.0467L13.4213 16.0371C13.418 16.3403 13.594 16.6308 13.8915 16.752C14.2817 16.9148 14.7327 16.7297 14.8926 16.3371C15.0558 15.9478 14.8702 15.4978 14.4768 15.3382C14.1793 15.2137 13.8499 15.2935 13.6356 15.5105L13.6388 15.501C13.5908 15.5839 13.4948 15.6222 13.4021 15.5999C13.207 15.5361 13.0118 15.4627 12.8103 15.3829C12.5065 15.2584 12.2282 15.118 11.9595 14.9712C11.8827 14.9201 11.8443 14.8308 11.8667 14.7414L11.8635 14.7478C11.9499 14.1669 11.6396 13.5797 11.0703 13.3435C10.3985 13.0659 9.63087 13.385 9.35257 14.052C9.0743 14.7222 9.39415 15.4882 10.0627 15.7659C10.6416 15.9988 11.2782 15.801 11.63 15.3286ZM12.2026 22.9371C12.6504 22.4839 13.095 22.0754 13.5204 21.6925C13.5492 21.6733 13.5876 21.6701 13.6164 21.6829C13.7507 21.7212 13.901 21.6861 14.0066 21.5808C14.1634 21.4244 14.1602 21.1722 14.0034 21.0159C13.8467 20.8595 13.594 20.8627 13.4373 21.0191C13.3317 21.1244 13.2997 21.2744 13.3381 21.4116V21.4084C13.3573 21.4499 13.3445 21.501 13.3029 21.5361C12.9319 21.9573 12.532 22.3914 12.0938 22.835C11.6716 23.2627 11.2526 23.6488 10.8496 24.0127C10.8016 24.0478 10.7408 24.0605 10.6832 24.0478C10.6608 24.0382 10.6385 24.0286 10.616 24.0191C10.6129 24.0159 10.6064 24.0159 10.6032 24.0127L10.6064 24.0159C10.373 23.9393 10.1075 23.9903 9.92515 24.1754C9.66607 24.4371 9.66926 24.8584 9.92834 25.1169C10.1906 25.3754 10.6129 25.3754 10.8719 25.1137C11.0575 24.9286 11.1055 24.6637 11.0287 24.4308L11.0319 24.4339C11.0287 24.4308 11.0287 24.4308 11.0287 24.4276C11.0191 24.402 11.0095 24.3765 10.9967 24.3542C10.9839 24.3031 10.9935 24.2488 11.0255 24.201C11.3869 23.7861 11.7771 23.3648 12.2026 22.9371ZM7.12312 20.818C6.66572 21.0063 6.44822 21.5297 6.64015 21.9861C6.82887 22.4425 7.35345 22.6595 7.81086 22.468C8.26826 22.2797 8.48576 21.7563 8.29382 21.2999C8.10511 20.8435 7.58053 20.6265 7.12312 20.818ZM7.42379 18.1276C7.6861 18.1276 7.90998 17.9744 8.01556 17.7542V17.7573C8.01556 17.7542 8.01875 17.751 8.01875 17.751C8.03155 17.7254 8.04115 17.7031 8.05073 17.6744C8.07952 17.6297 8.12432 17.5978 8.17868 17.585C8.72566 17.5499 9.29822 17.5276 9.90594 17.5244C10.5425 17.5212 11.147 17.5435 11.7196 17.5754C11.7548 17.5818 11.7836 17.6042 11.7932 17.6361C11.8635 17.7573 11.9915 17.8403 12.1418 17.8403C12.3625 17.8403 12.5416 17.6584 12.5416 17.4382C12.5416 17.218 12.3593 17.0393 12.1386 17.0393C11.9883 17.0393 11.8603 17.1254 11.7899 17.2467V17.2435C11.774 17.2882 11.7292 17.3137 11.6748 17.3105C11.115 17.3456 10.5233 17.3712 9.89956 17.3744C9.29822 17.3776 8.72886 17.3584 8.18509 17.3297C8.12429 17.3201 8.07632 17.285 8.04435 17.2371C8.03474 17.2148 8.02836 17.1925 8.01556 17.1701C8.01556 17.1669 8.01237 17.1605 8.01237 17.1573V17.1637C7.9036 16.9467 7.67649 16.7935 7.41741 16.7967C7.04956 16.7967 6.75208 17.0967 6.75208 17.4637C6.75527 17.8308 7.05597 18.1276 7.42379 18.1276ZM13.7443 8.17011C14.2017 7.98182 14.4192 7.45841 14.2273 7.00203C14.0386 6.54565 13.514 6.32862 13.0566 6.52011C12.5992 6.70841 12.3817 7.23182 12.5736 7.6882C12.7624 8.14458 13.2869 8.3616 13.7443 8.17011ZM24.1623 10.7297C23.7977 11.135 23.4106 11.5499 22.982 11.9712C22.5406 12.4084 22.1024 12.8073 21.6802 13.1776C21.645 13.2159 21.5938 13.2318 21.5522 13.2127H21.5554C21.4211 13.1744 21.2707 13.2063 21.162 13.3116C21.0052 13.468 21.0052 13.7201 21.1588 13.8765C21.3123 14.0329 21.5682 14.0329 21.7249 13.8797C21.8305 13.7744 21.8657 13.6244 21.8273 13.4903C21.8145 13.4584 21.8177 13.4233 21.8369 13.3946C22.2175 12.9669 22.6302 12.5265 23.0844 12.0797C23.513 11.6552 23.9384 11.2659 24.3478 10.9052C24.3958 10.8765 24.4502 10.8669 24.5014 10.8765C24.5269 10.8893 24.5494 10.8988 24.5749 10.9084C24.5781 10.9084 24.5781 10.9116 24.5813 10.9116L24.5781 10.9084C24.8084 10.9882 25.0771 10.9371 25.2627 10.752C25.5249 10.4935 25.5249 10.0722 25.2658 9.81054C25.0068 9.54884 24.5845 9.54884 24.3222 9.80735C24.1367 9.99245 24.0855 10.2573 24.1623 10.4871L24.1591 10.4839C24.1623 10.4871 24.1623 10.4935 24.1655 10.4967C24.1719 10.519 24.1815 10.5414 24.1943 10.5637C24.2103 10.6212 24.2007 10.6786 24.1623 10.7297ZM21.8753 15.8105C22.0576 15.718 22.2495 15.6318 22.4478 15.5488C22.7549 15.4212 23.0524 15.3254 23.3434 15.2393C23.433 15.2233 23.5194 15.2584 23.5674 15.335L23.5642 15.3286C23.9128 15.801 24.5525 15.9988 25.1187 15.7627C25.7904 15.485 26.1071 14.7191 25.8288 14.0488C25.5505 13.3786 24.7828 13.0627 24.1111 13.3403C23.5418 13.5765 23.2315 14.1637 23.3179 14.7446L23.3147 14.7382C23.3371 14.8276 23.2987 14.9169 23.2219 14.968C22.9564 15.1116 22.6782 15.252 22.3711 15.3797C22.1727 15.4627 21.9744 15.5329 21.7793 15.5967C21.6866 15.6191 21.5906 15.5808 21.5426 15.4978L21.5458 15.5073C21.3315 15.2903 21.002 15.2105 20.7046 15.335C20.3143 15.4978 20.1256 15.9446 20.2887 16.3339C20.4519 16.7233 20.8997 16.9116 21.2899 16.7488C21.5874 16.6244 21.7633 16.3371 21.7601 16.0339L21.7633 16.0435C21.7537 15.9542 21.7953 15.8616 21.8753 15.8105ZM22.6206 7.6882C22.8093 7.23182 22.5918 6.7116 22.1376 6.52011C21.6802 6.33182 21.1588 6.54884 20.9669 7.00203C20.7781 7.45841 20.9957 7.97862 21.4499 8.17011C21.9073 8.35841 22.4318 8.14458 22.6206 7.6882ZM19.7258 11.4988L19.7194 11.4956C19.7994 11.5435 19.8345 11.6329 19.8154 11.7222C19.729 12.0127 19.6298 12.3095 19.5051 12.6127C19.4219 12.8105 19.3355 13.002 19.2428 13.1839C19.1948 13.2669 19.0989 13.3052 19.0061 13.2829L19.0157 13.2861C18.7118 13.2829 18.4207 13.4584 18.2992 13.7552C18.1361 14.1446 18.3216 14.5946 18.715 14.7542C19.1052 14.9169 19.5563 14.7318 19.7162 14.3393C19.841 14.0425 19.761 13.7137 19.5435 13.4999L19.5531 13.5031C19.4699 13.4552 19.4315 13.3595 19.4539 13.2669C19.5179 13.0722 19.5914 12.8776 19.6714 12.6765C19.7994 12.3701 19.9401 12.0925 20.084 11.8244C20.1352 11.751 20.2216 11.7127 20.3112 11.735L20.3047 11.7318C20.8869 11.818 21.4754 11.5084 21.7122 10.9403C21.9904 10.2701 21.6706 9.50416 21.002 9.2265C20.3303 8.94884 19.5627 9.26799 19.2844 9.93501C19.0573 10.5159 19.2524 11.151 19.7258 11.4988ZM12.5736 27.2201C12.3849 27.6765 12.6024 28.1967 13.0566 28.3882C13.514 28.5765 14.0354 28.3595 14.2273 27.9063C14.4161 27.4499 14.1985 26.9297 13.7443 26.7382C13.2869 26.5499 12.7624 26.7669 12.5736 27.2201ZM24.5877 24.0127L24.5909 24.0095C24.5877 24.0127 24.5813 24.0127 24.5781 24.0159C24.5557 24.0222 24.5334 24.0318 24.511 24.0446C24.4534 24.0573 24.3958 24.0478 24.3446 24.0095C23.9384 23.6456 23.5226 23.2595 23.1004 22.8318C22.6622 22.3914 22.2623 21.9542 21.8913 21.5329C21.8529 21.4978 21.8369 21.4467 21.8561 21.4052V21.4084C21.8945 21.2744 21.8625 21.1244 21.7569 21.0159C21.6002 20.8595 21.3475 20.8595 21.1908 21.0127C21.034 21.1659 21.034 21.4212 21.1876 21.5776C21.2931 21.6829 21.4435 21.718 21.5778 21.6797C21.6098 21.6669 21.645 21.6701 21.6738 21.6893C22.1024 22.069 22.5438 22.4808 22.9916 22.9339C23.417 23.3616 23.8073 23.7861 24.1687 24.1946C24.1975 24.2425 24.2071 24.2967 24.1975 24.3478C24.1847 24.3733 24.1751 24.3956 24.1655 24.4212C24.1655 24.4244 24.1623 24.4244 24.1623 24.4276L24.1655 24.4244C24.0855 24.6542 24.1367 24.9222 24.3222 25.1073C24.5813 25.3691 25.0036 25.3691 25.2658 25.1105C25.5281 24.852 25.5281 24.4308 25.269 24.1691C25.0867 23.9903 24.8212 23.9361 24.5877 24.0127ZM23.5674 19.5797L23.5706 19.5733C23.5226 19.6531 23.433 19.6882 23.3434 19.6691C23.0524 19.5829 22.7549 19.4839 22.451 19.3595C22.2527 19.2765 22.0608 19.1903 21.8785 19.0978C21.7953 19.0499 21.7569 18.9542 21.7793 18.8616L21.7761 18.8712C21.7793 18.568 21.6034 18.2776 21.3059 18.1563C20.9157 17.9935 20.4647 18.1786 20.3047 18.5712C20.1416 18.9605 20.3271 19.4105 20.7206 19.5701C21.018 19.6946 21.3475 19.6148 21.5618 19.3978L21.5586 19.4073C21.6066 19.3244 21.7025 19.2861 21.7953 19.3084C21.9904 19.3722 22.1855 19.4456 22.3871 19.5254C22.6941 19.6531 22.9724 19.7935 23.2411 19.9371C23.3147 19.9882 23.3531 20.0744 23.3307 20.1637L23.3339 20.1573C23.2475 20.7382 23.5578 21.3254 24.1271 21.5616C24.7988 21.8393 25.5665 21.5201 25.8448 20.8531C26.1231 20.1829 25.8032 19.4169 25.1347 19.1393C24.5525 18.9095 23.916 19.1073 23.5674 19.5797ZM26.9004 21.2999C26.7116 21.7563 26.9291 22.2765 27.3833 22.468C27.8407 22.6563 28.3621 22.4393 28.554 21.9861C28.7428 21.5297 28.5253 21.0095 28.0711 20.818C27.6137 20.6265 27.0923 20.8435 26.9004 21.2999ZM17.5795 12.4116C17.8002 12.4116 17.9793 12.2329 17.9825 12.0127C17.9825 11.8627 17.8994 11.735 17.7778 11.6648C17.7458 11.652 17.7234 11.6265 17.717 11.5914C17.6851 11.0201 17.6627 10.4169 17.6659 9.78182C17.6691 9.17862 17.6915 8.60416 17.7267 8.05841C17.7395 8.00416 17.7714 7.95948 17.8162 7.93075C17.8418 7.92118 17.8674 7.9116 17.893 7.89884C17.8962 7.89884 17.8962 7.89565 17.8994 7.89565H17.8962C18.1169 7.78713 18.2672 7.56373 18.2704 7.30522C18.2704 6.9382 17.9761 6.6382 17.6051 6.6382C17.2372 6.6382 16.9366 6.93182 16.9366 7.30203C16.9366 7.56373 17.0869 7.78713 17.3044 7.89565H17.298C17.3012 7.89565 17.3076 7.89884 17.3108 7.89884C17.3332 7.90841 17.3556 7.91799 17.378 7.92756C17.426 7.95948 17.4612 8.00735 17.4708 8.06799C17.4995 8.61054 17.5187 9.17862 17.5155 9.77862C17.5123 10.401 17.4867 10.9914 17.4515 11.5499C17.4547 11.601 17.4292 11.6488 17.3844 11.6648H17.3876C17.266 11.7318 17.1797 11.8627 17.1797 12.0127C17.1797 12.2329 17.3588 12.4116 17.5795 12.4116ZM27.3866 12.4435C26.9292 12.6318 26.7116 13.1552 26.9036 13.6116C27.0923 14.068 27.6169 14.285 28.0743 14.0935C28.5317 13.9052 28.7492 13.3818 28.5573 12.9254C28.3653 12.469 27.844 12.2552 27.3866 12.4435ZM27.7832 16.7967C27.5209 16.7967 27.297 16.9467 27.1882 17.1637V17.1573C27.1882 17.1605 27.185 17.1669 27.185 17.1701C27.1754 17.1925 27.1658 17.2148 27.1562 17.2371C27.1242 17.285 27.0763 17.3201 27.0155 17.3297C26.4717 17.3584 25.9024 17.3776 25.301 17.3744C24.6773 17.3712 24.0855 17.3456 23.5258 17.3105C23.4746 17.3137 23.4266 17.2882 23.4106 17.2435V17.2467C23.3434 17.1254 23.2123 17.0393 23.062 17.0393C22.8413 17.0393 22.6621 17.218 22.6589 17.4382C22.6589 17.6584 22.8381 17.8371 23.0588 17.8403C23.2091 17.8403 23.3371 17.7573 23.4074 17.6361C23.4202 17.6042 23.4458 17.5818 23.481 17.5754C24.0536 17.5435 24.6581 17.5212 25.2946 17.5244C25.8992 17.5276 26.4749 17.5499 27.0219 17.585C27.0763 17.5978 27.1211 17.6297 27.1498 17.6744C27.1594 17.6999 27.1691 17.7254 27.1818 17.751C27.1818 17.7542 27.185 17.7542 27.185 17.7573V17.7542C27.2938 17.9744 27.5177 18.1244 27.7768 18.1276C28.1446 18.1276 28.4453 17.8339 28.4453 17.4637C28.4485 17.0967 28.151 16.7967 27.7832 16.7967ZM20.3112 23.1669L20.3175 23.1637C20.228 23.1861 20.1416 23.1478 20.0904 23.0744C19.9465 22.8063 19.8026 22.5286 19.6778 22.2222C19.5946 22.0244 19.5243 21.8265 19.4603 21.6318C19.4379 21.5393 19.4763 21.4435 19.5595 21.3956L19.5499 21.3988C19.7674 21.185 19.8473 20.8595 19.7226 20.5595C19.5595 20.1701 19.1117 19.9818 18.7214 20.1446C18.3312 20.3073 18.1425 20.7542 18.3056 21.1435C18.4303 21.4403 18.7182 21.6159 19.0221 21.6127L19.0125 21.6159C19.1052 21.5935 19.2012 21.6318 19.2492 21.7148C19.342 21.8967 19.4283 22.085 19.5115 22.2861C19.6362 22.5893 19.7354 22.8861 19.8217 23.1765C19.841 23.2659 19.8057 23.3552 19.7258 23.4031L19.7322 23.3999C19.2588 23.7478 19.0605 24.3829 19.2972 24.951C19.5754 25.6212 20.3431 25.9371 21.0148 25.6595C21.6866 25.3818 22.0032 24.6159 21.7249 23.9456C21.485 23.3903 20.8933 23.0808 20.3112 23.1669ZM17.5795 22.5095C17.3588 22.5095 17.1797 22.6914 17.1797 22.9116C17.1797 23.0616 17.266 23.1893 17.3876 23.2595H17.3844C17.4292 23.2754 17.4547 23.3201 17.4515 23.3744C17.4867 23.9329 17.5123 24.5233 17.5155 25.1456C17.5187 25.7456 17.4995 26.3137 17.4708 26.8563C17.4612 26.9169 17.426 26.9648 17.378 26.9967C17.3556 27.0063 17.3332 27.0127 17.3108 27.0254C17.3076 27.0254 17.3012 27.0286 17.298 27.0286H17.3044C17.0869 27.1371 16.9334 27.3637 16.9366 27.6222C16.9366 27.9893 17.2372 28.2861 17.6051 28.2861C17.9729 28.2861 18.2704 27.9861 18.2704 27.6191C18.2704 27.3573 18.1169 27.1339 17.8962 27.0286H17.8994C17.8962 27.0286 17.893 27.0254 17.893 27.0254C17.8674 27.0127 17.845 27.0031 17.8162 26.9935C17.7714 26.9648 17.7395 26.9201 17.7267 26.8659C17.6915 26.3201 17.6691 25.7488 17.6659 25.1425C17.6627 24.5073 17.6851 23.9042 17.717 23.3329C17.7234 23.2978 17.7458 23.269 17.7778 23.2595C17.8994 23.1893 17.9825 23.0616 17.9825 22.9116C17.9793 22.6882 17.8002 22.5095 17.5795 22.5095ZM13.642 13.2127C13.6004 13.2318 13.5492 13.219 13.5172 13.1776C13.095 12.8073 12.66 12.4084 12.2154 11.9712C11.7867 11.5499 11.3997 11.1318 11.0351 10.7297C10.9999 10.6818 10.9871 10.6212 10.9999 10.5637C11.0095 10.5414 11.0191 10.519 11.0287 10.4967C11.0319 10.4935 11.0319 10.4871 11.0351 10.4839L11.0319 10.4871C11.1087 10.2542 11.0575 9.98926 10.8719 9.80735C10.6097 9.54884 10.1874 9.55203 9.92834 9.81054C9.66926 10.0722 9.66926 10.4935 9.93154 10.752C10.1171 10.9371 10.3826 10.985 10.616 10.9084L10.6129 10.9116C10.616 10.9084 10.616 10.9084 10.6192 10.9084C10.6448 10.8988 10.6704 10.8893 10.6928 10.8765C10.744 10.8637 10.7984 10.8733 10.8463 10.9052C11.259 11.2659 11.6812 11.6552 12.1098 12.0797C12.564 12.5265 12.9734 12.9701 13.3573 13.3946C13.3765 13.4233 13.3797 13.4616 13.3669 13.4903C13.3285 13.6244 13.3637 13.7744 13.4692 13.8797C13.626 14.0361 13.8787 14.0329 14.0354 13.8765C14.1921 13.7201 14.189 13.468 14.0322 13.3116C13.9266 13.2063 13.7763 13.1744 13.642 13.2127ZM14.1857 9.23926C13.514 9.51692 13.1974 10.2829 13.4757 10.9531C13.7123 11.5212 14.3009 11.8308 14.883 11.7446L14.8767 11.7478C14.9662 11.7254 15.0558 11.7637 15.107 11.8403C15.2509 12.1052 15.3916 12.3829 15.5196 12.6893C15.6027 12.8871 15.6731 13.085 15.7371 13.2797C15.7595 13.3722 15.7211 13.468 15.6379 13.5159L15.6475 13.5127C15.43 13.7265 15.35 14.052 15.4748 14.352C15.6379 14.7414 16.0857 14.9297 16.476 14.7669C16.8662 14.6042 17.0549 14.1573 16.8918 13.768C16.767 13.4712 16.4792 13.2956 16.1753 13.2988L16.1849 13.2956C16.0921 13.318 15.9962 13.2797 15.9482 13.1967C15.8554 13.0148 15.7691 12.8233 15.6859 12.6254C15.558 12.3191 15.462 12.0222 15.3756 11.7318C15.3597 11.6425 15.3948 11.5563 15.4716 11.5084L15.4652 11.5116C15.9386 11.1637 16.1369 10.5254 15.9002 9.96054C15.6251 9.27756 14.8574 8.9616 14.1857 9.23926ZM15.4684 23.4095L15.4716 23.4127C15.3916 23.3648 15.3597 23.2786 15.3756 23.1893C15.462 22.8988 15.5612 22.602 15.6859 22.2956C15.7691 22.0978 15.8586 21.9063 15.9482 21.7244C15.9994 21.6414 16.0921 21.6031 16.1849 21.6254L16.1753 21.6222C16.4792 21.6254 16.7702 21.4499 16.8918 21.1531C17.0549 20.7637 16.8694 20.3137 16.476 20.1542C16.0857 19.9914 15.6347 20.1765 15.4748 20.569C15.35 20.8659 15.43 21.1946 15.6475 21.4084L15.6379 21.4052C15.7211 21.4531 15.7595 21.5488 15.7371 21.6414C15.6731 21.8361 15.5995 22.0308 15.5196 22.2318C15.3948 22.535 15.2541 22.8127 15.107 23.0808C15.0558 23.1573 14.9662 23.1956 14.8767 23.1733L14.883 23.1765C14.3009 23.0903 13.7123 23.3999 13.4757 23.968C13.1974 24.6382 13.5172 25.4042 14.1857 25.6818C14.8574 25.9595 15.6251 25.6403 15.9034 24.9733C16.1369 24.3956 15.9418 23.7605 15.4684 23.4095ZM21.4499 26.7382C20.9924 26.9265 20.7749 27.4499 20.9669 27.9063C21.1556 28.3627 21.6802 28.5797 22.1376 28.3882C22.595 28.1999 22.8125 27.6765 22.6206 27.2201C22.4318 26.7669 21.9073 26.5499 21.4499 26.7382Z" fill="url(#paint1_linear_816_16932)"/>
</g>
</g>
<defs>
<linearGradient id="paint0_linear_816_16932" x1="17.5968" y1="34.806" x2="17.5968" y2="0.103022" gradientUnits="userSpaceOnUse">
<stop stop-color="#EA5151"/>
<stop offset="1" stop-color="#AE3189"/>
</linearGradient>
<linearGradient id="paint1_linear_816_16932" x1="22.1538" y1="28.381" x2="13.1102" y2="6.49947" gradientUnits="userSpaceOnUse">
<stop stop-color="#68BEA4"/>
<stop offset="1" stop-color="#6DB4E4"/>
</linearGradient>
<clipPath id="clip0_816_16932">
<rect width="142.979" height="60" fill="white"/>
</clipPath>
</defs>
</svg>
