<svg width="109" height="60" viewBox="0 0 109 60" fill="none" xmlns="http://www.w3.org/2000/svg">
<path fill-rule="evenodd" clip-rule="evenodd" d="M1.58984 42.3057H2.29326V37.407H1.58984V42.3057ZM4.90563 37.407L7.81642 41.1286H7.83063V37.407H8.53642V42.3057H7.83063L4.91984 38.5825H4.90563V42.3057H4.19984V37.407H4.90563Z" fill="#231F20"/>
<path fill-rule="evenodd" clip-rule="evenodd" d="M11.2191 38.1144V41.5983H12.7649C13.9751 41.5983 14.4615 40.5696 14.4615 39.8362C14.4615 38.7902 13.7509 38.1136 12.7641 38.1136L11.2191 38.1144ZM12.7649 37.4062C14.4851 37.4062 15.1712 38.7215 15.1712 39.8299C15.1712 41.1996 14.1654 42.3057 12.7649 42.3057H10.5117V37.4062H12.7641H12.7649ZM20.9991 40.4591C20.9991 41.386 20.6486 42.4099 18.8509 42.4099C17.0565 42.4099 16.7036 41.386 16.7036 40.4583V37.407H17.4086V40.4591C17.4086 41.1783 17.7094 41.7041 18.8501 41.7041C19.9949 41.7041 20.2949 41.1783 20.2949 40.4591V37.4078H20.9991V40.4591ZM22.7951 40.9407C23.1243 41.1633 23.598 41.7033 24.7767 41.7033C25.432 41.7033 26.3351 41.4673 26.3351 40.8681C26.3351 40.066 25.4138 40.0659 24.8028 40.0659H24.0678C23.403 40.0659 22.6207 39.7004 22.6207 38.8138C22.6207 37.7717 23.793 37.302 24.6922 37.302C25.8015 37.302 26.5041 37.827 26.7007 37.9691L26.3044 38.5352C25.8883 38.2904 25.5354 38.007 24.7151 38.007C24.1049 38.007 23.3241 38.236 23.3241 38.8138C23.3241 39.1896 23.598 39.372 24.1586 39.372H24.8059C25.9578 39.372 27.0425 39.6562 27.0425 40.8783C27.0425 41.9007 25.9507 42.4099 24.7317 42.4099C23.253 42.4099 22.6025 41.7096 22.3025 41.4167L22.7951 40.9407ZM31.9822 37.407V38.1144H30.2644V42.3057H29.5633V38.1136H27.8422V37.407H31.9822ZM34.0594 38.1144V39.5552H36.2407C36.7688 39.5552 37.0696 39.282 37.0696 38.8075C37.0696 38.2494 36.6441 38.1136 36.2407 38.1136L34.0594 38.1144ZM36.2407 37.4062C37.0254 37.4062 37.7786 37.8088 37.7786 38.8075C37.7786 39.8702 37.0617 40.2033 36.6504 40.2349L37.6641 42.3057H36.8596L35.8815 40.2625H34.0594V42.3057H33.3575V37.4062H36.2407Z" fill="#231F20"/>
<mask id="mask0_816_17135" style="mask-type:luminance" maskUnits="userSpaceOnUse" x="1" y="0" width="106" height="60">
<path d="M1.58984 59.4064H106.679V0.789551H1.58984V59.4064Z" fill="#231F20"/>
</mask>
<g mask="url(#mask0_816_17135)">
<path fill-rule="evenodd" clip-rule="evenodd" d="M39.115 42.3057H39.8193V37.407H39.115V42.3057ZM43.465 38.2849L42.6929 39.9886H44.2324L43.465 38.2849ZM46.0482 42.3057H45.2508L44.5522 40.6888H42.3669L41.6429 42.3057H40.8708L43.0845 37.407H43.8693L46.0482 42.3057ZM47.1985 37.407H47.9035V41.5991H50.8719V42.3057H47.1993L47.1985 37.407ZM19.6948 45.908H20.4053V50.0986H23.3706V50.8036H19.6948V45.908ZM24.4285 50.8043H25.135V45.9088H24.4285V50.8043ZM28.7785 46.7796L28.0072 48.4865H29.5506L28.7785 46.7796ZM31.3648 50.8043H30.569L29.8679 49.1915H27.6858L26.9556 50.8043H26.1858L28.4027 45.908H29.1827L31.3648 50.8043ZM32.4077 50.8043H33.115V45.9088H32.4077V50.8043ZM34.8337 49.4386C35.159 49.6612 35.6366 50.2044 36.8114 50.2044C37.4714 50.2044 38.3698 49.9691 38.3698 49.3675C38.3698 48.563 37.4485 48.563 36.8382 48.563H36.1064C35.4377 48.563 34.6569 48.1999 34.6569 47.3094C34.6569 46.2704 35.8308 45.8038 36.73 45.8038C37.8369 45.8038 38.5403 46.3249 38.7377 46.4678L38.3398 47.037C37.9198 46.7891 37.5748 46.5065 36.7529 46.5065C36.134 46.5065 35.3635 46.7354 35.3635 47.3094C35.3635 47.6883 35.6366 47.8715 36.1972 47.8715H36.8445C37.9916 47.8715 39.0724 48.1612 39.0724 49.3754C39.0724 50.3986 37.9845 50.9086 36.7672 50.9086C35.2869 50.9086 34.6324 50.2091 34.3379 49.9154L34.8337 49.4386ZM44.6579 48.3522C44.6579 47.3425 43.8495 46.5065 42.7411 46.5065C41.6319 46.5065 40.8211 47.3433 40.8211 48.3522C40.8211 49.3675 41.6319 50.2036 42.7411 50.2036C43.8495 50.2036 44.6579 49.3675 44.6579 48.3522ZM40.1137 48.3522C40.1137 46.8175 41.3343 45.803 42.7411 45.803C44.1408 45.803 45.3637 46.8136 45.3637 48.353C45.3637 49.8894 44.14 50.9086 42.7411 50.9086C41.3343 50.9086 40.1137 49.8949 40.1137 48.3522ZM47.6966 45.908L50.6066 49.6272H50.6232V45.9088H51.3274V50.8036H50.6248L47.7124 47.0812H47.6974V50.8036H46.99V45.9088L47.6966 45.908ZM11.8648 55.1094V56.502H13.9853C14.6461 56.502 14.7037 56.0796 14.7037 55.7694C14.7037 55.3951 14.4629 55.1094 13.9853 55.1094H11.864H11.8648ZM13.9861 54.4044C14.7258 54.4044 15.4127 54.8425 15.4127 55.7646C15.4127 56.7988 14.7377 57.2062 13.9861 57.2062H11.8648V59.3022H11.1582V54.4044H13.9853H13.9861ZM17.5071 55.1094V56.5517H19.6908C20.2158 56.5517 20.5166 56.2778 20.5166 55.8017C20.5166 55.2467 20.0903 55.1094 19.6908 55.1094H17.5071ZM19.6908 54.4044C20.4708 54.4044 21.2208 54.8015 21.2208 55.8017C21.2208 56.8651 20.5103 57.1991 20.0982 57.2307L21.1087 59.3022H20.3114L19.3277 57.2591H17.5071V59.3022H16.8029V54.4044H19.6908ZM26.8316 56.8517C26.8316 55.8412 26.0208 55.0059 24.9124 55.0059C23.8008 55.0059 22.9916 55.8412 22.9916 56.8517C22.9916 57.8638 23.8008 58.7007 24.9124 58.7007C26.0208 58.7007 26.8316 57.8638 26.8316 56.8517ZM22.2866 56.8517C22.2866 55.3178 23.5095 54.3017 24.9124 54.3017C26.3137 54.3017 27.5366 55.3099 27.5366 56.8517C27.5366 58.3888 26.3129 59.4065 24.9124 59.4065C23.5095 59.4065 22.2866 58.3951 22.2866 56.8517ZM31.3648 56.6378H33.6124V57.9357C33.6124 58.8175 32.6414 59.4065 31.4177 59.4065C30.1079 59.4065 28.7421 58.5128 28.7421 56.8454C28.7421 55.4496 29.8608 54.3009 31.4279 54.3009C32.5964 54.3009 33.2082 54.9104 33.4972 55.1875L33.0053 55.6904C32.7685 55.4536 32.3864 55.0059 31.4998 55.0059C30.1995 55.0059 29.4503 55.8522 29.4503 56.8794C29.4503 57.837 30.2082 58.6999 31.4453 58.6999C32.2956 58.6999 32.9027 58.3083 32.9027 57.8907V57.342H31.3648V56.6378ZM35.7669 55.1094V56.5517H37.9427C38.4748 56.5517 38.7724 56.2778 38.7724 55.8017C38.7724 55.2467 38.3493 55.1094 37.9435 55.1094H35.7669ZM37.9427 54.4044C38.7274 54.4044 39.4782 54.8015 39.4782 55.8017C39.4782 56.8651 38.7685 57.1991 38.3572 57.2307L39.3708 59.3022H38.5656L37.5835 57.2591H35.7669V59.3022H35.0587V54.4044H37.9427ZM42.6298 55.2775L41.8561 56.9844H43.3972L42.6298 55.2775ZM45.2114 59.3022H44.4156L43.7185 57.6894H41.5277L40.8061 59.3022H40.0348L42.25 54.4051H43.0316L45.2122 59.3022H45.2114ZM47.0682 55.872H47.0524V59.3022H46.3458V54.4051H47.0524L48.7261 57.4446L50.3966 54.4051H51.1024V59.3022H50.3958V55.8728H50.3848L48.7269 58.8854L47.0682 55.872Z" fill="#231F20"/>
</g>
<mask id="mask1_816_17135" style="mask-type:luminance" maskUnits="userSpaceOnUse" x="1" y="0" width="106" height="60">
<path d="M1.58984 59.4064H106.679V0.789551H1.58984V59.4064Z" fill="#C53241"/>
</mask>
<g mask="url(#mask1_816_17135)">
<path fill-rule="evenodd" clip-rule="evenodd" d="M22.8945 0.788818H30.8248L39.0456 24.1588H39.1269L47.2687 0.789608H55.1982V31.7172L49.4824 31.6699V8.51145H49.3577L41.4661 31.6699H36.6266L28.6964 8.51145H28.6158V31.6699H22.8953L22.8945 0.788818ZM60.9203 0.788818H66.6314V31.6699L60.9203 25.9462V0.788818ZM75.5619 6.1304H69.8445V0.789608H87.0393V6.1304H81.2801V31.5112L75.5619 25.7836V6.1304Z" fill="#C53241"/>
</g>
<mask id="mask2_816_17135" style="mask-type:luminance" maskUnits="userSpaceOnUse" x="1" y="0" width="106" height="60">
<path d="M1.58984 59.4064H106.679V0.789551H1.58984V59.4064Z" fill="#231F20"/>
</mask>
<g mask="url(#mask2_816_17135)">
<path fill-rule="evenodd" clip-rule="evenodd" d="M55.1973 31.7163L60.9194 25.9816V59.2011H55.1973V31.7163ZM69.8436 31.3548L75.5609 25.6248V53.6574H83.8946V59.0021H69.8436V31.3548ZM92.6578 41.8871H94.491C96.9525 41.8871 100.96 41.7237 100.96 37.6729C100.96 33.6308 97.0346 33.4603 94.6994 33.4603H92.6578V41.8871ZM86.9365 28.1187H94.7002C97.9954 28.1187 100.841 28.1187 103.759 30.5803C105.758 32.4166 106.68 34.7937 106.68 37.6729C106.68 40.5545 105.758 42.9324 103.759 44.7719C100.841 47.2327 97.9954 47.2327 94.7002 47.2327H92.6578V59.0029H86.9365V28.1187Z" fill="#231F20"/>
</g>
</svg>
