<svg width="180" height="47" viewBox="0 0 180 47" fill="none" xmlns="http://www.w3.org/2000/svg">
<g clip-path="url(#clip0_816_17231)">
<path d="M52.8145 11.281V3.46191H55.0911V11.2895H52.8145V11.281Z" fill="#57068C"/>
<path d="M58.9629 11.1444H77.4489V0.775879H75.1637V9.08095H61.3504C61.3504 9.07242 61.3504 9.05537 61.3589 9.04684C61.393 8.8422 61.4953 6.43765 64.4456 6.43765H64.3433V4.33154L64.42 4.34007C59.1931 4.34007 58.9714 8.28796 58.9714 9.08947L58.9629 11.1444Z" fill="#57068C"/>
<path d="M80.2286 4.38281L80.2542 10.6074C80.2542 11.3151 80.0666 11.8523 79.7 12.2189C79.3333 12.5856 78.762 12.7646 77.9861 12.7646H77.4062V14.5552H78.0543C78.7961 14.5552 79.4441 14.4785 79.9899 14.3165C80.5441 14.1545 81.0045 13.9072 81.3797 13.5747C81.7464 13.2421 82.0278 12.8073 82.2068 12.2786C82.3859 11.7499 82.4797 11.1104 82.4797 10.3601V4.38281H80.2286Z" fill="#57068C"/>
<path d="M51.1018 4.46789H48.8252V9.2173H41.4666V4.41673H41.4581V4.4082L39.207 4.43378C35.1824 4.65548 34.3809 6.90654 34.3809 9.23435C34.3809 10.9312 34.3809 11.1955 34.3809 11.1955H39.1644H39.19C39.1132 11.6389 38.9512 11.997 38.6783 12.2614C38.3032 12.628 37.7404 12.8071 36.9645 12.8071H35.4723V14.5977H37.0327C37.7745 14.5977 38.414 14.5209 38.9683 14.3589C39.5225 14.1969 39.9829 13.9582 40.3496 13.6171C40.7162 13.2846 40.9976 12.8497 41.1767 12.321C41.279 12.0141 41.3558 11.6645 41.3984 11.2808H51.0933V4.46789H51.1018ZM39.1644 9.06382H36.5552C36.5552 6.27556 39.1644 6.47168 39.1644 6.47168V9.06382Z" fill="#57068C"/>
<path d="M99.0817 4.46789H96.8051V9.2173H91.0069V4.41673H90.9898V4.4082L88.7558 4.43378C84.7312 4.65548 83.9297 6.90654 83.9297 9.23435C83.9297 10.9312 83.9297 11.1955 83.9297 11.1955H88.7132H88.7388C88.6706 11.6389 88.5 11.997 88.2272 12.2614C87.852 12.628 87.2892 12.8071 86.5133 12.8071H85.0126V14.5977H86.573C87.3148 14.5977 87.9628 14.5209 88.5171 14.3589C89.0713 14.1969 89.5318 13.9582 89.8984 13.6171C90.2651 13.2846 90.5465 12.8497 90.7255 12.321C90.8278 12.0141 90.9046 11.6645 90.9472 11.2808H99.0732V4.46789H99.0817ZM88.7132 9.06382H86.104C86.104 6.27556 88.7132 6.47168 88.7132 6.47168V9.06382Z" fill="#57068C"/>
<path d="M120.817 4.46789V9.2173H115.164V4.46789H112.878V9.2173H107.907V4.41673H107.89V4.4082L105.656 4.43378C101.632 4.65548 100.83 6.90654 100.83 9.23435C100.83 10.9312 100.83 11.1955 100.83 11.1955H105.614H105.639C105.562 11.6389 105.392 11.997 105.128 12.2614C104.752 12.628 104.19 12.8071 103.414 12.8071H101.913V14.5977H103.473C104.207 14.5977 104.855 14.5209 105.409 14.3589C105.963 14.1969 106.424 13.9582 106.799 13.6171C107.165 13.2846 107.447 12.8497 107.626 12.321C107.737 12.0141 107.805 11.6645 107.848 11.2808H114.081H115.147H123.076V4.46789H120.817ZM105.614 9.06382H103.004C103.004 6.27556 105.614 6.47168 105.614 6.47168V9.06382Z" fill="#57068C"/>
<path d="M29.3579 4.39126H24.7876V0.33252H22.5109V4.39126V9.14919H15.2632V4.38273H7.1713V6.5059H7.23951C9.02161 6.51442 9.57585 7.29889 9.57585 8.02366C9.57585 9.21741 8.07514 9.73754 6.59148 9.70343H5.80702C2.34515 9.70343 2.53274 7.40973 2.53274 7.40973V4.39126H0.136719V7.64848C0.136719 9.84839 2.66917 11.4941 5.46595 11.4941H6.9496C11.9804 11.4941 11.861 8.10893 11.861 8.10893C11.8866 7.50353 11.7331 6.96634 11.4688 6.5059H12.9951V11.1615H29.1448C33.0927 11.1615 33.3229 8.3562 33.3229 7.80196C33.3144 7.80196 33.4678 4.39126 29.3579 4.39126ZM29.213 9.08098H24.7961V6.44621H29.1704C30.7734 6.44621 31.0036 7.39268 31.0036 7.78491C30.9951 8.15156 30.9695 9.08098 29.213 9.08098Z" fill="#57068C"/>
<path d="M28.454 2.50676C28.454 3.09511 27.9765 3.57261 27.3881 3.57261C26.7998 3.57261 26.3223 3.09511 26.3223 2.50676C26.3223 1.91842 26.7998 1.44092 27.3881 1.44092C27.9679 1.44092 28.454 1.91842 28.454 2.50676Z" fill="#57068C"/>
<path d="M122.966 2.50676C122.966 3.09511 122.488 3.57261 121.9 3.57261C121.311 3.57261 120.834 3.09511 120.834 2.50676C120.834 1.91842 121.311 1.44092 121.9 1.44092C122.488 1.44092 122.966 1.91842 122.966 2.50676Z" fill="#57068C"/>
<path d="M13.0633 13.4977C13.0633 14.0861 12.5858 14.5636 11.9975 14.5636C11.4091 14.5636 10.9316 14.0861 10.9316 13.4977C10.9316 12.9094 11.4091 12.4319 11.9975 12.4319C12.5858 12.4319 13.0633 12.9094 13.0633 13.4977Z" fill="#57068C"/>
<path d="M49.2586 13.5746C49.2586 14.163 48.7811 14.6405 48.1928 14.6405C47.6045 14.6405 47.127 14.163 47.127 13.5746C47.127 12.9863 47.6045 12.5088 48.1928 12.5088C48.7811 12.5088 49.2586 12.9863 49.2586 13.5746Z" fill="#57068C"/>
<path d="M5.99497 13.4977C5.99497 14.0861 5.51747 14.5636 4.92913 14.5636C4.34078 14.5636 3.86328 14.0861 3.86328 13.4977C3.86328 12.9094 4.34078 12.4319 4.92913 12.4319C5.51747 12.4319 5.99497 12.9094 5.99497 13.4977Z" fill="#57068C"/>
<path d="M8.44224 13.4977C8.44224 14.0861 7.96474 14.5636 7.37639 14.5636C6.78805 14.5636 6.31055 14.0861 6.31055 13.4977C6.31055 12.9094 6.78805 12.4319 7.37639 12.4319C7.96474 12.4319 8.44224 12.9094 8.44224 13.4977Z" fill="#57068C"/>
<path d="M95.7645 13.5746C95.7645 14.163 95.287 14.6405 94.6987 14.6405C94.1103 14.6405 93.6328 14.163 93.6328 13.5746C93.6328 12.9863 94.1103 12.5088 94.6987 12.5088C95.287 12.5088 95.7645 12.9863 95.7645 13.5746Z" fill="#57068C"/>
<path d="M98.204 13.5746C98.204 14.163 97.7265 14.6405 97.1381 14.6405C96.5498 14.6405 96.0723 14.163 96.0723 13.5746C96.0723 12.9863 96.5498 12.5088 97.1381 12.5088C97.735 12.5088 98.204 12.9863 98.204 13.5746Z" fill="#57068C"/>
<path d="M112.843 13.5746C112.843 14.163 112.365 14.6405 111.777 14.6405C111.188 14.6405 110.711 14.163 110.711 13.5746C110.711 12.9863 111.188 12.5088 111.777 12.5088C112.365 12.5088 112.843 12.9863 112.843 13.5746Z" fill="#57068C"/>
<path d="M115.282 13.5746C115.282 14.163 114.805 14.6405 114.216 14.6405C113.628 14.6405 113.15 14.163 113.15 13.5746C113.15 12.9863 113.628 12.5088 114.216 12.5088C114.813 12.5088 115.282 12.9863 115.282 13.5746Z" fill="#57068C"/>
<path d="M54.0679 2.31081V2.30228C54.0679 2.19996 54.0849 2.09764 54.1191 1.99532C54.1532 1.90152 54.2043 1.81625 54.264 1.74804C54.3237 1.67982 54.4004 1.62014 54.4857 1.5775C54.571 1.53487 54.6562 1.51782 54.895 1.51782V0.827148C54.5454 0.827148 54.3407 0.869782 54.1617 0.946523C53.9826 1.02326 53.8206 1.13411 53.6927 1.27054C53.5563 1.40697 53.454 1.56045 53.3857 1.74804C53.309 1.9271 53.2749 2.12322 53.2749 2.32786V2.33639C53.2749 2.35344 53.2749 2.36197 53.2749 2.37049H52.8145V3.11232H55.1252V2.35344H54.0679C54.0679 2.34491 54.0679 2.32786 54.0679 2.31081Z" fill="#57068C"/>
<path d="M68.9818 6.11371V6.09665C68.9818 5.9517 69.0074 5.8238 69.05 5.6959C69.0926 5.56799 69.1609 5.45715 69.2461 5.36335C69.3229 5.26956 69.4252 5.19282 69.536 5.14166C69.6469 5.0905 69.7663 5.06492 70.0817 5.06492V4.1355C69.6128 4.1355 69.3484 4.18666 69.1097 4.28898C68.8624 4.3913 68.6578 4.53626 68.4787 4.71532C68.2996 4.89438 68.1632 5.10755 68.0694 5.3463C67.9671 5.58505 67.9159 5.84085 67.9159 6.11371V6.13076C67.9159 6.14781 67.9159 6.16487 67.9159 6.17339H67.3105V7.1625H70.3887V6.17339H68.9818C68.9818 6.15634 68.9818 6.13929 68.9818 6.11371Z" fill="#57068C"/>
<path d="M173.947 4.34007L170.749 4.33154V6.43765H173.921C176.871 6.43765 176.965 8.8422 177.008 9.04684C177.008 9.05537 177.008 9.07242 177.016 9.08095H165.761V0.775879H163.484V11.1444H179.412V9.08947C179.404 8.28796 179.182 4.34007 173.947 4.34007Z" fill="#57068C"/>
<path d="M173.785 12.5088C173.196 12.5088 172.719 12.9863 172.719 13.5746C172.719 14.163 173.196 14.6405 173.785 14.6405C174.373 14.6405 174.85 14.163 174.85 13.5746C174.85 12.9863 174.381 12.5088 173.785 12.5088Z" fill="#57068C"/>
<path d="M131.005 3.57261C131.594 3.57261 132.071 3.09511 132.071 2.50676C132.071 1.91842 131.594 1.44092 131.005 1.44092C130.417 1.44092 129.939 1.91842 129.939 2.50676C129.939 3.09511 130.417 3.57261 131.005 3.57261Z" fill="#57068C"/>
<path d="M133.445 3.57261C134.033 3.57261 134.511 3.09511 134.511 2.50676C134.511 1.91842 134.033 1.44092 133.445 1.44092C132.856 1.44092 132.379 1.91842 132.379 2.50676C132.379 3.09511 132.856 3.57261 133.445 3.57261Z" fill="#57068C"/>
<path d="M157.012 4.29755L154.778 4.27197V4.2805H154.761V9.08107H145.987C145.936 8.87642 145.902 8.67178 145.902 8.45009V8.42451C145.902 8.12607 145.944 7.85321 146.038 7.58888C146.132 7.32455 146.269 7.09433 146.439 6.89822C146.61 6.7021 146.814 6.54862 147.044 6.42924C147.275 6.3184 147.539 6.25871 147.82 6.25871C148.221 6.25871 148.562 6.33545 148.835 6.49746C149.108 6.65094 149.372 6.86411 149.628 7.13696L151.001 5.66183C150.626 5.24402 150.191 4.92001 149.696 4.68126C149.202 4.44251 148.579 4.32313 147.829 4.32313C147.215 4.32313 146.661 4.43398 146.149 4.64715C145.638 4.86885 145.203 5.15876 144.836 5.53393C144.469 5.90911 144.188 6.3525 143.975 6.85558C143.77 7.35866 143.668 7.89585 143.668 8.45861V8.48419C143.668 8.68884 143.685 8.88495 143.71 9.08959H135.209V4.36577H132.583C127.962 4.36577 127.177 7.75089 127.083 9.08959H127.075V9.19191C127.066 9.33687 127.066 9.44772 127.075 9.52446V9.55004V11.1445H161.838V9.08959H161.83C161.847 6.76179 161.037 4.51925 157.012 4.29755ZM129.42 9.08959C129.42 8.76558 129.326 6.42924 132.6 6.42924H132.95V9.08959H129.42ZM157.063 9.08107V6.33545C157.063 6.33545 159.673 6.13933 159.673 9.08107H157.063Z" fill="#57068C"/>
<path d="M80.7237 27.5671H83.4097L89.0714 40.8859H86.0274L84.8166 37.9186H79.223L78.0122 40.8859H75.0449L80.7237 27.5671ZM83.7849 35.3521L82.0283 31.0631L80.2718 35.3521H83.7849Z" fill="#57068C"/>
<path d="M90.5717 27.6609H96.711C98.2288 27.6609 99.414 28.0787 100.164 28.8376C100.77 29.443 101.068 30.1763 101.068 31.0886V31.1228C101.068 32.6149 100.275 33.442 99.3287 33.9707C100.864 34.559 101.801 35.4458 101.801 37.2194V37.2535C101.801 39.6751 99.8403 40.8774 96.8474 40.8774H90.5547V27.6609H90.5717ZM96.08 33.0072C97.3676 33.0072 98.1776 32.5894 98.1776 31.6088V31.5747C98.1776 30.7049 97.4955 30.2104 96.2676 30.2104H93.3941V33.0072H96.08ZM96.856 38.3364C98.1435 38.3364 98.9194 37.8845 98.9194 36.9039V36.8698C98.9194 35.983 98.2544 35.4373 96.7622 35.4373H93.4026V38.3449H96.856V38.3364Z" fill="#57068C"/>
<path d="M103.141 35.2156V27.6609H106.048V35.1389C106.048 37.2961 107.123 38.4046 108.905 38.4046C110.678 38.4046 111.753 37.3302 111.753 35.2327V27.6609H114.66V35.1218C114.66 39.1294 112.409 41.0905 108.862 41.0905C105.306 41.0905 103.141 39.1038 103.141 35.2156Z" fill="#57068C"/>
<path d="M121.379 27.6863H126.538C130.69 27.6863 133.564 30.5427 133.564 34.2604V34.2945C133.564 38.0122 130.69 40.9028 126.538 40.9028H121.379V27.6863ZM126.538 38.285C128.917 38.285 130.528 36.682 130.528 34.3372V34.303C130.528 31.9582 128.925 30.321 126.538 30.321H124.287V38.2936H126.538V38.285Z" fill="#57068C"/>
<path d="M135.166 27.6863H138.074V32.9217H143.437V27.6863H146.345V40.9113H143.437V35.6076H138.074V40.9113H135.166V27.6863Z" fill="#57068C"/>
<path d="M153.763 27.5925H156.44L162.102 40.9113H159.058L157.847 37.944H152.262L151.051 40.9113H148.084L153.763 27.5925ZM156.815 35.3775L155.059 31.0885L153.302 35.3775H156.815Z" fill="#57068C"/>
<path d="M163.85 27.6863H169.99C171.499 27.6863 172.693 28.1041 173.443 28.863C174.048 29.4684 174.347 30.2017 174.347 31.114V31.1481C174.347 32.6403 173.554 33.4674 172.607 33.9961C174.142 34.5844 175.08 35.4712 175.08 37.2448V37.2789C175.08 39.7005 173.119 40.9028 170.135 40.9028H163.842V27.6863H163.85ZM169.376 33.0326C170.663 33.0326 171.473 32.6147 171.473 31.6342V31.6001C171.473 30.7303 170.791 30.2358 169.563 30.2358H166.69V33.0326H169.376ZM170.143 38.3618C171.431 38.3618 172.207 37.9099 172.207 36.9293V36.8952C172.207 36.0084 171.541 35.4627 170.049 35.4627H166.69V38.3703H170.143V38.3618Z" fill="#57068C"/>
<path d="M179.667 27.6863H176.76V40.9113H179.667V27.6863Z" fill="#57068C"/>
<path d="M29.4434 27.7375H32.1208L38.3027 35.8636V27.7375H41.1677V40.9285H38.7034L32.3169 32.5381V40.9285H29.4519V27.7375H29.4434Z" fill="#57068C"/>
<path d="M47.6828 35.7271L42.6094 27.7375H46.003L49.1494 33.0327L52.3555 27.7375H55.6553L50.5819 35.676V40.9285H47.6828V35.7271Z" fill="#57068C"/>
<path d="M56.8906 35.2752V27.7375H59.7897V35.1985C59.7897 37.3472 60.8641 38.4642 62.6377 38.4642C64.4112 38.4642 65.4856 37.3898 65.4856 35.3008V27.7461H68.3847V35.1899C68.3847 39.1805 66.1422 41.1416 62.595 41.1416C59.0564 41.1331 56.8906 39.1549 56.8906 35.2752Z" fill="#57068C"/>
<path d="M18.7864 25.4695H2.73047V45.2516H18.7864V25.4695Z" fill="white"/>
<path d="M23.4156 46.0445H0.197266V22.8176H23.4156V46.0445ZM11.0007 43.333C11.0263 43.495 11.3844 43.5718 11.4611 43.333L12.2712 36.8953H10.3015L11.0007 43.333ZM12.9618 36.4263V35.4543H9.61081V36.4263H12.9618ZM11.9983 34.9768C16.2446 35.1303 16.5516 31.2591 16.5687 29.8096C16.5687 29.7243 16.526 29.7158 16.509 29.7755C16.3811 30.0739 15.8268 31.1568 14.3005 31.8134C12.9363 32.4017 12.1092 33.7319 11.9642 34.9256C11.9557 34.9597 11.9813 34.9768 11.9983 34.9768ZM11.5293 34.7039C12.203 31.4808 14.8292 31.3956 15.0594 30.7902C15.4261 29.8352 14.7525 28.1383 14.5819 27.9422C14.5649 27.9166 14.5393 27.9337 14.5308 27.9507C14.1726 28.7352 13.5928 29.477 13.175 29.8181C12.5781 30.2956 10.3015 31.9839 11.4696 34.7039C11.4867 34.738 11.5208 34.7295 11.5293 34.7039ZM11.0689 34.8233C9.64492 31.7793 12.4929 29.8181 12.9533 29.3918C13.0215 29.3321 13.0045 29.2809 13.0045 29.2042C13.0045 28.2492 12.4588 26.6973 12.2797 26.4756C12.2541 26.4415 12.2371 26.4586 12.22 26.4927C11.9813 27.4391 10.6767 28.846 10.4209 29.153C8.22095 31.7622 8.72403 33.3567 11.0177 34.8574C11.0518 34.883 11.0859 34.8574 11.0689 34.8233ZM10.4294 34.9342C8.05042 33.5102 8.28916 31.4893 9.26974 29.9972C9.29532 29.9631 9.29532 29.9119 9.29532 29.8522C9.25269 29.4941 8.86899 28.5988 8.70698 28.36C8.66434 28.3003 8.63024 28.3003 8.62171 28.3515C8.60466 28.7523 8.14421 29.7755 7.44501 30.9436C6.69466 32.1885 6.69466 34.8915 10.4209 35.0024C10.455 34.9938 10.4635 34.9512 10.4294 34.9342Z" fill="#57068C"/>
</g>
<defs>
<clipPath id="clip0_816_17231">
<rect width="180" height="46.2236" fill="white"/>
</clipPath>
</defs>
</svg>
