<svg width="180" height="21" viewBox="0 0 180 21" fill="none" xmlns="http://www.w3.org/2000/svg">
<g clip-path="url(#clip0_816_15134)">
<path d="M52.0426 11.5874C52.5796 11.2777 53.1564 11.0163 53.6379 10.6353C55.6464 9.04569 56.2816 6.07044 55.118 3.77694C54.0144 1.60082 52.1555 0.504318 49.7851 0.438693C46.3745 0.344568 42.9601 0.407568 39.5469 0.404943C39.4674 0.404943 39.3879 0.423693 39.3125 0.433068V19.5498H42.0238V12.1417H48.7756C50.4586 14.6201 52.1371 17.0917 53.8003 19.5404H56.8576C55.0809 16.9102 53.3532 14.3523 51.6129 11.7757C51.7752 11.7059 51.917 11.6602 52.0426 11.5874ZM49.1634 9.54407C46.8807 9.56507 44.5981 9.55382 42.3155 9.55307C42.2323 9.55307 42.1494 9.54294 42.0331 9.53544V3.07832C42.0744 3.06257 42.1025 3.04269 42.131 3.04269C44.6562 3.04794 47.183 3.01269 49.7068 3.07907C50.9521 3.11169 51.9995 3.66969 52.6044 4.82882C53.543 6.62769 52.5616 8.83382 50.5981 9.34082C50.1328 9.46119 49.643 9.53957 49.1634 9.54407Z" fill="#FF00B8"/>
<path d="M88.7372 11.6847H94.4908V14.9284C93.842 15.5802 93.1175 16.0849 92.2936 16.4401C90.2503 17.3213 88.139 17.4507 85.9985 16.9073C84.1123 16.4284 82.631 15.3661 81.6838 13.6339C80.8183 12.0511 80.606 10.3527 80.9173 8.59618C81.2912 6.4868 82.3543 4.8128 84.2499 3.7553C86.1965 2.6693 88.2808 2.5013 90.4198 3.0323C92.1478 3.4613 93.4577 4.46218 94.292 6.05443C94.3348 6.1358 94.3884 6.21193 94.4473 6.30718C95.2213 5.85905 95.9758 5.42218 96.7434 4.9778C96.6946 4.87805 96.6654 4.81205 96.6313 4.74868C95.7369 3.09118 94.4225 1.86643 92.714 1.09918C89.9083 -0.160448 87.0331 -0.205073 84.1696 0.856177C81.5019 1.84468 79.6891 3.7448 78.6984 6.40505C78.0556 8.13118 77.9 9.92068 78.1929 11.7406C78.5199 13.7708 79.373 15.5487 80.8479 16.9936C82.6486 18.7576 84.8739 19.5852 87.3459 19.7948C89.297 19.9602 91.2054 19.7374 93.0365 19.0065C94.5598 18.3987 95.873 17.4799 96.992 16.3339V9.19243H88.7372V11.6847Z" fill="#FF00B8"/>
<path d="M72.7389 0.427352V0.824852C72.7389 4.38548 72.7419 7.94648 72.7352 11.5075C72.7344 11.992 72.7213 12.4817 72.6527 12.9602C72.3969 14.7479 71.5074 16.096 69.7783 16.7425C67.964 17.4205 66.1112 17.4111 64.2879 16.7534C62.984 16.2831 62.0889 15.3704 61.6142 14.0556C61.3262 13.2572 61.2579 12.4281 61.2568 11.5911C61.253 7.99823 61.2553 4.40573 61.2553 0.813227V0.422852H58.5245V0.739352C58.5245 4.39523 58.5208 8.0511 58.5272 11.707C58.5287 12.6812 58.6209 13.6476 58.9014 14.5874C59.486 16.5452 60.6688 18.028 62.5243 18.8845C65.234 20.1359 68.0237 20.167 70.8185 19.1729C72.1959 18.6831 73.3198 17.8259 74.1512 16.6045C75.0302 15.313 75.4303 13.8647 75.4438 12.3291C75.4783 8.4306 75.4644 4.53135 75.4678 0.632477C75.4682 0.563477 75.4468 0.494102 75.4359 0.427352H72.7389Z" fill="#FF00B8"/>
<path d="M115.123 10.2614C114.813 10.1024 114.481 9.98618 114.128 9.83656C114.232 9.76381 114.298 9.71431 114.367 9.66893C114.972 9.27481 115.462 8.77006 115.793 8.12768C117.527 4.76543 115.157 0.703809 111.363 0.629559C107.888 0.561684 104.411 0.605184 100.935 0.600684C100.885 0.600684 100.836 0.613059 100.773 0.621309V19.7077H101.097C104.784 19.7077 108.472 19.7088 112.16 19.7051C112.464 19.7047 112.772 19.6829 113.075 19.6477C115.798 19.3297 117.633 17.3778 117.708 14.6621C117.762 12.6757 116.914 11.1787 115.123 10.2614ZM103.502 3.23656C103.61 3.22943 103.71 3.21743 103.811 3.21743C106.104 3.21631 108.397 3.21593 110.69 3.21706C111.631 3.21781 112.481 3.46306 113.059 4.25881C113.72 5.16968 113.778 6.18893 113.393 7.21343C113.019 8.20456 112.244 8.71793 111.198 8.83043C111.072 8.84431 110.945 8.86493 110.819 8.86493C108.441 8.86793 106.064 8.86793 103.686 8.86756C103.635 8.86756 103.584 8.85706 103.502 8.84806V3.23656ZM114.893 14.9857C114.611 16.3023 113.641 17.0666 112.174 17.0812C109.342 17.1097 106.509 17.0902 103.677 17.0894C103.626 17.0894 103.576 17.0759 103.51 17.0666V11.4131C103.566 11.3999 103.586 11.3909 103.607 11.3909C106.514 11.3913 109.42 11.3632 112.326 11.4041C114.315 11.4318 115.286 13.1538 114.893 14.9857Z" fill="#FF00B8"/>
<path d="M156.498 15.3008C152.449 10.353 148.464 5.48289 144.484 0.619141H142.02V19.6868H144.751V5.13564C144.774 5.12814 144.795 5.12102 144.817 5.11352C148.807 9.97989 152.797 14.8463 156.76 19.6796H159.223V0.624391H156.498V15.3008Z" fill="#FF00B8"/>
<path d="M171.768 8.62264C174.431 5.96952 177.08 3.34902 179.716 0.716518C179.693 0.685768 179.671 0.655018 179.648 0.624268H176.309C172.721 4.18527 169.116 7.76389 165.511 11.3425L165.431 11.2938V0.627268H162.736V19.6803H165.449V15.073C166.997 13.4796 168.436 11.9976 169.893 10.4973C172.231 13.5768 174.556 16.6379 176.879 19.6968H179.93C179.953 19.6694 179.977 19.642 180.001 19.6146C177.259 15.9539 174.517 12.2935 171.768 8.62264Z" fill="#FF00B8"/>
<path d="M128.094 0.610352C128.048 0.707477 128.001 0.800852 127.957 0.895727C126.818 3.35985 125.679 5.82398 124.541 8.28848C122.847 11.9511 121.154 15.6134 119.465 19.2779C119.408 19.4009 119.387 19.5407 119.346 19.6866H122.214C122.846 18.2834 123.47 16.8981 124.092 15.5162H134.613C135.244 16.9202 135.871 18.3137 136.492 19.6941H139.43C136.482 13.288 133.541 6.94748 130.618 0.610352H128.094ZM125.31 12.859C126.656 9.86573 127.988 6.90435 129.351 3.87023C130.721 6.8961 132.063 9.86048 133.42 12.859H125.31Z" fill="#FF00B8"/>
<path d="M26.1379 -0.23291H19.3125C19.3125 -0.23291 19.9372 0.67084 20.5459 2.48584H26.1379C30.1732 2.48584 33.4564 5.76897 33.4564 9.80434C33.4564 11.7592 32.6951 13.5971 31.3129 14.9793C29.9306 16.3616 28.0927 17.1228 26.1379 17.1228H20.6749C20.0291 19.0185 19.3125 19.8416 19.3125 19.8416H26.1379C31.6811 19.8416 36.1751 15.3476 36.1751 9.80434C36.1751 4.26072 31.6811 -0.23291 26.1379 -0.23291Z" fill="#FF00B8"/>
<path d="M17.812 -0.232666H9.91225C4.369 -0.232666 -0.125 4.26096 -0.125 9.80458C-0.125 10.4447 -0.062375 11.0702 0.052375 11.6773C0.076 11.803 0.10225 11.9275 0.13075 12.0516C0.163 12.193 0.19825 12.3336 0.2365 12.4731C0.329875 12.8121 0.4405 13.1436 0.567625 13.4668C0.659125 13.7005 0.756625 13.9315 0.865 14.1561C1.87787 16.2587 3.6025 17.9541 5.72612 18.9298C7.00037 19.5152 8.41825 19.8415 9.91225 19.8415H17.812C17.812 19.8415 20.1873 17.1227 20.1873 10.1492C20.1873 3.17571 17.812 -0.232666 17.812 -0.232666ZM3.1825 11.8142C3.1555 11.713 3.124 11.6147 3.10075 11.5112C2.66875 9.59533 2.8675 7.72446 3.88188 6.01371C5.23937 3.72433 7.36712 2.55921 9.94712 2.51121C9.94712 2.51121 3.994 5.83296 3.1825 11.8142Z" fill="#FF00B8"/>
</g>
<defs>
<clipPath id="clip0_816_15134">
<rect width="180" height="20.25" fill="white"/>
</clipPath>
</defs>
</svg>
