<svg width="181" height="44" viewBox="0 0 181 44" fill="none" xmlns="http://www.w3.org/2000/svg">
<path d="M168.967 3.5989C168.967 3.23901 168.997 2.87911 169.297 2.66917C169.507 2.51921 169.717 2.51921 169.807 2.51921C170.046 2.51921 170.166 2.60919 170.256 2.63918C170.616 2.87911 170.616 3.26899 170.646 3.62889V6.29811C170.676 6.53804 170.736 7.28782 171.606 7.28782C171.906 7.28782 172.086 7.16785 172.206 7.07788C172.626 6.74798 172.596 6.14816 172.596 5.6683V3.47893C172.596 3.35896 172.566 2.87911 172.956 2.60918C173.016 2.5492 173.196 2.45923 173.435 2.45923C173.525 2.45923 173.705 2.45923 173.915 2.60918C174.305 2.84911 174.275 3.35897 174.275 3.44895V7.46777C174.275 7.61773 174.335 8.57744 173.465 8.57744C173.346 8.57744 172.926 8.57744 172.746 8.15757C172.686 8.00761 172.656 7.85765 172.656 7.82766C172.566 7.97762 172.506 8.03761 172.476 8.09759C172.266 8.33752 171.816 8.66742 171.006 8.66742C170.676 8.66742 169.657 8.63743 169.207 7.61773C169.057 7.28782 168.997 6.92792 168.997 6.17814V3.5989" fill="#1C7795"/>
<path d="M178.685 2.87909C178.745 2.84909 178.775 2.78911 178.835 2.75912C178.895 2.69914 179.105 2.5192 179.405 2.5192C179.824 2.5192 180.154 2.87909 180.154 3.26898C180.154 3.56889 180.004 3.74883 179.794 3.92878L178.685 4.97847L180.034 7.04788C180.274 7.40777 180.334 7.55772 180.334 7.76766C180.334 7.85764 180.334 8.00759 180.214 8.18754C180.064 8.45746 179.734 8.63741 179.405 8.63741C179.225 8.63741 179.105 8.57743 179.045 8.54744C178.805 8.42747 178.685 8.21753 178.565 8.00759L177.455 6.14814L176.885 6.68798V7.6477C176.885 7.76767 176.915 8.27751 176.525 8.51744C176.405 8.60742 176.225 8.63741 176.076 8.63741C175.836 8.63741 175.566 8.54744 175.386 8.36749C175.176 8.09757 175.206 7.70768 175.176 7.6477V1.34953C175.176 1.25956 175.176 1.19958 175.176 1.1096C175.176 0.989639 175.236 0.659736 175.566 0.449797C175.746 0.359823 175.956 0.329834 176.016 0.329834C176.405 0.329834 176.705 0.539773 176.825 0.929659C176.855 1.04962 176.855 1.19958 176.855 1.31955V4.85851L178.685 2.87909Z" fill="#1C7795"/>
<path d="M42.3437 27.772C42.3437 28.4917 42.3437 29.0016 42.1637 29.7214C41.6539 31.6708 40.1243 32.8705 38.1149 32.8705C37.695 32.8705 36.7653 32.8105 35.8656 32.2706C33.7362 31.011 33.8862 28.8516 33.8262 28.1319V13.2862C33.8562 12.2065 34.0061 11.3368 34.6359 10.407C35.7156 8.69752 37.3951 8.51758 38.1149 8.51758C39.9744 8.57756 41.5039 9.65725 42.0738 11.3967C42.1937 11.9066 42.2837 12.3865 42.3437 13.3462V27.772Z" fill="#1C7795"/>
<path d="M41.8939 3.80889C41.8939 5.90828 40.1844 7.64777 38.085 7.64777C35.9856 7.64777 34.2461 5.93827 34.2461 3.80889C34.2461 1.7095 35.9556 0 38.085 0C40.1844 0 41.8939 1.7095 41.8939 3.80889Z" fill="#1C7795"/>
<path d="M26.9887 10.1071C24.8293 8.66755 22.7 8.51759 21.7702 8.51759C18.8311 8.51759 16.9116 9.77722 16.1019 10.557C15.9219 10.7369 15.772 10.9169 15.4721 11.3368V4.22884C15.4721 4.10887 15.4721 3.26912 15.2021 2.63931C14.6623 1.04977 12.9828 0.0600586 11.3633 0.0600586C10.8534 0.0600586 9.56379 0.150034 8.5141 1.13975C7.10451 2.45936 7.16449 4.19886 7.10451 5.99833C7.10451 6.02832 7.10451 6.05831 7.10451 6.11829C7.10451 6.38822 7.10451 6.65813 7.10451 6.92805C7.10451 7.34793 7.10451 7.7978 7.10451 8.21768C7.10451 8.69754 7.10451 9.17739 7.10451 9.62726C7.10451 10.0471 7.10451 10.437 7.10451 10.8569C7.10451 11.0069 7.10451 11.1268 7.10451 11.2768C7.10451 11.3368 7.10451 11.3668 7.10451 11.4267C7.10451 11.5767 6.98454 11.5167 6.89457 11.4567C6.7746 11.3967 6.65464 11.3668 6.53468 11.3068C6.32474 11.2168 6.1148 11.1568 5.93485 11.0369C5.63494 10.8569 5.48498 10.527 5.45499 10.497C5.39501 10.437 5.39501 10.3171 5.39501 10.2271C5.39501 10.1971 5.39501 10.1371 5.39501 10.1071C5.39501 9.98716 5.425 9.8672 5.425 9.74724C5.425 9.68725 5.39501 9.59728 5.45499 9.53729C5.51497 9.47731 5.60495 9.47731 5.63494 9.41733C5.66493 9.32736 5.69492 9.23738 5.72491 9.20739C5.72491 9.1774 5.81489 8.96746 5.7549 8.78751C5.72491 8.72753 5.72491 8.66755 5.63494 8.66755C5.60495 8.66755 5.60495 8.69754 5.57496 8.69754C5.54496 8.69754 5.54496 8.69754 5.54496 8.66755C5.54496 8.60757 5.57496 8.54758 5.57496 8.4876C5.57496 8.42762 5.57495 7.64785 5.0651 7.34794C4.55525 7.04802 4.34531 7.01803 3.95543 7.16799C3.7155 7.22797 3.53555 7.49789 3.41559 7.67783C3.32561 7.82779 3.20565 7.97775 3.14566 8.15769C3.08568 8.33764 3.11567 8.5176 3.14566 8.69754C3.14566 8.75753 3.17566 8.8175 3.14566 8.87748C3.14566 8.93747 3.11567 8.87748 3.08568 8.90748C3.05569 8.90748 2.96572 8.93747 2.99571 9.11742C3.0257 9.26737 3.14566 9.38734 3.14566 9.44732C3.14566 9.5373 3.17566 9.59727 3.23564 9.62726C3.26563 9.62726 3.29562 9.80722 3.29562 9.89719C3.29562 9.95718 3.38559 10.1071 3.44558 10.1671C3.56554 10.2871 3.68551 10.3471 3.7155 10.527C3.74549 10.7369 3.74549 10.8869 3.59553 11.0369C3.32561 11.3368 3.0257 11.5167 2.6658 11.6667C2.30591 11.8166 2.06598 12.1165 1.85604 12.4464C1.76607 12.5964 1.70608 12.7764 1.61611 12.8963C1.43616 13.1662 1.19623 13.3762 1.04628 13.6461C0.896321 13.916 0.776356 14.1859 0.716373 14.4858C0.656391 14.7558 0.596408 15.0857 0.626399 15.3556C0.686382 15.6855 1.16624 15.7455 1.43616 15.8654C1.61611 15.9254 1.88603 15.9254 2.03599 16.0754C2.18594 16.2553 2.06598 16.6152 2.03599 16.8252C1.94601 17.215 1.85604 17.5749 1.76607 17.9648C1.70608 18.1748 1.67609 18.3847 1.6461 18.5647C1.61611 18.7746 1.52614 19.0745 1.55613 19.3144C1.61611 19.5844 1.91602 19.6443 1.94601 19.9443C2.006 20.2742 1.85604 20.6341 1.82605 20.964C1.76607 21.3239 1.79606 21.6838 1.82605 22.0137C1.88603 23.1233 2.18594 24.203 1.97601 25.2827C1.91602 25.5826 1.85604 25.8825 1.85604 26.1824C1.82605 26.7223 1.85604 27.3221 1.94601 27.8619C2.006 28.3118 2.06598 28.7617 1.94601 29.2415C1.94601 29.3015 1.94601 29.3615 1.91602 29.4215C1.91602 29.5415 1.91602 29.6314 1.91602 29.7514C1.91602 29.8714 1.94601 29.9613 1.97601 30.0813C1.97601 30.2912 1.82605 30.5312 1.6461 30.6511C1.49615 30.7411 1.37618 30.8011 1.19623 30.8611C1.07627 30.8911 0.986294 30.9211 0.836338 30.981C0.746364 31.011 0.65639 31.041 0.536425 31.101C0.476443 31.131 0.386469 31.191 0.356478 31.251C0.326487 31.3109 0.326487 31.3409 0.356478 31.4009C0.476443 31.6708 0.806347 31.8208 1.07627 31.8508C1.37618 31.8808 1.6461 31.8508 1.94601 31.7908C2.21594 31.7308 2.51585 31.5209 2.81576 31.5809C3.20565 31.6708 3.83546 31.7008 4.22535 31.5509C4.52526 31.4309 4.37531 31.011 4.28533 30.8011C4.19536 30.5911 4.19536 30.3512 4.13538 30.1413C4.0454 29.9014 3.98542 29.6614 3.98542 29.4215C3.98542 29.1816 4.0454 28.9416 4.0454 28.7317C4.0454 28.1319 4.25534 27.532 4.22535 26.9022C4.22535 26.6923 4.25534 26.4823 4.31532 26.3024C4.34531 26.0925 4.31532 25.8825 4.34531 25.6426C4.3753 25.3427 4.49527 25.1327 4.58524 24.8628C4.70521 24.5629 4.76519 24.9228 4.79518 25.0428C4.85516 25.2827 4.94514 25.5526 4.94514 25.7926C4.94514 26.0325 5.03511 26.2124 5.09509 26.4224C5.12509 26.4823 5.12509 26.5423 5.12509 26.5723C5.21506 26.9322 5.18507 27.2921 5.12509 27.652C5.03511 28.2818 4.88516 28.8517 4.76519 29.4815C4.70521 29.7814 4.61523 30.1113 4.55525 30.4112C4.52526 30.5912 4.61524 30.7411 4.67522 30.8911C4.7352 31.011 4.88516 31.2809 4.76519 31.4009C4.76519 31.4309 4.7352 31.4309 4.7352 31.4609C4.70521 31.4909 4.67522 31.5509 4.64523 31.5809C4.52526 31.7308 4.37531 31.8808 4.25534 32.0307C4.01541 32.3606 4.13538 32.7505 4.52526 32.8105C4.55525 32.8105 4.58524 32.8105 4.61524 32.8105C4.88516 32.8405 5.15508 32.8405 5.39501 32.7805C5.57495 32.7505 5.78489 32.6905 5.93485 32.5706C6.08481 32.4506 6.02482 32.2707 6.23476 32.1207C6.23476 32.1207 6.53468 31.9108 6.65464 31.8508C6.77461 31.7908 6.74461 31.5809 6.74461 31.5509C6.74461 31.5209 6.68463 31.191 6.68463 31.191C6.68463 31.161 6.65464 31.101 6.65464 31.071C6.65464 31.041 6.65464 31.011 6.62465 30.981C6.62465 30.951 6.62465 30.8911 6.65464 30.8611C6.68463 30.8011 6.71462 30.7711 6.74461 30.7411C6.7746 30.7111 6.77461 30.6511 6.77461 30.6211C6.77461 30.5312 6.74461 30.4712 6.74461 30.3812C6.74461 30.3212 6.74461 30.2312 6.74461 30.1713C6.74461 30.1413 6.74461 30.1113 6.74461 30.0813C6.74461 29.8114 6.77461 29.5714 6.83459 29.3015C6.86458 29.1816 6.89457 29.0316 6.92456 28.9116C6.95455 28.8517 6.95455 28.7017 7.04453 28.7317C7.10451 28.7617 7.10451 28.8217 7.10451 28.8517C7.10451 28.9416 7.10451 29.0016 7.1345 29.0916C7.16449 29.2415 7.16449 29.4215 7.19448 29.5714C7.31445 30.2612 7.58437 30.8911 8.00425 31.4309C8.27417 31.7908 8.63406 32.0607 9.02395 32.3006C9.92369 32.7805 10.7035 32.8405 11.0634 32.8405C11.7831 32.8405 12.413 32.6605 12.6829 32.5106C13.7326 32.0907 14.2724 31.3709 14.8423 30.4712C15.1122 30.6811 15.3821 30.981 15.742 31.251C16.1919 31.5809 16.6417 31.7908 16.8217 31.8808C17.7814 32.3606 19.041 32.9305 21.3803 32.9305C26.2089 32.9305 28.6382 30.1713 29.6579 28.6417C31.7273 25.5826 31.8173 21.8937 31.8173 20.724C31.8773 16.7052 30.5877 12.5064 26.9887 10.1071ZM23.0898 20.664C23.0898 22.2836 22.8499 24.6829 21.7402 26.0325C20.8405 27.1122 19.5809 27.2021 19.071 27.2021C16.6717 27.2021 15.9219 25.2527 15.682 24.5029C15.2621 23.3333 15.1722 22.1036 15.1722 20.904C15.1722 19.0445 15.3521 16.6152 16.7617 15.2356C17.5415 14.5158 18.2912 14.3659 18.7411 14.3359C19.9708 14.2159 21.1404 14.7858 21.8602 15.7755C23.1198 17.455 23.0898 20.3042 23.0898 20.664Z" fill="#1C7795"/>
<path d="M80.6732 15.2057C79.2636 16.6153 79.0837 19.0446 79.0837 20.874C79.0837 22.1037 79.1736 23.3033 79.5935 24.473C79.8035 25.2527 80.5832 27.1722 82.9825 27.1722C83.4924 27.1722 84.752 27.0822 85.6518 26.0025C86.7914 24.6529 87.0014 22.2536 87.0014 20.6341C87.0014 20.2742 87.0613 17.425 85.7717 15.7155C85.0519 14.7258 83.8823 14.126 82.6526 14.2759C82.2028 14.3359 81.423 14.4859 80.6732 15.2057ZM79.3536 11.3368C79.6535 10.9169 79.8035 10.767 79.9834 10.557C80.7932 9.77726 82.7426 8.51763 85.6518 8.51763C86.6115 8.51763 88.7109 8.63759 90.8702 10.1072C94.4692 12.5065 95.7288 16.6752 95.7288 20.7541C95.7288 21.9237 95.6388 25.6126 93.5694 28.6717C92.5198 30.2013 90.0905 32.9605 85.2919 32.9605C82.9525 32.9605 81.6929 32.4207 80.7332 31.9408C80.5532 31.8508 80.1034 31.6409 79.6535 31.311C79.2936 31.0411 79.0237 30.7711 78.7538 30.5312C78.1539 31.4309 77.6141 32.1507 76.5944 32.5706C76.3245 32.6906 75.6947 32.8705 74.9749 32.8705C74.615 32.8705 73.8352 32.8105 72.9355 32.3307C70.7761 31.101 70.986 28.5518 70.986 27.922V6.02835C71.016 4.22888 70.986 2.4594 72.3956 1.16977C73.4453 0.180063 74.7349 0.0900879 75.2448 0.0900879C76.8643 0.0900879 78.5438 1.0798 79.0837 2.66934C79.3536 3.29915 79.3536 4.10891 79.3536 4.25887V11.3368Z" fill="#1C7795"/>
<path d="M112.015 21.6537C111.295 21.8936 110.575 22.1336 109.885 22.3735C109.105 22.5834 108.356 22.8234 107.636 23.0033C106.556 23.3332 105.057 23.7831 105.057 25.1627C105.057 26.1224 105.656 27.2021 107.486 27.2021C109.825 27.2021 111.415 25.7925 111.985 25.2826V21.6537M119.902 29.0016C119.902 29.1215 119.902 30.1412 119.632 30.861C119.302 31.7308 118.463 32.9304 116.213 32.9304C115.644 32.9304 113.964 32.8104 112.974 31.2509C112.734 30.891 112.614 30.5611 112.374 29.8413C112.105 30.0812 111.415 30.831 110.575 31.4309C109.495 32.1506 107.726 32.9604 104.667 32.9604C104.037 32.9604 101.788 32.9004 99.9881 31.8207C99.7482 31.6708 99.1184 31.2809 98.5485 30.5911C96.959 28.7316 96.959 26.7522 96.959 25.8525C96.959 24.173 97.2889 21.2638 101.068 19.4643C103.407 18.3847 107.726 17.8448 110.215 17.245C110.455 17.215 111.805 16.9751 111.805 15.6555C111.805 14.6957 110.935 13.796 109.015 13.796C108.776 13.796 108.566 13.796 108.296 13.826C107.876 13.856 106.616 13.886 105.806 14.8457C105.476 15.2056 105.297 15.6555 105.027 16.0753C104.307 17.065 103.227 17.6949 101.968 17.6949C100.108 17.6949 98.2786 16.3752 98.2786 14.3958C98.2786 13.856 98.4586 12.8963 99.2683 11.8166C101.398 9.11737 105.387 8.48755 108.596 8.48755C109.555 8.48755 110.455 8.51754 111.355 8.63751C112.494 8.72748 117.293 9.17735 119.183 13.2861C119.632 14.2759 119.872 15.0556 119.902 17.125V29.0016Z" fill="#1C7795"/>
<path d="M169.027 25.6126L164.169 18.3247L167.438 14.9657C168.247 14.0659 169.027 13.1062 169.027 11.7866C169.027 10.377 168.067 9.0274 166.748 8.51755C166.598 8.45757 166.118 8.3376 165.608 8.3376C164.019 8.3376 163.059 9.23734 162.039 10.287L156.101 16.9451V5.33848C156.071 4.73865 156.191 2.06944 154.122 0.719829C153.162 0.0900127 152.262 0.0300293 151.872 0.0300293C151.362 0.0300293 150.283 0.0900118 149.203 0.929767C148.063 1.8295 147.673 3.08914 147.583 4.49873C147.523 4.91861 147.523 5.2785 147.523 5.66839C147.523 5.69838 147.523 5.72836 147.523 5.75836C147.523 5.84833 147.523 5.9383 147.523 6.02827C147.523 6.17823 147.523 6.32819 147.523 6.44816C147.523 6.62811 147.523 6.80805 147.523 6.988C147.523 7.19794 147.523 7.40788 147.523 7.61782C147.523 7.85775 147.523 8.06768 147.523 8.27762C147.523 8.51755 147.523 8.72749 147.523 8.96742C147.523 9.17736 147.523 9.41728 147.523 9.62722C147.523 9.83716 147.523 10.0471 147.523 10.257C147.523 10.437 147.523 10.6169 147.523 10.7969C147.523 10.9468 147.523 11.0668 147.523 11.2168C147.523 11.3067 147.523 11.3967 147.523 11.4867C147.523 11.5467 147.583 11.5167 147.613 11.4867C147.673 11.4567 147.703 11.4267 147.733 11.3967C147.853 11.3067 147.973 11.2468 148.093 11.1568C148.303 11.0368 148.303 10.7969 148.453 10.6169C148.513 10.527 148.633 10.5869 148.693 10.557C148.813 10.437 148.873 10.1071 148.813 9.95713C148.753 9.86716 148.663 9.86716 148.633 9.80717C148.603 9.74719 148.603 9.65722 148.573 9.59724C148.543 9.56725 148.453 9.59724 148.423 9.53725C148.273 9.23734 148.183 8.84746 148.213 8.48756C148.243 8.24763 148.423 8.12767 148.483 7.88774C148.513 7.6778 148.483 7.61781 148.693 7.43787C149.053 7.10796 149.503 6.988 149.983 6.988C150.133 6.988 150.493 7.07797 150.613 7.13795C150.852 7.25792 151.002 7.34789 151.092 7.58782C151.242 7.91773 151.092 7.97771 151.092 8.27762C151.092 8.39758 151.152 8.48756 151.152 8.63752C151.182 8.78747 151.182 8.90743 151.182 9.0274C151.182 9.29732 151.242 9.38729 151.152 9.62722C151.062 9.86715 150.972 10.0471 150.942 10.347C150.912 10.587 150.852 10.7969 150.583 10.8569C150.523 10.8569 150.463 10.8569 150.403 10.9169C150.283 11.0668 150.463 11.1268 150.493 11.2767C150.523 11.3967 150.433 11.4567 150.463 11.5767C150.493 11.7266 150.523 11.8766 150.583 11.9965C150.703 12.2365 150.792 12.5964 151.002 12.7763C151.092 12.8663 151.182 12.8963 151.212 13.0162C151.242 13.1062 151.272 13.2562 151.272 13.3461C151.302 13.5861 151.302 13.826 151.362 14.0959C151.452 14.6058 151.482 15.1156 151.572 15.6255C151.632 16.0454 151.872 16.4352 151.872 16.8551C151.872 17.215 151.992 17.5449 152.022 17.8748C152.052 18.5646 151.962 19.2244 152.022 19.9142C152.022 19.9442 152.052 19.9442 152.112 20.2741C152.142 20.724 152.202 20.694 152.202 20.814C152.202 20.844 152.202 20.9039 152.202 20.9339C152.202 20.9639 152.142 20.9639 152.142 20.9939C152.112 21.0239 152.112 21.0239 152.112 21.0539C152.112 21.1139 152.082 21.1439 152.052 21.1439C151.992 21.1739 151.872 21.1439 151.902 21.2338C152.052 21.9536 152.502 23.7231 152.502 24.053C152.502 24.2929 152.382 24.4729 152.352 24.7128C152.292 24.9528 152.292 25.1927 152.292 25.4326C152.322 25.6725 152.262 25.9425 152.202 26.1824C152.112 26.6922 152.052 27.2021 151.932 27.712C151.842 28.2218 151.752 28.7017 151.662 29.2115C151.632 29.3315 151.602 29.4514 151.602 29.5714C151.602 29.6314 151.572 29.6914 151.572 29.7514C151.542 29.8713 151.512 29.9913 151.512 30.1113C151.512 30.1712 151.512 30.2012 151.512 30.2612C151.512 30.3212 151.542 30.3812 151.572 30.4112C151.662 30.5311 151.842 30.5611 151.992 30.5911C152.142 30.6211 152.232 30.6211 152.412 30.6511C152.562 30.6511 152.712 30.6511 152.832 30.7411C152.952 30.831 152.892 31.011 152.922 31.131C152.952 31.1909 152.772 31.2809 152.652 31.3109C152.592 31.3409 152.532 31.3409 152.472 31.3709C152.262 31.4009 152.022 31.4309 151.812 31.4309C151.722 31.4309 151.032 31.4309 150.762 31.3709C150.703 31.3709 150.643 31.3409 150.583 31.3109L150.553 31.2809C150.493 31.2509 150.433 31.2809 150.433 31.2809C150.433 31.2809 150.433 31.3109 150.433 31.3409C150.433 31.4309 150.373 31.4309 150.313 31.4309C150.193 31.4309 150.073 31.4009 149.953 31.4009C149.923 31.4009 149.863 31.3709 149.863 31.4009C149.833 31.4908 149.983 31.6408 150.043 31.7008C150.163 31.8207 150.283 31.9107 150.403 32.0007C150.493 32.0907 150.583 32.2406 150.583 32.3606C150.583 32.4506 150.583 32.5405 150.583 32.6005C150.583 32.6605 150.583 32.7205 150.643 32.7505C150.673 32.7505 150.703 32.7805 150.733 32.7805C150.792 32.7805 150.822 32.8105 150.882 32.8105C151.152 32.8704 151.422 32.9004 151.722 32.9304C151.812 32.9304 151.902 32.9304 151.962 32.9304C153.852 32.9304 155.441 31.7908 155.981 29.9013C156.161 29.2715 156.191 28.6417 156.191 28.3718V25.6426L158.08 23.7831L162.369 30.4711C162.639 30.891 162.909 31.2509 163.239 31.5508C164.049 32.4206 165.038 32.9004 166.238 32.9004C168.487 32.9004 170.317 31.1909 170.347 28.8816C170.257 27.2621 169.297 26.0324 169.027 25.6126Z" fill="#1C7795"/>
<path d="M62.5583 9.41735C60.219 8.36766 57.9097 8.33766 57.01 8.33766C51.0117 8.27768 47.9226 10.9469 46.423 12.9863C44.2637 15.9554 44.2637 19.3445 44.2637 20.5441C44.2637 22.1036 44.2637 25.9125 47.1428 29.3315C48.5524 30.9811 50.9217 32.9305 55.6603 33.1404C55.5704 32.6006 55.4804 32.0308 55.3304 31.4909C55.0005 30.3213 55.3304 28.8817 55.3304 28.8817C55.3904 28.1919 55.1505 26.9322 55.0305 26.3924C55.0305 26.3324 55.0005 26.3024 55.0005 26.2724C54.9705 26.2424 54.9406 26.2424 54.9106 26.2424C54.8806 26.2424 54.8206 26.2424 54.7906 26.2124C54.7306 26.1525 54.7606 26.0625 54.7006 26.0025C54.6706 25.9725 54.6107 25.9425 54.5507 25.9125C54.4307 25.8526 54.4007 25.7026 54.3707 25.5826C54.3407 25.4027 54.4307 25.1028 54.3407 24.9228C54.2508 24.7429 53.9808 24.7429 53.8309 24.6229C53.471 24.353 53.8309 23.9631 53.8009 23.6332C53.7709 23.4233 53.6809 23.2133 53.6509 23.0034C53.6209 22.7934 53.6209 22.5835 53.6209 22.3736C53.6209 21.8937 53.6809 21.4138 53.7709 20.964V20.814C53.6809 19.9143 53.7409 19.0146 53.9209 18.1448C54.0108 17.7549 54.1308 17.365 54.2808 17.0051C54.3407 16.8552 54.4307 16.6752 54.5207 16.5253C54.7906 16.0154 54.3707 16.0454 54.3707 15.5955C54.3707 15.2357 54.6107 14.8758 54.7606 14.5459C55.0605 13.8561 55.0305 13.1663 55.3304 12.4765C55.4204 12.2065 55.5404 11.9966 55.7503 11.7867C55.9303 11.6067 56.2902 11.4867 56.5601 11.5167C57.2799 11.5467 57.7597 11.9966 57.9397 12.6864C57.9997 12.9563 58.1196 13.6461 58.2396 14.2759C58.2696 14.5159 58.3895 14.9357 58.5995 15.0857C58.6295 15.1157 58.6895 15.1157 58.7195 15.1457C58.8094 15.1757 58.8694 15.2057 58.8394 15.3256C58.8094 15.4756 58.7494 15.6255 58.6595 15.7455C58.5695 15.8655 58.4195 15.9255 58.3596 16.0454C58.2996 16.1654 58.3896 16.1954 58.4795 16.2254C58.7794 16.3453 58.9294 16.5253 59.0494 16.8252C59.2893 17.365 59.4093 17.9948 59.4692 18.5647C59.5292 18.9546 59.5592 19.3445 59.5892 19.7643C59.5892 19.9143 59.5592 20.0942 59.5292 20.2442C59.4992 20.4541 59.5592 20.5441 59.6192 20.724C59.7392 21.1739 59.6192 21.7737 59.6192 22.2536C59.6192 22.3436 59.6192 22.4335 59.6192 22.5235C59.6192 22.5235 59.6192 22.5235 59.6192 22.5535C59.6192 22.6135 59.6192 22.6435 59.6192 22.7035C59.6192 22.7934 59.6192 22.9134 59.6192 22.9434C59.6192 23.0334 59.6492 23.1533 59.6792 23.2433C59.7092 23.3333 59.7991 23.3933 59.8291 23.4832C59.9191 23.6332 59.8891 23.8131 59.7991 23.9631C59.7392 24.0531 59.7092 24.1131 59.6192 24.173C59.4992 24.293 59.3193 24.353 59.2593 24.5029C59.1993 24.6229 59.2593 24.7729 59.2593 24.8928C59.2593 25.0128 59.2893 25.1628 59.2893 25.2827C59.2593 25.3727 59.1393 25.5526 59.1093 25.6126C59.0494 25.7026 59.0194 25.8226 58.9294 25.8825C58.9294 25.8825 58.8994 25.8825 58.8994 25.9125C58.8694 25.9425 58.8394 25.9725 58.7794 26.0025C58.7494 26.0025 58.6895 26.0625 58.6595 26.0625C58.6295 26.0625 58.6295 26.0625 58.5995 26.0625C58.5695 26.0625 58.5695 26.0325 58.5395 26.0625C58.5395 26.0925 58.5395 26.1225 58.5095 26.1525C58.4795 26.2124 58.4795 26.2724 58.4795 26.3324C58.4495 26.4524 58.4495 26.5723 58.4195 26.6923C58.3596 26.9922 58.2696 27.2621 58.1796 27.5621C58.0896 27.802 57.9997 28.0419 57.8497 28.2519C57.7897 28.3718 57.7297 28.4618 57.7297 28.5818C57.7297 28.7017 57.6998 28.8217 57.6998 28.9417C57.6698 29.0916 57.6398 29.2416 57.6098 29.3915C57.5498 29.5415 57.4598 29.6314 57.4298 29.7814C57.4298 29.8114 57.4298 29.8414 57.4298 29.8714C57.4298 30.0513 57.2799 32.0008 57.2499 32.7805C57.2499 32.9305 57.2199 33.1104 57.2199 33.2604C59.6492 33.1704 65.5874 32.4506 68.0167 26.6923C69.0664 24.293 69.1264 21.7437 69.1264 20.874C69.0664 16.0154 67.087 11.4268 62.5583 9.41735Z" fill="#1C7795"/>
<path d="M8.15321 41.5079C8.15321 41.6879 8.15321 41.9278 8.00325 42.0778C7.88329 42.2277 7.70334 42.2277 7.64336 42.2277C7.58338 42.2277 7.43342 42.2277 7.31345 42.1377C7.10352 41.9878 7.10352 41.7479 7.10352 41.5379V38.2089C7.10352 38.1189 7.10352 38.0289 7.13351 37.939C7.1635 37.819 7.28346 37.5491 7.64336 37.5491C7.88329 37.5491 8.09323 37.699 8.12322 37.939C8.15321 38.0289 8.15321 38.2089 8.15321 38.2089V41.5079Z" fill="#1C7795"/>
<path d="M13.5832 41.5978C13.5832 41.7477 13.5832 41.7777 13.5532 41.8377C13.4932 42.0477 13.3133 42.1676 13.1033 42.1676C13.0433 42.1676 12.8634 42.1676 12.7434 42.0177C12.6235 41.8977 12.6235 41.7477 12.6235 41.5678V40.1882C12.6235 40.0982 12.6535 39.5284 12.1436 39.5284C11.9037 39.5284 11.7237 39.6784 11.6638 39.9183C11.6638 39.9783 11.6338 40.0682 11.6338 40.1882V41.5678C11.6338 41.7477 11.6038 41.9277 11.4538 42.0477C11.3638 42.1076 11.2439 42.1376 11.1539 42.1376C10.824 42.1376 10.704 41.8977 10.674 41.7777C10.644 41.6878 10.644 41.6578 10.644 41.5378V40.2482C10.644 40.0982 10.644 39.9483 10.5841 39.7983C10.5541 39.7083 10.4341 39.5284 10.1642 39.5284C10.1042 39.5284 9.98424 39.5284 9.86428 39.6184C9.68433 39.7683 9.65434 40.0383 9.65434 40.2782V41.5378C9.65434 41.7478 9.65434 41.9277 9.47439 42.0477C9.38442 42.1076 9.29444 42.1076 9.20447 42.1076C9.14449 42.1076 8.93455 42.1076 8.81458 41.8977C8.7546 41.7777 8.72461 41.6578 8.72461 41.5078V39.2285C8.72461 39.0485 8.7546 38.8386 8.93455 38.7186C8.96454 38.6886 9.05451 38.6587 9.17448 38.6587C9.29444 38.6587 9.38442 38.6886 9.41441 38.7186C9.59436 38.8086 9.62435 38.9586 9.65434 39.1385C9.68433 39.0785 9.74431 38.9586 9.89427 38.8386C10.0142 38.7486 10.1942 38.6287 10.5241 38.6287C10.644 38.6287 11.0339 38.6287 11.3039 38.9586C11.3338 39.0186 11.3938 39.0785 11.4538 39.1985C11.4538 39.1685 11.4838 39.1385 11.5138 39.1385C11.7537 38.8086 12.0536 38.6287 12.4735 38.6287C12.7134 38.6287 12.9534 38.6886 13.1633 38.8386C13.5832 39.1385 13.5832 39.5884 13.5832 40.0383V41.5978Z" fill="#1C7795"/>
<path d="M15.0828 42.5576C15.0828 42.8875 15.0228 43.0075 14.8728 43.1274C14.7829 43.1874 14.6929 43.2174 14.6029 43.2174C14.5129 43.2174 14.243 43.1874 14.153 42.8875C14.123 42.8275 14.123 42.7675 14.123 42.6176V39.3785C14.123 39.2286 14.123 39.1986 14.153 39.1386C14.213 38.8987 14.363 38.7787 14.6029 38.7787C14.7529 38.7787 14.8128 38.8087 14.8728 38.8387C14.9028 38.8687 14.9628 38.8987 15.0228 38.9886C15.0528 39.0486 15.0528 39.0786 15.0828 39.1686C15.1128 39.1086 15.1727 39.0186 15.2327 38.9886C15.3527 38.8687 15.5926 38.6887 16.0425 38.6887C16.1025 38.6887 16.2224 38.6887 16.3724 38.7187C16.6723 38.7787 16.9122 38.9586 17.0922 39.1986C17.2721 39.4385 17.4521 39.7684 17.4521 40.3982C17.4521 40.5182 17.4521 40.9081 17.3021 41.268C17.1822 41.5679 16.8523 42.1977 15.9525 42.1977C15.6226 42.1977 15.3827 42.0777 15.2927 42.0177C15.2027 41.9578 15.2027 41.9278 15.0828 41.8378V42.5576ZM15.4127 39.5885C15.2027 39.7384 15.0828 39.9783 15.0828 40.4882C15.0828 40.7881 15.1128 41.118 15.3827 41.3279C15.4427 41.3879 15.5626 41.4779 15.7726 41.4779C15.9225 41.4779 16.0125 41.4479 16.0725 41.3879C16.4924 41.148 16.4624 40.4882 16.4624 40.4282C16.4624 40.3382 16.4624 39.4685 15.7726 39.4685C15.7126 39.4985 15.5626 39.4985 15.4127 39.5885Z" fill="#1C7795"/>
<path d="M18.8308 41.5979C18.8308 41.8079 18.8308 42.0178 18.6209 42.1378C18.5309 42.1678 18.4409 42.1978 18.351 42.1978C18.261 42.1978 17.9911 42.1678 17.9011 41.8979C17.8711 41.8079 17.8711 41.6879 17.8711 41.5979V39.3486C17.8711 39.1387 17.8711 38.9587 18.051 38.8388C18.141 38.7788 18.231 38.7488 18.321 38.7488C18.4709 38.7488 18.5909 38.8088 18.6809 38.9287C18.7708 39.0787 18.7708 39.2286 18.7708 39.4086C18.8008 39.2886 18.8608 39.1987 18.9208 39.1087C19.0707 38.8687 19.3107 38.7488 19.6106 38.7488C19.8805 38.7488 20.0904 38.8987 20.0904 39.1687C20.0904 39.2886 20.0305 39.4086 20.0005 39.4386C19.8505 39.6185 19.6106 39.5885 19.4006 39.6185C19.3407 39.6185 19.1907 39.6485 19.0707 39.7685C18.8608 39.9784 18.8608 40.3083 18.8608 40.5782V41.5979" fill="#1C7795"/>
<path d="M22.9991 39.1985C23.1791 39.3785 23.449 39.7984 23.449 40.4582C23.449 40.5781 23.449 40.878 23.329 41.178C23.0291 41.8977 22.4293 42.1077 22.1594 42.1677C21.9494 42.2276 21.7695 42.2276 21.7095 42.2276C21.3196 42.2276 21.0497 42.1377 20.8997 42.0477C20.2699 41.7478 20 41.088 20 40.4282C20 40.0083 20.12 39.5884 20.3899 39.2585C20.5698 39.0186 21.0197 38.6887 21.7395 38.6587C22.3993 38.6887 22.8192 39.0186 22.9991 39.1985ZM21.4696 39.5284C21.1996 39.6184 20.9597 39.8883 20.9597 40.4582C20.9597 40.5481 20.9597 40.7881 21.0497 41.028C21.2296 41.4179 21.5595 41.4779 21.7395 41.4779C21.8894 41.4779 22.0394 41.4179 22.1594 41.3279C22.4893 41.058 22.4893 40.5481 22.4893 40.4582C22.4893 40.1583 22.4293 39.8283 22.1894 39.6484C22.0094 39.4984 21.7995 39.4984 21.7395 39.4984C21.5895 39.4685 21.4996 39.4984 21.4696 39.5284Z" fill="#1C7795"/>
<path d="M24.9499 40.8482C24.9799 40.9381 24.9799 41.0281 25.0099 41.1181C25.0399 40.8482 25.0699 40.7582 25.0999 40.6082L25.4898 39.2286C25.4898 39.1986 25.5197 39.1387 25.5497 39.0787C25.5797 38.9887 25.6697 38.7488 25.9696 38.7488C25.9996 38.7488 26.0896 38.7488 26.1796 38.8088C26.2695 38.8388 26.4195 38.9587 26.4195 39.1986C26.4195 39.2586 26.4195 39.3186 26.3595 39.4686L25.6397 41.6279C25.4898 42.0178 25.4598 42.1978 24.9799 42.1978C24.9499 42.1978 24.74 42.1978 24.62 42.1078C24.5 42.0478 24.4401 41.8679 24.3801 41.7479L23.6303 39.5286C23.6003 39.4386 23.5703 39.3486 23.5703 39.2286C23.5703 39.1986 23.5703 39.1087 23.6003 39.0487C23.6603 38.8687 23.8402 38.7788 24.0202 38.7788C24.1401 38.7788 24.2001 38.8088 24.2601 38.8388C24.4401 38.9287 24.5 39.1387 24.56 39.3186L24.8899 40.6682L24.9499 40.8482Z" fill="#1C7795"/>
<path d="M26.7194 37.9388C26.7194 37.6689 26.9294 37.459 27.1993 37.459C27.4692 37.459 27.6792 37.6689 27.6792 37.9388C27.6792 38.2088 27.4692 38.4187 27.1993 38.4187C27.1393 38.4187 26.9894 38.4187 26.8694 38.2687C26.8094 38.2388 26.7194 38.1188 26.7194 37.9388ZM27.6492 41.5978C27.6492 41.5978 27.6492 41.7477 27.6192 41.8377C27.5892 41.9277 27.4992 42.1976 27.1693 42.1976C27.1393 42.1976 27.0194 42.1976 26.8994 42.1376C26.7194 42.0177 26.6895 41.8077 26.6895 41.5978V39.3184C26.6895 39.1085 26.7194 38.9286 26.8994 38.8086C27.0194 38.7486 27.1093 38.7486 27.1693 38.7486C27.4692 38.7486 27.5592 38.9286 27.6192 39.0485C27.6492 39.1385 27.6492 39.1985 27.6492 39.3184V41.5978Z" fill="#1C7795"/>
<path d="M30.2875 40.1883C30.2875 39.9784 30.2575 39.7385 30.0475 39.6185C30.0175 39.5885 29.8976 39.5285 29.7776 39.5285C29.7176 39.5285 29.5977 39.5285 29.4477 39.6185C29.1478 39.7984 29.1778 40.1883 29.1778 40.2783V41.6279C29.1778 41.7779 29.1778 41.8079 29.1478 41.8978C29.0578 42.1677 28.7879 42.1977 28.7279 42.1977C28.6679 42.1977 28.458 42.1977 28.338 41.9878C28.278 41.8978 28.278 41.8079 28.248 41.5979V39.2886C28.248 39.1386 28.248 39.0786 28.278 39.0187C28.368 38.7487 28.6379 38.7487 28.7279 38.7487C28.9978 38.7487 29.1178 38.9287 29.1478 39.0187C29.1778 39.0487 29.1778 39.1086 29.2078 39.1986C29.2378 39.1686 29.2677 39.1086 29.2977 39.0786C29.4177 38.9287 29.6576 38.7188 30.1075 38.7188C30.7973 38.7188 31.0972 39.1686 31.1572 39.4086C31.2172 39.5885 31.2472 39.7684 31.2472 39.9484V41.5979C31.2472 41.8079 31.2472 41.9878 31.0672 42.1078C31.0072 42.1378 30.9173 42.1977 30.7973 42.1977C30.7373 42.1977 30.6473 42.1977 30.5574 42.1378C30.3174 41.9878 30.3474 41.6879 30.3474 41.6279V40.1883" fill="#1C7795"/>
<path d="M34.9657 41.5979C34.9657 41.7179 34.9657 41.8378 34.9657 41.9278C34.9358 42.2577 34.9058 42.5576 34.6658 42.8276C34.3359 43.2174 33.7661 43.3674 33.2562 43.3674C32.9563 43.3674 32.7164 43.3374 32.4465 43.2174C32.2066 43.1275 31.9666 42.9775 31.9666 42.6776C31.9666 42.4377 32.1466 42.2577 32.3865 42.2577C32.4765 42.2577 32.5365 42.2877 32.5664 42.2877C32.6864 42.3177 32.7764 42.4377 32.8664 42.4976C33.0163 42.5876 33.1363 42.6176 33.3162 42.6176C33.4062 42.6176 33.7061 42.6176 33.8861 42.3777C34.036 42.1977 34.006 41.9878 34.036 41.5379C34.006 41.5679 33.976 41.5979 33.9161 41.6579C33.7661 41.7779 33.5262 41.9578 33.0463 41.9578C32.5964 41.9578 32.2965 41.7479 32.1766 41.6579C31.9666 41.478 31.6367 41.0581 31.6367 40.3683C31.6367 40.2183 31.6667 39.7385 31.9066 39.3486C32.0566 39.1386 32.3865 38.7188 33.0763 38.7188C33.1963 38.7188 33.5262 38.7188 33.7961 38.9287C33.8861 38.9887 33.946 39.0787 34.006 39.1386C34.036 39.0487 34.126 38.7787 34.4559 38.7787C34.5159 38.7787 34.7258 38.7787 34.8458 38.9587C34.9358 39.1086 34.9358 39.2286 34.9358 39.3786V41.5979M33.1063 39.5285C32.9263 39.5885 32.5964 39.7984 32.5964 40.3383C32.5964 40.4582 32.5964 40.5482 32.6564 40.6682C32.6864 40.8181 32.8664 41.148 33.2862 41.148C33.3462 41.148 33.4662 41.148 33.5862 41.0881C33.7661 40.9981 34.006 40.7881 34.006 40.2783C34.006 40.0084 33.9161 39.7085 33.6761 39.5585C33.5562 39.4985 33.4362 39.4685 33.3162 39.4685C33.2862 39.4985 33.1963 39.4985 33.1063 39.5285Z" fill="#1C7795"/>
<path d="M38.6552 38.7787C38.7452 38.7787 38.8052 38.7787 38.8652 38.8087C39.0151 38.8687 39.0751 38.9886 39.0751 39.1386C39.0751 39.1686 39.0751 39.3185 38.9552 39.4085C38.8352 39.4985 38.6552 39.4985 38.6253 39.4985H38.5053V41.118C38.5053 41.208 38.5053 41.238 38.5353 41.298C38.5653 41.3879 38.6253 41.4479 38.8052 41.4479C38.8652 41.4479 38.8952 41.4479 38.9252 41.4479C39.1051 41.4779 39.1651 41.6279 39.1651 41.7778C39.1651 41.8078 39.1651 41.8978 39.1051 41.9878C39.0151 42.1377 38.8052 42.1977 38.4753 42.1977C38.0854 42.1977 37.8755 42.1077 37.7555 41.9578C37.5756 41.7778 37.5756 41.5379 37.5756 41.298V39.4985C37.4556 39.4985 37.3956 39.4985 37.3356 39.4985C37.2457 39.4685 37.0957 39.3785 37.0957 39.1386C37.0957 39.0486 37.0957 38.9886 37.1557 38.9287C37.2457 38.7787 37.3956 38.7787 37.5756 38.7787V38.3288C37.5756 38.1189 37.6056 37.909 37.7855 37.789C37.9055 37.729 37.9954 37.729 38.0254 37.729C38.1754 37.729 38.2654 37.789 38.2954 37.819C38.4753 37.9389 38.4753 38.1489 38.4753 38.3588V38.8087H38.6552" fill="#1C7795"/>
<path d="M42.3434 41.6278C42.3434 41.6877 42.3434 41.7177 42.3434 41.7477C42.3434 41.9577 42.2535 42.0476 42.1935 42.1076C42.1335 42.1376 42.0435 42.1976 41.8936 42.1976C41.7736 42.1976 41.6536 42.1676 41.5637 42.0776C41.5037 42.0177 41.4737 41.9277 41.4737 41.8977C41.4437 41.8077 41.4437 41.7177 41.4437 41.6278V40.1282C41.4437 40.0082 41.4137 39.5584 40.9339 39.5584C40.6639 39.5584 40.544 39.7083 40.484 39.7983C40.394 39.9483 40.364 40.1582 40.364 40.3381V41.5678C40.364 41.7777 40.364 41.9877 40.1541 42.1076C40.0641 42.1676 39.9741 42.1676 39.8842 42.1676C39.8542 42.1676 39.7642 42.1676 39.6442 42.1076C39.4043 41.9877 39.4043 41.7777 39.4043 41.5678V37.9089C39.4043 37.8189 39.4343 37.6389 39.6442 37.519C39.7342 37.459 39.8542 37.459 39.8842 37.459C39.9741 37.459 40.0941 37.489 40.1541 37.549C40.394 37.6989 40.364 37.9988 40.364 38.0588V39.0785C40.394 39.0185 40.454 38.9885 40.484 38.9585C40.6039 38.8686 40.8739 38.6886 41.2638 38.6886C41.3237 38.6886 41.4437 38.6886 41.5937 38.7186C41.7436 38.7486 42.1635 38.9286 42.3134 39.3784C42.3734 39.5284 42.3734 39.6483 42.3734 39.9183V41.6278" fill="#1C7795"/>
<path d="M43.6935 40.7582C43.7235 40.9381 43.7535 40.9981 43.7835 41.0881C43.8435 41.208 44.0234 41.5079 44.4433 41.5079C44.5333 41.5079 44.7432 41.5079 44.9232 41.328C44.9832 41.268 45.0731 41.118 45.2831 41.118C45.523 41.118 45.7029 41.328 45.7029 41.5679C45.7029 41.7479 45.553 41.8978 45.403 42.0178C45.2231 42.1378 44.9232 42.2877 44.3833 42.2877C44.2034 42.2877 43.6335 42.2877 43.2137 41.8678C43.0037 41.6579 42.6738 41.238 42.6738 40.5182C42.6738 40.2783 42.7038 39.5285 43.3636 39.0487C43.5436 38.9287 43.8735 38.7188 44.4133 38.7188C44.6233 38.7188 45.1931 38.7487 45.583 39.2286C45.9129 39.6485 45.9429 40.1583 45.9429 40.3083C45.9429 40.3683 45.9729 40.6382 45.7329 40.7282C45.673 40.7282 45.643 40.7582 45.523 40.7582H43.6935ZM45.0731 40.0384C45.0731 40.0084 45.0431 39.8584 44.9832 39.7385C44.8632 39.5285 44.6533 39.4385 44.4133 39.4385C44.3233 39.4385 44.1134 39.4385 43.9335 39.6185C43.8135 39.7385 43.7835 39.8584 43.7235 40.0084L45.0731 40.0384Z" fill="#1C7795"/>
<path d="M51.1325 41.6278C51.1325 41.6877 51.1325 41.7177 51.1325 41.7477C51.1325 41.9577 51.0425 42.0476 50.9825 42.1076C50.9226 42.1376 50.8326 42.1976 50.6826 42.1976C50.5627 42.1976 50.4427 42.1676 50.3527 42.0776C50.2927 42.0177 50.2628 41.9277 50.2628 41.8977C50.2328 41.8077 50.2328 41.7177 50.2328 41.6278V40.1282C50.2328 40.0082 50.2028 39.5584 49.7229 39.5584C49.453 39.5584 49.333 39.7083 49.273 39.7983C49.1831 39.9483 49.1531 40.1582 49.1531 40.3381V41.5678C49.1531 41.7777 49.1531 41.9877 48.9431 42.1076C48.8532 42.1676 48.7632 42.1676 48.6732 42.1676C48.6132 42.1676 48.5533 42.1676 48.4333 42.1076C48.1934 41.9877 48.1934 41.7777 48.1934 41.5678V37.9089C48.1934 37.8189 48.2234 37.6389 48.4333 37.519C48.5233 37.459 48.6432 37.459 48.6732 37.459C48.7632 37.459 48.8532 37.489 48.9431 37.549C49.1831 37.6989 49.1531 37.9988 49.1531 38.0588V39.0785C49.2131 39.0185 49.2431 38.9885 49.303 38.9585C49.423 38.8686 49.6929 38.6886 50.0828 38.6886C50.1428 38.6886 50.2628 38.6886 50.4127 38.7186C50.5627 38.7486 50.9825 38.9286 51.1325 39.3784C51.1925 39.5284 51.1925 39.6483 51.1925 39.9183V41.6278" fill="#1C7795"/>
<path d="M52.5705 40.7582C52.6005 40.9381 52.6305 40.9981 52.6605 41.0881C52.7204 41.208 52.9004 41.5079 53.3203 41.5079C53.4102 41.5079 53.6202 41.5079 53.8001 41.328C53.8601 41.268 53.9501 41.118 54.16 41.118C54.3999 41.118 54.5799 41.328 54.5799 41.5679C54.5799 41.7479 54.4299 41.8978 54.28 42.0178C54.1 42.1378 53.8001 42.2877 53.2603 42.2877C53.0803 42.2877 52.5105 42.2877 52.0906 41.8678C51.8807 41.6579 51.5508 41.238 51.5508 40.5182C51.5508 40.2783 51.5808 39.5285 52.2106 39.0487C52.3905 38.9287 52.7204 38.7188 53.2603 38.7188C53.4702 38.7188 54.0401 38.7487 54.4299 39.2286C54.7598 39.6485 54.7898 40.1583 54.7898 40.3083C54.7898 40.3683 54.8198 40.6382 54.5799 40.7282C54.5199 40.7282 54.4899 40.7582 54.37 40.7582H52.5705ZM53.9201 40.0384C53.9201 40.0084 53.8901 39.8584 53.8301 39.7385C53.7102 39.5285 53.5002 39.4385 53.2603 39.4385C53.1703 39.4385 52.9604 39.4385 52.7804 39.6185C52.6605 39.7385 52.6305 39.8584 52.5705 40.0084L53.9201 40.0384Z" fill="#1C7795"/>
<path d="M58.1803 41.4779C58.1803 41.5379 58.1803 41.5679 58.1803 41.6279C58.1803 41.7178 58.1503 42.1977 57.7005 42.1977C57.3706 42.1977 57.2806 41.8978 57.2506 41.8078C57.2206 41.8378 57.1306 41.9278 57.0107 41.9878C56.6808 42.1977 56.3509 42.2277 56.2009 42.2277C56.1109 42.2277 55.901 42.2277 55.6611 42.1377C55.2412 41.9578 55.0312 41.5979 55.0312 41.148C55.0312 40.5782 55.3612 40.3682 55.5711 40.2783C55.931 40.0983 56.5008 40.0683 56.8907 39.9783C57.0407 39.9483 57.1906 39.9184 57.1906 39.7384C57.1906 39.7084 57.1906 39.6484 57.1306 39.5885C57.0107 39.4385 56.8007 39.4385 56.6208 39.4385C56.4708 39.4385 56.2909 39.4685 56.1709 39.5585C56.1109 39.5885 56.0809 39.6484 56.0809 39.6484C56.051 39.6784 55.931 39.8584 55.721 39.8584C55.4811 39.8584 55.3012 39.6784 55.3012 39.4385C55.3012 39.0486 55.781 38.8387 55.811 38.8387C56.021 38.7487 56.2609 38.6887 56.7108 38.6887C56.7707 38.6887 56.9507 38.6887 57.1006 38.7187C57.7305 38.8087 57.9704 39.1686 58.0604 39.4385C58.1203 39.6184 58.1503 39.7384 58.1503 40.0683V41.4779M57.2506 40.5182C57.0707 40.5782 57.0107 40.6082 56.6808 40.6681C56.6808 40.6681 56.4408 40.7281 56.2909 40.7881C56.2309 40.8181 56.051 40.9081 56.051 41.148C56.051 41.298 56.1709 41.5079 56.5008 41.5079C56.5908 41.5079 56.6208 41.5079 56.7108 41.4779C56.7707 41.4779 57.0107 41.3879 57.1906 41.208C57.2506 41.178 57.2806 41.118 57.3106 41.058L57.2506 40.5182Z" fill="#1C7795"/>
<path d="M58.75 38.0588C58.75 38.0289 58.75 37.9089 58.78 37.8189C58.84 37.609 59.0199 37.489 59.2299 37.489C59.2898 37.489 59.3798 37.489 59.4998 37.549C59.7097 37.669 59.7097 37.8489 59.7097 38.0588V41.6278C59.7097 41.6878 59.7097 41.8077 59.6797 41.8677C59.6497 41.9877 59.5298 42.1976 59.2299 42.1976C59.1399 42.1976 58.87 42.1976 58.78 41.8977C58.75 41.8077 58.75 41.7178 58.75 41.6278V38.0588Z" fill="#1C7795"/>
<path d="M61.5388 38.7787C61.6287 38.7787 61.6887 38.7787 61.7487 38.8087C61.8986 38.8687 61.9586 38.9886 61.9586 39.1386C61.9586 39.1686 61.9586 39.3185 61.8387 39.4085C61.7187 39.4985 61.5388 39.4985 61.5088 39.4985H61.3588V41.118C61.3588 41.208 61.3588 41.238 61.3888 41.298C61.4188 41.3879 61.4788 41.4479 61.6587 41.4479C61.7187 41.4479 61.7487 41.4479 61.7787 41.4479C61.9586 41.4779 62.0186 41.6279 62.0186 41.7778C62.0186 41.8078 62.0186 41.8978 61.9586 41.9878C61.8687 42.1377 61.6587 42.1977 61.3288 42.1977C60.9389 42.1977 60.729 42.1077 60.609 41.9578C60.4291 41.7778 60.4291 41.5379 60.4291 41.298V39.4985C60.3091 39.4985 60.2491 39.4985 60.1891 39.4985C60.0992 39.4685 59.9492 39.3785 59.9492 39.1386C59.9492 39.0486 59.9492 38.9886 60.0092 38.9287C60.1292 38.7787 60.2491 38.7787 60.4291 38.7787V38.3288C60.4291 38.1189 60.4591 37.909 60.639 37.789C60.759 37.729 60.849 37.729 60.8789 37.729C61.0289 37.729 61.1189 37.789 61.1489 37.819C61.3288 37.9389 61.3288 38.1489 61.3288 38.3588V38.8087H61.5388" fill="#1C7795"/>
<path d="M65.2282 41.6278C65.2282 41.6877 65.2282 41.7177 65.2282 41.7477C65.2282 41.9577 65.1382 42.0476 65.0782 42.1076C65.0183 42.1376 64.9283 42.1976 64.7783 42.1976C64.6584 42.1976 64.5384 42.1676 64.4484 42.0776C64.3884 42.0177 64.3585 41.9277 64.3585 41.8977C64.3285 41.8077 64.3285 41.7177 64.3285 41.6278V40.1282C64.3285 40.0082 64.2985 39.5584 63.8186 39.5584C63.5487 39.5584 63.4287 39.7083 63.3687 39.7983C63.2788 39.9483 63.2488 40.1582 63.2488 40.3381V41.5678C63.2488 41.7777 63.2488 41.9877 63.0388 42.1076C62.9489 42.1676 62.8589 42.1676 62.7689 42.1676C62.7089 42.1676 62.649 42.1676 62.529 42.1076C62.2891 41.9877 62.2891 41.7777 62.2891 41.5678V37.9089C62.2891 37.8189 62.3191 37.6389 62.529 37.519C62.619 37.459 62.7389 37.459 62.7689 37.459C62.8589 37.459 62.9489 37.489 63.0388 37.549C63.2788 37.6989 63.2488 37.9988 63.2488 38.0588V39.0785C63.3088 39.0185 63.3388 38.9885 63.3987 38.9585C63.5187 38.8686 63.7886 38.6886 64.1785 38.6886C64.2385 38.6886 64.3585 38.6886 64.5084 38.7186C64.6584 38.7486 65.0782 38.9286 65.2282 39.3784C65.2882 39.5284 65.2882 39.6483 65.2882 39.9183V41.6278" fill="#1C7795"/>
<path d="M70.4158 39.1985C70.5958 39.3785 70.8657 39.7984 70.8657 40.4582C70.8657 40.5781 70.8657 40.878 70.7157 41.178C70.4158 41.8977 69.816 42.1077 69.5461 42.1677C69.3361 42.2276 69.1562 42.2276 69.0962 42.2276C68.7063 42.2276 68.4064 42.1377 68.2865 42.0477C67.6566 41.7478 67.3867 41.088 67.3867 40.4282C67.3867 40.0083 67.5067 39.5884 67.7766 39.2585C67.9566 39.0186 68.4064 38.6887 69.1262 38.6587C69.846 38.6887 70.2659 39.0186 70.4158 39.1985ZM68.9163 39.5284C68.6463 39.6184 68.4064 39.8883 68.4064 40.4582C68.4064 40.5481 68.4064 40.7881 68.4964 41.028C68.6763 41.4179 69.0062 41.4779 69.1862 41.4779C69.3361 41.4779 69.4861 41.4179 69.6061 41.3279C69.936 41.058 69.936 40.5481 69.936 40.4582C69.936 40.1583 69.876 39.8283 69.6361 39.6484C69.4561 39.4984 69.2462 39.4984 69.1862 39.4984C69.0362 39.4685 68.9463 39.4984 68.9163 39.5284Z" fill="#1C7795"/>
<path d="M72.3952 38.7787H72.5752C72.7251 38.7787 72.8451 38.7787 72.9351 38.9287C72.9651 38.9587 72.995 39.0186 72.995 39.1386C72.995 39.3486 72.8451 39.4385 72.7551 39.4685C72.6651 39.4985 72.6352 39.4985 72.5452 39.4985H72.3952V41.5679C72.3952 41.6579 72.3952 41.7179 72.3952 41.8078C72.3652 41.9278 72.3053 42.1977 71.9454 42.1977C71.9154 42.1977 71.7954 42.1977 71.6754 42.1377C71.4655 42.0178 71.4655 41.8078 71.4655 41.5979V39.4985C71.3455 39.4985 71.2256 39.4985 71.1356 39.4085C71.0756 39.3785 71.0156 39.2886 71.0156 39.1386C71.0156 38.8987 71.1956 38.8387 71.2556 38.8087C71.3155 38.7787 71.4655 38.7787 71.4655 38.7787V38.5388C71.4655 38.4488 71.4355 38.0889 71.6754 37.819C71.8854 37.5791 72.1853 37.5491 72.4552 37.5491C72.7251 37.5491 73.025 37.6091 73.025 37.939C73.025 38.1189 72.9651 38.1789 72.9051 38.2389C72.8151 38.2989 72.7251 38.2989 72.6052 38.3288C72.4552 38.3888 72.4252 38.4788 72.4252 38.6288V38.7787" fill="#1C7795"/>
<path d="M76.0541 38.7787H76.2341C76.384 38.7787 76.504 38.7787 76.594 38.9287C76.624 38.9587 76.6539 39.0186 76.6539 39.1386C76.6539 39.3486 76.504 39.4385 76.414 39.4685C76.324 39.4985 76.2941 39.4985 76.2041 39.4985H76.0241V41.5679C76.0241 41.6579 76.0241 41.7179 76.0241 41.8078C75.9941 41.9278 75.9342 42.1977 75.5743 42.1977C75.5443 42.1977 75.4243 42.1977 75.3043 42.1377C75.0944 42.0178 75.0944 41.8078 75.0944 41.5979V39.4985C74.9744 39.4985 74.8545 39.4985 74.7645 39.4085C74.7045 39.3785 74.6445 39.2886 74.6445 39.1386C74.6445 38.8987 74.8245 38.8387 74.8845 38.8087C74.9444 38.7787 75.0944 38.7787 75.0944 38.7787V38.5388C75.0944 38.4488 75.0644 38.0889 75.3043 37.819C75.5143 37.5791 75.8142 37.5491 76.0841 37.5491C76.354 37.5491 76.6539 37.6091 76.6539 37.939C76.6539 38.1189 76.594 38.1789 76.534 38.2389C76.444 38.2989 76.354 38.2989 76.2341 38.3288C76.0841 38.3888 76.0541 38.4788 76.0541 38.6288V38.7787Z" fill="#1C7795"/>
<path d="M76.8047 39.3786C76.8047 39.1986 76.8047 38.9887 76.9846 38.8687C77.1046 38.7788 77.2246 38.7788 77.2845 38.7788C77.4045 38.7788 77.4945 38.8388 77.5545 38.8388C77.7344 38.9587 77.7644 39.1986 77.7644 39.3786V40.8782C77.7644 41.0281 77.8244 41.448 78.3042 41.448C78.4842 41.448 78.5742 41.388 78.6341 41.328C78.8741 41.1481 78.8441 40.7882 78.8441 40.5483V39.3186C78.8441 39.2586 78.8141 38.9887 79.054 38.8388C79.084 38.8088 79.204 38.7488 79.324 38.7488C79.3839 38.7488 79.4739 38.7488 79.5939 38.8388C79.8038 38.9887 79.7738 39.2586 79.7738 39.3186V41.568C79.7738 41.6579 79.8038 42.1978 79.324 42.1978C79.264 42.1978 79.024 42.1978 78.9041 41.9578C78.8741 41.8679 78.8741 41.8079 78.8441 41.7779C78.7841 41.8679 78.7541 41.8979 78.7541 41.9279C78.6342 42.0778 78.3642 42.2578 77.9444 42.2578C77.7644 42.2578 77.1946 42.2278 76.9247 41.6579C76.8347 41.478 76.8047 41.268 76.8047 40.8482V39.3786Z" fill="#1C7795"/>
<path d="M81.6618 38.7787C81.7518 38.7787 81.8118 38.7787 81.8717 38.8087C82.0217 38.8687 82.0817 38.9886 82.0817 39.1386C82.0817 39.1686 82.0817 39.3185 81.9617 39.4085C81.8417 39.4985 81.6618 39.4985 81.6318 39.4985H81.4818V41.118C81.4818 41.208 81.4819 41.238 81.5118 41.298C81.5418 41.3879 81.6018 41.4479 81.7818 41.4479C81.8417 41.4479 81.8717 41.4479 81.9017 41.4479C82.0817 41.4779 82.1417 41.6279 82.1417 41.7778C82.1417 41.8078 82.1417 41.8978 82.0817 41.9878C81.9617 42.1377 81.7818 42.1977 81.4519 42.1977C81.062 42.1977 80.852 42.1077 80.7321 41.9578C80.5521 41.7778 80.5521 41.5379 80.5521 41.298V39.4985C80.4322 39.4985 80.3722 39.4985 80.3122 39.4985C80.2222 39.4685 80.0723 39.3785 80.0723 39.1386C80.0723 39.0486 80.0723 38.9886 80.1322 38.9287C80.2222 38.7787 80.3722 38.7787 80.5521 38.7787V38.3288C80.5521 38.1189 80.5821 37.909 80.7621 37.789C80.882 37.729 80.972 37.729 81.002 37.729C81.152 37.729 81.2419 37.789 81.2719 37.819C81.4519 37.9389 81.4519 38.1489 81.4519 38.3588V38.8087H81.6618" fill="#1C7795"/>
<path d="M82.3523 39.3786C82.3523 39.1986 82.3523 38.9887 82.5322 38.8687C82.6522 38.7788 82.7721 38.7788 82.8021 38.7788C82.9221 38.7788 83.0121 38.8388 83.072 38.8388C83.282 38.9587 83.282 39.1986 83.282 39.3786V40.8782C83.282 41.0281 83.342 41.448 83.8218 41.448C84.0018 41.448 84.0918 41.388 84.1517 41.328C84.3917 41.1481 84.3617 40.7882 84.3617 40.5483V39.3186C84.3617 39.2586 84.3317 38.9887 84.5716 38.8388C84.6016 38.8088 84.7216 38.7488 84.8415 38.7488C84.9015 38.7488 84.9915 38.7488 85.1114 38.8388C85.3214 38.9887 85.2914 39.2586 85.2914 39.3186V41.568C85.2914 41.6579 85.3214 42.1978 84.8415 42.1978C84.7815 42.1978 84.5416 42.1978 84.4217 41.9578C84.3917 41.8679 84.3617 41.8079 84.3617 41.7779C84.3017 41.8679 84.2717 41.8979 84.2717 41.9279C84.1517 42.0778 83.8818 42.2578 83.4619 42.2578C83.282 42.2578 82.7122 42.2278 82.4422 41.6579C82.3523 41.478 82.3223 41.268 82.3223 40.8482V39.3786" fill="#1C7795"/>
<path d="M86.9402 41.5979C86.9402 41.8079 86.9402 42.0178 86.7302 42.1378C86.6403 42.1678 86.5503 42.1978 86.4603 42.1978C86.3704 42.1978 86.1004 42.1678 86.0105 41.8979C85.9805 41.8079 85.9805 41.6879 85.9805 41.5979V39.3486C85.9805 39.1387 85.9805 38.9587 86.1604 38.8388C86.2504 38.7788 86.3404 38.7488 86.4303 38.7488C86.5803 38.7488 86.7003 38.8088 86.7902 38.9287C86.8802 39.0787 86.8802 39.2286 86.8802 39.4086C86.9102 39.2886 86.9702 39.1987 87.0302 39.1087C87.1801 38.8687 87.4201 38.7488 87.72 38.7488C87.9899 38.7488 88.1998 38.8987 88.1998 39.1687C88.1998 39.2886 88.1398 39.4086 88.1098 39.4386C87.9599 39.6185 87.72 39.5885 87.51 39.6185C87.45 39.6185 87.3001 39.6485 87.1801 39.7685C86.9702 39.9784 86.9702 40.3083 86.9702 40.5782V41.5979" fill="#1C7795"/>
<path d="M89.0412 40.7582C89.0712 40.9381 89.1012 40.9981 89.1312 41.0881C89.1911 41.208 89.3711 41.5079 89.791 41.5079C89.8809 41.5079 90.0909 41.5079 90.2708 41.328C90.3308 41.268 90.4208 41.118 90.6307 41.118C90.8706 41.118 91.0506 41.328 91.0506 41.5679C91.0506 41.7479 90.9006 41.8978 90.7507 42.0178C90.5707 42.1378 90.2708 42.2877 89.731 42.2877C89.551 42.2877 88.9812 42.2877 88.5613 41.8678C88.3514 41.6579 88.0215 41.238 88.0215 40.5182C88.0215 40.2783 88.0515 39.5285 88.7113 39.0487C88.8912 38.9287 89.2211 38.7188 89.761 38.7188C89.9709 38.7188 90.5407 38.7487 90.9306 39.2286C91.2605 39.6485 91.2905 40.1583 91.2905 40.3083C91.2905 40.3683 91.3205 40.6382 91.0806 40.7282C91.0206 40.7282 90.9906 40.7582 90.8707 40.7582H89.0412ZM90.3908 40.0384C90.3908 40.0084 90.3608 39.8584 90.3008 39.7385C90.1809 39.5285 89.9709 39.4385 89.731 39.4385C89.641 39.4385 89.4311 39.4385 89.2511 39.6185C89.1312 39.7385 89.1012 39.8584 89.0412 40.0084L90.3908 40.0384Z" fill="#1C7795"/>
<path d="M96.6278 41.5979C96.6278 41.7179 96.6278 41.8378 96.6278 41.9278C96.5979 42.2577 96.5679 42.5576 96.3279 42.8276C95.968 43.2174 95.4282 43.3674 94.9184 43.3674C94.6184 43.3674 94.3785 43.3374 94.1086 43.2174C93.8687 43.1275 93.6287 42.9775 93.6287 42.6776C93.6287 42.4377 93.8087 42.2577 94.0486 42.2577C94.1386 42.2577 94.1986 42.2877 94.2285 42.2877C94.3485 42.3177 94.4385 42.4377 94.5285 42.4976C94.6784 42.5876 94.7984 42.6176 94.9783 42.6176C95.0683 42.6176 95.3682 42.6176 95.5482 42.3777C95.6681 42.1977 95.6681 41.9878 95.6981 41.5379C95.6681 41.5679 95.6381 41.5979 95.5782 41.6579C95.4282 41.7779 95.1883 41.9578 94.7084 41.9578C94.2585 41.9578 93.9586 41.7479 93.8387 41.6579C93.6287 41.478 93.2988 41.0581 93.2988 40.3683C93.2988 40.2183 93.3288 39.7385 93.5687 39.3486C93.7187 39.1386 94.0486 38.7188 94.7384 38.7188C94.8584 38.7188 95.1583 38.7188 95.4582 38.9287C95.5482 38.9887 95.6082 39.0787 95.6681 39.1386C95.6981 39.0487 95.7881 38.7787 96.118 38.7787C96.178 38.7787 96.3879 38.7787 96.5079 38.9587C96.5979 39.1086 96.5979 39.2286 96.5979 39.3786V41.5979M94.7684 39.5285C94.5884 39.5885 94.2585 39.7984 94.2585 40.3383C94.2585 40.4582 94.2885 40.5482 94.3185 40.6682C94.3485 40.8181 94.5285 41.148 94.9483 41.148C95.0083 41.148 95.1283 41.148 95.2483 41.0881C95.4282 40.9981 95.6681 40.7881 95.6681 40.2783C95.6681 40.0084 95.5782 39.7085 95.3382 39.5585C95.2183 39.4985 95.0983 39.4685 94.9783 39.4685C94.9483 39.4985 94.8584 39.4985 94.7684 39.5285Z" fill="#1C7795"/>
<path d="M98.0385 40.7582C98.0685 40.9381 98.0985 40.9981 98.1285 41.0881C98.1885 41.208 98.3684 41.5079 98.7883 41.5079C98.8783 41.5079 99.0882 41.5079 99.2682 41.328C99.3282 41.268 99.4181 41.118 99.6281 41.118C99.868 41.118 100.048 41.328 100.048 41.5679C100.048 41.7479 99.898 41.8978 99.748 42.0178C99.5681 42.1378 99.2682 42.2877 98.7283 42.2877C98.5484 42.2877 97.9786 42.2877 97.5587 41.8678C97.3487 41.6579 97.0488 41.238 97.0488 40.5182C97.0488 40.2783 97.0788 39.5285 97.7086 39.0487C97.8886 38.9287 98.2185 38.7188 98.7583 38.7188C98.9683 38.7188 99.5381 38.7487 99.928 39.2286C100.258 39.6485 100.288 40.1583 100.288 40.3083C100.288 40.3683 100.318 40.6382 100.078 40.7282C100.018 40.7282 99.988 40.7582 99.868 40.7582H98.0385ZM99.4181 40.0384C99.4181 40.0084 99.3881 39.8584 99.3282 39.7385C99.2082 39.5285 98.9683 39.4385 98.7583 39.4385C98.6683 39.4385 98.4584 39.4385 98.2785 39.6185C98.1585 39.7385 98.1285 39.8584 98.0685 40.0084L99.4181 40.0384Z" fill="#1C7795"/>
<path d="M102.716 40.1883C102.716 39.9784 102.686 39.7385 102.476 39.6185C102.416 39.5885 102.326 39.5285 102.206 39.5285C102.146 39.5285 102.026 39.5285 101.876 39.6185C101.576 39.7984 101.606 40.1883 101.606 40.2783V41.6279C101.606 41.7779 101.606 41.8079 101.576 41.8978C101.486 42.1677 101.216 42.1977 101.126 42.1977C101.066 42.1977 100.856 42.1977 100.736 41.9878C100.676 41.8978 100.676 41.8079 100.646 41.5979V39.2886C100.646 39.1386 100.646 39.0786 100.676 39.0187C100.766 38.7487 101.036 38.7487 101.096 38.7487C101.366 38.7487 101.486 38.9287 101.516 39.0187C101.546 39.0487 101.546 39.1086 101.576 39.1986C101.606 39.1686 101.636 39.1086 101.666 39.0786C101.786 38.9287 102.026 38.7188 102.476 38.7188C103.166 38.7188 103.466 39.1686 103.556 39.4086C103.616 39.5885 103.646 39.7684 103.646 39.9484V41.5979C103.646 41.8079 103.646 41.9878 103.466 42.1078C103.406 42.1378 103.316 42.1977 103.166 42.1977C103.106 42.1977 103.016 42.1977 102.926 42.1378C102.686 41.9878 102.716 41.6879 102.716 41.6279V40.1883Z" fill="#1C7795"/>
<path d="M105.057 40.7582C105.087 40.9381 105.117 40.9981 105.147 41.0881C105.207 41.208 105.387 41.5079 105.807 41.5079C105.897 41.5079 106.107 41.5079 106.286 41.328C106.316 41.268 106.436 41.118 106.646 41.118C106.886 41.118 107.066 41.328 107.066 41.5679C107.066 41.7479 106.916 41.8978 106.766 42.0178C106.586 42.1378 106.286 42.2877 105.747 42.2877C105.567 42.2877 104.997 42.2877 104.577 41.8678C104.367 41.6579 104.037 41.238 104.037 40.5182C104.037 40.2783 104.067 39.5285 104.727 39.0487C104.907 38.9287 105.237 38.7188 105.777 38.7188C105.987 38.7188 106.556 38.7487 106.946 39.2286C107.276 39.6485 107.306 40.1583 107.306 40.3083C107.306 40.3683 107.336 40.6382 107.096 40.7282C107.036 40.7282 107.006 40.7582 106.886 40.7582H105.057ZM106.406 40.0384C106.406 40.0084 106.376 39.8584 106.316 39.7385C106.196 39.5285 105.987 39.4385 105.747 39.4385C105.657 39.4385 105.447 39.4385 105.267 39.6185C105.147 39.7385 105.117 39.8584 105.057 40.0084L106.406 40.0384Z" fill="#1C7795"/>
<path d="M108.655 41.5979C108.655 41.8079 108.655 42.0178 108.445 42.1378C108.355 42.1678 108.265 42.1978 108.175 42.1978C108.085 42.1978 107.815 42.1678 107.725 41.8979C107.695 41.8079 107.695 41.6879 107.695 41.5979V39.3486C107.695 39.1387 107.695 38.9587 107.875 38.8388C107.965 38.7788 108.055 38.7488 108.145 38.7488C108.295 38.7488 108.415 38.8088 108.505 38.9287C108.595 39.0787 108.595 39.2286 108.595 39.4086C108.625 39.2886 108.685 39.1987 108.745 39.1087C108.895 38.8687 109.135 38.7488 109.435 38.7488C109.705 38.7488 109.915 38.8987 109.915 39.1687C109.915 39.2886 109.855 39.4086 109.825 39.4386C109.675 39.6185 109.435 39.5885 109.225 39.6185C109.165 39.6185 109.015 39.6485 108.895 39.7685C108.685 39.9784 108.685 40.3083 108.685 40.5782V41.5979" fill="#1C7795"/>
<path d="M113.004 41.4779C113.004 41.5379 113.004 41.5679 113.004 41.6279C113.004 41.7178 112.974 42.1977 112.524 42.1977C112.194 42.1977 112.104 41.8978 112.074 41.8078C112.014 41.8378 111.954 41.9278 111.834 41.9878C111.504 42.1977 111.174 42.2277 111.024 42.2277C110.934 42.2277 110.725 42.2277 110.515 42.1377C110.095 41.9578 109.885 41.5979 109.885 41.148C109.885 40.5782 110.215 40.3682 110.425 40.2783C110.784 40.0983 111.354 40.0683 111.714 39.9783C111.864 39.9483 112.014 39.9184 112.014 39.7384C112.014 39.7084 112.014 39.6484 111.954 39.5885C111.834 39.4385 111.624 39.4385 111.444 39.4385C111.294 39.4385 111.114 39.4685 110.994 39.5585C110.934 39.5885 110.904 39.6484 110.904 39.6484C110.874 39.6784 110.755 39.8584 110.545 39.8584C110.305 39.8584 110.125 39.6784 110.125 39.4385C110.125 39.0486 110.605 38.8387 110.635 38.8387C110.844 38.7487 111.084 38.6887 111.534 38.6887C111.594 38.6887 111.774 38.6887 111.924 38.7187C112.554 38.8087 112.794 39.1686 112.884 39.4385C112.944 39.6184 112.974 39.7384 112.974 40.0683V41.4779M112.044 40.5182C111.864 40.5782 111.804 40.6082 111.474 40.6681C111.474 40.6681 111.234 40.7281 111.084 40.7881C111.024 40.8181 110.844 40.9081 110.844 41.148C110.844 41.298 110.964 41.5079 111.294 41.5079C111.384 41.5079 111.414 41.5079 111.504 41.4779C111.564 41.4779 111.804 41.3879 111.984 41.208C112.044 41.178 112.074 41.118 112.104 41.058L112.044 40.5182Z" fill="#1C7795"/>
<path d="M114.774 38.7787C114.864 38.7787 114.924 38.7787 114.984 38.8087C115.134 38.8687 115.194 38.9886 115.194 39.1386C115.194 39.1686 115.194 39.3185 115.074 39.4085C114.954 39.4985 114.774 39.4985 114.744 39.4985H114.594V41.118C114.594 41.208 114.594 41.238 114.624 41.298C114.654 41.3879 114.714 41.4479 114.894 41.4479C114.954 41.4479 114.984 41.4479 115.014 41.4479C115.194 41.4779 115.254 41.6279 115.254 41.7778C115.254 41.8078 115.254 41.8978 115.194 41.9878C115.074 42.1377 114.894 42.1977 114.534 42.1977C114.144 42.1977 113.934 42.1077 113.814 41.9578C113.634 41.7778 113.634 41.5379 113.634 41.298V39.4985C113.514 39.4985 113.454 39.4985 113.394 39.4985C113.304 39.4685 113.154 39.3785 113.154 39.1386C113.154 39.0486 113.154 38.9886 113.214 38.9287C113.304 38.7787 113.454 38.7787 113.634 38.7787V38.3288C113.634 38.1189 113.664 37.909 113.844 37.789C113.964 37.729 114.054 37.729 114.084 37.729C114.234 37.729 114.324 37.789 114.354 37.819C114.534 37.9389 114.534 38.1489 114.534 38.3588V38.8087H114.774" fill="#1C7795"/>
<path d="M115.493 37.9388C115.493 37.6689 115.703 37.459 115.973 37.459C116.243 37.459 116.453 37.6689 116.453 37.9388C116.453 38.2088 116.243 38.4187 115.973 38.4187C115.913 38.4187 115.763 38.4187 115.643 38.2687C115.583 38.2388 115.493 38.1188 115.493 37.9388ZM116.423 41.5978C116.423 41.5978 116.423 41.7477 116.393 41.8377C116.363 41.9277 116.273 42.1976 115.943 42.1976C115.913 42.1976 115.793 42.1976 115.673 42.1376C115.493 42.0177 115.463 41.8077 115.463 41.5978V39.3184C115.463 39.1085 115.493 38.9286 115.673 38.8086C115.793 38.7486 115.883 38.7486 115.943 38.7486C116.243 38.7486 116.333 38.9286 116.393 39.0485C116.423 39.1385 116.423 39.1985 116.423 39.3184V41.5978Z" fill="#1C7795"/>
<path d="M119.872 39.1985C120.052 39.3785 120.322 39.7984 120.322 40.4582C120.322 40.5781 120.322 40.878 120.172 41.178C119.902 41.8977 119.272 42.1077 119.032 42.1677C118.822 42.2276 118.643 42.2276 118.583 42.2276C118.193 42.2276 117.893 42.1377 117.773 42.0477C117.143 41.7478 116.873 41.088 116.873 40.4282C116.873 40.0083 116.993 39.5884 117.263 39.2585C117.443 39.0186 117.893 38.6887 118.613 38.6587C119.272 38.6887 119.692 39.0186 119.872 39.1985ZM118.343 39.5284C118.073 39.6184 117.833 39.8883 117.833 40.4582C117.833 40.5481 117.833 40.7881 117.923 41.028C118.103 41.4179 118.433 41.4779 118.613 41.4779C118.763 41.4779 118.912 41.4179 119.032 41.3279C119.362 41.058 119.362 40.5481 119.362 40.4582C119.362 40.1583 119.302 39.8283 119.062 39.6484C118.882 39.4984 118.673 39.4984 118.613 39.4984C118.463 39.4685 118.403 39.4984 118.343 39.5284Z" fill="#1C7795"/>
<path d="M122.782 40.1883C122.782 39.9784 122.752 39.7385 122.542 39.6185C122.482 39.5885 122.392 39.5285 122.272 39.5285C122.212 39.5285 122.062 39.5285 121.942 39.6185C121.642 39.7984 121.672 40.1883 121.672 40.2783V41.6279C121.672 41.7779 121.672 41.8079 121.642 41.8978C121.552 42.1677 121.282 42.1977 121.222 42.1977C121.162 42.1977 120.952 42.1977 120.832 41.9878C120.772 41.8978 120.772 41.8079 120.742 41.5979V39.2886C120.742 39.1386 120.742 39.0786 120.772 39.0187C120.862 38.7487 121.132 38.7487 121.192 38.7487C121.462 38.7487 121.582 38.9287 121.612 39.0187C121.642 39.0487 121.642 39.1086 121.672 39.1986C121.702 39.1686 121.732 39.1086 121.762 39.0786C121.882 38.9287 122.122 38.7188 122.572 38.7188C123.261 38.7188 123.561 39.1686 123.651 39.4086C123.711 39.5885 123.741 39.7684 123.741 39.9484V41.5979C123.741 41.8079 123.741 41.9878 123.531 42.1078C123.471 42.1378 123.381 42.1977 123.261 42.1977C123.201 42.1977 123.111 42.1977 123.022 42.1378C122.782 41.9878 122.812 41.6879 122.812 41.6279V40.1883" fill="#1C7795"/>
<path d="M126.02 39.5585C125.87 39.4086 125.6 39.4086 125.57 39.4086C125.27 39.4086 125.09 39.5285 125.09 39.7085C125.09 39.7984 125.15 39.8584 125.18 39.8584C125.27 39.9484 125.42 39.9784 125.69 40.0684C125.78 40.0983 125.9 40.1283 125.99 40.1583C126.05 40.1583 126.26 40.2183 126.44 40.3083C126.65 40.3983 127.009 40.6082 127.009 41.178C127.009 41.418 126.949 41.6279 126.8 41.8079C126.5 42.1677 126.02 42.2577 125.57 42.2577C124.91 42.2577 124.55 42.0778 124.31 41.8678C124.25 41.8378 124.07 41.6579 124.07 41.388C124.07 41.148 124.25 40.9681 124.52 40.9681C124.7 40.9681 124.79 41.0581 124.88 41.178C124.94 41.238 124.97 41.328 125.03 41.388C125.12 41.478 125.3 41.5379 125.57 41.5379C125.57 41.5379 126.05 41.5679 126.05 41.238C126.05 41.208 126.05 41.148 126.02 41.0881C125.96 40.9981 125.84 40.9681 125.63 40.9081C125.33 40.8181 124.91 40.7282 124.64 40.5782C124.37 40.4283 124.25 40.1883 124.22 40.0684C124.22 40.0384 124.19 39.9184 124.19 39.8284C124.19 39.7085 124.19 39.4385 124.4 39.1686C124.58 38.9287 124.94 38.7188 125.6 38.7188C125.72 38.7188 126.29 38.7188 126.65 39.0487C126.68 39.0786 126.86 39.2286 126.86 39.4685C126.86 39.7085 126.65 39.8884 126.41 39.8884C126.2 39.8884 126.11 39.7684 126.08 39.7085C126.08 39.6185 126.08 39.5885 126.02 39.5585Z" fill="#1C7795"/>
<path d="M145.483 12.8062C144.853 11.2466 143.024 8.54741 138.675 8.54741C138.285 8.54741 137.925 8.5774 137.536 8.60739C137.176 8.63738 136.816 8.72735 136.486 8.78734C136.156 8.87731 135.856 8.96728 135.526 9.08725C135.226 9.17722 134.956 9.32718 134.686 9.44715C134.417 9.56711 134.177 9.71707 133.937 9.86702C133.727 10.017 133.487 10.1369 133.277 10.3169C133.187 10.3769 133.097 10.4668 132.977 10.5268C132.947 10.5568 132.887 10.6168 132.857 10.6468C132.797 10.7068 132.767 10.6168 132.767 10.5868C132.737 10.5268 132.707 10.4668 132.677 10.4069V10.3769C132.527 10.1069 132.137 9.957 131.867 9.86702C131.567 9.74706 131.267 9.68707 130.968 9.62709C130.848 9.5971 130.698 9.56711 130.578 9.50712C130.428 9.41715 130.338 9.29719 130.278 9.11724C130.248 9.05726 130.248 8.96728 130.188 8.9073C130.098 8.84732 129.948 8.93729 129.918 8.81733C129.888 8.72736 129.888 8.63738 129.948 8.57739C130.008 8.45743 130.098 8.36746 130.128 8.2175C130.158 8.03756 130.158 7.91759 130.218 7.76764C130.278 7.67766 130.278 7.5577 130.278 7.46772C130.308 7.25779 130.278 7.01785 130.188 6.83791C130.068 6.56798 130.008 6.26807 129.798 6.05813C129.558 5.84819 129.138 5.75822 129.018 5.72823C128.928 5.69823 128.808 5.69824 128.688 5.69824C128.448 5.69824 128.208 5.78821 128.028 5.90818C127.938 5.96816 127.848 5.99815 127.788 6.08812C127.758 6.11812 127.758 6.1781 127.728 6.20809C127.728 6.23808 127.728 6.26808 127.728 6.29807C127.698 6.44802 127.578 6.56798 127.519 6.68795C127.489 6.74793 127.459 6.80792 127.489 6.89789C127.489 6.98787 127.459 7.04784 127.459 7.13782C127.459 7.28777 127.459 7.43773 127.459 7.58769C127.459 7.61768 127.459 7.64767 127.459 7.67766C127.459 7.73764 127.489 7.79762 127.489 7.85761C127.549 7.97757 127.638 8.09754 127.698 8.2175C127.788 8.36746 127.848 8.51742 127.938 8.69737C127.938 8.72736 127.968 8.75735 127.998 8.78734C128.058 8.84732 128.088 8.87731 128.148 8.9073C128.208 8.93729 128.238 9.11724 128.268 9.17722C128.298 9.26719 128.208 9.2672 128.208 9.29719C128.208 9.32718 128.208 9.35717 128.208 9.38716C128.238 9.44714 128.298 9.53712 128.268 9.5971C128.178 9.74706 128.028 9.80704 127.878 9.86702C127.848 9.89701 127.788 9.89702 127.758 9.89702C127.698 9.65709 127.549 9.35717 127.459 9.17722C127.369 8.96728 127.219 8.75734 127.069 8.60739C126.919 8.42744 126.709 8.39745 126.469 8.39745C126.379 8.39745 126.259 8.30747 126.169 8.27748C125.689 8.2175 125.479 8.69736 125.269 9.05726C125.179 9.2372 125.029 9.38717 124.939 9.5971C124.879 9.71707 124.849 9.86702 124.819 10.017C124.789 10.1969 124.849 10.2869 124.849 10.4668C124.879 10.6768 124.729 10.8867 124.729 11.0967C124.729 11.2466 124.759 11.3366 124.819 11.4566C124.939 11.6665 125.029 11.9064 124.939 12.1164C124.849 12.3563 124.639 12.5362 124.399 12.6562C124.309 12.6862 124.13 12.7762 124.04 12.7162C123.77 12.5662 123.83 12.1464 123.62 11.9664C123.53 11.8764 123.35 11.8764 123.23 11.8464C123.05 11.8165 122.9 11.7265 123.08 11.5465C123.11 11.5165 123.14 11.4566 123.17 11.3966C123.17 11.3666 123.2 11.3366 123.23 11.3366C123.26 11.3066 123.29 11.3066 123.32 11.3066C123.38 11.3066 123.38 11.2466 123.41 11.2166C123.47 11.1267 123.56 11.0367 123.59 10.9467C123.59 10.9167 123.62 10.8267 123.59 10.7968C123.59 10.7668 123.5 10.7368 123.5 10.7368C123.5 10.6768 123.53 10.5868 123.56 10.5268C123.62 10.3769 123.62 10.2269 123.59 10.047C123.59 9.86703 123.5 9.74705 123.38 9.62709C123.32 9.56711 123.23 9.50712 123.14 9.47713C123.08 9.44714 122.99 9.44715 122.9 9.44715C122.84 9.44715 122.81 9.38716 122.75 9.35717C122.66 9.29719 122.51 9.29719 122.42 9.29719C122.24 9.2672 122.06 9.29719 121.91 9.41715C121.82 9.47714 121.85 9.50713 121.79 9.5971C121.76 9.68708 121.67 9.71706 121.61 9.77704C121.55 9.83703 121.52 9.927 121.49 9.98699C121.43 10.1369 121.34 10.3169 121.34 10.4668C121.34 10.4968 121.34 10.4968 121.37 10.5268C121.4 10.5568 121.4 10.6168 121.37 10.6468C121.34 10.7068 121.28 10.7068 121.28 10.7668C121.28 10.8867 121.4 10.9767 121.43 11.0967C121.46 11.1866 121.49 11.3066 121.58 11.3366C121.61 11.3366 121.67 11.3366 121.7 11.3366C121.82 11.3666 121.85 11.5765 121.88 11.6665C121.94 11.8464 121.76 11.9064 121.64 11.9664C121.4 12.0864 121.1 12.3863 120.98 12.6562C120.89 12.8661 120.681 13.496 120.681 13.5559C120.651 13.6459 120.651 13.7359 120.621 13.7959C120.591 13.8559 120.561 13.9158 120.561 13.9758C120.561 14.0358 120.77 14.5157 120.86 14.6356C120.95 14.7556 121.04 14.8156 121.16 14.9055C121.22 14.9655 121.28 14.9955 121.34 15.0555C121.37 15.0855 121.43 15.1155 121.46 15.1455C121.49 15.2055 121.46 15.2654 121.46 15.3254C121.46 15.3854 121.52 15.4154 121.55 15.4754C121.58 15.5354 121.58 15.5953 121.58 15.6553C121.58 15.7753 121.61 15.9253 121.67 16.0452C121.76 16.2552 121.91 16.3451 122.09 16.4651C122.24 16.5551 122.21 16.735 122.27 16.885C122.33 17.0349 122.45 17.1249 122.6 17.2149C122.9 17.3948 122.81 17.6048 122.69 17.8747C122.57 18.1746 122.45 18.5045 122.36 18.8344C122.3 18.9844 122.27 19.1643 122.27 19.3143C122.27 19.4042 122.21 19.6142 122.24 19.7041C122.27 19.7941 122.33 19.7341 122.36 19.8541C122.36 19.9441 122.36 20.064 122.3 20.124C122.24 20.214 122.12 20.274 122.15 20.394C122.18 20.6039 122.42 20.7239 122.48 20.9338C122.51 21.0238 122.48 21.1437 122.48 21.2337C122.45 21.8335 122.57 22.4334 122.66 23.0632C122.78 23.813 123.2 26.3322 123.26 26.4222C123.26 26.4522 123.29 26.4822 123.29 26.4822C123.32 26.4822 123.38 26.4822 123.41 26.4822C123.44 26.4822 123.44 26.4822 123.47 26.4822C123.5 26.4822 123.5 26.5721 123.5 26.6021C123.5 26.6321 123.5 26.6921 123.5 26.7221C123.5 26.8121 123.5 26.932 123.5 27.022C123.5 27.2319 123.5 27.4719 123.5 27.6818C123.5 27.8618 123.5 28.0717 123.5 28.2517C123.5 28.3116 123.5 28.4016 123.5 28.4616C123.5 28.4916 123.5 28.4916 123.47 28.4916C123.44 28.4916 123.44 28.4916 123.41 28.4916C123.38 28.4916 123.35 28.4916 123.35 28.5216C123.29 28.5516 123.29 28.5816 123.29 28.6415C123.29 28.7615 123.29 28.8515 123.29 28.9714C123.29 29.1214 123.29 29.2414 123.29 29.3913C123.29 29.5413 123.29 29.6912 123.29 29.8412C123.32 29.9612 123.32 30.0511 123.32 30.1711C123.38 30.561 123.38 30.9509 123.35 31.3707C123.35 31.4907 123.32 31.6107 123.32 31.7306C123.32 31.7906 123.32 31.8506 123.29 31.9106C123.29 32.0006 123.26 32.0605 123.23 32.1505C123.2 32.2105 123.17 32.2705 123.11 32.3305C123.05 32.4504 122.96 32.5704 122.9 32.6904C122.78 32.9003 122.66 33.0802 122.54 33.2902C122.48 33.3802 122.48 33.4701 122.6 33.5301C122.69 33.5601 122.81 33.5301 122.87 33.5001C123.02 33.4701 123.53 33.2902 123.65 33.2602C123.83 33.2002 123.95 33.1102 124.07 32.9303C124.129 32.8403 124.189 32.7503 124.219 32.6604C124.249 32.6004 124.249 32.5704 124.279 32.5104L124.309 32.4804C124.339 32.4804 124.339 32.4804 124.369 32.4804C124.429 32.5104 124.489 32.5404 124.549 32.5104C124.579 32.4804 124.639 32.4204 124.639 32.3904C124.669 32.3605 124.669 32.3305 124.669 32.3005C124.639 32.2105 124.639 32.1205 124.639 32.0306C124.639 31.9706 124.609 31.9106 124.609 31.8806C124.579 31.7906 124.609 31.7006 124.609 31.6107V31.4607C124.609 31.3707 124.609 31.2508 124.609 31.1608C124.609 31.0109 124.519 30.8609 124.519 30.6809C124.519 30.2911 124.549 29.8712 124.609 29.4813C124.639 29.2414 124.699 29.0014 124.759 28.7315C124.789 28.6415 124.789 28.5816 124.819 28.5216C124.819 28.4916 124.849 28.4616 124.819 28.4316C124.789 28.4016 124.699 28.4316 124.699 28.4016C124.699 28.3716 124.699 28.3416 124.729 28.3416C124.729 28.3116 124.729 28.2816 124.729 28.2517C124.759 28.1917 124.759 28.1317 124.759 28.0717C124.789 27.9217 124.819 27.7718 124.849 27.6218C124.879 27.5019 124.879 27.4119 124.879 27.2919C124.879 27.142 124.879 26.992 124.849 26.8421C124.849 26.7521 124.849 26.6921 124.849 26.6021C124.849 26.5422 124.819 26.4522 124.879 26.4222C124.939 26.3922 125.029 26.3922 125.059 26.3922C125.149 26.3922 125.209 26.3622 125.299 26.3622C125.329 26.3622 125.419 26.3322 125.449 26.3622C125.449 26.3622 125.449 26.3622 125.449 26.3922C125.479 26.4222 125.449 26.5122 125.449 26.5422C125.449 26.6921 125.449 26.8421 125.419 26.992C125.419 27.112 125.419 27.4719 125.389 27.5019C125.359 27.5319 125.329 27.5019 125.299 27.5319C125.269 27.5619 125.299 28.6115 125.299 28.9714C125.299 29.0914 125.269 29.2414 125.239 29.3613C125.209 29.5113 125.149 29.6612 125.089 29.8112C125.029 29.9612 125.029 30.1711 125.029 30.321C125.029 30.561 125.029 30.8309 125.059 31.0708C125.059 31.1608 125.059 31.2508 125.089 31.3707C125.089 31.5207 125.419 31.5507 125.479 31.4907C125.509 31.4607 125.539 31.3707 125.539 31.3707C125.569 31.3707 125.569 31.4307 125.599 31.4607C125.629 31.5207 125.629 31.5807 125.659 31.6407C125.659 31.7007 125.689 31.7606 125.689 31.7906C125.719 31.9106 126.109 31.9706 126.289 32.0006C126.469 32.0306 126.739 32.0605 126.739 32.0605C126.739 32.0605 127.129 32.1205 127.099 31.9106C127.099 31.8206 127.039 31.7606 126.949 31.7006C126.889 31.6407 126.649 31.4007 126.619 31.3408C126.559 31.2808 126.529 31.2208 126.469 31.1608C126.409 31.0708 126.379 30.8909 126.349 30.7709C126.319 30.651 126.289 30.561 126.259 30.441C126.229 30.381 126.229 30.2911 126.199 30.2311C126.169 30.1411 126.199 30.0511 126.199 29.9612C126.199 29.8712 126.229 29.7812 126.229 29.6912C126.259 29.4813 126.289 29.3014 126.349 29.0914C126.439 28.8215 126.499 28.5516 126.589 28.2816C126.619 28.1317 126.679 28.0117 126.709 27.8618C126.709 27.8318 126.739 27.7418 126.739 27.7418C126.709 27.7118 126.619 27.7118 126.589 27.7118C126.559 27.7118 126.559 27.6818 126.559 27.6518C126.559 27.5918 126.589 27.5319 126.589 27.4419C126.619 27.2919 126.649 27.142 126.679 26.992C126.679 26.932 126.709 26.8721 126.709 26.8121C126.739 26.6921 126.739 26.5721 126.739 26.4822C126.739 26.4222 126.739 26.3622 126.739 26.3022C126.769 26.2422 126.829 26.2422 126.859 26.2422C126.889 26.2422 126.979 26.2422 127.009 26.2123C127.039 26.1823 127.039 26.1523 127.039 26.0923C127.039 26.0023 127.069 25.8824 127.069 25.7924C127.099 25.5824 127.099 25.4025 127.129 25.1926C127.129 25.1026 127.129 24.7727 127.159 24.7127C127.159 24.6527 127.219 24.6227 127.249 24.6827C127.279 24.7127 127.279 24.7427 127.279 24.7727C127.309 24.8626 127.339 24.9826 127.339 25.0726C127.429 25.4325 127.489 25.7924 127.578 26.1523C127.668 26.5721 127.758 26.992 127.848 27.3819C127.938 27.8018 128.058 28.2217 128.178 28.6415C128.298 29.0014 128.388 29.3913 128.538 29.7512C128.568 29.8412 128.598 29.9312 128.658 30.0211C128.718 30.1111 128.748 30.2311 128.808 30.321C128.868 30.411 128.898 30.501 128.958 30.561C129.018 30.621 129.048 30.561 129.108 30.561C129.168 30.561 129.198 30.591 129.168 30.6809C129.138 30.7409 129.108 30.8009 129.048 30.8609C128.988 30.9509 128.898 31.0708 128.808 31.1608C128.658 31.3108 128.478 31.4007 128.298 31.4907C128.148 31.5507 127.998 31.5807 127.818 31.6107C127.698 31.6407 127.578 31.6407 127.459 31.7006C127.369 31.7306 127.339 31.8206 127.309 31.9106C127.309 31.9406 127.339 32.0006 127.339 32.0306C127.339 32.0605 127.309 32.0605 127.309 32.0905C127.279 32.1205 127.279 32.1805 127.309 32.2105C127.339 32.3305 127.459 32.3605 127.578 32.3904C127.848 32.4504 128.148 32.4204 128.418 32.4204C128.658 32.3904 128.898 32.3605 129.138 32.3305C129.288 32.3005 129.438 32.2705 129.588 32.2705C129.648 32.2705 129.708 32.2405 129.768 32.2405C129.798 32.2405 129.858 32.2105 129.888 32.2405C129.918 32.2705 129.918 32.3005 129.948 32.3305C129.978 32.3605 130.728 32.3305 130.818 32.3305C130.938 32.3305 130.968 32.2105 130.968 32.1205C130.968 32.0305 130.968 31.9406 130.968 31.8506C130.968 31.7906 130.968 31.5507 131.057 31.5507C131.147 31.5507 131.177 31.8806 131.177 31.9406C131.177 32.0605 131.177 32.1805 131.177 32.3005C131.177 32.5104 131.027 33.2002 131.807 33.2002C132.227 33.2002 132.797 33.2002 132.797 32.8103C132.797 32.5404 132.737 32.4204 132.587 32.1205C132.497 31.9406 132.407 31.7306 132.317 31.5507C132.257 31.4307 132.227 31.3408 132.227 31.1908C132.227 31.1308 132.227 31.0708 132.227 31.0109C132.227 30.9809 132.227 30.9209 132.257 30.8909C132.287 30.8909 132.347 30.8909 132.347 30.8309C132.347 30.411 132.317 29.5413 132.287 28.9714C132.257 28.5216 132.197 27.6218 132.017 26.6621C131.807 25.4025 131.747 25.3425 131.747 25.1626C131.777 24.5327 131.567 23.9629 131.567 23.2131C131.567 22.9432 131.507 22.6733 131.477 22.4034C131.447 22.2834 131.447 22.1934 131.417 22.1034C131.387 22.0435 131.357 21.9235 131.387 21.8335C131.417 21.8035 131.477 21.8035 131.537 21.7735C131.567 21.7436 131.627 21.7136 131.657 21.6836C131.687 21.6236 131.687 21.5936 131.717 21.5636C131.777 21.5336 131.867 21.5636 131.957 21.5336C132.047 21.5036 132.107 21.4436 132.167 21.3837C132.257 21.3237 132.317 21.2037 132.317 21.1137C132.317 20.9938 132.317 20.9038 132.347 20.7838C132.377 20.6639 132.407 20.5739 132.407 20.4539C132.407 20.364 132.377 20.274 132.467 20.214C132.527 20.154 132.617 20.154 132.707 20.094C132.797 20.0341 132.767 19.9441 132.737 19.8541C132.677 19.5842 132.677 19.3443 132.737 19.0743C132.737 19.0743 132.737 19.0443 132.737 19.0144C132.767 18.7744 132.797 18.5045 132.857 18.2646C132.917 17.9047 133.007 17.5448 133.067 17.1849C133.097 17.0049 133.127 16.855 133.157 16.675C133.187 16.5251 133.247 15.9852 133.217 15.4454C133.217 15.3554 133.217 15.3254 133.277 15.2954C133.337 15.2654 133.367 15.2355 133.427 15.2355C133.517 15.2055 133.607 15.1455 133.697 15.1155C134.027 14.9955 134.417 14.9055 134.776 14.9055C135.496 14.9055 137.056 15.1755 137.446 17.0949C137.536 17.4548 137.536 17.7247 137.536 18.4445V27.9517C137.596 28.6415 137.596 29.2114 137.776 29.8712C138.285 31.5207 139.515 32.3605 140.055 32.6304C140.775 32.9603 141.524 32.9603 141.794 32.9603C143.804 32.9903 145.333 31.7006 145.843 29.7212C145.993 29.0914 145.993 28.7615 146.023 28.0717V15.8053C145.873 14.6356 145.843 13.7959 145.483 12.8062Z" fill="#1C7795"/>
</svg>
