<svg width="200" height="36" viewBox="0 0 200 36" fill="none" xmlns="http://www.w3.org/2000/svg">
<path d="M32.0378 16.1603C32.0378 16.1603 31.191 18.1362 29.9913 19.971C28.9328 21.5235 26.8863 24.4874 22.6522 26.1811C26.2512 23.9229 27.3803 22.582 28.6505 20.6061C30.0619 18.4185 30.6265 16.8659 31.0499 14.6077C31.4733 12.3495 31.5439 8.67993 31.5439 8.67993H29.6385C29.6385 8.67993 29.9208 10.797 29.7091 12.9846C29.5679 14.8194 29.2857 18.5596 26.3217 22.1586C25.1926 23.57 23.8518 24.8403 22.017 25.8988C19.4765 27.3102 16.7949 27.8042 16.7949 27.8042C21.3113 27.663 23.005 27.0279 25.1221 25.9694C27.4509 24.7697 28.7211 23.7111 30.203 21.9469C31.685 20.1827 33.5904 17.0777 33.5904 17.0777L32.0378 16.1603Z" fill="#696C71"/>
<path d="M38.178 9.10327H44.3175L51.6567 19.0535H51.7273V9.10327H56.8788V24.9813H51.0216L43.3295 14.9605H43.259V24.9813H38.1074V9.10327H38.178Z" fill="#696C71"/>
<path d="M64.7112 9.10327H71.2036L78.0488 24.9813H72.3327L71.3447 22.3703H64.3584L63.3704 24.9813H57.6543L64.7112 9.10327ZM67.8868 13.1257L65.6286 19.1241H70.0745L67.8868 13.1257Z" fill="#696C71"/>
<path d="M78.9668 9.10327H85.1063L92.4455 19.0535H92.5161V9.10327H97.6676V24.9813H91.8104L84.1889 14.9605H84.1183V24.9813H78.9668V9.10327Z" fill="#696C71"/>
<path d="M109.876 8.60938C115.521 8.60938 120.249 10.4442 120.249 17.0777C120.249 23.6406 115.521 25.546 109.876 25.546C104.23 25.546 99.502 23.7112 99.502 17.0777C99.502 10.4442 104.23 8.60938 109.876 8.60938ZM109.876 21.9469C112.698 21.9469 114.604 20.3944 114.604 17.0777C114.604 13.7609 112.698 12.2084 109.876 12.2084C107.053 12.2084 105.147 13.7609 105.147 17.0777C105.077 20.3944 106.982 21.9469 109.876 21.9469Z" fill="#696C71"/>
<path d="M122.014 9.10327H133.799C138.103 9.10327 139.656 11.4321 139.656 14.396C139.656 17.007 138.315 19.6886 134.01 19.6886H127.306V24.9813H122.014V9.10327ZM127.377 16.4425H132.105C133.587 16.4425 134.222 15.8073 134.222 14.4665C134.222 13.0551 133.587 12.4906 132.105 12.4906H127.377V16.4425Z" fill="#696C71"/>
<path d="M151.37 8.60938C157.015 8.60938 161.743 10.4442 161.743 17.0777C161.743 23.6406 157.015 25.546 151.37 25.546C145.724 25.546 140.996 23.7112 140.996 17.0777C140.996 10.4442 145.795 8.60938 151.37 8.60938ZM151.37 21.9469C154.193 21.9469 156.098 20.3944 156.098 17.0777C156.098 13.7609 154.193 12.2084 151.37 12.2084C148.547 12.2084 146.642 13.7609 146.642 17.0777C146.642 20.3944 148.547 21.9469 151.37 21.9469Z" fill="#696C71"/>
<path d="M163.721 9.10327H176.423C180.304 9.10327 181.716 10.8675 181.716 13.5491C181.716 15.6662 180.587 16.7953 179.175 17.1481V17.2187C180.163 17.5716 180.94 18.3478 181.081 20.0415C181.292 23.2171 181.434 24.2051 182.069 24.9813H176.282C176 24.2756 176 23.3582 176 22.6525C176 20.1826 175.153 19.6886 173.812 19.6886H168.943V24.9813H163.721V9.10327ZM169.013 16.1602H174.094C175.365 16.1602 176.07 15.5251 176.07 14.396C176.07 13.3374 175.365 12.7023 174.094 12.7023H169.013V16.1602Z" fill="#696C71"/>
<path d="M183.762 9.10327H199.71V12.5612H189.125V15.4545H199.075V18.7712H189.125V21.6646H199.71V25.1225H183.762V9.10327Z" fill="#696C71"/>
<path d="M142.903 33.873V27.5924H140.15V27.0984H146.078V27.5924H143.397V33.873H142.903Z" fill="#007B9A"/>
<path d="M147.631 34.0143C145.937 34.0143 144.949 33.0264 144.949 31.4033C144.949 30.4859 145.514 28.8628 147.701 28.8628C149.325 28.8628 150.383 29.9213 150.383 31.5444V31.615H145.514C145.584 32.8147 146.431 33.5909 147.772 33.5909C149.254 33.5909 149.607 32.6735 149.748 32.2501H150.242H150.312V32.3207C149.748 33.4498 148.901 34.0143 147.631 34.0143ZM149.677 31.121C149.536 29.9919 148.689 29.3568 147.56 29.3568C146.431 29.3568 145.655 29.9919 145.443 31.121H149.677Z" fill="#007B9A"/>
<path d="M153.629 34.0143C152.006 34.0143 150.877 32.9558 150.877 31.4738C150.877 29.6391 152.288 28.8628 153.629 28.8628C155.111 28.8628 156.099 29.7096 156.17 30.5564V30.627H155.676C155.605 29.9919 154.758 29.3568 153.629 29.3568C152.077 29.3568 151.371 30.4153 151.371 31.5444C151.371 32.3912 151.935 33.5909 153.629 33.5909C154.476 33.5909 155.464 33.2381 155.676 32.1795L156.17 32.109H156.24V32.1795C155.958 33.3086 154.97 34.0143 153.629 34.0143Z" fill="#007B9A"/>
<path d="M161.179 33.873V30.9091C161.179 30.1329 160.968 29.3566 159.486 29.3566C158.004 29.3566 157.51 30.274 157.51 31.0503V33.873H156.945V27.0984H157.51V29.8506C157.722 29.4272 158.286 28.8626 159.486 28.8626C161.744 28.8626 161.744 30.3446 161.744 30.9091V33.873H161.179Z" fill="#007B9A"/>
<path d="M166.896 33.8732V30.9093C166.896 30.133 166.685 29.3568 165.203 29.3568C163.721 29.3568 163.227 30.2742 163.227 31.0504V33.8732H162.662V29.0039H163.227V29.8508C163.438 29.4273 164.003 28.8628 165.203 28.8628C167.461 28.8628 167.461 30.3447 167.461 30.9093V33.8732H166.896Z" fill="#007B9A"/>
<path d="M170.918 34.0141C169.083 34.0141 168.166 32.7439 168.166 31.403C168.166 30.0622 169.083 28.792 170.918 28.792C172.753 28.792 173.67 30.0622 173.67 31.403C173.67 32.7439 172.753 34.0141 170.918 34.0141ZM170.918 29.286C169.366 29.286 168.66 30.4151 168.66 31.403C168.66 32.391 169.366 33.5201 170.918 33.5201C172.471 33.5201 173.176 32.391 173.176 31.403C173.176 30.4151 172.471 29.286 170.918 29.286Z" fill="#007B9A"/>
<path d="M175.012 27.0984H174.447V33.873H175.012V27.0984Z" fill="#007B9A"/>
<path d="M178.469 34.0141C176.634 34.0141 175.717 32.7439 175.717 31.403C175.717 30.0622 176.634 28.792 178.469 28.792C180.304 28.792 181.221 30.0622 181.221 31.403C181.221 32.7439 180.304 34.0141 178.469 34.0141ZM178.469 29.286C176.916 29.286 176.211 30.4151 176.211 31.403C176.211 32.391 176.916 33.5201 178.469 33.5201C180.022 33.5201 180.727 32.391 180.727 31.403C180.727 30.4151 180.022 29.286 178.469 29.286Z" fill="#007B9A"/>
<path d="M184.467 35.9197C182.844 35.9197 182.068 35.4257 181.927 34.2966V34.226H182.421C182.562 35.0729 183.197 35.4963 184.467 35.4963C185.878 35.4963 186.584 34.8612 186.584 33.6615V32.8147C186.161 33.5204 185.384 33.8732 184.396 33.8732C182.421 33.8732 181.715 32.603 181.715 31.3327C181.715 30.2036 182.421 28.8628 184.396 28.8628C185.455 28.8628 186.161 29.2156 186.584 29.8508V29.0039H187.149V33.5909C187.149 35.1434 186.302 35.9197 184.467 35.9197ZM184.396 29.2862C183.408 29.2862 182.279 29.7802 182.279 31.2621C182.279 32.603 183.056 33.3086 184.467 33.3086C185.808 33.3086 186.655 32.5324 186.655 31.2621C186.655 30.0625 185.808 29.2862 184.396 29.2862Z" fill="#007B9A"/>
<path d="M188.207 33.873V29.0038H188.772V33.873H188.207ZM188.207 28.1569V27.0984H188.772V28.1569H188.207Z" fill="#007B9A"/>
<path d="M192.23 34.0143C190.537 34.0143 189.549 33.0264 189.549 31.4033C189.549 30.4859 190.113 28.8628 192.301 28.8628C193.924 28.8628 194.983 29.9213 194.983 31.5444V31.615H190.113C190.184 32.8147 191.031 33.5909 192.372 33.5909C193.854 33.5909 194.206 32.6735 194.348 32.2501H194.842H194.912V32.3207C194.348 33.4498 193.501 34.0143 192.23 34.0143ZM194.277 31.121C194.136 29.9919 193.289 29.3568 192.16 29.3568C191.031 29.3568 190.255 29.9919 190.043 31.121H194.277Z" fill="#007B9A"/>
<path d="M197.665 34.0141C196.183 34.0141 195.336 33.4496 195.266 32.3204V32.2499H195.76C195.83 32.8144 195.971 33.5201 197.806 33.5201C199.006 33.5201 199.5 33.2378 199.5 32.5322C199.5 32.0382 199.217 31.8265 198.582 31.6853L196.889 31.4736C196.395 31.403 195.477 31.1913 195.477 30.2034C195.477 29.4977 196.042 28.792 197.524 28.792C199.006 28.792 199.711 29.286 199.782 30.4151V30.4857H199.288C199.147 29.6388 198.653 29.286 197.453 29.286C196.465 29.286 195.971 29.6388 195.971 30.2034C195.971 30.6268 196.254 30.9091 196.889 30.9796L198.441 31.1913C199.5 31.3325 199.994 31.7559 199.994 32.5322C200.064 33.2378 199.641 34.0141 197.665 34.0141Z" fill="#007B9A"/>
<path d="M41.2826 7.19802C38.4599 7.19802 37.6836 4.86924 37.6836 3.66957C37.6836 2.46989 38.4599 0.141113 41.2826 0.141113C44.1054 0.141113 44.8816 2.46989 44.8816 3.66957C44.8816 4.86924 44.1054 7.19802 41.2826 7.19802ZM41.2826 0.564528C39.2361 0.564528 38.2481 2.11705 38.2481 3.599C38.2481 5.15152 39.3067 6.63347 41.2826 6.63347C43.2586 6.63347 44.3171 5.08095 44.3171 3.599C44.3171 2.11705 43.2586 0.564528 41.2826 0.564528Z" fill="#007B9A"/>
<path d="M49.6813 6.98645L47.7053 4.86938L45.6588 6.98645H45.0943H44.9531L47.3525 4.44597L45.1648 2.11719H45.8705L47.7053 4.09312L49.4695 2.11719H50.1047H50.1752L47.9876 4.44597L50.4575 6.98645H49.6813Z" fill="#007B9A"/>
<path d="M51.7971 6.98631V2.61103H50.668V2.11705H51.7971V1.41136C51.7971 0.776235 51.9382 0.141113 53.0673 0.141113C53.279 0.141113 53.5613 0.141113 53.773 0.211682H53.8436V0.282251V0.705666H53.773C53.5613 0.705666 53.3496 0.635097 53.0673 0.635097C52.8556 0.635097 52.2911 0.635097 52.2911 1.34079V2.11705H53.7024V2.61103H52.2911V7.05688H51.7971V6.98631Z" fill="#007B9A"/>
<path d="M56.5256 7.19819C54.6908 7.19819 53.7734 5.92794 53.7734 4.58713C53.7734 3.24632 54.6908 1.97607 56.5256 1.97607C58.3604 1.97607 59.2778 3.31689 59.2778 4.58713C59.2778 5.85737 58.3604 7.19819 56.5256 7.19819ZM56.5256 2.47006C55.0437 2.47006 54.338 3.52859 54.338 4.58713C54.338 5.64567 55.0437 6.7042 56.5962 6.7042C58.1487 6.7042 58.8544 5.5751 58.8544 4.58713C58.8544 3.59916 58.0782 2.47006 56.5256 2.47006Z" fill="#007B9A"/>
<path d="M60.2656 6.98648V2.11721H60.8302V3.10518C61.1125 2.39949 61.8887 1.97607 62.8061 1.97607C62.9472 1.97607 63.0178 1.97607 63.159 2.04664L63.2295 2.54063V2.6112H63.159C63.0884 2.6112 62.9473 2.54063 62.665 2.54063C61.3947 2.54063 60.8302 3.52859 60.8302 4.37542V6.98648H60.2656Z" fill="#007B9A"/>
<path d="M65.9118 7.19801C64.1476 7.19801 63.3008 5.8572 63.3008 4.58695C63.3008 3.03443 64.3593 1.9759 65.9118 1.9759C67.1821 1.9759 67.7466 2.68159 68.0289 3.03443V0.21167H68.5935V6.9863H68.0289V6.0689C67.7466 6.63346 67.0409 7.19801 65.9118 7.19801ZM65.9118 2.46988C64.8533 2.46988 63.7948 3.105 63.7948 4.58695C63.7948 5.8572 64.6416 6.70403 65.8413 6.70403C67.4644 6.70403 68.0289 5.64549 68.0289 4.65752C68.0289 3.03443 66.9704 2.46988 65.9118 2.46988Z" fill="#007B9A"/>
<path d="M25.9694 28.0159C28.1571 27.2397 31.3327 25.546 31.3327 25.546L30.4153 23.8524C30.4153 23.8524 28.7216 25.1226 26.7457 26.1106C25.052 26.8868 21.7353 28.5099 17.2189 27.8042C21.1002 27.6631 24.4875 25.546 26.3223 22.3704C26.3223 22.3704 26.3223 22.3704 26.3223 22.2998C26.4634 22.0881 26.534 21.8764 26.6751 21.5941C28.5099 18.0657 28.7922 16.372 28.8628 14.1844C29.0039 11.5733 28.7216 9.95024 27.9454 7.7626C27.1691 5.57496 25.4754 2.39935 25.4754 2.39935L23.7818 3.31675C23.7818 3.31675 25.052 5.01041 26.04 6.98634C26.8163 8.68 28.4393 11.9262 27.7337 16.4426C27.5219 12.2085 26.9574 10.5148 25.8989 8.46829C24.6992 6.13951 23.6406 4.86927 21.8764 3.38732C20.1828 1.90537 17.0777 0 17.0777 0L16.0898 1.62309C16.0898 1.62309 18.0657 2.46992 19.9005 3.66959C21.453 4.72813 24.4169 6.77463 26.1106 11.0793C26.1106 11.0088 26.04 11.0088 26.04 10.9382C25.9694 10.8676 25.8989 10.7265 25.8283 10.6559C23.7112 7.33919 22.3704 6.28065 20.5356 5.08097C18.348 3.66959 16.7954 3.10504 14.5372 2.68163C12.279 2.25821 8.60943 2.18764 8.60943 2.18764V4.09301C8.60943 4.09301 10.7265 3.81073 12.9141 4.02244C14.7489 4.16358 18.348 4.44585 21.947 7.26862C18.2068 5.29268 16.5132 5.01041 14.1844 4.86927C11.5733 4.72813 9.95024 5.01041 7.7626 5.78666C5.57496 6.56292 2.39935 8.25658 2.39935 8.25658L3.31675 9.87967C3.31675 9.87967 5.01041 8.60943 6.98634 7.62146C8.68 6.8452 11.9262 5.22211 16.5132 5.9278C16.2309 5.9278 15.9486 5.9278 15.6663 5.99837C11.9967 6.21008 10.4442 6.77463 8.46829 7.7626C6.13951 8.96227 4.86927 10.0208 3.38732 11.785C1.90537 13.5493 0 16.6543 0 16.6543L1.62309 17.6423C1.62309 17.6423 2.46992 15.6663 3.66959 13.8315C4.72813 12.3496 6.70406 9.31512 10.9382 7.69203C10.7971 7.7626 10.5854 7.90374 10.4442 8.04488C7.26862 10.0914 6.21008 11.4322 5.01041 13.267C3.59902 15.4546 3.03447 17.0071 2.61106 19.2654C2.25821 21.453 2.11707 25.1226 2.11707 25.1226H4.02244C4.02244 25.1226 3.74016 23.0055 3.95187 20.8179C4.09301 18.9831 4.37528 15.3841 7.19805 11.8556C7.19805 11.9262 7.12748 11.9262 7.12748 11.9967C5.22211 15.5958 4.93984 17.36 4.7987 19.5476C4.65756 22.1587 4.93984 23.7818 5.7161 25.9694C6.49236 28.1571 8.18601 31.3327 8.18601 31.3327L9.87967 30.4153C9.87967 30.4153 8.60943 28.7216 7.62146 26.7457C6.8452 25.052 5.22211 21.8058 5.9278 17.2894C6.13951 21.5236 6.70406 23.2172 7.7626 25.2637C8.96227 27.5925 10.0208 28.8628 11.785 30.3447C13.5493 31.8267 16.6543 33.732 16.6543 33.732L17.6423 32.1089C17.6423 32.1089 15.6663 31.2621 13.8315 30.0624C12.279 29.0039 9.31512 26.9574 7.62146 22.6527C9.87967 26.2517 11.2205 27.3808 13.1964 28.651C15.3841 30.0624 16.9366 30.627 19.1948 31.0504C21.453 31.4738 25.1226 31.5444 25.1226 31.5444V29.639C25.1226 29.639 23.0055 29.9213 20.8179 29.7096C18.9831 29.5684 15.3841 29.2862 11.785 26.4634C15.5252 28.4393 17.2894 28.7216 19.5476 28.8628C22.1587 29.0745 23.7818 28.7922 25.9694 28.0159ZM16.866 6.98634C22.2998 6.98634 26.7457 11.4322 26.7457 16.866C26.7457 22.2998 22.2998 26.7457 16.866 26.7457C11.4322 26.7457 6.98634 22.2998 6.98634 16.866C6.98634 11.4322 11.4322 6.98634 16.866 6.98634Z" fill="#007B9A"/>
</svg>
