<svg width="180" height="48" viewBox="0 0 180 48" fill="none" xmlns="http://www.w3.org/2000/svg">
<mask id="mask0_816_17288" style="mask-type:luminance" maskUnits="userSpaceOnUse" x="0" y="0" width="180" height="48">
<path d="M0 7.62939e-05H180V47.1558H0V7.62939e-05Z" fill="white"/>
</mask>
<g mask="url(#mask0_816_17288)">
<path d="M73.6333 31.9341C73.6333 31.5702 73.3964 31.3008 72.9121 31.1959V30.9604C73.1802 30.9604 74.0731 30.9964 74.3243 30.9964C74.5415 30.9964 75.4061 30.9604 75.6751 30.9604V31.1959C75.2257 31.2837 74.9896 31.5494 74.9896 31.9341V36.5548C74.9896 38.018 75.7921 38.845 77.4704 38.845C78.9166 38.845 80.0419 38.1948 80.0419 36.6635V31.9162C80.0419 31.5729 79.8266 31.3008 79.2848 31.1959V30.9604C79.4819 30.9604 80.2202 30.9964 80.4722 30.9964C80.6875 30.9964 81.4624 30.9604 81.6606 30.9604V31.1959C81.1378 31.3207 80.9054 31.555 80.9054 31.9162V36.409C80.9054 38.4254 79.734 39.5835 77.2062 39.5835C74.8528 39.5835 73.6333 38.5123 73.6333 36.6179V31.9341Z" fill="#1D1D1B"/>
<path d="M83.7281 39.2212C84.2756 39.1191 84.4918 38.8414 84.4918 38.5009V32.1146C84.4918 31.5729 84.2038 31.3293 83.7129 31.195V30.9595C83.9906 30.9803 84.4567 30.9925 84.6947 30.9925C84.9108 30.9925 85.2469 30.9888 85.4734 30.9595L91.0049 37.4726V31.9161C91.0049 31.5738 90.7879 31.3016 90.248 31.195V30.9595C90.4462 30.9595 91.158 30.9963 91.4109 30.9963C91.6309 30.9963 92.3936 30.9595 92.5946 30.9595V31.195C92.0669 31.3196 91.8122 31.556 91.8122 31.9161V39.5833H91.4789C91.2692 39.5351 90.8728 39.3092 90.2688 38.6457L85.3196 32.8728V38.5009C85.3196 38.8431 85.5168 39.1144 86.0568 39.2212V39.4576C85.8586 39.4576 85.1469 39.4199 84.8939 39.4199C84.6759 39.4199 83.929 39.4576 83.7281 39.4576V39.2212Z" fill="#1D1D1B"/>
<path d="M127.376 37.499H127.61C127.734 37.9763 128.007 38.4113 128.389 38.6627C128.787 38.9434 129.411 39.0776 129.915 39.0776C131.027 39.0776 131.733 38.5257 131.733 37.6521C131.733 36.7475 130.829 36.2778 129.747 35.7361C128.941 35.3325 127.359 34.6662 127.359 33.1347C127.359 31.7081 128.446 30.8207 130.184 30.8207C131.331 30.8207 131.869 31.1013 132.643 31.0654L132.628 32.7962H132.391C132.082 31.7762 131.157 31.4208 130.144 31.4208C129.011 31.4208 128.587 32.0695 128.587 32.7292C128.587 33.6736 129.51 34.1498 130.556 34.617C131.733 35.1415 133.009 35.8042 133.009 37.2798C133.009 38.6768 131.918 39.6885 129.923 39.6885C128.736 39.6885 128.025 39.3491 127.401 39.2723L127.376 37.499Z" fill="#1D1D1B"/>
<path d="M151.149 35.9422L148.896 32.3238C148.512 31.6885 148.218 31.3537 147.789 31.195V30.9603C148.098 30.9603 148.931 30.9974 149.168 30.9974C149.382 30.9974 150.282 30.9603 150.607 30.9603V31.195C150.319 31.246 150.184 31.3905 150.184 31.608C150.184 31.7998 150.314 32.0467 150.445 32.2612C150.574 32.4739 152.106 35.0187 152.106 35.0187L153.706 32.2623C153.867 31.9861 153.981 31.7121 153.981 31.5314C153.981 31.3669 153.865 31.2308 153.593 31.195V30.9603C153.863 30.9603 154.433 30.9974 154.614 30.9974C154.795 30.9974 155.449 30.9603 155.718 30.9603V31.1789C155.103 31.4314 154.719 31.972 154.346 32.5987L152.298 36.0254M152.438 35.5934V38.484C152.438 38.7705 152.656 39.1306 153.149 39.2212V39.4578C152.874 39.4578 151.977 39.4199 151.718 39.4199C151.5 39.4199 150.64 39.4578 150.329 39.4578V39.2212C150.824 39.1306 151.061 38.7705 151.061 38.484V35.7201" fill="#1D1D1B"/>
<path d="M109.298 30.9604H114.579C114.742 30.9604 115.029 30.9415 115.192 30.8706H115.428L115.391 32.5891H115.157C114.956 32.0484 114.747 31.6155 113.725 31.6155H111.432V34.6102H113.199C113.457 34.6102 113.769 34.5884 113.904 34.5563C114.302 34.4693 114.476 34.2479 114.557 33.9088H114.792C114.776 34.1677 114.776 34.7586 114.776 34.9335C114.776 35.1093 114.792 35.7313 114.792 36.013H114.557C114.443 35.6745 114.289 35.4174 113.904 35.323C113.769 35.287 113.451 35.2577 113.199 35.2577H111.432V38.7705H113.926C115.015 38.7705 115.332 38.3157 115.602 37.673L115.836 37.7276L115.602 39.4927C114.792 39.4207 114.307 39.4207 113.387 39.4207H110.752C110.498 39.4207 109.566 39.4578 109.295 39.4578V39.2223C109.771 39.1315 110.048 38.896 110.048 38.4395V31.9427C110.048 31.5399 109.832 31.2884 109.298 31.1987V30.9604Z" fill="#1D1D1B"/>
<path d="M95.8083 31.9889C95.8083 31.5532 95.5488 31.3132 95.0399 31.2034V30.97C95.3232 30.97 96.24 31.0057 96.507 31.0057C96.7307 31.0057 97.6729 30.97 97.9598 30.97V31.2034C97.4538 31.3132 97.1884 31.5303 97.1884 31.9889V38.4405C97.1884 38.8763 97.4491 39.1135 97.9598 39.2212V39.4578C97.6738 39.4578 96.7702 39.4207 96.507 39.4207C96.2793 39.4207 95.3232 39.4578 95.0391 39.4578V39.2212C95.5592 39.124 95.8083 38.8962 95.8083 38.4405V31.9889Z" fill="#1D1D1B"/>
<path d="M135.872 31.9889C135.872 31.5532 135.609 31.3132 135.102 31.2034V30.97C135.385 30.97 136.302 31.0057 136.567 31.0057C136.793 31.0057 137.735 30.97 138.021 30.97V31.2034C137.515 31.3132 137.251 31.5303 137.251 31.9889V38.4405C137.251 38.8763 137.512 39.1135 138.021 39.2212V39.4578C137.737 39.4578 136.835 39.4207 136.567 39.4207C136.344 39.4207 135.385 39.4578 135.102 39.4578V39.2212C135.621 39.124 135.872 38.8962 135.872 38.4405V31.9889Z" fill="#1D1D1B"/>
<path d="M143.214 30.9963C140.319 30.9963 139.856 30.9424 139.264 30.9055L139.269 32.6563H139.504C139.721 31.8801 140.152 31.6996 140.711 31.6996H142.527V38.4405C142.527 38.896 142.278 39.124 141.757 39.2212V39.4578C142.043 39.4578 143.007 39.4207 143.23 39.4207C143.496 39.4207 144.402 39.4578 144.684 39.4578V39.2212C144.172 39.1135 143.913 38.8763 143.913 38.4405V31.6996H145.715C146.294 31.6996 146.709 31.8973 146.925 32.6563H147.158L147.162 30.9055C146.574 30.9424 146.11 30.9963 143.214 30.9963Z" fill="#1D1D1B"/>
<path d="M120.112 38.4403C120.112 38.876 120.388 39.1124 120.899 39.2209V39.4575C120.616 39.4575 119.69 39.4205 119.426 39.4205C119.199 39.4205 118.295 39.4575 118.01 39.4575V39.2209C118.484 39.1304 118.763 38.8959 118.763 38.4403V31.9227C118.763 31.5219 118.545 31.2695 118.012 31.1787V30.9442C118.295 30.9442 119.19 30.98 119.444 30.98C119.858 30.98 121.036 30.9102 121.499 30.9102C123.529 30.9102 124.659 31.7506 124.659 33.1911C124.659 34.3235 123.818 35.0893 122.523 35.4021C122.523 35.4021 122.818 35.5741 123.113 35.9173C123.471 36.3397 124.437 37.7286 124.838 38.2142C125.239 38.7013 125.751 39.2447 126.3 39.2693V39.4592C126.037 39.5168 125.615 39.5671 125.292 39.5671C124.603 39.5671 124.053 39.3233 123.519 38.6758C123.056 38.1123 122.272 36.9431 121.81 36.3521C121.515 35.9759 121.157 35.682 120.502 35.5741C120.375 35.5524 120.255 35.5345 120.112 35.5175V38.4403ZM120.112 34.9767C120.382 35.0135 120.779 35.0307 121.172 35.0307C122.761 35.0307 123.261 34.1156 123.261 33.3056C123.261 32.1599 122.497 31.45 121.107 31.45C120.819 31.45 120.402 31.4859 120.112 31.5405V34.9767Z" fill="#1D1D1B"/>
<path d="M99.9944 32.0161C99.8094 31.6059 99.5253 31.3053 99.041 31.1987V30.9593C99.3421 30.9593 100.385 30.9972 100.614 30.9972C100.825 30.9972 101.737 30.9593 102.047 30.9593V31.1918C101.772 31.2447 101.459 31.3969 101.459 31.6787C101.459 31.8799 101.58 32.1542 101.813 32.6704L104 37.6518L106.069 32.6619C106.232 32.2591 106.35 31.9472 106.35 31.7089C106.35 31.4453 106.107 31.2627 105.764 31.1918V30.9593C106.039 30.9593 106.713 30.9972 106.922 30.9972C107.114 30.9972 107.905 30.9593 108.207 30.9593V31.1987C107.69 31.3385 107.376 31.623 107.086 32.297L104.041 39.4875H103.352L99.9944 32.0161Z" fill="#1D1D1B"/>
<path d="M107.803 9.33912C107.451 8.56106 106.911 7.99389 105.996 7.7907V7.33787C106.565 7.33787 108.455 7.40596 108.889 7.40596C109.29 7.40596 111.12 7.33787 111.703 7.33787V7.77936C111.186 7.88063 110.591 8.16989 110.591 8.70387C110.591 9.0809 110.825 9.60204 111.26 10.5784L115.406 20.0189L119.33 10.5623C119.636 9.79666 119.865 9.21151 119.865 8.75868C119.865 8.25574 119.4 7.91467 118.75 7.77936V7.33787C119.269 7.33787 120.531 7.40596 120.932 7.40596C121.297 7.40596 122.796 7.33787 123.366 7.33787V7.76523C122.388 8.03093 121.789 8.59339 121.245 9.87031L115.476 23.5005H114.171L107.803 9.33912Z" fill="#1D1D1B"/>
<path d="M51.9648 22.9812C52.7181 22.8091 53.2477 22.4661 53.2477 21.6116V9.11575C53.2477 8.29529 52.7549 7.95487 51.9648 7.7489V7.30548C52.3604 7.30548 54.0642 7.37271 54.4785 7.37271C54.9562 7.37271 56.7421 7.30548 57.1349 7.30548V7.7489C56.3825 7.91997 55.8247 8.26211 55.8247 9.11575V14.3356H65.1207V9.11575C65.1207 8.26211 64.6251 7.91997 63.8398 7.7489V7.30548C64.2323 7.30548 65.9864 7.37271 66.4629 7.37271C66.8745 7.37271 68.6181 7.30548 69.0068 7.30548V7.7489C68.2538 7.91997 67.6957 8.26211 67.6957 9.11575V21.6116C67.6957 22.432 68.2196 22.7761 69.0068 22.9812V23.3904C68.6181 23.3904 66.8745 23.3566 66.4629 23.3566C65.9864 23.3566 64.2323 23.3904 63.8398 23.3904V22.9812C64.5874 22.8091 65.1207 22.4661 65.1207 21.6116V15.7061H55.8247V21.6116C55.8247 22.4661 56.3476 22.7761 57.1349 22.9812V23.3904C56.7421 23.3904 54.9562 23.3566 54.4785 23.3566C54.0642 23.3566 52.3604 23.3904 51.9648 23.3904V22.9812Z" fill="#1D1D1B"/>
<path d="M159.49 22.9814C160.455 22.8093 160.986 22.4256 160.986 21.5437V9.11592C160.986 8.25949 160.462 7.92014 159.53 7.74907V7.30566C160.067 7.30566 161.815 7.37288 162.299 7.37288C163.081 7.37288 165.261 7.20181 166.959 7.20181C172.677 7.20181 176.149 10.3997 176.149 15.2622C176.149 19.9886 172.537 23.491 166.641 23.491C164.941 23.491 162.924 23.3567 162.135 23.3567C161.656 23.3567 160.025 23.4246 159.49 23.4246V22.9814ZM163.562 22.1579C164.144 22.2639 165.22 22.3301 166.069 22.3301C170.872 22.3301 173.373 19.4347 173.373 15.3965C173.373 11.2099 170.735 8.26421 166.243 8.26421C165.326 8.26421 164.179 8.33315 163.562 8.43356V22.1579Z" fill="#1D1D1B"/>
<path d="M94.7619 21.4982C94.7619 22.3263 95.2857 22.7761 96.2495 22.9813V23.4247C95.7125 23.4247 93.9633 23.3566 93.4603 23.3566C93.0354 23.3566 91.3192 23.4247 90.7832 23.4247V22.9813C91.678 22.8093 92.2056 22.3631 92.2056 21.4982V9.15946C92.2056 8.40024 91.796 7.92021 90.7849 7.74893V7.30552C91.3222 7.30552 93.0175 7.37275 93.4932 7.37275C94.2796 7.37275 96.5093 7.2415 97.3889 7.2415C101.235 7.2415 103.375 8.83423 103.375 11.5585C103.375 13.7062 101.778 15.1514 99.3271 15.7479C99.3271 15.7479 99.8829 16.0723 100.442 16.7253C101.121 17.5241 102.994 20.2088 103.751 21.1284C104.508 22.0493 105.479 23.0776 106.518 23.1249V23.4872C106.02 23.5947 105.224 23.6865 104.615 23.6865C103.304 23.6865 102.263 23.2271 101.25 21.9981C100.377 20.9318 98.8492 18.6651 97.9741 17.546C97.4154 16.833 96.7415 16.2774 95.504 16.0723C95.2603 16.0305 95.0311 15.9984 94.7619 15.9682V21.4982ZM94.7619 14.9446C95.2707 15.0116 96.0229 15.0456 96.7689 15.0456C99.7763 15.0456 100.721 13.312 100.721 11.7805C100.721 9.60565 99.2749 8.26407 96.6404 8.26407C96.0975 8.26407 95.3067 8.33323 94.7619 8.43343V14.9446Z" fill="#1D1D1B"/>
<path d="M145.45 21.4982C145.45 22.3263 145.975 22.7761 146.94 22.9813V23.4247C146.404 23.4247 144.657 23.3566 144.154 23.3566C143.721 23.3566 142.011 23.4247 141.473 23.4247V22.9813C142.366 22.8093 142.894 22.3631 142.894 21.4982V9.15946C142.894 8.40024 142.481 7.92021 141.476 7.74893V7.30552C142.015 7.30552 143.704 7.37275 144.184 7.37275C144.972 7.37275 147.2 7.2415 148.075 7.2415C151.927 7.2415 154.061 8.83423 154.061 11.5585C154.061 13.7062 152.468 15.1514 150.015 15.7479C150.015 15.7479 150.573 16.0723 151.129 16.7253C151.814 17.5241 153.686 20.2088 154.441 21.1284C155.201 22.0493 156.172 23.0776 157.205 23.1249V23.4872C156.714 23.5947 155.913 23.6865 155.31 23.6865C153.996 23.6865 152.95 23.2271 151.94 21.9981C151.067 20.9318 149.544 18.6651 148.662 17.546C148.103 16.833 147.431 16.2774 146.196 16.0723C145.949 16.0305 145.722 15.9984 145.45 15.9682V21.4982ZM145.45 14.9446C145.965 15.0116 146.713 15.0456 147.459 15.0456C150.468 15.0456 151.41 13.312 151.41 11.7805C151.41 9.60565 149.963 8.26407 147.333 8.26407C146.785 8.26407 145.998 8.33323 145.45 8.43343V14.9446Z" fill="#1D1D1B"/>
<path d="M71.452 22.9784C72.4695 22.7403 73.0284 22.0804 73.3994 21.1974L78.5478 8.7926C78.7667 8.27939 79.0216 7.22427 79.0216 7.22427H80.4622C80.4622 7.22427 80.7198 8.28217 80.9341 8.79645L86.375 21.2315C86.763 22.0879 87.1829 22.7062 88.2648 22.9784L88.262 23.3916C87.673 23.3916 85.8417 23.3576 85.4252 23.3576C85.0109 23.3576 83.2617 23.3916 82.6738 23.3916L82.6757 22.9784C83.4676 22.7838 83.7178 22.3802 83.7178 21.9896C83.7178 21.658 83.581 21.2835 83.4148 20.8951L82.2451 18.2235H76.25L75.1789 20.9101C75.0589 21.2146 74.9163 21.6447 74.9163 21.9348C74.9163 22.3829 75.1504 22.7403 76.049 22.9784L76.0471 23.3916C75.5147 23.3916 74.1092 23.3576 73.7799 23.3576L71.4512 23.3916L71.452 22.9784ZM81.7025 16.9569L79.1424 10.9838L76.758 16.9569H81.7025Z" fill="#1D1D1B"/>
<path d="M122.457 22.9784C123.474 22.7403 124.034 22.0804 124.403 21.1974L129.554 8.7926C129.773 8.27939 130.03 7.22427 130.03 7.22427H131.471C131.471 7.22427 131.726 8.28217 131.939 8.79645L137.382 21.2315C137.767 22.0879 138.191 22.7062 139.268 22.9784L139.266 23.3916C138.679 23.3916 136.846 23.3576 136.427 23.3576C136.016 23.3576 134.268 23.3916 133.679 23.3916V22.9784C134.476 22.7838 134.722 22.3802 134.722 21.9896C134.722 21.658 134.587 21.2835 134.424 20.8951L133.249 18.2235H127.254L126.182 20.9101C126.062 21.2146 125.92 21.6447 125.92 21.9348C125.92 22.3829 126.155 22.7403 127.053 22.9784V23.3916C126.519 23.3916 125.115 23.3576 124.784 23.3576L122.455 23.3916L122.457 22.9784ZM132.707 16.9569L130.146 10.9838L127.763 16.9569H132.707Z" fill="#1D1D1B"/>
<path d="M4.43359 2.29004H40.3303V15.869C40.3303 22.0907 38.0176 35.285 22.5159 45.1047C22.5159 45.1047 5.7192 38.0801 4.43359 15.869L4.43359 2.29004Z" fill="#A81D28"/>
<path d="M4.35938 2.25406H40.291V15.8425C40.291 22.0663 37.9754 35.2679 22.4596 45.0942C22.4596 45.0942 5.64691 38.0652 4.35938 15.8425L4.35938 2.25406Z" stroke="#12110C" stroke-width="0.306667"/>
<path d="M31.6019 19.739C31.6019 19.739 31.2819 20.7608 29.8586 19.7106L24.9716 19.5924C24.9716 19.5924 24.3317 19.7986 24.2447 19.1282C24.2447 19.1282 24.3619 17.789 24.3024 17.6716C24.3024 17.6716 24.3317 17.2935 23.6897 17.2935C23.6897 17.2935 22.7023 17.4098 22.673 16.5345C22.673 16.5345 22.5005 15.6025 23.8663 15.6336C23.8663 15.6336 24.3024 15.8368 24.3317 15.282C24.3317 15.282 24.2742 11.4943 24.3024 11.205C24.3024 11.205 24.4194 10.8571 23.7491 10.7976C23.7491 10.7976 22.7902 11.0007 22.673 10.3619C22.673 10.3619 22.6155 9.40052 23.2565 9.341C23.2565 9.341 24.041 9.40052 24.1861 9.19541C24.1861 9.19541 24.3619 9.3106 24.3317 8.61497L24.3619 7.41812C24.3619 7.41812 24.4459 7.09867 24.9415 7.12993C24.9415 7.12993 25.8438 7.18753 25.9618 7.09867C25.9618 7.09867 26.163 6.83789 26.2224 6.71949C26.2224 6.71949 26.6887 6.69123 26.7747 6.80835C26.7747 6.80835 27.4732 7.27446 30.1198 7.09867C30.1198 7.09867 30.5278 7.09867 30.6127 7.216C30.6127 7.216 31.1091 7.5939 31.399 7.18753C31.399 7.18753 31.8352 7.09867 33.1435 7.12993C33.1435 7.12993 34.5706 7.50697 35.5571 6.69123L35.878 6.7499C35.878 6.7499 36.2849 7.41812 36.5757 7.216C36.5757 7.216 37.4489 7.12993 37.5932 7.30379C37.5932 7.30379 37.8831 7.73778 37.7386 8.87768C37.7386 8.87768 37.566 9.37119 38.4088 9.37119C38.4088 9.37119 39.3699 9.19541 39.2517 10.0981C39.2517 10.0981 39.5131 11.1181 37.9152 10.9733C37.9152 10.9733 37.7103 11.2645 37.7386 11.4688C37.7386 11.4688 37.7103 14.7876 37.681 15.1685C37.681 15.1685 37.6526 15.6933 38.3494 15.6629C38.3494 15.6629 39.2812 15.6025 39.3122 16.4485C39.3122 16.4485 39.4274 17.5554 38.0879 17.3503C38.0879 17.3503 37.6811 17.4098 37.6205 17.6716L37.566 19.1282C37.566 19.1282 37.5932 19.8562 36.7805 19.6804C36.6644 19.6804 32.2438 19.7703 31.8645 19.654C31.8645 19.654 31.6586 19.6247 31.6019 19.739Z" fill="white"/>
<path d="M22.2082 24.6073C22.2082 24.6073 22.4122 24.5212 22.4697 24.3776C22.4697 24.3776 23.0814 24.3178 23.1671 24.2311L25.0882 24.3776C25.0882 24.3776 26.978 24.5212 27.7926 23.9361C27.7926 23.9361 28.0853 23.9361 28.289 24.0249C28.289 24.0249 28.694 24.1138 28.8101 24.2859L29.9165 24.2566C29.9165 24.2566 30.5564 24.4626 30.497 24.8709V25.3937C30.497 25.3937 30.3801 26.443 30.6708 26.5026H31.5164C31.5164 26.5026 32.2151 26.8222 32.1273 27.2294C32.1273 27.2294 32.1566 27.8099 31.5468 27.9281C31.5468 27.9281 30.9332 28.1019 30.732 28.0745C30.732 28.0745 30.5272 28.3355 30.497 28.6558L30.4121 32.472C30.4121 32.472 30.3527 32.8795 30.9644 32.8217C30.9644 32.8217 31.8639 32.7339 32.1273 33.231C32.1273 33.231 32.3603 34.0742 31.8951 34.2198L31.5468 34.3928L30.7886 34.514C30.7886 34.514 30.4707 34.5403 30.4404 35.0933V36.1112C30.4404 36.1112 30.4707 36.8128 29.9165 36.8128L29.1019 36.8713C29.1019 36.8713 28.8988 37.0434 28.4922 36.9271C28.4922 36.9271 23.5466 37.0169 23.372 36.9576L22.7898 37.0755C22.7898 37.0755 22.1505 37.6579 21.6267 37.2192L21.2198 36.8987C21.2198 36.8987 20.9282 36.9576 20.814 36.9271C20.6971 36.8987 15.3447 36.9867 15.3447 36.9867C15.3447 36.9867 14.21 37.1049 14.1241 36.724C14.1241 36.724 13.9789 35.2398 14.0364 35.0621C14.0364 35.0621 14.0364 34.6272 13.7749 34.599C13.7749 34.599 12.6403 34.5403 12.611 34.4221C12.611 34.4221 11.9993 33.9875 12.174 33.5513C12.174 33.5513 12.3788 32.9664 12.9885 32.9086C12.9885 32.9086 13.9192 33.0561 13.9192 32.7934C13.9192 32.7934 13.9789 32.6185 13.9789 32.3284C13.9789 32.3284 14.0364 28.8601 14.0071 28.6276C14.0071 28.6276 14.0939 28.1908 13.7155 28.1908C13.7155 28.1908 13.3086 28.3062 13.048 28.1323C13.048 28.1323 12.3495 28.1617 12.2041 27.6076C12.2041 27.6076 12.0871 27.2588 12.2608 26.9648C12.2608 26.9648 12.5819 26.3249 13.5126 26.5298C13.5126 26.5298 14.0364 26.6764 14.0939 26.2992L14.0666 24.8983C14.0666 24.8983 13.9485 24.5212 14.6763 24.3178C14.6763 24.3178 15.607 24.5788 15.8969 24.1138C15.8969 24.1138 16.2179 23.4708 16.4766 23.9078C16.4766 23.9078 17.0316 24.4334 18.5438 24.3776C18.5438 24.3776 21.1623 24.1716 21.2198 24.2859C21.2198 24.2859 21.8599 24.3776 22.0336 24.5788L22.2082 24.6073Z" fill="white"/>
<path d="M14.2995 19.739C14.2995 19.739 13.9786 20.7608 12.5534 19.7097L7.6673 19.5924C7.6673 19.5924 7.02738 19.7986 6.93951 19.1276C6.93951 19.1276 7.05668 17.789 6.99617 17.6716C6.99617 17.6716 7.02738 17.2916 6.3864 17.2916C6.3864 17.2916 5.39905 17.4106 5.37061 16.5365C5.37061 16.5365 5.19508 15.6015 6.56193 15.6336C6.56193 15.6336 6.99617 15.8368 7.02738 15.2831C7.02738 15.2831 6.9688 11.497 6.99617 11.2042C6.99617 11.2042 7.11504 10.8582 6.44584 10.7984C6.44584 10.7984 5.48478 11.0008 5.37061 10.3599C5.37061 10.3599 5.31117 9.40053 5.95024 9.34101C5.95024 9.34101 6.73575 9.40053 6.882 9.19905C6.882 9.19905 7.05668 9.31167 7.02738 8.61198L7.05668 7.41919C7.05668 7.41919 7.14434 7.09868 7.63609 7.12801C7.63609 7.12801 8.54048 7.1856 8.65743 7.09868C8.65743 7.09868 8.86055 6.8379 8.91613 6.7195C8.91613 6.7195 9.38437 6.69209 9.47117 6.80557C9.47117 6.80557 10.1677 7.27446 12.8174 7.09868C12.8174 7.09868 13.2224 7.09868 13.3102 7.21601C13.3102 7.21601 13.8039 7.5939 14.0947 7.1856C14.0947 7.1856 14.5309 7.09868 15.8408 7.12801C15.8408 7.12801 17.2635 7.50612 18.2538 6.69209L18.5728 6.75183C18.5728 6.75183 18.9797 7.41919 19.2733 7.21601C19.2733 7.21601 20.1445 7.12801 20.2908 7.30379C20.2908 7.30379 20.5824 7.74057 20.4342 8.87768C20.4342 8.87768 20.2615 9.37205 21.1045 9.37205C21.1045 9.37205 22.0634 9.19905 21.9484 10.0981C21.9484 10.0981 22.2107 11.1181 20.6108 10.9733C20.6108 10.9733 20.406 11.2654 20.4342 11.4688C20.4342 11.4688 20.406 14.7876 20.3776 15.1685C20.3776 15.1685 20.3493 15.6895 21.047 15.6629C21.047 15.6629 21.9777 15.6015 22.0059 16.4495C22.0059 16.4495 22.122 17.5554 20.7853 17.3503C20.7853 17.3503 20.3776 17.4106 20.3181 17.6716L20.2615 19.1276C20.2615 19.1276 20.2908 19.8562 19.4742 19.6823C19.3581 19.6823 14.9397 19.7684 14.5599 19.654C14.5599 19.654 14.357 19.6247 14.2995 19.739Z" fill="white"/>
<path d="M31.6019 19.739C31.6019 19.739 31.2819 20.7608 29.8586 19.7106L24.9716 19.5924C24.9716 19.5924 24.3317 19.7986 24.2447 19.1282C24.2447 19.1282 24.3619 17.789 24.3024 17.6716C24.3024 17.6716 24.3317 17.2935 23.6897 17.2935C23.6897 17.2935 22.7023 17.4098 22.673 16.5345C22.673 16.5345 22.5005 15.6025 23.8663 15.6336C23.8663 15.6336 24.3024 15.8368 24.3317 15.282C24.3317 15.282 24.2742 11.4943 24.3024 11.205C24.3024 11.205 24.4194 10.8571 23.7491 10.7976C23.7491 10.7976 22.7902 11.0007 22.673 10.3619C22.673 10.3619 22.6155 9.40052 23.2565 9.341C23.2565 9.341 24.041 9.40052 24.1861 9.19541C24.1861 9.19541 24.3619 9.3106 24.3317 8.61497L24.3619 7.41812C24.3619 7.41812 24.4459 7.09867 24.9415 7.12993C24.9415 7.12993 25.8438 7.18753 25.9618 7.09867C25.9618 7.09867 26.163 6.83789 26.2224 6.71949C26.2224 6.71949 26.6887 6.69123 26.7747 6.80835C26.7747 6.80835 27.4732 7.27446 30.1198 7.09867C30.1198 7.09867 30.5278 7.09867 30.6127 7.216C30.6127 7.216 31.1091 7.5939 31.399 7.18753C31.399 7.18753 31.8352 7.09867 33.1435 7.12993C33.1435 7.12993 34.5706 7.50697 35.5571 6.69123L35.878 6.7499C35.878 6.7499 36.2849 7.41812 36.5757 7.216C36.5757 7.216 37.4489 7.12993 37.5932 7.30379C37.5932 7.30379 37.8831 7.73778 37.7386 8.87768C37.7386 8.87768 37.566 9.37119 38.4088 9.37119C38.4088 9.37119 39.3699 9.19541 39.2517 10.0981C39.2517 10.0981 39.5131 11.1181 37.9152 10.9733C37.9152 10.9733 37.7103 11.2645 37.7386 11.4688C37.7386 11.4688 37.7103 14.7876 37.681 15.1685C37.681 15.1685 37.6526 15.6933 38.3494 15.6629C38.3494 15.6629 39.2812 15.6025 39.3122 16.4485C39.3122 16.4485 39.4274 17.5554 38.0879 17.3503C38.0879 17.3503 37.6811 17.4098 37.6205 17.6716L37.566 19.1282C37.566 19.1282 37.5932 19.8562 36.7805 19.6804C36.6644 19.6804 32.2438 19.7703 31.8645 19.654C31.8645 19.654 31.6586 19.6247 31.6019 19.739Z" fill="#12110C"/>
<path d="M31.6028 19.7399C31.6028 19.7399 31.2828 20.7618 29.8595 19.7116L24.9715 19.5934C24.9715 19.5934 24.3315 19.7994 24.2447 19.1284C24.2447 19.1284 24.3628 17.7889 24.3022 17.6716C24.3022 17.6716 24.3315 17.2935 23.6906 17.2935C23.6906 17.2935 22.7023 17.4108 22.6731 16.5353C22.6731 16.5353 22.5003 15.6033 23.8661 15.6335C23.8661 15.6335 24.3022 15.8369 24.3315 15.283C24.3315 15.283 24.274 11.4951 24.3022 11.205C24.3022 11.205 24.4203 10.8562 23.75 10.7975C23.75 10.7975 22.79 11.0009 22.6731 10.3618C22.6731 10.3618 22.6164 9.39942 23.2563 9.34097C23.2563 9.34097 24.0408 9.39942 24.1864 9.19537C24.1864 9.19537 24.3628 9.31056 24.3315 8.61386L24.3628 7.41723C24.3628 7.41723 24.4457 7.09778 24.9432 7.12904C24.9432 7.12904 25.8446 7.18664 25.9618 7.09778C25.9618 7.09778 26.163 6.83786 26.2233 6.71946C26.2233 6.71946 26.6887 6.69034 26.7755 6.80767C26.7755 6.80767 27.4732 7.27356 30.1207 7.09778C30.1207 7.09778 30.5287 7.09778 30.6135 7.2149C30.6135 7.2149 31.11 7.59301 31.3999 7.18664C31.3999 7.18664 31.8361 7.09778 33.1444 7.12904C33.1444 7.12904 34.5715 7.50608 35.5589 6.69034L35.88 6.74793C35.88 6.74793 36.2866 7.41723 36.5766 7.2149C36.5766 7.2149 37.4497 7.12904 37.5941 7.30183C37.5941 7.30183 37.8848 7.73774 37.7405 8.87572C37.7405 8.87572 37.5669 9.37116 38.4106 9.37116C38.4106 9.37116 39.3708 9.19538 39.2525 10.0972C39.2525 10.0972 39.514 11.118 37.916 10.9725C37.916 10.9725 37.7121 11.2636 37.7405 11.4687C37.7405 11.4687 37.7121 14.7876 37.6828 15.1676C37.6828 15.1676 37.6535 15.6922 38.3511 15.6639C38.3511 15.6639 39.2838 15.6033 39.3139 16.4484C39.3139 16.4484 39.4283 17.5553 38.0897 17.3502C38.0897 17.3502 37.6828 17.4108 37.6225 17.6716L37.5669 19.1284C37.5669 19.1284 37.5941 19.8572 36.7825 19.6814C36.6664 19.6814 32.2447 19.7703 31.8654 19.654C31.8654 19.654 31.6595 19.6255 31.6028 19.7399Z" stroke="#12110C" stroke-width="0.0133333"/>
<path d="M26.107 7.73862C26.107 7.73862 26.1645 8.32185 26.1645 8.46937C26.1645 8.61389 26.0787 16.8852 26.0787 16.8852C26.0787 16.8852 26.1645 17.526 25.6141 17.8474C25.6141 17.8474 25.4668 17.9041 25.4395 17.4967L25.4963 8.7614C25.4963 8.7614 25.5547 7.68081 26.107 7.73862Z" fill="white"/>
<path d="M26.1078 7.73764C26.1078 7.73764 26.1644 8.32086 26.1644 8.46838C26.1644 8.61375 26.0796 16.8862 26.0796 16.8862C26.0796 16.8862 26.1644 17.527 25.6141 17.8473C25.6141 17.8473 25.4668 17.9051 25.4375 17.4976L25.4961 8.76042C25.4961 8.76042 25.5536 7.67983 26.1078 7.73764Z" stroke="#12110C" stroke-width="0.016"/>
<path d="M25.1464 17.9336C25.1464 17.9336 25.2042 9.72011 25.1768 9.57451C25.1464 9.43085 25.2042 9.69356 25.2042 9.69356C25.2042 9.69356 25.1171 8.26419 25.4958 7.68011C25.4958 7.68011 25.3778 7.18766 24.7094 7.79829L24.6801 8.99108C24.6801 8.99108 24.6801 9.6623 24.0703 9.63296C24.0703 9.63296 23.3718 9.60278 23.0518 9.92329C23.0518 9.92329 22.8773 10.565 23.5455 10.4498C23.5455 10.4498 24.5933 10.4498 24.6519 10.8836L24.5933 15.283C24.5933 15.283 24.8264 16.0146 24.0128 16.0146C24.0128 16.0146 23.0208 15.9523 23.0518 16.564C23.0518 16.564 23.2566 17.0875 24.0996 16.9145C24.0996 16.9145 24.7094 17.0288 24.6801 17.614V18.72C24.6801 18.72 24.6215 19.1596 25.2042 19.187H29.7415C29.7415 19.187 29.9729 19.2153 29.9729 18.9241C29.9729 18.9241 29.9446 18.6918 29.5961 18.6918L25.8156 18.6331C25.8156 18.6331 25.2042 18.8382 25.1464 17.9336Z" fill="white"/>
<path d="M26.0201 17.9204C26.0201 17.9204 25.9032 18.3278 26.3391 18.2426H29.3354L30.148 18.4194C30.148 18.4194 30.9911 18.2135 30.148 17.7482C30.148 17.7482 27.4729 17.7748 27.2407 17.718C27.2407 17.718 26.6876 17.5733 26.5685 17.5442C26.5685 17.5442 26.2807 17.4279 26.0201 17.9204Z" fill="white"/>
<path d="M26.0201 17.9202C26.0201 17.9202 25.9032 18.3285 26.3391 18.2435H29.3362L30.1491 18.4202C30.1491 18.4202 30.9928 18.2133 30.1491 17.7472C30.1491 17.7472 27.4738 17.7736 27.2405 17.7179C27.2405 17.7179 26.6876 17.5723 26.5696 17.543C26.5696 17.543 26.2807 17.4267 26.0201 17.9202Z" stroke="#12110C" stroke-width="0.016"/>
<path d="M30.9917 18.3286C30.9917 18.3286 30.4394 18.3286 30.4679 19.0583C30.4679 19.0583 30.5262 19.6094 31.1078 19.6094C31.1078 19.6094 31.6297 19.5235 31.5741 18.9412C31.5741 18.9412 31.2532 18.2132 30.9917 18.3286Z" fill="white"/>
<path d="M31.4008 18.0384C31.4008 18.0384 31.6623 17.7483 31.8378 17.7483C31.8378 17.7483 34.7462 18.009 35.2371 17.6603C35.2371 17.6603 35.676 17.5733 35.793 17.6603C35.793 17.6603 36.2283 18.009 36.2283 18.2133C36.2283 18.2133 36.1998 18.4769 35.676 18.3276C35.676 18.3276 32.3892 18.3598 32.2145 18.3598C32.2145 18.3598 31.3112 18.5621 31.4008 18.0384Z" fill="white"/>
<path d="M31.3988 18.0383C31.3988 18.0383 31.6603 17.7471 31.8358 17.7471C31.8358 17.7471 34.7451 18.0081 35.237 17.6591C35.237 17.6591 35.6758 17.5722 35.7929 17.6591C35.7929 17.6591 36.228 18.0081 36.228 18.2141C36.228 18.2141 36.1998 18.4779 35.6758 18.3284C35.6758 18.3284 32.3872 18.3606 32.2126 18.3606C32.2126 18.3606 31.3092 18.5629 31.3988 18.0383Z" stroke="#12110C" stroke-width="0.016"/>
<path d="M31.7773 18.9827C31.7773 18.9827 31.7773 18.7472 32.1851 18.7472L36.2555 18.7189C36.2555 18.7189 36.635 18.9232 36.635 18.2254C36.635 18.2254 36.784 15.0504 36.7973 11.5547C36.802 10.514 36.8492 9.42225 36.8124 8.4106C36.8124 8.4106 36.7218 7.97297 36.6048 7.88411C36.6048 7.88411 36.6048 7.41908 37.1002 7.594C37.1002 7.594 37.5364 7.62333 37.4203 8.29541L37.4504 9.31049C37.4504 9.31049 37.3628 9.75004 38.1462 9.63207C38.1462 9.63207 38.9306 9.75004 38.9618 10.0393C38.9618 10.0393 39.194 10.6245 38.265 10.5649H37.593C37.593 10.5649 37.3033 10.739 37.3901 11.0897L37.3033 15.314C37.3033 15.314 37.2448 16.0409 37.9433 16.0135C37.9433 16.0135 38.6691 15.9833 38.8154 16.2169C38.8154 16.2169 39.3129 16.9446 38.2349 16.8862C38.2349 16.8862 37.5657 16.8558 37.4203 16.974C37.4203 16.974 37.3033 17.1185 37.2163 18.4892C37.2163 18.4892 37.2758 19.3049 36.6641 19.2152C36.6641 19.2152 32.6204 19.2728 32.2428 19.187C32.2428 19.187 31.8359 19.3049 31.7773 18.9827Z" fill="white"/>
<path d="M26.5431 7.47393L26.4552 16.8265C26.4552 16.8265 26.427 17.2605 27.1539 17.3483C27.1539 17.3483 27.9968 17.4352 28.1988 17.3483C28.1988 17.3483 28.7549 17.3181 30.1773 17.3776C30.1773 17.3776 30.5284 17.7302 30.5577 17.2898C30.5577 17.2898 30.788 9.7199 30.6749 8.14323C30.6749 8.14323 30.6428 7.47393 30.15 7.4446C30.15 7.4446 27.9392 7.62338 27.7355 7.4446L26.8623 7.21401C26.8623 7.21401 26.513 7.24227 26.5431 7.47393Z" fill="white"/>
<path d="M31.1376 7.9419C31.1376 7.9419 31.0508 12.3403 31.0798 12.4859L31.0223 16.1839L30.9043 17.4666C30.9043 17.4666 31.0798 17.7282 31.2254 17.5544C31.2254 17.5544 32.1561 17.318 32.7375 17.4099C32.7375 17.4099 34.601 17.5829 34.9775 17.2898C34.9775 17.2898 35.2691 17.4353 35.3542 16.9692C35.3542 16.9692 35.4692 8.81631 35.4156 8.67072C35.4156 8.67072 35.5278 7.50234 35.4692 7.38887C35.4692 7.38887 35.4438 7.12701 34.9482 7.35868C34.9482 7.35868 35.0049 7.59312 32.2438 7.50234C32.2438 7.50234 31.197 7.47387 31.1376 7.9419Z" fill="white"/>
<path d="M35.7646 7.82658L35.7363 17.0288C35.7363 17.0288 35.9685 17.8474 36.3461 17.7615C36.3461 17.7615 36.4028 17.5847 36.431 17.2935L36.549 8.52521C36.549 8.52521 36.2563 7.12988 35.7646 7.82658Z" fill="white"/>
<path d="M35.7626 7.8256L35.7344 17.0298C35.7344 17.0298 35.9674 17.8485 36.345 17.7625C36.345 17.7625 36.4027 17.5856 36.431 17.2944L36.5479 8.52423C36.5479 8.52423 36.2554 7.12891 35.7626 7.8256Z" stroke="#12110C" stroke-width="0.016"/>
<path d="M32.1924 10.582C32.1056 10.3495 32.6869 10.3202 32.6869 10.3202L32.9787 10.3778C33.1827 10.3495 33.3865 10.4373 33.3865 10.4373C33.5896 10.757 33.2402 10.9308 33.2402 10.9308L33.1241 11.3108C33.094 11.6322 33.1241 14.3991 33.1241 14.3991C33.1827 14.5428 33.4149 14.8038 33.4149 14.8038C33.4149 15.0673 33.094 15.0097 33.094 15.0097L32.2518 15.0391C31.9895 15.0097 32.0763 14.7175 32.0763 14.7175C32.367 14.5721 32.4549 14.0465 32.4549 14.0465V11.1644L32.1924 10.582Z" fill="#12110C"/>
<path d="M28.2655 13.2911L28.208 14.1938L28.4675 14.6297C28.6441 14.8622 28.3523 15.0391 28.3523 15.0391L27.4216 14.9519C27.2488 14.8622 27.4216 14.5719 27.4216 14.5719C27.6549 14.4284 27.6839 14.0473 27.6839 14.0473L27.6549 12.3582L27.6839 11.1351C27.6839 10.9884 27.4517 10.7285 27.4517 10.7285C27.2488 10.6991 27.3064 10.4373 27.3064 10.4373C27.3641 10.2908 27.8567 10.3778 27.8567 10.3778H29.0801C30.244 10.757 30.0694 11.6018 30.0694 11.6018C30.1572 12.4452 29.2556 12.7967 29.2556 12.7967L29.1953 13.2628L30.0401 14.6004C30.1855 14.7175 30.1572 14.8357 30.1572 14.8357C30.0401 15.1562 29.5738 14.8357 29.5738 14.8357L28.528 13.2033C28.4402 13.086 28.2655 13.2911 28.2655 13.2911ZM28.2948 10.9884C28.323 11.6311 28.323 12.5047 28.323 12.5047C28.8772 12.9423 29.1953 12.3289 29.1953 12.3289C29.9212 11.6311 29.1953 10.9884 29.0801 10.8154C28.9621 10.6396 28.3807 10.7852 28.3807 10.7852L28.2948 10.9884Z" fill="#12110C"/>
<path d="M22.2082 24.6073C22.2082 24.6073 22.4122 24.5212 22.4697 24.3776C22.4697 24.3776 23.0814 24.3178 23.1671 24.2311L25.0882 24.3776C25.0882 24.3776 26.978 24.5212 27.7926 23.9361C27.7926 23.9361 28.0853 23.9361 28.289 24.0249C28.289 24.0249 28.694 24.1138 28.8101 24.2859L29.9165 24.2566C29.9165 24.2566 30.5564 24.4626 30.497 24.8709V25.3937C30.497 25.3937 30.3801 26.443 30.6708 26.5026H31.5164C31.5164 26.5026 32.2151 26.8222 32.1273 27.2294C32.1273 27.2294 32.1566 27.8099 31.5468 27.9281C31.5468 27.9281 30.9332 28.1019 30.732 28.0745C30.732 28.0745 30.5272 28.3355 30.497 28.6558L30.4121 32.472C30.4121 32.472 30.3527 32.8795 30.9644 32.8217C30.9644 32.8217 31.8639 32.7339 32.1273 33.231C32.1273 33.231 32.3603 34.0742 31.8951 34.2198L31.5468 34.3928L30.7886 34.514C30.7886 34.514 30.4707 34.5403 30.4404 35.0933V36.1112C30.4404 36.1112 30.4707 36.8128 29.9165 36.8128L29.1019 36.8713C29.1019 36.8713 28.8988 37.0434 28.4922 36.9271C28.4922 36.9271 23.5466 37.0169 23.372 36.9576L22.7898 37.0755C22.7898 37.0755 22.1505 37.6579 21.6267 37.2192L21.2198 36.8987C21.2198 36.8987 20.9282 36.9576 20.814 36.9271C20.6971 36.8987 15.3447 36.9867 15.3447 36.9867C15.3447 36.9867 14.21 37.1049 14.1241 36.724C14.1241 36.724 13.9789 35.2398 14.0364 35.0621C14.0364 35.0621 14.0364 34.6272 13.7749 34.599C13.7749 34.599 12.6403 34.5403 12.611 34.4221C12.611 34.4221 11.9993 33.9875 12.174 33.5513C12.174 33.5513 12.3788 32.9664 12.9885 32.9086C12.9885 32.9086 13.9192 33.0561 13.9192 32.7934C13.9192 32.7934 13.9789 32.6185 13.9789 32.3284C13.9789 32.3284 14.0364 28.8601 14.0071 28.6276C14.0071 28.6276 14.0939 28.1908 13.7155 28.1908C13.7155 28.1908 13.3086 28.3062 13.048 28.1323C13.048 28.1323 12.3495 28.1617 12.2041 27.6076C12.2041 27.6076 12.0871 27.2588 12.2608 26.9648C12.2608 26.9648 12.5819 26.3249 13.5126 26.5298C13.5126 26.5298 14.0364 26.6764 14.0939 26.2992L14.0666 24.8983C14.0666 24.8983 13.9485 24.5212 14.6763 24.3178C14.6763 24.3178 15.607 24.5788 15.8969 24.1138C15.8969 24.1138 16.2179 23.4708 16.4766 23.9078C16.4766 23.9078 17.0316 24.4334 18.5438 24.3776C18.5438 24.3776 21.1623 24.1716 21.2198 24.2859C21.2198 24.2859 21.8599 24.3776 22.0336 24.5788L22.2082 24.6073Z" fill="#12110C"/>
<path d="M22.2073 24.5713C22.2073 24.5713 22.4091 24.4863 22.4688 24.3407C22.4688 24.3407 23.0794 24.2812 23.1662 24.194L25.0864 24.3407C25.0864 24.3407 26.9771 24.4863 27.7917 23.9011C27.7917 23.9011 28.0844 23.9011 28.2881 23.99C28.2881 23.99 28.6941 24.0778 28.8083 24.2499L29.9165 24.2214C29.9165 24.2214 30.5555 24.4276 30.4961 24.8348V25.3588C30.4961 25.3588 30.38 26.4079 30.6708 26.4657H31.5155C31.5155 26.4657 32.2132 26.7871 32.1272 27.1945C32.1272 27.1945 32.1565 27.7749 31.5459 27.8931C31.5459 27.8931 30.9333 28.067 30.7321 28.0385C30.7321 28.0385 30.5273 28.3004 30.4961 28.6209L30.4101 32.438C30.4101 32.438 30.3518 32.8435 30.9624 32.7867C30.9624 32.7867 31.8629 32.7009 32.1272 33.195C32.1272 33.195 32.3605 34.0392 31.895 34.1857L31.5459 34.3598L30.7877 34.4779C30.7877 34.4779 30.4687 34.5062 30.4405 35.0573V36.0792C30.4405 36.0792 30.4687 36.7777 29.9165 36.7777L29.1019 36.8363C29.1019 36.8363 28.8979 37.0104 28.4912 36.8941C28.4912 36.8941 23.5457 36.9819 23.3711 36.9215L22.7878 37.0395C22.7878 37.0395 22.1496 37.6227 21.6258 37.1832L21.218 36.8627C21.218 36.8627 20.9273 36.9215 20.8122 36.8941C20.6951 36.8627 15.3438 36.9526 15.3438 36.9526C15.3438 36.9526 14.2082 37.0699 14.1214 36.6899C14.1214 36.6899 13.9769 35.2038 14.0344 35.028C14.0344 35.028 14.0344 34.5931 13.7721 34.5638C13.7721 34.5638 12.6385 34.5062 12.6083 34.3889C12.6083 34.3889 11.9975 33.9515 12.172 33.5155C12.172 33.5155 12.3768 32.9315 12.9876 32.8726C12.9876 32.8726 13.9175 33.0222 13.9175 32.7563C13.9175 32.7563 13.9769 32.5825 13.9769 32.2932C13.9769 32.2932 14.0344 28.8251 14.0062 28.5924C14.0062 28.5924 14.093 28.1539 13.7135 28.1539C13.7135 28.1539 13.3068 28.2702 13.0451 28.0972C13.0451 28.0972 12.3477 28.1256 12.2023 27.5726C12.2023 27.5726 12.0843 27.2238 12.2598 26.9307C12.2598 26.9307 12.579 26.2897 13.5106 26.494C13.5106 26.494 14.0344 26.6415 14.093 26.2634L14.0637 24.8633C14.0637 24.8633 13.9468 24.4863 14.6745 24.2812C14.6745 24.2812 15.6052 24.5439 15.896 24.0778C15.896 24.0778 16.215 23.4361 16.4756 23.8709C16.4756 23.8709 17.0307 24.3966 18.5418 24.3407C18.5418 24.3407 21.1614 24.1345 21.218 24.2499C21.218 24.2499 21.859 24.3407 22.0326 24.5439L22.2073 24.5713Z" stroke="#12110C" stroke-width="0.0133333"/>
<path d="M22.9639 36.0546C22.9639 36.0546 23.3141 35.8778 23.5474 35.9384C23.7804 35.9962 27.1825 35.9099 27.1825 35.9099C27.1825 35.9099 28.6654 36.0253 28.8995 35.8191L29.2459 35.7039C29.2459 35.7039 29.3921 35.5301 29.3921 35.2984C29.3921 35.0631 29.4214 34.2765 29.4214 34.2765L29.5102 33.9875C29.5102 33.9875 29.48 33.6961 29.5102 25.9174C29.5102 25.9174 29.6243 25.3087 29.2459 24.9278C29.2459 24.9278 29.2459 24.697 29.362 24.7246C29.48 24.7559 29.4214 24.7559 29.4214 24.7559C29.4214 24.7559 29.9444 24.6073 30.0303 24.8113C30.0303 24.8113 30.2653 25.508 30.0605 25.9174C30.0605 25.9174 30.0019 26.7633 30.4419 26.7633C30.4419 26.7633 30.6136 26.9393 30.963 26.8505C30.963 26.8505 31.719 26.9393 31.719 27.1699C31.719 27.1699 31.719 27.6964 31.1951 27.6086L30.4958 27.6651C30.4958 27.6651 30.0303 27.7551 30.0898 28.3064C30.1492 28.8601 30.0605 32.8216 30.0605 32.8216C30.0605 32.8216 30.0605 33.2897 30.7893 33.2604C30.7893 33.2604 31.6899 33.2302 31.6899 33.4909C31.6899 33.4909 31.9219 34.0733 31.283 34.1037C31.283 34.1037 30.0605 34.0733 30.1492 34.4221C30.1492 34.4221 30.0605 35.2398 30.0019 35.3834C30.0019 35.3834 30.121 36.0546 29.9728 36.172C29.9728 36.172 29.8869 36.549 29.1024 36.4914C29.1024 36.4914 24.1005 36.4629 23.3141 36.5208C23.3141 36.5208 22.8478 36.4629 22.9639 36.0546Z" fill="white"/>
<path d="M22.064 35.5014C22.064 35.5014 22.5577 35.5875 22.5577 36.0545C22.5577 36.5195 22.587 36.7822 22.2945 36.84C22.0046 36.8985 21.6856 36.8126 21.5997 36.4343C21.5101 36.0545 21.6553 35.5875 22.064 35.5014Z" fill="white"/>
<path d="M22.6446 35.2689C22.6446 35.2689 23.1675 34.9171 23.3713 34.978C23.3713 34.978 26.0173 35.1507 26.8338 35.0079C27.6474 34.8615 27.1528 34.978 27.1528 34.978C27.1528 34.978 27.8516 34.978 28.0534 34.714C28.0534 34.714 28.2582 34.6581 28.3743 34.8615L28.8085 35.3293C28.8085 35.3293 28.8415 35.6177 28.345 35.5884C28.345 35.5884 23.6026 35.5884 23.4592 35.6177C23.4592 35.6177 22.5578 35.7614 22.6446 35.2689Z" fill="white"/>
<path d="M22.6446 35.2689C22.6446 35.2689 23.1675 34.9171 23.3713 34.9768C23.3713 34.9768 26.0193 35.1507 26.8347 35.0079C27.6495 34.8606 27.1537 34.9768 27.1537 34.9768C27.1537 34.9768 27.8533 34.9768 28.0553 34.712C28.0553 34.712 28.2593 34.6574 28.3762 34.8606L28.8105 35.3293C28.8105 35.3293 28.8425 35.6187 28.3469 35.5883C28.3469 35.5883 23.6045 35.5883 23.4592 35.6187C23.4592 35.6187 22.5578 35.7624 22.6446 35.2689Z" stroke="#12110C" stroke-width="0.016"/>
<path d="M15.7514 24.9286C15.7514 24.9286 15.9554 24.9286 15.9259 25.2785L15.8667 34.0742C15.8667 34.0742 15.9554 34.6582 15.4607 35.0355C15.4607 35.0355 15.1973 35.3549 15.1973 34.8616L15.3161 25.89C15.3161 25.89 15.3437 25.2196 15.7514 24.9286Z" fill="white"/>
<path d="M15.7514 24.9277C15.7514 24.9277 15.9554 24.9277 15.9278 25.2774L15.8667 34.0752C15.8667 34.0752 15.9554 34.6592 15.4598 35.0365C15.4598 35.0365 15.1953 35.3559 15.1953 34.8624L15.3144 25.8899C15.3144 25.8899 15.3426 25.2187 15.7514 24.9277Z" stroke="#12110C" stroke-width="0.016"/>
<path d="M15.2865 24.9871C15.2865 24.9871 14.9372 25.6289 14.9665 25.7756L14.9372 27.7246C14.9372 27.7246 14.9079 28.9771 14.9372 29.1236C14.9665 29.2683 14.9079 32.9389 14.9079 32.9389C14.9079 32.9389 14.8788 33.6363 14.9079 33.8707V35.4429C14.9079 35.4429 14.8495 36.1432 15.3725 35.9655C15.3725 35.9655 20.4924 35.8503 20.8134 35.939C20.8134 35.939 21.2769 36.0253 21.105 36.2586C21.105 36.2586 21.105 36.464 20.7822 36.4042C20.7822 36.4042 18.3685 36.6357 16.1879 36.5498C16.1879 36.5498 14.7334 36.6357 14.6447 36.464C14.6447 36.464 14.4133 36.4344 14.4133 35.5885C14.4133 35.5885 14.4133 34.804 14.3567 34.6582C14.3567 34.6582 14.4133 34.2452 13.6866 34.161C13.6866 34.161 12.6689 34.3368 12.6396 33.7253C12.6396 33.7253 12.7841 33.2886 13.7743 33.3453C13.7743 33.3453 14.5012 33.4624 14.3567 32.8783L14.4426 28.5705C14.4426 28.5705 14.5322 27.8098 14.0358 27.7794C14.0358 27.7794 13.5722 27.7559 13.4241 27.8098C13.4241 27.8098 12.5812 27.8098 12.6396 27.3182C12.6396 27.3182 12.9304 26.7926 13.7743 26.9097C13.7743 26.9097 14.4133 27.0253 14.4426 26.2991C14.4426 26.2991 14.4133 24.8123 14.7616 24.7556C14.7616 24.7556 15.4905 24.7819 15.2865 24.9871Z" fill="white"/>
<path d="M16.1588 34.6271C16.1588 34.6271 16.5665 35.062 17.2368 35.0365L21.189 35.0932C21.189 35.0932 21.6281 35.1243 21.6006 35.3549C21.6006 35.3549 21.5383 35.7039 21.0173 35.5876L16.2465 35.53L15.7218 35.5619C15.7218 35.5619 15.3724 35.5015 15.9275 34.8322L16.1588 34.6271Z" fill="white"/>
<path d="M16.1564 34.6263C16.1564 34.6263 16.5643 35.062 17.2355 35.0354L21.1887 35.0932C21.1887 35.0932 21.6266 35.1234 21.6003 35.3549C21.6003 35.3549 21.5389 35.7047 21.0179 35.5895L16.2443 35.5317L15.7194 35.5619C15.7194 35.5619 15.3711 35.5026 15.9251 34.8314L16.1564 34.6263Z" stroke="#12110C" stroke-width="0.016"/>
<path d="M28.375 34.246C28.375 34.246 28.7241 34.9172 28.8988 35.0089C28.8988 35.0089 29.2189 35.3842 29.1321 34.7149L29.1896 26.3256C29.1896 26.3256 29.1017 26.0336 29.1896 25.5694L28.8413 24.9284C28.8413 24.9284 28.4618 24.6374 28.4618 25.1024L28.4043 34.0456L28.375 34.246Z" fill="white"/>
<path d="M28.373 34.2473C28.373 34.2473 28.7233 34.9174 28.8988 35.0101C28.8988 35.0101 29.2189 35.3863 29.1321 34.7153L29.1896 26.3239C29.1896 26.3239 29.1017 26.0338 29.1896 25.5696L28.8404 24.9279C28.8404 24.9279 28.4599 24.6376 28.4599 25.1026L28.4023 34.0467L28.373 34.2473Z" stroke="#12110C" stroke-width="0.016"/>
<path d="M21.9183 30.258C21.9183 30.258 21.9476 30.9547 21.8589 31.6231C21.8116 31.9927 21.9767 33.6942 21.8296 34.5666C21.8296 34.5666 21.8031 34.8587 21.1895 34.5979C21.1895 34.5979 17.4676 34.6838 17.3515 34.5666C17.3515 34.5666 16.334 34.5979 16.2461 34.0723C16.2461 34.0723 16.3915 30.0822 16.3047 29.9338C16.3047 29.9338 16.2461 27.7502 16.3047 27.547C16.3047 27.547 16.3915 25.5374 16.334 25.3046C16.334 25.3046 16.3633 24.8385 16.2754 24.6043C16.2754 24.6043 16.2754 24.3131 16.771 24.4872C16.771 24.4872 16.9429 24.8086 17.9037 24.6658C17.9037 24.6658 18.6031 24.7812 19.2725 24.6932C19.2725 24.6932 20.7544 24.5769 21.1339 24.6932C21.1339 24.6932 21.7163 24.5769 21.888 25.2196L21.8589 27.0241L22.0325 27.6065L22.2373 27.4618L22.3233 27.0241L22.3526 25.1015C22.3526 25.1015 22.4687 24.7508 22.9358 24.6932C22.9358 24.6932 23.6628 24.6043 23.7808 24.6658C23.8969 24.7216 25.4647 24.8086 25.9037 24.7216C26.3387 24.6345 26.4247 25.0126 27.736 24.3444C27.736 24.3444 28.0851 24.3737 28.0851 24.6043C28.0851 24.6043 27.9662 27.0839 28.0851 27.547C28.0851 27.547 28.0851 32.0901 27.9944 32.4106L28.0539 33.8669C28.0539 33.8669 28.1116 34.5082 27.0958 34.5666C27.0958 34.5666 27.736 34.6544 23.7194 34.5382C23.7194 34.5382 23.0804 34.5082 22.3827 34.8276C22.3827 34.8276 22.2373 34.7992 22.2373 34.4211C22.2373 34.4211 22.3526 33.0533 22.2373 31.7109L22.1809 30.2261L21.9183 30.258Z" fill="white"/>
<path d="M19.2989 28.1916C19.2989 28.1916 19.3868 30.3462 19.2989 30.6372L19.2715 31.1043C19.2715 31.1043 19.3868 31.4227 19.5614 31.5409C19.5614 31.5409 19.7077 31.9473 19.3575 31.919C19.3575 31.919 18.6316 31.8603 18.4569 31.888C18.4569 31.888 18.0481 31.888 18.4569 31.3668C18.4569 31.3668 18.6023 31.1598 18.5722 30.6372C18.5722 30.6372 18.5722 28.1916 18.6316 28.0471C18.6316 28.0471 18.6891 27.7247 18.4851 27.6369L18.1349 27.6671L17.7007 28.0745C17.7007 28.0745 17.612 28.5132 17.4082 28.0471V27.8118L17.6716 27.1132L17.8463 27.0828C17.8463 27.0828 18.1067 27.2579 18.3389 27.3183H19.7077L20.2013 27.0828C20.2013 27.0828 20.4042 27.1132 20.3487 27.375C20.3487 27.375 20.4335 28.0471 20.056 28.1323C20.056 28.1323 19.8229 28.0471 19.7077 27.7247C19.7077 27.7247 19.3292 27.5226 19.2989 28.1916Z" fill="#12110C"/>
<path d="M25.7262 27.4053C25.7262 27.4053 24.6228 27.3173 24.5954 28.5112C24.5954 28.5112 24.4755 29.3288 25.6989 29.8536C25.6989 29.8536 26.6013 30.2885 26.5408 30.8415C26.5408 30.8415 26.4247 31.8322 25.4647 31.3376C25.4647 31.3376 25.0004 31.1031 25.0314 30.8415C25.0314 30.8415 24.8834 30.5201 24.7096 30.5794C24.7096 30.5794 24.5048 30.6364 24.5954 31.5986C24.5954 31.5986 24.5954 31.9775 25.0314 31.5986L25.2608 31.6581C25.2608 31.6581 26.0472 32.2989 26.7146 31.5108C26.7146 31.5108 27.4433 30.8415 26.9184 30.0266C26.9184 30.0266 26.5408 29.4462 25.8727 29.1541C25.8727 29.1541 25.2326 28.8602 25.0882 28.3656C25.0882 28.3656 25.292 27.4903 26.0756 27.9564C26.0756 27.9564 26.3672 28.3063 26.5408 28.3656C26.5408 28.3656 26.7741 28.3656 26.7146 27.8391L26.6597 27.4053C26.6597 27.4053 26.6013 27.0809 26.1925 27.4053C26.1925 27.4053 25.8141 27.549 25.7262 27.4053Z" fill="#12110C"/>
<path d="M22.1796 26.7918C22.3825 26.9402 22.4118 27.2305 22.4118 27.2305C22.9933 28.7731 23.4889 31.018 23.4889 31.018C23.6332 31.3064 23.8958 31.5409 23.8958 31.5409C24.3903 31.7147 23.8958 31.8595 23.8958 31.8595C23.6918 31.9483 23.0245 31.8329 23.0245 31.8329C22.6733 31.7706 22.8178 31.6571 22.8178 31.6571C22.9649 31.5115 22.8479 30.9272 22.8479 30.9272C22.8178 30.6966 22.5582 30.3168 22.5582 30.3168C22.4421 30.2579 22.2382 30.52 22.2382 30.52C22.2382 30.52 21.9192 30.6371 21.8879 30.52C21.8587 30.4016 21.6558 30.2913 21.6558 30.2913C21.3064 30.2913 21.1621 31.1598 21.1621 31.1598C21.365 31.8888 21.1621 31.7706 21.1621 31.7706C20.9885 32.0061 20.4343 31.8329 20.4343 31.8329C20.1728 31.7706 20.3492 31.5674 20.3492 31.5674C20.6673 31.5115 20.7541 31.1598 20.7541 31.1598C20.9006 30.9566 21.8294 27.171 21.8294 27.171C21.9192 26.995 21.9756 26.6462 22.1796 26.7918ZM21.7163 28.7136C21.6859 28.86 21.4811 29.6758 21.4811 29.6758L21.6558 29.9698C21.6558 29.9698 22.1221 29.9963 22.2957 29.9963C22.4684 29.9963 22.4996 29.8535 22.4996 29.7049C22.4996 29.5606 22.1796 28.6871 22.1796 28.6871L22.0325 28.5121L21.7163 28.7136Z" fill="#12110C"/>
<path d="M14.2995 19.739C14.2995 19.739 13.9786 20.7608 12.5534 19.7097L7.6673 19.5924C7.6673 19.5924 7.02738 19.7986 6.93951 19.1276C6.93951 19.1276 7.05668 17.789 6.99617 17.6716C6.99617 17.6716 7.02738 17.2916 6.3864 17.2916C6.3864 17.2916 5.39905 17.4106 5.37061 16.5365C5.37061 16.5365 5.19508 15.6015 6.56193 15.6336C6.56193 15.6336 6.99617 15.8368 7.02738 15.2831C7.02738 15.2831 6.9688 11.497 6.99617 11.2042C6.99617 11.2042 7.11504 10.8582 6.44584 10.7984C6.44584 10.7984 5.48478 11.0008 5.37061 10.3599C5.37061 10.3599 5.31117 9.40053 5.95024 9.34101C5.95024 9.34101 6.73575 9.40053 6.882 9.19905C6.882 9.19905 7.05668 9.31167 7.02738 8.61198L7.05668 7.41919C7.05668 7.41919 7.14434 7.09868 7.63609 7.12801C7.63609 7.12801 8.54048 7.1856 8.65743 7.09868C8.65743 7.09868 8.86055 6.8379 8.91613 6.7195C8.91613 6.7195 9.38437 6.69209 9.47117 6.80557C9.47117 6.80557 10.1677 7.27446 12.8174 7.09868C12.8174 7.09868 13.2224 7.09868 13.3102 7.21601C13.3102 7.21601 13.8039 7.5939 14.0947 7.1856C14.0947 7.1856 14.5309 7.09868 15.8408 7.12801C15.8408 7.12801 17.2635 7.50612 18.2538 6.69209L18.5728 6.75183C18.5728 6.75183 18.9797 7.41919 19.2733 7.21601C19.2733 7.21601 20.1445 7.12801 20.2908 7.30379C20.2908 7.30379 20.5824 7.74057 20.4342 8.87768C20.4342 8.87768 20.2615 9.37205 21.1045 9.37205C21.1045 9.37205 22.0634 9.19905 21.9484 10.0981C21.9484 10.0981 22.2107 11.1181 20.6108 10.9733C20.6108 10.9733 20.406 11.2654 20.4342 11.4688C20.4342 11.4688 20.406 14.7876 20.3776 15.1685C20.3776 15.1685 20.3493 15.6895 21.047 15.6629C21.047 15.6629 21.9777 15.6015 22.0059 16.4495C22.0059 16.4495 22.122 17.5554 20.7853 17.3503C20.7853 17.3503 20.3776 17.4106 20.3181 17.6716L20.2615 19.1276C20.2615 19.1276 20.2908 19.8562 19.4742 19.6823C19.3581 19.6823 14.9397 19.7684 14.5599 19.654C14.5599 19.654 14.357 19.6247 14.2995 19.739Z" fill="#12110C"/>
<path d="M14.3003 19.7399C14.3003 19.7399 13.9794 20.7619 12.5541 19.7106L7.66721 19.5935C7.66721 19.5935 7.02708 19.7994 6.93942 19.1276C6.93942 19.1276 7.05744 17.789 6.99693 17.6717C6.99693 17.6717 7.02708 17.2927 6.38609 17.2927C6.38609 17.2927 5.39874 17.4117 5.37052 16.5373C5.37052 16.5373 5.19584 15.6015 6.56269 15.6336C6.56269 15.6336 6.99693 15.837 7.02708 15.284C7.02708 15.284 6.9685 11.4962 6.99693 11.2042C6.99693 11.2042 7.11581 10.8571 6.44574 10.7984C6.44574 10.7984 5.48469 11.001 5.37052 10.3591C5.37052 10.3591 5.31108 9.39948 5.951 9.34103C5.951 9.34103 6.73545 9.39948 6.88276 9.19737C6.88276 9.19737 7.05744 9.3117 7.02708 8.612L7.05744 7.41815C7.05744 7.41815 7.14424 7.09785 7.63685 7.12804C7.63685 7.12804 8.54039 7.18477 8.65734 7.09785C8.65734 7.09785 8.86131 6.83792 8.9169 6.71952C8.9169 6.71952 9.38406 6.69126 9.47193 6.80559C9.47193 6.80559 10.1677 7.27363 12.8182 7.09785C12.8182 7.09785 13.2231 7.09785 13.311 7.21496C13.311 7.21496 13.8047 7.59307 14.0955 7.18478C14.0955 7.18478 14.5325 7.09785 15.8416 7.12804C15.8416 7.12804 17.2653 7.50422 18.2546 6.69126L18.5745 6.75078C18.5745 6.75078 18.9813 7.41815 19.274 7.21496C19.274 7.21496 20.1453 7.12804 20.2934 7.30189C20.2934 7.30189 20.5831 7.73974 20.4361 8.87578C20.4361 8.87578 20.2622 9.37208 21.1053 9.37208C21.1053 9.37208 22.0661 9.19737 21.9491 10.0973C21.9491 10.0973 22.2115 11.1181 20.6124 10.9725C20.6124 10.9725 20.4068 11.2646 20.4361 11.4688C20.4361 11.4688 20.4068 14.7877 20.3794 15.1677C20.3794 15.1677 20.3501 15.6903 21.0477 15.664C21.0477 15.664 21.9784 15.6015 22.0077 16.4504C22.0077 16.4504 22.1228 17.5554 20.786 17.3503C20.786 17.3503 20.3794 17.4117 20.32 17.6717L20.2622 19.1276C20.2622 19.1276 20.2934 19.8573 19.4761 19.6832C19.36 19.6832 14.9404 19.7684 14.5607 19.6541C14.5607 19.6541 14.3578 19.6256 14.3003 19.7399Z" stroke="#12110C" stroke-width="0.0133333"/>
<path d="M8.80288 7.74057C8.80288 7.74057 8.86146 8.32186 8.86146 8.46746C8.86146 8.61305 8.77273 16.8852 8.77273 16.8852C8.77273 16.8852 8.86146 17.528 8.30749 17.8466C8.30749 17.8466 8.16296 17.9061 8.13281 17.4986L8.19225 8.76057C8.19225 8.76057 8.24976 7.6819 8.80288 7.74057Z" fill="white"/>
<path d="M8.80395 7.7396C8.80395 7.7396 8.86231 8.3209 8.86231 8.46649C8.86231 8.61208 8.77359 16.8851 8.77359 16.8851C8.77359 16.8851 8.86231 17.5279 8.30749 17.8484C8.30749 17.8484 8.16296 17.9071 8.13281 17.4996L8.19033 8.76046C8.19033 8.76046 8.24891 7.6818 8.80395 7.7396Z" stroke="#12110C" stroke-width="0.016"/>
<path d="M7.84245 17.9334C7.84245 17.9334 7.89911 9.71993 7.87174 9.57326C7.84245 9.4296 7.89911 9.69145 7.89911 9.69145C7.89911 9.69145 7.81422 8.26593 8.19159 7.68186C8.19159 7.68186 8.07464 7.18641 7.40543 7.79704L7.37892 8.99197C7.37892 8.99197 7.37892 9.66212 6.76637 9.63278C6.76637 9.63278 6.06787 9.6026 5.74695 9.92504C5.74695 9.92504 5.57313 10.5648 6.24062 10.4496C6.24062 10.4496 7.28933 10.4496 7.34685 10.8834L7.28933 15.2828C7.28933 15.2828 7.52238 16.0108 6.70693 16.0108C6.70693 16.0108 5.71851 15.9549 5.74695 16.5666C5.74695 16.5666 5.9507 17.0912 6.79566 16.9154C6.79566 16.9154 7.40543 17.0325 7.37892 17.6121V18.7218C7.37892 18.7218 7.31756 19.1594 7.89911 19.186H12.4375C12.4375 19.186 12.6699 19.2151 12.6699 18.923C12.6699 18.923 12.6404 18.6933 12.2932 18.6933L8.51358 18.6329C8.51358 18.6329 7.89911 18.8372 7.84245 17.9334Z" fill="white"/>
<path d="M8.62714 17.9931C8.62714 17.9931 8.5119 18.4024 8.94613 18.3125H11.9422L12.7568 18.4866C12.7568 18.4866 13.6026 18.2832 12.7568 17.8162C12.7568 17.8162 10.0808 17.8475 9.84753 17.7888C9.84753 17.7888 9.29634 17.6434 9.17939 17.6139C9.17939 17.6139 8.88776 17.4987 8.62714 17.9931Z" fill="white"/>
<path d="M8.62714 17.9921C8.62714 17.9921 8.5119 18.4032 8.94613 18.3115H11.9432L12.7589 18.4873C12.7589 18.4873 13.6045 18.2841 12.7589 17.8163C12.7589 17.8163 10.0816 17.8473 9.8486 17.787C9.8486 17.787 9.29634 17.6422 9.17939 17.614C9.17939 17.614 8.88755 17.4977 8.62714 17.9921Z" stroke="#12110C" stroke-width="0.016"/>
<path d="M13.6022 18.4023C13.6022 18.4023 13.0482 18.4023 13.0773 19.1264C13.0773 19.1264 13.1359 19.6831 13.7163 19.6831C13.7163 19.6831 14.2404 19.5925 14.1837 19.013C14.1837 19.013 13.8626 18.2833 13.6022 18.4023Z" fill="white"/>
<path d="M14.008 18.1084C14.008 18.1084 14.2686 17.8172 14.445 17.8172C14.445 17.8172 17.3525 18.0802 17.8471 17.7312C17.8471 17.7312 18.2849 17.6442 18.3993 17.7312C18.3993 17.7312 18.8355 18.0802 18.8355 18.2833C18.8355 18.2833 18.807 18.548 18.2849 18.4024C18.2849 18.4024 14.9953 18.4298 14.8226 18.4298C14.8226 18.4298 13.9201 18.633 14.008 18.1084Z" fill="white"/>
<path d="M14.008 18.1084C14.008 18.1084 14.2695 17.8164 14.445 17.8164C14.445 17.8164 17.3534 18.0801 17.8479 17.7312C17.8479 17.7312 18.2869 17.6434 18.401 17.7312C18.401 17.7312 18.8372 18.0801 18.8372 18.2842C18.8372 18.2842 18.809 18.549 18.2869 18.4024C18.2869 18.4024 14.9973 18.4309 14.8226 18.4309C14.8226 18.4309 13.9201 18.634 14.008 18.1084Z" stroke="#12110C" stroke-width="0.016"/>
<path d="M14.4746 18.9828C14.4746 18.9828 14.4746 18.7511 14.8796 18.7511L18.9547 18.7209C18.9547 18.7209 19.3312 18.9222 19.3312 18.2255C19.3312 18.2255 19.4804 15.0494 19.4937 11.5537C19.4992 10.514 19.5446 9.42232 19.505 8.41067C19.505 8.41067 19.4182 7.97496 19.3021 7.88504C19.3021 7.88504 19.3021 7.41915 19.7986 7.59578C19.7986 7.59578 20.2317 7.6234 20.1165 8.29248L20.1449 9.31248C20.1449 9.31248 20.0581 9.74926 20.8434 9.633C20.8434 9.633 21.6279 9.74926 21.6561 10.0404C21.6561 10.0404 21.8913 10.6245 20.9614 10.565H20.2931C20.2931 10.565 20.0015 10.7391 20.0883 11.0898L20.0015 15.3121C20.0015 15.3121 19.941 16.0401 20.6414 16.0136C20.6414 16.0136 21.3683 15.9834 21.5118 16.2159C21.5118 16.2159 22.0082 16.9447 20.9313 16.8863C20.9313 16.8863 20.2619 16.8559 20.1165 16.9721C20.1165 16.9721 20.0015 17.1205 19.9136 18.4875C19.9136 18.4875 19.9711 19.3033 19.3605 19.2153C19.3605 19.2153 15.3174 19.272 14.9409 19.186C14.9409 19.186 14.5321 19.3033 14.4746 18.9828Z" fill="white"/>
<path d="M9.23739 7.47577L9.15251 16.8264C9.15251 16.8264 9.12322 17.2604 9.84994 17.3482C9.84994 17.3482 10.6949 17.4362 10.8969 17.3482C10.8969 17.3482 11.4481 17.3199 12.8744 17.3786C12.8744 17.3786 13.2238 17.7263 13.252 17.2917C13.252 17.2917 13.4853 9.71702 13.3689 8.14506C13.3689 8.14506 13.3407 7.47577 12.8443 7.44643C12.8443 7.44643 10.6355 7.6205 10.4315 7.44643L9.56023 7.21284C9.56023 7.21284 9.20916 7.24046 9.23739 7.47577Z" fill="white"/>
<path d="M18.4581 7.82554L18.4297 17.0306C18.4297 17.0306 18.6629 17.8485 19.0425 17.7613C19.0425 17.7613 19.1 17.5855 19.1284 17.2924L19.2464 8.52416C19.2464 8.52416 18.9546 7.12584 18.4581 7.82554Z" fill="white" stroke="#12110C" stroke-width="0.016"/>
<path d="M18.4581 7.82554L18.4297 17.0306C18.4297 17.0306 18.6629 17.8485 19.0425 17.7613C19.0425 17.7613 19.1 17.5855 19.1284 17.2924L19.2464 8.52416C19.2464 8.52416 18.9546 7.12584 18.4581 7.82554Z" stroke="#12110C" stroke-width="0.016"/>
<path d="M13.8366 7.90394C13.8366 7.90394 13.7489 12.3015 13.7763 12.449L13.7213 16.1487L13.6035 17.4267C13.6035 17.4267 13.7763 17.6924 13.9225 17.5164C13.9225 17.5164 14.8543 17.2848 15.4356 17.3711C15.4356 17.3711 17.2981 17.5468 17.6748 17.2546C17.6748 17.2546 17.9656 17.3993 18.0532 16.9332C18.0532 16.9332 18.1685 8.77921 18.1107 8.63276C18.1107 8.63276 18.2279 7.4691 18.1685 7.35391C18.1685 7.35391 18.1392 7.08906 17.6474 7.32072C17.6474 7.32072 17.7039 7.55602 14.9419 7.4691C14.9419 7.4691 13.8943 7.43891 13.8366 7.90394Z" fill="white"/>
<path d="M12.9364 10.5982L12.6732 11.1541C12.6732 11.1541 12.0359 13.9777 11.6876 14.559C11.6876 14.559 11.629 15.1433 11.1345 14.6761C11.1345 14.6761 9.99894 11.0945 9.94121 10.9774L9.56278 10.7154C9.56278 10.7154 9.33337 10.395 9.73831 10.3666L10.8144 10.395C10.8144 10.395 11.1627 10.6852 10.6983 11.0093C10.6983 11.0093 10.756 11.4746 11.3666 13.2489C11.3666 13.2489 11.5403 13.919 11.7442 13.4236L12.3266 11.3553L12.152 10.7438C12.152 10.7438 11.9764 10.4526 12.2398 10.4244C12.2398 10.4244 12.8507 10.3666 12.9364 10.5982Z" fill="#12110C"/>
<path d="M14.6261 11.065L14.5949 14.1524L14.51 14.3849C14.51 14.3849 14.2184 14.7622 14.4213 14.7924C14.4213 14.7924 14.1617 14.9681 16.2818 14.9964C16.2818 14.9964 17.0983 15.1411 16.8935 14.0929C16.8935 14.0929 16.8067 13.7145 16.514 14.2687C16.514 14.2687 16.4272 14.7326 15.3823 14.5881C15.3823 14.5881 15.149 14.3849 15.149 14.1524V12.8697C15.149 12.8697 15.118 12.5481 15.6134 12.5813C15.6134 12.5813 16.1657 12.9292 16.2536 12.7817C16.2536 12.7817 16.4565 12.3175 16.2536 12.0255C16.2536 12.0255 15.991 11.9981 15.9628 12.1143C15.9628 12.1143 15.7881 12.462 15.2936 12.258C15.2936 12.258 15.0614 11.7929 15.2066 11.4138C15.2066 11.4138 15.149 10.6852 15.6438 10.7445C15.6438 10.7445 16.2251 10.8599 16.2818 11.0367C16.2818 11.0367 16.4272 11.3874 16.5745 10.9791L16.4272 10.4818C16.4272 10.4818 16.3423 10.2775 16.1958 10.3362C16.1958 10.3362 15.2066 10.4818 15.0888 10.3636L14.3032 10.4524C14.3032 10.4524 14.1882 10.7445 14.5384 10.8884C14.5384 10.8884 14.6261 10.9479 14.6261 11.065Z" fill="#12110C"/>
</g>
</svg>
