<svg width="181" height="39" viewBox="0 0 181 39" fill="none" xmlns="http://www.w3.org/2000/svg">
<g clip-path="url(#clip0_816_17492)">
<path d="M180.342 25.041L157.747 38.3529L157.676 31.8721C157.66 30.7562 157.94 29.6558 158.487 28.6833C159.035 27.7109 159.831 26.9013 160.794 26.3372L177.049 16.7737C177.423 16.5521 177.85 16.4366 178.285 16.4398C178.72 16.4429 179.146 16.5644 179.517 16.7913C179.888 17.0182 180.19 17.342 180.391 17.7277C180.592 18.1134 180.684 18.5466 180.657 18.9806L180.342 25.041Z" fill="#D7176F"/>
<path d="M180.657 19.0858C180.732 17.7013 180.421 16.3232 179.759 15.1048C179.097 13.8864 178.11 12.8755 176.908 12.1847L170.147 8.29619L162.23 3.74213C162 3.60707 161.728 3.5645 161.467 3.62305C161.207 3.68159 160.979 3.83687 160.829 4.05741C160.752 4.17298 160.699 4.30334 160.675 4.44022C160.651 4.57709 160.656 4.7175 160.689 4.85254C160.721 4.98758 160.782 5.1143 160.867 5.22467C160.951 5.33504 161.058 5.42665 161.179 5.49369L162.265 6.12425C162.358 6.17542 162.433 6.25228 162.483 6.34552C162.533 6.43877 162.555 6.54443 162.546 6.64972C162.544 6.75128 162.515 6.85061 162.463 6.9378C162.411 7.025 162.337 7.097 162.249 7.14663C162.16 7.19626 162.06 7.22178 161.958 7.22065C161.857 7.21951 161.757 7.19176 161.67 7.14016L156.695 4.2676C156.465 4.13254 156.193 4.08997 155.932 4.14852C155.672 4.20706 155.444 4.36234 155.294 4.58288C155.217 4.69845 155.164 4.82881 155.14 4.96569C155.116 5.10256 155.121 5.24297 155.154 5.37801C155.187 5.51305 155.247 5.63977 155.332 5.75014C155.416 5.86051 155.523 5.95212 155.644 6.01916L162.09 9.73247C162.195 9.80177 162.281 9.89524 162.342 10.005C162.403 10.1147 162.437 10.2375 162.44 10.363C162.434 10.483 162.397 10.5994 162.333 10.7015C162.27 10.8035 162.182 10.8881 162.077 10.9473C161.973 11.0066 161.855 11.0387 161.735 11.0406C161.615 11.0426 161.496 11.0144 161.39 10.9586L157.151 8.50638C156.921 8.37132 156.648 8.32875 156.388 8.3873C156.128 8.44584 155.899 8.60112 155.749 8.82166C155.672 8.93723 155.62 9.06759 155.596 9.20447C155.572 9.34134 155.576 9.48175 155.609 9.61679C155.642 9.75183 155.703 9.87855 155.787 9.98892C155.872 10.0993 155.978 10.1909 156.1 10.2579L180.376 25.0411L180.657 19.0858Z" fill="url(#paint0_linear_816_17492)"/>
<path d="M158.271 3.81212L155.013 1.92044C154.776 1.78508 154.603 1.56178 154.531 1.29925C154.459 1.03673 154.493 0.756304 154.627 0.519186C154.763 0.282943 154.986 0.109832 155.248 0.0376377C155.511 -0.0345565 155.791 2.86531e-05 156.029 0.133843L159.286 2.02553C159.523 2.16088 159.696 2.38419 159.768 2.64671C159.84 2.90924 159.806 3.18966 159.672 3.42678C159.611 3.5496 159.524 3.65815 159.419 3.74534C159.313 3.83253 159.19 3.89639 159.057 3.93276C158.925 3.96913 158.787 3.97719 158.651 3.9564C158.515 3.93561 158.386 3.88645 158.271 3.81212Z" fill="url(#paint1_linear_816_17492)"/>
<path d="M153.262 8.43613L152.106 7.77053C151.87 7.63518 151.697 7.41187 151.625 7.14935C151.553 6.88682 151.587 6.6064 151.721 6.36928C151.856 6.13304 152.08 5.95993 152.342 5.88774C152.605 5.81554 152.885 5.85012 153.122 5.98394L154.278 6.64953C154.515 6.78488 154.688 7.00819 154.76 7.27072C154.832 7.53324 154.797 7.81367 154.664 8.05078C154.528 8.28703 154.305 8.46014 154.042 8.53233C153.78 8.60453 153.499 8.56994 153.262 8.43613Z" fill="url(#paint2_linear_816_17492)"/>
<path d="M152.805 4.26759L150.038 2.69119C149.802 2.55584 149.629 2.33253 149.556 2.07C149.484 1.80748 149.519 1.52706 149.653 1.28994C149.788 1.0537 150.011 0.880584 150.274 0.80839C150.536 0.736196 150.817 0.77078 151.054 0.904594L153.821 2.481C154.058 2.61635 154.231 2.83966 154.303 3.10218C154.375 3.36471 154.341 3.64513 154.207 3.88225C154.143 4.00218 154.055 4.10781 153.949 4.1927C153.842 4.27759 153.72 4.33996 153.589 4.37602C153.458 4.41207 153.321 4.42105 153.186 4.40241C153.051 4.38377 152.922 4.3379 152.805 4.26759Z" fill="url(#paint3_linear_816_17492)"/>
<path d="M9.38828 30.576C9.212 30.5919 9.03431 30.5722 8.8658 30.518C8.69729 30.4638 8.5414 30.3763 8.40741 30.2607C8.17922 29.9869 8.06619 29.6353 8.09213 29.2798V11.9744H1.96166C1.78537 11.9903 1.60769 11.9706 1.43918 11.9164C1.27067 11.8622 1.11478 11.7747 0.980784 11.6591C0.752599 11.3853 0.639569 11.0337 0.665502 10.6782C0.649586 10.5019 0.669298 10.3242 0.723462 10.1557C0.777625 9.98722 0.865135 9.83133 0.980784 9.69733C1.25456 9.46915 1.6062 9.35612 1.96166 9.38206H16.7799C16.9562 9.36614 17.1338 9.38585 17.3024 9.44001C17.4709 9.49418 17.6268 9.58169 17.7607 9.69733C17.9889 9.97111 18.102 10.3228 18.076 10.6782C18.0919 10.8545 18.0722 11.0322 18.0181 11.2007C17.9639 11.3692 17.8764 11.5251 17.7607 11.6591C17.487 11.8873 17.1353 12.0003 16.7799 11.9744H10.6844V29.2798C10.6969 29.4586 10.6723 29.6381 10.612 29.8069C10.5517 29.9757 10.4571 30.1302 10.3341 30.2607C10.2054 30.3736 10.0555 30.4597 9.89304 30.5138C9.73061 30.568 9.55899 30.5891 9.38828 30.576Z" fill="#D7176F"/>
<path d="M19.4419 23.7099V24.4806C19.4419 25.8468 19.6871 26.7577 20.1776 27.2481C20.668 27.7385 21.5788 27.9837 22.945 27.9837H25.5023C26.3088 28.0202 27.1153 27.9135 27.8845 27.6685C28.1221 27.5813 28.3369 27.4415 28.5129 27.2595C28.6888 27.0775 28.8213 26.858 28.9004 26.6175C28.9834 26.277 29.1523 25.9635 29.3908 25.7067C29.5195 25.5938 29.6695 25.5077 29.8319 25.4536C29.9943 25.3994 30.1659 25.3783 30.3366 25.3914C30.521 25.376 30.7066 25.3992 30.8815 25.4595C31.0564 25.5198 31.2169 25.616 31.3525 25.7417C31.4776 25.8754 31.5634 26.0409 31.6005 26.2201C31.6376 26.3994 31.6245 26.5854 31.5627 26.7577C31.4817 27.3477 31.2738 27.9131 30.9532 28.415C30.6327 28.917 30.2072 29.3435 29.7061 29.6652C28.6902 30.2958 27.324 30.6111 25.5374 30.6111H22.9801C20.9132 30.6111 19.3368 30.1207 18.356 29.1047C17.34 28.0888 16.8496 26.5475 16.8496 24.4806V20.8374C16.8496 18.7005 17.34 17.1591 18.356 16.1432C19.3719 15.1273 20.9132 14.6719 22.9801 14.6719H25.5374C27.6392 14.6719 29.1806 15.1623 30.1965 16.1782C31.2124 17.1941 31.7029 18.7355 31.7029 20.8374V22.4138C31.7029 23.2896 31.2475 23.745 30.3717 23.745H19.4419V23.7099ZM22.9801 17.2992C21.6139 17.2642 20.703 17.5094 20.2126 17.9998C19.7222 18.4903 19.477 19.4361 19.477 20.8023V21.0476H29.0755V20.8023C29.0755 19.4361 28.8303 18.4903 28.3399 17.9998C27.8494 17.5094 26.9386 17.2642 25.5374 17.2642H22.9801V17.2992Z" fill="#D7176F"/>
<path d="M40.9519 30.5759C39.3404 30.5759 38.1494 30.1906 37.3787 29.3848C36.608 28.5791 36.2227 27.3881 36.2227 25.8117V9.80238C36.2227 8.9266 36.6781 8.47119 37.5538 8.47119C38.4296 8.47119 38.885 8.9266 38.885 9.80238V25.8117C38.885 26.6524 39.0252 27.2129 39.3054 27.5282C39.5857 27.8084 40.1462 27.9486 40.9869 27.9486C41.8977 27.9486 42.3531 28.404 42.3531 29.2798C42.3531 30.1555 41.8977 30.5759 40.9519 30.5759Z" fill="#D7176F"/>
<path d="M46.9771 23.7099V24.4806C46.9771 25.8468 47.2223 26.7577 47.7127 27.2481C48.2032 27.7385 49.114 27.9837 50.4802 27.9837H53.0375C53.8439 28.0202 54.6504 27.9135 55.4196 27.6685C55.6573 27.5813 55.8721 27.4415 56.048 27.2595C56.224 27.0775 56.3564 26.858 56.4355 26.6175C56.5186 26.277 56.6874 25.9635 56.9259 25.7067C57.0546 25.5938 57.2046 25.5077 57.367 25.4536C57.5295 25.3994 57.7011 25.3783 57.8718 25.3914C58.0562 25.376 58.2417 25.3992 58.4167 25.4595C58.5916 25.5198 58.752 25.616 58.8877 25.7417C59.0128 25.8754 59.0986 26.0409 59.1357 26.2201C59.1728 26.3994 59.1597 26.5854 59.0979 26.7577C59.0168 27.3477 58.8089 27.9131 58.4884 28.415C58.1679 28.917 57.7424 29.3435 57.2412 29.6652C56.2253 30.2958 54.8591 30.6111 53.0725 30.6111H50.5152C48.4484 30.6111 46.872 30.1207 45.8911 29.1047C44.8752 28.0888 44.3848 26.5475 44.3848 24.4806V20.8374C44.3848 18.7005 44.8752 17.1591 45.8911 16.1432C46.907 15.1273 48.4484 14.6719 50.5152 14.6719H53.0725C55.1744 14.6719 56.7158 15.1623 57.7317 16.1782C58.7476 17.1941 59.238 18.7355 59.238 20.8374V22.4138C59.238 23.2896 58.7826 23.745 57.9068 23.745H46.9771V23.7099ZM50.5152 17.2992C49.149 17.2642 48.2382 17.5094 47.7478 17.9998C47.2573 18.4903 47.0121 19.4361 47.0121 20.8023V21.0476H56.6107V20.8023C56.6107 19.4361 56.3654 18.4903 55.875 17.9998C55.3846 17.5094 54.4738 17.2642 53.0725 17.2642H50.5152V17.2992Z" fill="#D7176F"/>
<path d="M67.47 30.5761C66.1388 30.5761 65.0879 30.2958 64.3172 29.7353C63.5162 29.1287 62.9773 28.239 62.8109 27.2481C62.7652 27.066 62.7636 26.8757 62.8062 26.6929C62.8489 26.5101 62.9345 26.3402 63.0561 26.1972C63.1912 26.0685 63.3507 25.9682 63.5252 25.902C63.6996 25.8358 63.8855 25.8052 64.072 25.8118C64.2427 25.7987 64.4143 25.8198 64.5768 25.8739C64.7392 25.9281 64.8892 26.0142 65.0178 26.1271C65.2573 26.4102 65.4255 26.7465 65.5083 27.108C65.5643 27.2508 65.6493 27.3805 65.7578 27.489C65.8663 27.5975 65.996 27.6825 66.1388 27.7385C66.5612 27.8512 66.9983 27.8984 67.435 27.8787H72.5846C73.3903 27.8787 73.9508 27.7385 74.2311 27.4933C74.5113 27.2481 74.6514 26.6526 74.6514 25.8118C74.6514 24.9711 74.5113 24.4106 74.2311 24.1303C73.9508 23.8501 73.3903 23.7099 72.5846 23.7099H67.5401C66.0337 23.7099 64.9128 23.3246 64.1421 22.5539C63.3714 21.7832 62.986 20.6622 62.986 19.1559C62.986 17.6145 63.3714 16.4585 64.107 15.7228C64.8427 14.9521 65.9987 14.6018 67.5401 14.6018H72.4445C74.8967 14.6018 76.368 15.6527 76.8234 17.7196C76.8716 17.8959 76.8744 18.0815 76.8315 18.2591C76.7887 18.4368 76.7015 18.6006 76.5782 18.7355C76.4355 18.8616 76.269 18.9576 76.0884 19.0178C75.9078 19.0779 75.7169 19.1011 75.5272 19.0858C75.3618 19.0992 75.1955 19.0781 75.0387 19.0239C74.8819 18.9696 74.7381 18.8833 74.6164 18.7705C74.3895 18.5107 74.2328 18.1971 74.161 17.8597C74.1051 17.7446 74.0267 17.6419 73.9305 17.5577C73.8342 17.4734 73.722 17.4094 73.6005 17.3693C73.2349 17.272 72.8578 17.2248 72.4795 17.2292H67.5751C66.7694 17.2292 66.279 17.3342 66.0337 17.5795C65.7885 17.8247 65.6834 18.3501 65.6834 19.1559C65.6834 19.9266 65.8236 20.417 66.0688 20.6622C66.314 20.9074 66.8395 21.0476 67.6102 21.0476H72.6547C74.2311 21.0476 75.3871 21.4329 76.1928 22.2386C76.9985 23.0443 77.3839 24.2004 77.3839 25.7768C77.3839 27.3532 76.9985 28.5442 76.1928 29.3149C75.4221 30.0856 74.2311 30.471 72.6547 30.471H67.47V30.5761Z" fill="#D7176F"/>
<path d="M82.9894 30.5761C82.1136 30.5761 81.6582 30.1207 81.6582 29.2449V16.0031C81.6582 15.1273 82.1136 14.6719 82.9894 14.6719C83.8652 14.6719 84.3206 15.1273 84.3206 16.0031V29.2799C84.3206 30.1557 83.8652 30.5761 82.9894 30.5761Z" fill="#D7176F"/>
<path d="M93.3235 30.5761C91.9924 30.5761 90.9414 30.2958 90.1707 29.7353C89.3697 29.1287 88.8308 28.239 88.6644 27.2481C88.6187 27.066 88.6171 26.8757 88.6598 26.6929C88.7024 26.5101 88.7881 26.3402 88.9096 26.1972C89.0448 26.0685 89.2042 25.9682 89.3787 25.902C89.5531 25.8358 89.7391 25.8052 89.9255 25.8118C90.0962 25.7987 90.2678 25.8198 90.4303 25.8739C90.5927 25.9281 90.7427 26.0142 90.8714 26.1271C91.1108 26.4102 91.279 26.7465 91.3618 27.108C91.4178 27.2508 91.5028 27.3805 91.6113 27.489C91.7198 27.5975 91.8495 27.6825 91.9924 27.7385C92.4147 27.8512 92.8518 27.8984 93.2885 27.8787H98.4731C99.2789 27.8787 99.8394 27.7385 100.12 27.4933C100.4 27.2481 100.54 26.6526 100.54 25.8118C100.54 24.9711 100.4 24.4106 100.12 24.1303C99.8394 23.8501 99.2789 23.7099 98.4731 23.7099H93.4286C91.9223 23.7099 90.8013 23.3246 90.0306 22.5539C89.2599 21.7832 88.8746 20.6622 88.8746 19.1559C88.8746 17.6145 89.2599 16.4585 89.9956 15.7228C90.7312 14.9521 91.8873 14.6018 93.4286 14.6018H98.333C100.785 14.6018 102.257 15.6527 102.712 17.7196C102.76 17.8959 102.763 18.0815 102.72 18.2591C102.677 18.4368 102.59 18.6006 102.467 18.7355C102.324 18.8616 102.158 18.9576 101.977 19.0178C101.796 19.0779 101.605 19.1011 101.416 19.0858C101.25 19.0992 101.084 19.0781 100.927 19.0239C100.77 18.9696 100.627 18.8833 100.505 18.7705C100.278 18.5107 100.121 18.1971 100.05 17.8597C99.9937 17.7446 99.9153 17.6419 99.819 17.5577C99.7227 17.4734 99.6105 17.4094 99.489 17.3693C99.1235 17.272 98.7463 17.2248 98.368 17.2292H93.4637C92.658 17.2292 92.1675 17.3342 91.9223 17.5795C91.6771 17.8247 91.572 18.3501 91.572 19.1559C91.572 19.9266 91.7121 20.417 91.9573 20.6622C92.2025 20.9074 92.728 21.0476 93.4987 21.0476H98.4731C100.05 21.0476 101.206 21.4329 102.011 22.2386C102.817 23.0443 103.202 24.2004 103.202 25.7768C103.202 27.3532 102.817 28.5442 102.011 29.3149C101.241 30.0856 100.05 30.471 98.4731 30.471H93.3235V30.5761Z" fill="#D7176F"/>
<path d="M108.843 30.5761C107.967 30.5761 107.512 30.1207 107.512 29.2449V10.6083C107.512 9.73251 107.967 9.2771 108.843 9.2771H117.04C118.722 9.2771 119.983 9.73251 120.894 10.6083C121.804 11.4841 122.225 12.7452 122.225 14.3917V15.2324C122.225 16.6337 121.769 17.7547 120.894 18.5253C122.54 19.4712 123.381 21.1527 123.381 23.6399V24.6908C123.381 26.6176 122.855 28.0889 121.84 29.0698C120.824 30.0857 119.352 30.5761 117.426 30.5761H108.843ZM110.139 17.7547H117.566C118.336 17.7547 118.862 17.5094 119.142 17.054C119.445 16.4961 119.59 15.8665 119.562 15.2324V14.3917C119.562 13.4808 119.387 12.8503 119.002 12.5C118.617 12.1497 117.951 11.9745 117.04 11.9745H110.174V17.7547H110.139ZM110.139 27.9488H117.426C118.617 27.9488 119.457 27.7035 119.948 27.1781C120.438 26.6876 120.719 25.8469 120.719 24.6908V23.6399C120.719 22.4839 120.473 21.6431 119.983 21.1527C119.492 20.6623 118.652 20.417 117.426 20.417H110.139V27.9488Z" fill="#222222"/>
<path d="M128.704 30.5761C127.828 30.5761 127.373 30.1207 127.373 29.2449V16.0031C127.373 15.1273 127.828 14.6719 128.704 14.6719C129.58 14.6719 130.035 15.1273 130.035 16.0031V29.2799C130 30.1557 129.58 30.5761 128.704 30.5761Z" fill="#222222"/>
<path d="M140.685 30.5759C138.618 30.5759 137.042 30.0855 136.061 29.0696C135.045 28.0537 134.555 26.5123 134.555 24.4455V20.8022C134.555 18.7003 135.045 17.159 136.061 16.1431C137.077 15.1272 138.618 14.6367 140.685 14.6367H143.242C145.344 14.6367 146.886 15.1272 147.902 16.1431C148.917 17.159 149.408 18.7003 149.408 20.8022V24.4104C149.408 26.4773 148.917 28.0537 147.902 29.0346C146.886 30.0505 145.344 30.5409 143.242 30.5409H140.685V30.5759ZM137.182 24.4805C137.182 25.8467 137.427 26.7575 137.918 27.248C138.408 27.7384 139.319 27.9836 140.685 27.9836H143.242C144.609 27.9836 145.554 27.7384 146.045 27.248C146.535 26.7575 146.781 25.8467 146.781 24.4805V20.8723C146.781 19.5061 146.535 18.5602 146.045 18.0698C145.554 17.5793 144.644 17.3341 143.242 17.3341H140.685C139.959 17.3057 139.235 17.4126 138.548 17.6494C138.305 17.7404 138.082 17.8806 137.896 18.0615C137.709 18.2423 137.561 18.4598 137.462 18.7003C137.223 19.3862 137.116 20.1114 137.147 20.8372V24.4805H137.182Z" fill="#222222"/>
</g>
<defs>
<linearGradient id="paint0_linear_816_17492" x1="180.949" y1="19.7874" x2="153.635" y2="-1.88462" gradientUnits="userSpaceOnUse">
<stop stop-color="#E16A2C"/>
<stop offset="0.306" stop-color="#DD4848"/>
<stop offset="0.672" stop-color="#D92464"/>
<stop offset="0.868" stop-color="#D7176F"/>
</linearGradient>
<linearGradient id="paint1_linear_816_17492" x1="182.859" y1="16.3802" x2="158.87" y2="-7.67155" gradientUnits="userSpaceOnUse">
<stop stop-color="#E16A2C"/>
<stop offset="0.306" stop-color="#DD4848"/>
<stop offset="0.672" stop-color="#D92464"/>
<stop offset="0.868" stop-color="#D7176F"/>
</linearGradient>
<linearGradient id="paint2_linear_816_17492" x1="179.258" y1="21.7943" x2="151.739" y2="0.333639" gradientUnits="userSpaceOnUse">
<stop stop-color="#E16A2C"/>
<stop offset="0.306" stop-color="#DD4848"/>
<stop offset="0.672" stop-color="#D92464"/>
<stop offset="0.868" stop-color="#D7176F"/>
</linearGradient>
<linearGradient id="paint3_linear_816_17492" x1="181.049" y1="18.897" x2="156.732" y2="-4.98091" gradientUnits="userSpaceOnUse">
<stop stop-color="#E16A2C"/>
<stop offset="0.306" stop-color="#DD4848"/>
<stop offset="0.672" stop-color="#D92464"/>
<stop offset="0.868" stop-color="#D7176F"/>
</linearGradient>
<clipPath id="clip0_816_17492">
<rect width="180" height="38.3529" fill="white" transform="translate(0.666016)"/>
</clipPath>
</defs>
</svg>
