<svg width="180" height="35" viewBox="0 0 180 35" fill="none" xmlns="http://www.w3.org/2000/svg">
<g clip-path="url(#clip0_816_17094)">
<path d="M177.689 26.2861V25.79H178.008C178.187 25.79 178.426 25.804 178.426 26.0152C178.426 26.2442 178.287 26.2861 178.088 26.2861H177.689ZM177.689 26.6347H177.908L178.386 27.5014H178.924L178.386 26.5989C178.665 26.5789 178.904 26.4435 178.904 26.063C178.904 25.5908 178.586 25.4394 178.028 25.4394H177.231V27.5014H177.689V26.6347ZM180 26.4734C180 25.2621 179.064 24.5588 178.008 24.5588C176.952 24.5588 176.016 25.2621 176.016 26.4734C176.016 27.6846 176.952 28.3899 178.008 28.3899C179.064 28.3899 180 27.6846 180 26.4734ZM179.442 26.4734C179.442 27.3559 178.785 27.9476 178.008 27.9476V27.9416C177.231 27.9476 176.593 27.3559 176.593 26.4734C176.593 25.5908 177.231 25.0011 178.008 25.0011C178.785 25.0011 179.442 25.5908 179.442 26.4734Z" fill="black"/>
<path d="M106.977 5.97348L106.979 27.7126H113.119V5.97348H106.977ZM58.6797 5.9436V27.7126H64.8735V11.1832L69.6728 11.1851C71.2626 11.1851 72.3941 11.5816 73.1612 12.3984C74.1314 13.4324 74.5278 15.1019 74.5278 18.1539V27.7126H80.5284V15.6856C80.5284 7.10107 75.0578 5.9436 69.7046 5.9436H58.6797ZM116.863 5.97547V27.7126H126.82C132.125 27.7126 133.856 26.8301 135.731 24.8518C137.054 23.4632 137.908 20.4151 137.908 17.0821C137.908 14.028 137.185 11.3007 135.922 9.60331C133.647 6.56717 130.37 5.97547 125.479 5.97547H116.863ZM122.953 10.707H125.593C129.422 10.707 131.898 12.4283 131.898 16.8889C131.898 21.3535 129.422 23.0727 125.593 23.0727H122.953V10.707ZM98.1257 5.97547L93.0017 23.2022L88.0909 5.97547H81.4648L88.4754 27.7126H97.3248L104.391 5.97547H98.1257ZM140.765 27.7126H146.905V5.97547H140.765V27.7126ZM157.976 5.98145L149.404 27.7047H155.458L156.815 23.8657H166.951L168.246 27.7047H174.82L166.174 5.98145H157.976ZM161.963 9.94598L165.676 20.1223H158.126L161.963 9.94598Z" fill="black"/>
<path d="M19.3597 10.2454V7.14336C19.6602 7.12207 19.9643 7.10551 20.2742 7.09604C28.7568 6.82985 34.3208 14.3849 34.3208 14.3849C34.3208 14.3849 28.3108 22.7327 21.8666 22.7327C20.9391 22.7327 20.1074 22.5824 19.3597 22.3316V12.9274C22.6617 13.3261 23.3254 14.7848 25.3106 18.0938L29.7258 14.3707C29.7258 14.3707 26.5031 10.1436 21.0704 10.1436C20.4789 10.1436 19.9134 10.185 19.3597 10.2454ZM19.3597 0V4.6329C19.6638 4.60806 19.969 4.58913 20.2742 4.57848C32.0706 4.18097 39.7546 14.2512 39.7546 14.2512C39.7546 14.2512 30.9278 24.9852 21.7318 24.9852C20.8894 24.9852 20.1003 24.9071 19.3597 24.7758V27.64C19.9927 27.7205 20.6504 27.7678 21.3354 27.7678C29.8926 27.7678 36.0812 23.3975 42.0746 18.2252C43.0672 19.0214 47.1346 20.9557 47.9722 21.8039C42.2734 26.5741 28.9946 30.419 21.4668 30.419C20.7415 30.419 20.0435 30.3753 19.3597 30.309V34.3338H51.8846V0H19.3597ZM19.3597 22.3316V24.7758C11.4438 23.3656 9.24687 15.1374 9.24687 15.1374C9.24687 15.1374 13.0481 10.9268 19.3597 10.2454V12.9274C19.3538 12.9274 19.3514 12.9262 19.3467 12.9262C16.0353 12.5287 13.4468 15.6224 13.4468 15.6224C13.4468 15.6224 14.8972 20.8326 19.3597 22.3316ZM5.30133 14.7813C5.30133 14.7813 9.9922 7.85912 19.3597 7.14336V4.6329C8.98422 5.4646 0 14.2512 0 14.2512C0 14.2512 5.08838 28.9627 19.3597 30.309V27.64C8.8872 26.3221 5.30133 14.7813 5.30133 14.7813Z" fill="#77B900"/>
</g>
<defs>
<clipPath id="clip0_816_17094">
<rect width="180" height="34.3338" fill="white"/>
</clipPath>
</defs>
</svg>
