<svg width="48" height="48" viewBox="0 0 48 48" fill="none" xmlns="http://www.w3.org/2000/svg">
<path d="M28 4.53906V12.8001C28 13.9202 28 14.4803 28.218 14.9081C28.4097 15.2844 28.7157 15.5904 29.092 15.7822C29.5198 16.0001 30.0799 16.0001 31.2 16.0001H39.4611M28 35L33 30L28 25M20 25L15 30L20 35M40 19.9764V34.4C40 37.7603 40 39.4405 39.346 40.7239C38.7708 41.8529 37.8529 42.7708 36.7239 43.346C35.4405 44 33.7603 44 30.4 44H17.6C14.2397 44 12.5595 44 11.2761 43.346C10.1471 42.7708 9.2292 41.8529 8.65396 40.7239C8 39.4405 8 37.7603 8 34.4V13.6C8 10.2397 8 8.55953 8.65396 7.27606C9.2292 6.14708 10.1471 5.2292 11.2761 4.65396C12.5595 4 14.2397 4 17.6 4H24.0236C25.4911 4 26.2249 4 26.9154 4.16578C27.5276 4.31276 28.1129 4.55519 28.6497 4.88416C29.2552 5.25521 29.7741 5.77406 30.8118 6.81177L37.1882 13.1882C38.2259 14.2259 38.7448 14.7448 39.1158 15.3503C39.4448 15.8871 39.6872 16.4724 39.8342 17.0846C40 17.7751 40 18.5089 40 19.9764Z" stroke="#5498EE" stroke-width="2" stroke-linecap="round" stroke-linejoin="round"/>
</svg>
