<svg width="48" height="48" viewBox="0 0 48 48" fill="none" xmlns="http://www.w3.org/2000/svg">
<path fill-rule="evenodd" clip-rule="evenodd" d="M25.9977 3.90455C26 3.95225 26 3.97855 26 4.03115L26 12.8638C25.9999 13.3686 25.9999 13.8602 26.0339 14.2765C26.0713 14.7337 26.1594 15.2731 26.436 15.816C26.8195 16.5686 27.4314 17.1806 28.184 17.564C28.7269 17.8406 29.2664 17.9288 29.7236 17.9661C30.1399 18.0001 30.6314 18.0001 31.1362 18L39.969 18C40.0215 18 40.0477 18 40.0953 18.0023C41.083 18.0494 41.9511 18.918 41.9978 19.9056C42 19.9533 42 19.9688 42 19.9999V34.4827C42 36.0926 42 37.4213 41.9116 38.5037C41.8198 39.6278 41.6226 40.6613 41.1281 41.6319C40.3611 43.1372 39.1372 44.3611 37.6319 45.1281C36.6613 45.6226 35.6278 45.8198 34.5037 45.9116C33.4213 46 32.0926 46 30.4827 46H17.5174C15.9074 46 14.5787 46 13.4964 45.9116C12.3722 45.8198 11.3388 45.6226 10.3681 45.1281C8.86278 44.3611 7.63894 43.1372 6.87195 41.6319C6.37737 40.6613 6.18024 39.6278 6.08839 38.5037C5.99996 37.4213 5.99998 36.0925 6 34.4826V13.5174C5.99998 11.9075 5.99996 10.5787 6.08839 9.49635C6.18024 8.37216 6.37737 7.33875 6.87195 6.36808C7.63894 4.86278 8.86278 3.63894 10.3681 2.87195C11.3388 2.37737 12.3722 2.18024 13.4964 2.08839C14.5787 1.99996 15.9074 1.99998 17.5173 2H24C24.0312 1.99999 24.0468 1.99998 24.0945 2.00224C25.0821 2.04896 25.9505 2.91699 25.9977 3.90455ZM21.4142 26.4142C22.1953 25.6332 22.1953 24.3668 21.4142 23.5858C20.6332 22.8047 19.3668 22.8047 18.5858 23.5858L13.5858 28.5858C12.8047 29.3668 12.8047 30.6332 13.5858 31.4142L18.5858 36.4142C19.3668 37.1953 20.6332 37.1953 21.4142 36.4142C22.1953 35.6332 22.1953 34.3668 21.4142 33.5858L17.8284 30L21.4142 26.4142ZM29.4142 23.5858C28.6332 22.8047 27.3668 22.8047 26.5858 23.5858C25.8047 24.3668 25.8047 25.6332 26.5858 26.4142L30.1716 30L26.5858 33.5858C25.8047 34.3668 25.8047 35.6332 26.5858 36.4142C27.3668 37.1953 28.6332 37.1953 29.4142 36.4142L34.4142 31.4142C35.1953 30.6332 35.1953 29.3668 34.4142 28.5858L29.4142 23.5858Z" fill="#5498EE"/>
<path d="M38.9373 13.8525C38.6968 14 38.4032 14 37.8159 14L31.6 13.9999C31.0399 13.9999 30.7599 13.9999 30.546 13.8909C30.3578 13.795 30.2049 13.642 30.109 13.4539C30 13.24 30 12.96 30 12.3999L30 6.18408C30 5.59683 30 5.30321 30.1475 5.06268C30.3557 4.723 30.8463 4.51993 31.2337 4.61304C31.508 4.67898 31.6993 4.87047 32.082 5.25344L38.7466 11.9181C39.1295 12.3007 39.321 12.492 39.387 12.7663C39.4801 13.1537 39.277 13.6443 38.9373 13.8525Z" fill="#5498EE"/>
</svg>
