<svg width="48" height="48" viewBox="0 0 48 48" fill="none" xmlns="http://www.w3.org/2000/svg">
<path fill-rule="evenodd" clip-rule="evenodd" d="M32.4828 4H15.5176C13.9077 3.99998 12.5789 3.99996 11.4965 4.08839C10.3723 4.18024 9.33894 4.37737 8.36827 4.87195C6.86297 5.63894 5.63913 6.86278 4.87214 8.36808C4.37756 9.33875 4.18043 10.3722 4.08858 11.4964C4.00015 12.5787 4.00017 13.9075 4.00019 15.5174L4.00009 28.2752C3.99923 29.8659 3.99859 31.0473 4.27279 32.0706C5.01252 34.8313 7.1689 36.9877 9.92964 37.7274C10.5446 37.8922 11.2166 37.9577 12.0002 37.9836L12.0002 40.7419C12.0001 41.2124 12 41.692 12.0357 42.085C12.0698 42.4609 12.1602 43.1704 12.6556 43.7909C13.2255 44.505 14.0898 44.9204 15.0034 44.9194C15.7974 44.9185 16.4079 44.5459 16.7227 44.3377C17.0519 44.1201 17.4264 43.8204 17.7938 43.5264L22.62 39.6654C23.6572 38.8357 23.9651 38.6014 24.2851 38.4379C24.606 38.274 24.9477 38.1541 25.3007 38.0817C25.6527 38.0094 26.0395 38 27.3677 38H32.4828C34.0928 38 35.4215 38 36.5038 37.9116C37.628 37.8198 38.6614 37.6226 39.6321 37.1281C41.1374 36.3611 42.3613 35.1372 43.1282 33.6319C43.6228 32.6613 43.82 31.6278 43.9118 30.5037C44.0002 29.4213 44.0002 28.0926 44.0002 26.4827V15.5174C44.0002 13.9074 44.0002 12.5787 43.9118 11.4964C43.82 10.3722 43.6228 9.33875 43.1282 8.36808C42.3613 6.86278 41.1374 5.63894 39.6321 4.87195C38.6614 4.37737 37.628 4.18024 36.5038 4.08839C35.4215 3.99996 34.0927 3.99998 32.4828 4ZM22.9774 15.3442C23.4857 15.0455 24.0833 14.9363 24.6645 15.036C25.2456 15.1356 25.7727 15.4378 26.1524 15.8888C26.5321 16.3399 26.7399 16.9108 26.739 17.5004V17.5034C26.739 17.9405 26.3847 18.5428 25.3813 19.2117C24.9405 19.5056 24.4854 19.7346 24.1327 19.8913C23.9592 19.9685 23.8174 20.0251 23.7236 20.0608C23.6769 20.0786 23.6426 20.091 23.6229 20.098L23.6046 20.1044L23.6076 20.1034C22.5612 20.4536 21.996 21.5853 22.345 22.6325C22.6908 23.6699 23.8437 24.2403 24.8773 23.8966C24.9681 23.8661 25.058 23.8328 25.1476 23.7987C25.2997 23.7408 25.5092 23.6568 25.7573 23.5466C26.2477 23.3286 26.9168 22.9955 27.6001 22.5399C28.8449 21.7101 30.7386 20.0643 30.739 17.5042C30.7408 15.9707 30.2001 14.486 29.2125 13.3128C28.2244 12.1391 26.8529 11.3529 25.3407 11.0935C23.8285 10.8342 22.2734 11.1183 20.9506 11.8957C19.6279 12.6731 18.623 13.8935 18.1139 15.3408C17.7473 16.3828 18.2949 17.5246 19.3369 17.8911C20.3788 18.2577 21.5207 17.7101 21.8872 16.6682C22.0829 16.112 22.4691 15.643 22.9774 15.3442ZM24.3004 26C23.1958 26 22.3004 26.8954 22.3004 28C22.3004 29.1046 23.1958 30 24.3004 30H24.3204C25.4249 30 26.3204 29.1046 26.3204 28C26.3204 26.8954 25.4249 26 24.3204 26H24.3004Z" fill="#5498EE"/>
</svg>
