<svg width="48" height="48" viewBox="0 0 48 48" fill="none" xmlns="http://www.w3.org/2000/svg">
<rect width="48" height="48" fill="white"/>
<path d="M6.88281 37.7745C6.88281 36.7961 6.88281 36.3069 6.99333 35.8466C7.09132 35.4384 7.25294 35.0482 7.47225 34.6904C7.71962 34.2867 8.06552 33.9408 8.75733 33.249L33.8829 8.1235C35.5397 6.46665 38.226 6.46665 39.8829 8.1235C41.5397 9.78035 41.5397 12.4666 39.8829 14.1235L14.7574 39.249C14.0656 39.9408 13.7197 40.2867 13.316 40.5341C12.9581 40.7534 12.5679 40.915 12.1598 41.013C11.6994 41.1235 11.2103 41.1235 10.2319 41.1235H6.88281V37.7745Z" stroke="#5498EE" stroke-width="2" stroke-linecap="round" stroke-linejoin="round"/>
<path d="M30 33.6527C34.7299 31.4058 38 26.5848 38 21C38 13.268 31.732 7 24 7C16.268 7 10 13.268 10 21C10 26.5848 13.2701 31.4058 18 33.6527V35C18 36.8638 18 37.7956 18.3045 38.5307C18.7105 39.5108 19.4892 40.2895 20.4693 40.6955C21.2044 41 22.1362 41 24 41C25.8638 41 26.7956 41 27.5307 40.6955C28.5108 40.2895 29.2895 39.5108 29.6955 38.5307C30 37.7956 30 36.8638 30 35V33.6527Z" fill="white"/>
<path fill-rule="evenodd" clip-rule="evenodd" d="M9 21C9 12.7157 15.7157 6 24 6C32.2843 6 39 12.7157 39 21C39 26.7576 35.756 31.7558 31 34.2697V35.0355C31 35.9373 31 36.6647 30.9596 37.2567C30.9181 37.8654 30.8305 38.4037 30.6194 38.9134C30.1119 40.1386 29.1386 41.1119 27.9134 41.6194C27.4037 41.8305 26.8654 41.9181 26.2567 41.9596C25.6647 42 24.9373 42 24.0355 42H23.9645C23.0627 42 22.3353 42 21.7433 41.9596C21.1346 41.9181 20.5963 41.8305 20.0866 41.6194C18.8614 41.1119 17.8881 40.1386 17.3806 38.9134C17.1695 38.4037 17.0819 37.8654 17.0404 37.2567C17 36.6647 17 35.9373 17 35.0355V34.2697C12.244 31.7558 9 26.7576 9 21ZM24 8C16.8203 8 11 13.8203 11 21C11 26.1844 14.0347 30.6619 18.4291 32.7495C18.7778 32.9151 19 33.2667 19 33.6527V35C19 35.9456 19.0005 36.6047 19.0357 37.1206C19.0703 37.6275 19.135 37.9227 19.2284 38.148C19.5328 38.8831 20.1169 39.4672 20.8519 39.7716C21.0773 39.865 21.3725 39.9297 21.8794 39.9643C22.3953 39.9995 23.0544 40 24 40C24.9456 40 25.6047 39.9995 26.1206 39.9643C26.6275 39.9297 26.9227 39.865 27.1481 39.7716C27.8831 39.4672 28.4672 38.8831 28.7716 38.148C28.865 37.9227 28.9297 37.6275 28.9643 37.1206C28.9995 36.6047 29 35.9456 29 35V33.6527C29 33.2667 29.2222 32.9151 29.5709 32.7495C33.9653 30.6619 37 26.1844 37 21C37 13.8203 31.1797 8 24 8Z" fill="#5498EE"/>
<path d="M32.3501 41.3711L32.9345 42.6856C33.1083 43.0768 33.3918 43.4093 33.7508 43.6426C34.1097 43.8759 34.5286 44.0001 34.9567 44C35.3849 44.0001 35.8038 43.8759 36.1627 43.6426C36.5217 43.4093 36.8052 43.0768 36.979 42.6856L37.5634 41.3711C37.7714 40.9047 38.1214 40.5159 38.5634 40.26C39.0082 40.0034 39.5227 39.8941 40.0334 39.9478L41.4634 40.1C41.889 40.145 42.3186 40.0656 42.7001 39.8713C43.0815 39.6771 43.3984 39.3763 43.6123 39.0056C43.8264 38.635 43.9285 38.2103 43.906 37.7829C43.8835 37.3555 43.7375 36.9438 43.4856 36.5978L42.6389 35.4344C42.3375 35.0171 42.1764 34.5148 42.1789 34C42.1788 33.4866 42.3414 32.9864 42.6434 32.5711L43.49 31.4078C43.7419 31.0618 43.8879 30.6501 43.9104 30.2227C43.9329 29.7953 43.8309 29.3705 43.6167 29C43.4028 28.6292 43.0859 28.3285 42.7045 28.1342C42.3231 27.94 41.8935 27.8605 41.4678 27.9056L40.0378 28.0578C39.5272 28.1114 39.0126 28.0021 38.5678 27.7456C38.125 27.4883 37.7749 27.0974 37.5678 26.6289L36.979 25.3144C36.8052 24.9232 36.5217 24.5907 36.1627 24.3574C35.8038 24.1241 35.3849 23.9999 34.9567 24C34.5286 23.9999 34.1097 24.1241 33.7508 24.3574C33.3918 24.5907 33.1083 24.9232 32.9345 25.3144L32.3501 26.6289C32.143 27.0974 31.793 27.4883 31.3501 27.7456C30.9053 28.0021 30.3908 28.1114 29.8801 28.0578L28.4457 27.9056C28.02 27.8605 27.5904 27.94 27.209 28.1342C26.8276 28.3285 26.5107 28.6292 26.2968 29C26.0826 29.3705 25.9806 29.7953 26.0031 30.2227C26.0255 30.6501 26.1716 31.0618 26.4235 31.4078L27.2701 32.5711C27.5721 32.9864 27.7346 33.4866 27.7346 34C27.7346 34.5134 27.5721 35.0136 27.2701 35.4289L26.4235 36.5922C26.1716 36.9382 26.0255 37.3499 26.0031 37.7773C25.9806 38.2047 26.0826 38.6295 26.2968 39C26.5109 39.3706 26.8278 39.6712 27.2092 39.8654C27.5905 40.0596 28.02 40.1392 28.4457 40.0944L29.8757 39.9422C30.3863 39.8886 30.9009 39.9979 31.3457 40.2544C31.7902 40.511 32.1419 40.902 32.3501 41.3711Z" fill="white" stroke="#5498EE" stroke-width="2" stroke-linecap="round" stroke-linejoin="round"/>
<path d="M34.9609 36C36.0655 36 36.9609 35.1046 36.9609 34C36.9609 32.8954 36.0655 32 34.9609 32C33.8564 32 32.9609 32.8954 32.9609 34C32.9609 35.1046 33.8564 36 34.9609 36Z" fill="#5498EE"/>
<path d="M15.25 18C18.9779 18 22 14.866 22 11C22 7.13401 18.9779 4 15.25 4C12.6556 4 10.403 5.51791 9.27307 7.74409C9.16627 7.73696 9.05854 7.73333 8.95 7.73333C6.21619 7.73333 4 10.0316 4 12.8667C4 15.7017 6.21619 18 8.95 18C11.2464 18 12.8899 18 15.25 18Z" fill="white" stroke="#5498EE" stroke-width="2" stroke-linecap="round" stroke-linejoin="round"/>
</svg>
