<svg width="48" height="49" viewBox="0 0 48 49" fill="none" xmlns="http://www.w3.org/2000/svg">
<path fill-rule="evenodd" clip-rule="evenodd" d="M36.0631 30.2535C36.3384 29.1838 37.4288 28.5398 38.4985 28.8152C42.8111 29.9252 46 33.8377 46 38.5V42.5C46 43.6046 45.1045 44.5 44 44.5C42.8954 44.5 42 43.6046 42 42.5V38.5C42 35.707 40.0897 33.3551 37.5014 32.6889C36.4317 32.4136 35.7878 31.3232 36.0631 30.2535Z" fill="#5498EE"/>
<path fill-rule="evenodd" clip-rule="evenodd" d="M29.1461 6.33109C29.5605 5.30722 30.7265 4.81319 31.7504 5.22764C35.4115 6.70962 38 10.3001 38 14.5C38 18.6999 35.4115 22.2904 31.7504 23.7724C30.7265 24.1868 29.5605 23.6928 29.1461 22.6689C28.7316 21.645 29.2257 20.4791 30.2495 20.0646C32.4521 19.173 34 17.0149 34 14.5C34 11.9851 32.4521 9.82697 30.2495 8.93539C29.2257 8.52094 28.7316 7.35495 29.1461 6.33109Z" fill="#5498EE"/>
<path fill-rule="evenodd" clip-rule="evenodd" d="M14.3578 28.4999C17.4526 28.501 20.5473 28.501 23.6421 28.4999C25.8233 28.4992 27.3117 28.4987 28.5881 28.8407C32.0391 29.7654 34.7345 32.4609 35.6592 35.9118C36.1197 37.6304 35.9864 39.4672 36.0003 41.2282C36.002 41.442 36.0055 41.8744 35.8977 42.2765C35.6203 43.3117 34.8117 44.1204 33.7764 44.3978C33.3744 44.5055 32.942 44.5021 32.7281 44.5004C23.5781 44.4273 14.4218 44.4273 5.27177 44.5004C5.05795 44.5021 4.62552 44.5055 4.22349 44.3978C3.18822 44.1204 2.37958 43.3117 2.10217 42.2765C1.99445 41.8744 1.9979 41.442 1.9996 41.2282C2.01361 39.4715 1.88092 37.6277 2.34069 35.9118C3.26536 32.4609 5.96084 29.7654 9.41176 28.8407C10.6882 28.4987 12.1766 28.4992 14.3578 28.4999Z" fill="#5498EE"/>
<path fill-rule="evenodd" clip-rule="evenodd" d="M8.99995 14.5C8.99995 8.97715 13.4771 4.5 19 4.5C24.5228 4.5 29 8.97715 29 14.5C29 20.0228 24.5228 24.5 19 24.5C13.4771 24.5 8.99995 20.0228 8.99995 14.5Z" fill="#5498EE"/>
</svg>
