<svg width="116" height="32" viewBox="0 0 116 32" fill="none" xmlns="http://www.w3.org/2000/svg">
<path d="M17.0885 17.6778C17.14 19.6679 16.4749 21.6099 15.2152 23.1471C13.9663 24.6544 12.2964 25.4079 10.2053 25.4076C9.33422 25.4118 8.47249 25.2278 7.67851 24.8681C6.93917 24.5522 6.2974 24.0435 5.81975 23.3947H5.76167V31.9999H0.998596V10.473H5.52932V12.2524H5.61646C6.11567 11.5818 6.76811 11.0415 7.51877 10.6772C8.36271 10.2595 9.29355 10.0495 10.2343 10.0647C11.174 10.0359 12.108 10.2218 12.9658 10.6083C13.8235 10.9949 14.5828 11.572 15.1862 12.2961C16.458 13.7938 17.1354 15.7099 17.0885 17.6778ZM12.4706 17.6778C12.4915 16.7273 12.172 15.8011 11.5703 15.0671C11.2662 14.7037 10.8825 14.4158 10.4492 14.2261C10.0159 14.0362 9.54471 13.9498 9.07257 13.9734C8.59546 13.96 8.12153 14.0554 7.68641 14.2524C7.2513 14.4495 6.86629 14.743 6.56035 15.1109C5.93308 15.8319 5.5874 16.7568 5.5874 17.7143C5.5874 18.6718 5.93308 19.5967 6.56035 20.3176C6.86854 20.6819 7.25433 20.972 7.68918 21.1664C8.12402 21.3608 8.5968 21.4545 9.07257 21.4406C9.54607 21.4639 10.0184 21.3757 10.4521 21.1834C10.8857 20.9909 11.2686 20.6995 11.5703 20.3322C12.1742 19.5826 12.4933 18.6418 12.4706 17.6778Z" fill="#434242"/>
<path d="M27.9185 10.1815L27.7152 14.3819C27.3165 14.2809 26.9066 14.2319 26.4954 14.236C25.3525 14.236 24.5005 14.5909 23.9396 15.3007C23.4101 15.9241 23.1124 16.7129 23.0974 17.5321V24.9995H18.3343V10.4732H22.923V12.5734H22.9812C23.3362 11.8295 23.889 11.1986 24.5785 10.7503C25.2683 10.2956 26.077 10.057 26.902 10.0648C27.2448 10.0493 27.588 10.0887 27.9185 10.1815Z" fill="#434242"/>
<path d="M41.9231 17.9117C41.9231 18.4367 41.9135 18.8159 41.8941 19.0493H31.4095C31.4495 19.4371 31.5711 19.8119 31.7664 20.1489C31.9617 20.4859 32.2261 20.7772 32.5422 21.0036C33.2051 21.5237 34.0246 21.8015 34.8657 21.7912C36.2598 21.7912 37.3247 21.2856 38.0605 20.2744L41.3713 22.3745C39.9579 24.4358 37.7699 25.4664 34.8076 25.4663C32.5422 25.4663 30.6495 24.7808 29.1296 23.4101C27.6095 22.0392 26.8495 20.1675 26.8497 17.795C26.8497 15.4615 27.5904 13.58 29.0716 12.1508C30.5527 10.7215 32.4164 10.0068 34.6623 10.0068C36.8306 10.0068 38.5829 10.7118 39.9192 12.1216C41.2551 13.5318 41.9231 15.4617 41.9231 17.9117ZM31.4095 16.074H37.5377C37.5616 15.3405 37.2953 14.6273 36.797 14.0906C36.3033 13.5655 35.6014 13.3029 34.6914 13.3029C33.8612 13.2811 33.0529 13.5725 32.426 14.1197C32.1345 14.36 31.8941 14.6569 31.7194 14.9927C31.5447 15.3286 31.4393 15.6964 31.4095 16.074Z" fill="#434242"/>
<path d="M59.2284 17.6781C59.2801 19.6681 58.6148 21.6102 57.3552 23.1473C56.1064 24.6546 54.4363 25.4082 52.3452 25.4078C51.4742 25.4121 50.6124 25.228 49.8185 24.8683C49.0791 24.5524 48.4374 24.0438 47.9597 23.3949H47.9017V32.0002H43.1385V10.4733H47.6693V12.2526H47.7565C48.2556 11.582 48.9081 11.0418 49.6588 10.6775C50.5027 10.2597 51.4335 10.0497 52.3742 10.0649C53.314 10.0361 54.248 10.222 55.1058 10.6086C55.9636 10.9951 56.7227 11.5723 57.3261 12.2963C58.5981 13.794 59.2754 15.7101 59.2284 17.6781ZM54.6107 17.6781C54.6315 16.7276 54.312 15.8013 53.7103 15.0674C53.4061 14.7039 53.0225 14.416 52.5892 14.2263C52.1559 14.0365 51.6847 13.95 51.2125 13.9736C50.7355 13.9602 50.2615 14.0556 49.8264 14.2527C49.3913 14.4497 49.0063 14.7432 48.7004 15.1112C48.0731 15.8322 47.7274 16.7571 47.7274 17.7145C47.7274 18.672 48.0731 19.5969 48.7004 20.3179C49.0086 20.6822 49.3943 20.9722 49.8292 21.1666C50.264 21.361 50.7368 21.4548 51.2125 21.4409C51.6861 21.4642 52.1584 21.376 52.592 21.1836C53.0257 20.9912 53.4086 20.6997 53.7103 20.3325C54.3142 19.5828 54.6332 18.6421 54.6107 17.6781Z" fill="#434242"/>
<path d="M62.6858 15.0531L60.2753 12.4571C61.9982 10.8236 64.1473 10.0068 66.7228 10.0068C69.1044 10.0068 70.8082 10.6145 71.8344 11.8299C72.8603 13.0456 73.3734 14.995 73.3736 17.6783V24.9998H69.0172V23.4538H68.9301C68.535 24.0773 67.9564 24.5615 67.2746 24.8393C66.5069 25.1822 65.6752 25.3563 64.835 25.3498C64.0199 25.3559 63.2096 25.2228 62.439 24.9561C61.651 24.6627 60.9615 24.1522 60.4495 23.483C59.8537 22.7193 59.5451 21.7691 59.5782 20.7994C59.5782 17.5324 62.6762 15.8991 68.872 15.8991V15.6657C68.8884 15.3656 68.8306 15.0661 68.704 14.7939C68.5773 14.5216 68.3856 14.285 68.1459 14.1051C67.5916 13.7244 66.929 13.5351 66.2582 13.5655C64.9197 13.5741 63.6376 14.108 62.6858 15.0531ZM69.0172 19.1659V18.6701H68.4073C65.4449 18.6701 63.9637 19.3312 63.9637 20.6535C63.9516 20.8793 64.0021 21.1038 64.1098 21.3023C64.2175 21.5007 64.3781 21.6649 64.5737 21.7769C65.0156 22.0291 65.5177 22.155 66.0258 22.1412C66.974 22.1412 67.7097 21.8739 68.2331 21.3391C68.5019 21.048 68.7098 20.7056 68.8445 20.3324C68.9793 19.9591 69.038 19.5624 69.0172 19.1659Z" fill="#434242"/>
<path d="M79.9949 10.4731H75.2318V24.9994H79.9949V10.4731Z" fill="#434242"/>
<path d="M91.613 10.1815L91.4097 14.3819C91.011 14.2809 90.6011 14.2319 90.1899 14.236C89.0472 14.236 88.1954 14.5909 87.6341 15.3007C87.1046 15.9241 86.8069 16.7129 86.7919 17.5321V24.9995H82.0288V10.4732H86.6175V12.5734H86.6759C87.0308 11.8295 87.5835 11.1985 88.273 10.7503C88.9628 10.2955 89.7716 10.0569 90.5967 10.0648C90.9395 10.0493 91.2826 10.0887 91.613 10.1815Z" fill="#434242"/>
<path d="M105.61 17.9117C105.61 18.4367 105.6 18.8159 105.581 19.0493H95.096C95.1359 19.4371 95.2576 19.812 95.4528 20.149C95.6481 20.486 95.9126 20.7773 96.2287 21.0036C96.8916 21.5237 97.7111 21.8015 98.5522 21.7912C99.9463 21.7912 101.011 21.2856 101.747 20.2744L105.058 22.3745C103.644 24.4358 101.456 25.4664 98.4941 25.4663C96.2287 25.4663 94.336 24.7808 92.8161 23.4101C91.296 22.0392 90.536 20.1675 90.5362 17.795C90.5362 15.4615 91.2769 13.58 92.7581 12.1508C94.2392 10.7215 96.1029 10.0068 98.3489 10.0068C100.517 10.0068 102.269 10.7118 103.606 12.1216C104.942 13.5318 105.61 15.4617 105.61 17.9117ZM95.096 16.074H101.224C101.248 15.3405 100.982 14.6273 100.484 14.0906C99.9898 13.5655 99.2879 13.3029 98.3779 13.3029C97.5477 13.2811 96.7394 13.5725 96.1125 14.1197C95.821 14.36 95.5806 14.6569 95.4059 14.9927C95.2312 15.3286 95.1258 15.6963 95.096 16.074Z" fill="#434242"/>
<path d="M77.6169 0.518555C76.8269 0.518555 76.0545 0.753845 75.3977 1.19467C74.7408 1.63549 74.2289 2.26206 73.9265 2.99514C73.6242 3.7282 73.545 4.53484 73.6992 5.31307C73.8533 6.09129 74.2338 6.80613 74.7923 7.3672C75.351 7.92827 76.0628 8.31036 76.8377 8.46516C77.6124 8.61996 78.4156 8.54051 79.1455 8.23685C79.8754 7.93321 80.4993 7.41901 80.9382 6.75926C81.3771 6.09952 81.6114 5.32387 81.6114 4.53041C81.6114 4.00355 81.5081 3.48186 81.3074 2.99512C81.1067 2.50837 80.8124 2.0661 80.4415 1.69356C80.0705 1.32102 79.6302 1.02551 79.1455 0.823905C78.661 0.622297 78.1415 0.518539 77.6169 0.518555Z" fill="#5498EE"/>
<path d="M114.692 3.81142C114.642 2.75103 114.174 1.75424 113.391 1.04033C112.609 0.326424 111.576 -0.0461437 110.521 0.00457579C107.675 0.141509 107.848 2.48071 105.002 2.61765C102.156 2.75458 102.107 0.409433 99.2608 0.546365C98.738 0.571495 98.2252 0.699794 97.7519 0.923939C97.2784 1.14809 96.8536 1.46368 96.5016 1.85272C96.1497 2.24176 95.8775 2.69661 95.7005 3.19132C95.5236 3.68601 95.4454 4.21088 95.4704 4.73592C95.4954 5.26097 95.6232 5.77594 95.8464 6.2514C96.0696 6.72687 96.3837 7.15354 96.7711 7.50704C97.1585 7.86053 97.6114 8.13394 98.1039 8.31166C98.5965 8.48937 99.119 8.5679 99.6418 8.54277C102.488 8.40611 102.314 6.0669 105.16 5.92997C106.216 5.87921 107.249 6.25178 108.031 6.96569C108.814 7.67961 109.281 8.6764 109.332 9.73682C109.468 12.5952 107.133 12.6448 107.27 15.5034C107.295 16.0284 107.423 16.5434 107.646 17.0188C107.869 17.4944 108.183 17.921 108.57 18.2745C108.958 18.628 109.411 18.9013 109.903 19.0791C110.396 19.2568 110.918 19.3352 111.441 19.3101C111.964 19.285 112.477 19.1566 112.95 18.9325C113.424 18.7083 113.848 18.3928 114.2 18.0036C114.552 17.6146 114.825 17.1598 115.001 16.665C115.178 16.1703 115.257 15.6455 115.232 15.1204C115.095 12.2618 112.766 12.4366 112.63 9.57801C112.494 6.7197 114.829 6.67 114.692 3.81142Z" fill="#5498EE"/>
</svg>
