<svg width="115" height="32" viewBox="0 0 115 32" fill="none" xmlns="http://www.w3.org/2000/svg">
<path d="M16.0902 17.6778C16.1416 19.6679 15.4765 21.6099 14.2168 23.1471C12.9679 24.6544 11.2979 25.4079 9.20681 25.4076C8.33576 25.4118 7.47401 25.2278 6.68002 24.8681C5.94067 24.5522 5.29889 24.0435 4.82123 23.3947H4.76315V31.9999H0V10.473H4.5308V12.2524H4.61793C5.11716 11.5818 5.7696 11.0415 6.52028 10.6772C7.36423 10.2595 8.29509 10.0495 9.23585 10.0647C10.1756 10.0359 11.1096 10.2218 11.9674 10.6083C12.8251 10.9949 13.5844 11.572 14.1878 12.2961C15.4597 13.7938 16.1371 15.7099 16.0902 17.6778ZM11.4722 17.6778C11.493 16.7273 11.1736 15.8011 10.5719 15.0671C10.2678 14.7037 9.88403 14.4158 9.45072 14.2261C9.01741 14.0362 8.54625 13.9498 8.07411 13.9734C7.59698 13.96 7.12305 14.0554 6.68792 14.2524C6.2528 14.4495 5.86779 14.743 5.56184 15.1109C4.93456 15.8319 4.58888 16.7568 4.58888 17.7143C4.58888 18.6718 4.93456 19.5967 5.56184 20.3176C5.87004 20.6819 6.25583 20.972 6.69068 21.1664C7.12554 21.3608 7.59833 21.4545 8.07411 21.4406C8.54761 21.4639 9.01999 21.3757 9.4536 21.1834C9.88723 20.9909 10.2701 20.6995 10.5719 20.3322C11.1758 19.5826 11.4949 18.6418 11.4722 17.6778Z" fill="white"/>
<path d="M26.9236 10.1815L26.7202 14.3819C26.3215 14.2809 25.9116 14.2319 25.5004 14.236C24.3575 14.236 23.5055 14.5909 22.9446 15.3007C22.4151 15.9241 22.1174 16.7129 22.1024 17.5321V24.9995H17.3392V10.4732H21.928V12.5734H21.9862C22.3412 11.8295 22.894 11.1986 23.5835 10.7503C24.2733 10.2956 25.082 10.057 25.907 10.0648C26.2499 10.0493 26.593 10.0887 26.9236 10.1815Z" fill="white"/>
<path d="M40.9224 17.9115C40.9224 18.4365 40.9128 18.8156 40.8934 19.049H30.4086C30.4486 19.4368 30.5702 19.8117 30.7655 20.1486C30.9609 20.4856 31.2252 20.7769 31.5413 21.0033C32.2043 21.5235 33.0238 21.8013 33.8648 21.791C35.259 21.791 36.3239 21.2854 37.0597 20.2741L40.3706 22.3743C38.9572 24.4356 36.7692 25.4661 33.8068 25.466C31.5413 25.466 29.6486 24.7806 28.1287 23.4099C26.6085 22.0389 25.8486 20.1672 25.8488 17.7947C25.8488 15.4613 26.5895 13.5798 28.0707 12.1506C29.5518 10.7212 31.4155 10.0066 33.6615 10.0066C35.8298 10.0066 37.5821 10.7115 38.9184 12.1213C40.2544 13.5315 40.9224 15.4615 40.9224 17.9115ZM30.4086 16.0737H36.5369C36.5609 15.3403 36.2945 14.6271 35.7962 14.0903C35.3025 13.5652 34.6006 13.3027 33.6906 13.3027C32.8603 13.2809 32.0521 13.5722 31.4252 14.1194C31.1336 14.3597 30.8932 14.6567 30.7185 14.9925C30.5438 15.3283 30.4384 15.6962 30.4086 16.0737Z" fill="white"/>
<path d="M58.2323 17.6778C58.2839 19.6679 57.6187 21.6099 56.359 23.1471C55.1102 24.6544 53.4401 25.4079 51.349 25.4076C50.478 25.4118 49.6162 25.2278 48.8223 24.8681C48.0828 24.5522 47.4411 24.0435 46.9634 23.3947H46.9053V31.9999H42.1422V10.473H46.673V12.2524H46.7601C47.2593 11.5818 47.9118 11.0415 48.6625 10.6772C49.5064 10.2595 50.4373 10.0495 51.378 10.0647C52.3178 10.0359 53.2518 10.2218 54.1096 10.6083C54.9674 10.9949 55.7266 11.572 56.33 12.2961C57.602 13.7938 58.2792 15.7099 58.2323 17.6778ZM53.6145 17.6778C53.6353 16.7273 53.3158 15.8011 52.7141 15.0671C52.4099 14.7037 52.0263 14.4158 51.5929 14.2261C51.1596 14.0362 50.6885 13.9498 50.2163 13.9734C49.7392 13.96 49.2652 14.0554 48.8302 14.2524C48.395 14.4495 48.01 14.743 47.7041 15.1109C47.0768 15.8319 46.7311 16.7568 46.7311 17.7143C46.7311 18.6718 47.0768 19.5967 47.7041 20.3176C48.0123 20.6819 48.398 20.972 48.8329 21.1664C49.2677 21.3608 49.7405 21.4545 50.2163 21.4406C50.6898 21.4639 51.1622 21.3757 51.5958 21.1834C52.0295 20.9909 52.4123 20.6995 52.7141 20.3322C53.318 19.5826 53.637 18.6418 53.6145 17.6778Z" fill="white"/>
<path d="M61.6885 15.0528L59.278 12.4568C61.001 10.8233 63.1501 10.0066 65.7256 10.0066C68.1072 10.0066 69.811 10.6143 70.8373 11.8297C71.8632 13.0453 72.3763 14.9948 72.3765 17.6781V24.9996H68.0201V23.4536H67.9329C67.5379 24.0771 66.9593 24.5613 66.2774 24.8391C65.5097 25.1819 64.678 25.356 63.8378 25.3496C63.0227 25.3557 62.2124 25.2225 61.4417 24.9559C60.6538 24.6625 59.9642 24.152 59.4522 23.4827C58.8564 22.7191 58.5478 21.7688 58.5809 20.7992C58.5809 17.5322 61.6789 15.8988 67.8749 15.8988V15.6654C67.8913 15.3654 67.8335 15.0659 67.7068 14.7936C67.5801 14.5213 67.3884 14.2847 67.1487 14.1049C66.5944 13.7242 65.9318 13.5348 65.261 13.5652C63.9225 13.5738 62.6404 14.1077 61.6885 15.0528ZM68.0201 19.1657V18.6699H67.4101C64.4477 18.6699 62.9665 19.331 62.9665 20.6533C62.9543 20.879 63.0049 21.1036 63.1126 21.302C63.2203 21.5004 63.3809 21.6647 63.5764 21.7766C64.0184 22.0288 64.5205 22.1548 65.0286 22.141C65.9768 22.141 66.7125 21.8736 67.2359 21.3388C67.5047 21.0477 67.7127 20.7054 67.8473 20.3321C67.9821 19.9588 68.0408 19.5622 68.0201 19.1657Z" fill="white"/>
<path d="M78.9984 10.4731H74.2352V24.9994H78.9984V10.4731Z" fill="white"/>
<path d="M90.6159 10.1815L90.4125 14.3819C90.0138 14.2809 89.6039 14.2319 89.1927 14.236C88.05 14.236 87.1982 14.5909 86.6369 15.3007C86.1074 15.9241 85.8097 16.7129 85.7946 17.5321V24.9995H81.0315V10.4732H85.6203V12.5734H85.6787C86.0336 11.8295 86.5863 11.1985 87.2758 10.7503C87.9656 10.2955 88.7744 10.0569 89.5996 10.0648C89.9424 10.0493 90.2854 10.0887 90.6159 10.1815Z" fill="white"/>
<path d="M104.615 17.9115C104.615 18.4365 104.605 18.8156 104.586 19.049H94.1011C94.141 19.4368 94.2627 19.8118 94.4579 20.1487C94.6533 20.4857 94.9178 20.777 95.2339 21.0033C95.8968 21.5235 96.7163 21.8013 97.5574 21.791C98.9515 21.791 100.016 21.2854 100.752 20.2741L104.063 22.3743C102.649 24.4356 100.461 25.4661 97.4993 25.466C95.2339 25.466 93.3411 24.7806 91.8212 23.4099C90.301 22.0389 89.5411 20.1672 89.5413 17.7947C89.5413 15.4613 90.282 13.5798 91.7632 12.1506C93.2443 10.7212 95.108 10.0066 97.3541 10.0066C99.5224 10.0066 101.275 10.7115 102.611 12.1213C103.947 13.5315 104.615 15.4615 104.615 17.9115ZM94.1011 16.0737H100.229C100.253 15.3403 99.9872 14.6271 99.4888 14.0903C98.9951 13.5652 98.2931 13.3027 97.3831 13.3027C96.5529 13.2809 95.7446 13.5722 95.1177 14.1194C94.8261 14.3597 94.5857 14.6567 94.411 14.9925C94.2363 15.3283 94.1309 15.696 94.1011 16.0737Z" fill="white"/>
<path d="M76.6168 0.518555C75.8268 0.518555 75.0545 0.753845 74.3976 1.19467C73.7407 1.63549 73.2287 2.26206 72.9264 2.99514C72.6241 3.7282 72.5449 4.53484 72.6991 5.31307C72.8532 6.09129 73.2337 6.80613 73.7922 7.3672C74.3509 7.92827 75.0627 8.31036 75.8376 8.46516C76.6124 8.61996 77.4156 8.54051 78.1455 8.23685C78.8754 7.93321 79.4992 7.41901 79.9382 6.75926C80.3771 6.09952 80.6115 5.32387 80.6115 4.53041C80.6115 4.00355 80.5081 3.48186 80.3074 2.99512C80.1067 2.50837 79.8124 2.0661 79.4414 1.69356C79.0705 1.32102 78.6302 1.02551 78.1455 0.823905C77.6609 0.622297 77.1415 0.518539 76.6168 0.518555Z" fill="white"/>
<path d="M113.693 3.81142C113.642 2.75103 113.174 1.75424 112.392 1.04033C111.61 0.326424 110.577 -0.0461437 109.521 0.00457579C106.675 0.141509 106.849 2.48071 104.003 2.61765C101.156 2.75458 101.107 0.409433 98.261 0.546365C97.7382 0.571495 97.2254 0.699794 96.7521 0.923939C96.2786 1.14809 95.8538 1.46368 95.5018 1.85272C95.1499 2.24176 94.8776 2.69661 94.7006 3.19132C94.5238 3.68601 94.4455 4.21088 94.4705 4.73592C94.4955 5.26097 94.6233 5.77594 94.8465 6.2514C95.0697 6.72687 95.3839 7.15354 95.7713 7.50704C96.1586 7.86053 96.6116 8.13394 97.1041 8.31166C97.5967 8.48937 98.1192 8.5679 98.642 8.54277C101.488 8.40611 101.315 6.0669 104.161 5.92997C105.216 5.87921 106.249 6.25178 107.032 6.96569C107.814 7.67961 108.282 8.6764 108.332 9.73682C108.469 12.5952 106.134 12.6448 106.27 15.5034C106.295 16.0284 106.423 16.5434 106.646 17.0188C106.869 17.4944 107.183 17.921 107.571 18.2745C107.958 18.628 108.411 18.9013 108.904 19.0791C109.396 19.2568 109.919 19.3352 110.442 19.3101C110.964 19.285 111.477 19.1566 111.951 18.9325C112.424 18.7083 112.849 18.3928 113.201 18.0036C113.553 17.6146 113.825 17.1598 114.002 16.665C114.179 16.1703 114.257 15.6455 114.232 15.1204C114.096 12.2618 111.767 12.4366 111.63 9.57801C111.494 6.7197 113.829 6.67 113.693 3.81142Z" fill="white"/>
</svg>
