<svg width="36" height="37" viewBox="0 0 36 37" fill="none" xmlns="http://www.w3.org/2000/svg">
<path fill-rule="evenodd" clip-rule="evenodd" d="M18.6971 0.600449C21.2406 1.02452 22.4207 4.38242 24.9314 4.96713C28.4087 5.77692 33.4908 1.59872 35.5047 4.51466C37.6146 7.56963 32.3382 11.1687 31.7358 14.8192C31.3945 16.8879 32.4274 18.8753 32.7944 20.9397C33.3497 24.0636 36.6357 27.8495 34.4683 30.1887C32.2105 32.6254 27.7142 28.6876 24.5715 29.8144C21.8839 30.7781 21.3833 34.8762 18.6971 35.8434C16.0252 36.8055 12.3939 36.8703 10.3222 34.9454C8.04797 32.8324 9.88932 28.6312 8.16617 26.0591C6.65972 23.8104 2.82327 23.9698 1.4199 21.6569C0.0146512 19.341 -0.547088 16.1138 0.662526 13.6924C1.92303 11.1691 5.72271 11.1193 7.69699 9.09137C9.43567 7.30549 9.38371 4.22997 11.36 2.70445C13.3924 1.13567 16.1541 0.176476 18.6971 0.600449Z" fill="#5498EE"/>
</svg>
