<svg width="84" height="84" viewBox="0 0 84 84" fill="none" xmlns="http://www.w3.org/2000/svg">
<rect width="84" height="84" rx="8" fill="white"/>
<g clip-path="url(#clip0_1316_17281)">
<circle cx="42" cy="42" r="28.75" stroke="#5498EE" stroke-width="2.5"/>
<path fill-rule="evenodd" clip-rule="evenodd" d="M40.75 59.5V49.5H43.25V59.5H40.75Z" fill="#5498EE"/>
<path fill-rule="evenodd" clip-rule="evenodd" d="M45.75 49.5H48.25V55.75H52V58.25H45.75V49.5Z" fill="#5498EE"/>
<path fill-rule="evenodd" clip-rule="evenodd" d="M38.25 49.5H35.75V55.75H32V58.25H38.25V49.5Z" fill="#5498EE"/>
<circle cx="32" cy="57" r="2.5" fill="#5498EE"/>
<circle cx="52" cy="57" r="2.5" fill="#5498EE"/>
<circle cx="42" cy="59.5" r="2.5" fill="#5498EE"/>
<mask id="path-10-outside-1_1316_17281" maskUnits="userSpaceOnUse" x="51.4961" y="11.5018" width="21" height="21" fill="black">
<rect fill="white" x="51.4961" y="11.5018" width="21" height="21"/>
<path fill-rule="evenodd" clip-rule="evenodd" d="M58.6844 22.8355C58.7709 24.595 59.1279 26.1711 59.6598 27.3485C57.8449 26.5543 56.512 24.8631 56.2219 22.8355H58.6844ZM60.3533 22.8355C60.4373 24.3737 60.7484 25.6946 61.1634 26.6282C61.4084 27.1796 61.657 27.5225 61.8489 27.7051C61.9171 27.7701 61.9665 27.8047 61.9974 27.8225C62.0283 27.8047 62.0777 27.7701 62.1459 27.7051C62.3378 27.5225 62.5864 27.1796 62.8314 26.6282C63.2464 25.6946 63.5575 24.3737 63.6415 22.8355H60.3533ZM63.6415 21.1688H60.3533C60.4372 19.6303 60.7484 18.3092 61.1634 17.3754C61.4084 16.8241 61.657 16.4811 61.8489 16.2985C61.9171 16.2336 61.9665 16.199 61.9974 16.1811C62.0283 16.199 62.0777 16.2336 62.1459 16.2985C62.3378 16.4811 62.5864 16.8241 62.8314 17.3754C63.2464 18.3092 63.5576 19.6303 63.6415 21.1688ZM65.3104 22.8355C65.2239 24.5943 64.8672 26.1699 64.3356 27.3471C66.1489 26.5523 67.4803 24.8619 67.7703 22.8355H65.3104ZM67.7704 21.1688H65.3104C65.224 19.4097 64.8672 17.834 64.3356 16.6566C66.1491 17.4515 67.4806 19.1421 67.7704 21.1688ZM58.6844 21.1688H56.2218C56.5117 19.1409 57.8447 17.4494 59.6598 16.6552C59.1279 17.8327 58.7708 19.409 58.6844 21.1688ZM61.9961 14.5018H61.997C66.1387 14.5023 69.4961 17.86 69.4961 22.0018C69.4961 26.144 66.1382 29.5018 61.9961 29.5018C57.854 29.5018 54.4961 26.144 54.4961 22.0018C54.4961 17.8597 57.854 14.5018 61.9961 14.5018Z"/>
</mask>
<path fill-rule="evenodd" clip-rule="evenodd" d="M58.6844 22.8355C58.7709 24.595 59.1279 26.1711 59.6598 27.3485C57.8449 26.5543 56.512 24.8631 56.2219 22.8355H58.6844ZM60.3533 22.8355C60.4373 24.3737 60.7484 25.6946 61.1634 26.6282C61.4084 27.1796 61.657 27.5225 61.8489 27.7051C61.9171 27.7701 61.9665 27.8047 61.9974 27.8225C62.0283 27.8047 62.0777 27.7701 62.1459 27.7051C62.3378 27.5225 62.5864 27.1796 62.8314 26.6282C63.2464 25.6946 63.5575 24.3737 63.6415 22.8355H60.3533ZM63.6415 21.1688H60.3533C60.4372 19.6303 60.7484 18.3092 61.1634 17.3754C61.4084 16.8241 61.657 16.4811 61.8489 16.2985C61.9171 16.2336 61.9665 16.199 61.9974 16.1811C62.0283 16.199 62.0777 16.2336 62.1459 16.2985C62.3378 16.4811 62.5864 16.8241 62.8314 17.3754C63.2464 18.3092 63.5576 19.6303 63.6415 21.1688ZM65.3104 22.8355C65.2239 24.5943 64.8672 26.1699 64.3356 27.3471C66.1489 26.5523 67.4803 24.8619 67.7703 22.8355H65.3104ZM67.7704 21.1688H65.3104C65.224 19.4097 64.8672 17.834 64.3356 16.6566C66.1491 17.4515 67.4806 19.1421 67.7704 21.1688ZM58.6844 21.1688H56.2218C56.5117 19.1409 57.8447 17.4494 59.6598 16.6552C59.1279 17.8327 58.7708 19.409 58.6844 21.1688ZM61.9961 14.5018H61.997C66.1387 14.5023 69.4961 17.86 69.4961 22.0018C69.4961 26.144 66.1382 29.5018 61.9961 29.5018C57.854 29.5018 54.4961 26.144 54.4961 22.0018C54.4961 17.8597 57.854 14.5018 61.9961 14.5018Z" fill="#5498EE"/>
<path d="M59.6598 27.3485L58.6576 29.6388L64.6155 32.2459L61.9381 26.3193L59.6598 27.3485ZM58.6844 22.8355L61.1814 22.7128L61.0646 20.3355H58.6844V22.8355ZM56.2219 22.8355V20.3355H53.3387L53.7471 23.1896L56.2219 22.8355ZM61.1634 26.6282L58.8789 27.6436L58.8789 27.6436L61.1634 26.6282ZM60.3533 22.8355V20.3355H57.7131L57.857 22.9718L60.3533 22.8355ZM61.8489 27.7051L63.5724 25.8941L63.5724 25.8941L61.8489 27.7051ZM61.9974 27.8225L60.7456 29.9865L61.9974 30.7107L63.2492 29.9865L61.9974 27.8225ZM62.1459 27.7051L63.8694 29.5161L63.8694 29.5161L62.1459 27.7051ZM62.8314 26.6282L60.5469 25.6129L60.5469 25.6129L62.8314 26.6282ZM63.6415 22.8355L66.1378 22.9718L66.2817 20.3355H63.6415V22.8355ZM60.3533 21.1688L57.857 21.0326L57.7131 23.6688H60.3533V21.1688ZM63.6415 21.1688V23.6688H66.2816L66.1378 21.0326L63.6415 21.1688ZM61.1634 17.3754L58.8789 16.3601L58.8789 16.3601L61.1634 17.3754ZM61.8489 16.2985L63.5723 18.1095L63.5724 18.1095L61.8489 16.2985ZM61.9974 16.1811L63.2492 14.0171L61.9974 13.293L60.7456 14.0171L61.9974 16.1811ZM62.1459 16.2985L60.4224 18.1095L60.4224 18.1095L62.1459 16.2985ZM62.8314 17.3754L60.5469 18.3908L60.5469 18.3908L62.8314 17.3754ZM65.3104 22.8355V20.3355H62.9302L62.8134 22.7128L65.3104 22.8355ZM64.3356 27.3471L62.0571 26.3183L59.3793 32.2491L65.3392 29.6368L64.3356 27.3471ZM67.7703 22.8355L70.2451 23.1896L70.6535 20.3355H67.7703V22.8355ZM65.3104 21.1688L62.8134 21.2915L62.9302 23.6688H65.3104V21.1688ZM67.7704 21.1688V23.6688H70.6533L70.2452 20.815L67.7704 21.1688ZM64.3356 16.6566L65.3392 14.3669L59.3793 11.7546L62.0571 17.6854L64.3356 16.6566ZM56.2218 21.1688L53.747 20.815L53.3389 23.6688H56.2218V21.1688ZM58.6844 21.1688V23.6688H61.0646L61.1814 21.2915L58.6844 21.1688ZM59.6598 16.6552L61.9381 17.6844L64.6155 11.7578L58.6576 14.3649L59.6598 16.6552ZM61.997 14.5018L61.9973 12.0018H61.997V14.5018ZM61.9381 26.3193C61.5634 25.4898 61.2562 24.2353 61.1814 22.7128L56.1874 22.9582C56.2856 24.9548 56.6924 26.8524 57.3815 28.3777L61.9381 26.3193ZM53.7471 23.1896C54.1627 26.0939 56.0684 28.5058 58.6576 29.6388L60.662 25.0582C59.6214 24.6028 58.8614 23.6323 58.6967 22.4814L53.7471 23.1896ZM58.6844 20.3355H56.2219V25.3355H58.6844V20.3355ZM63.4479 25.6129C63.1831 25.017 62.921 24.0073 62.8496 22.6992L57.857 22.9718C57.9536 24.7401 58.3138 26.3721 58.8789 27.6436L63.4479 25.6129ZM63.5724 25.8941C63.6432 25.9615 63.6511 25.9864 63.6146 25.9309C63.5818 25.8809 63.522 25.7795 63.4479 25.6129L58.8789 27.6436C59.2088 28.3859 59.6232 29.0381 60.1254 29.5161L63.5724 25.8941ZM63.2492 25.6585C63.4233 25.7592 63.5298 25.8536 63.5724 25.8941L60.1254 29.5161C60.3045 29.6865 60.5098 29.8501 60.7456 29.9865L63.2492 25.6585ZM60.4224 25.8941C60.465 25.8537 60.5715 25.7592 60.7456 25.6585L63.2492 29.9865C63.4851 29.8501 63.6904 29.6865 63.8694 29.5161L60.4224 25.8941ZM60.5469 25.6129C60.4728 25.7795 60.413 25.8809 60.3802 25.9309C60.3437 25.9864 60.3516 25.9615 60.4224 25.8941L63.8694 29.5161C64.3716 29.0381 64.786 28.3859 65.1159 27.6436L60.5469 25.6129ZM61.1452 22.6992C61.0738 24.0074 60.8117 25.017 60.5469 25.6129L65.1159 27.6436C65.681 26.3721 66.0412 24.7401 66.1378 22.9718L61.1452 22.6992ZM63.6415 20.3355H60.3533V25.3355H63.6415V20.3355ZM60.3533 23.6688H63.6415V18.6688H60.3533V23.6688ZM62.8496 21.305C62.9209 19.9966 63.183 18.9868 63.4479 18.3908L58.8789 16.3601C58.3137 17.6317 57.9535 19.264 57.857 21.0326L62.8496 21.305ZM63.4479 18.3908C63.522 18.2241 63.5818 18.1227 63.6146 18.0727C63.6511 18.0173 63.6432 18.0421 63.5723 18.1095L60.1254 14.4876C59.6232 14.9655 59.2088 15.6178 58.8789 16.3601L63.4479 18.3908ZM63.5724 18.1095C63.5299 18.15 63.4233 18.2444 63.2492 18.3452L60.7456 14.0171C60.5097 14.1536 60.3044 14.3172 60.1254 14.4876L63.5724 18.1095ZM60.7456 18.3452C60.5715 18.2444 60.4649 18.15 60.4224 18.1095L63.8694 14.4876C63.6904 14.3172 63.4851 14.1536 63.2492 14.0171L60.7456 18.3452ZM60.4224 18.1095C60.3516 18.0421 60.3437 18.0173 60.3802 18.0727C60.413 18.1227 60.4728 18.2241 60.5469 18.3908L65.1159 16.3601C64.786 15.6178 64.3716 14.9655 63.8694 14.4876L60.4224 18.1095ZM60.5469 18.3908C60.8118 18.9868 61.0739 19.9966 61.1452 21.305L66.1378 21.0326C66.0413 19.264 65.6811 17.6317 65.1159 16.3601L60.5469 18.3908ZM62.8134 22.7128C62.7386 24.2346 62.4317 25.4888 62.0571 26.3183L66.6141 28.3758C67.3027 26.8509 67.7093 24.954 67.8074 22.9582L62.8134 22.7128ZM65.3392 29.6368C67.9261 28.5029 69.8297 26.0922 70.2451 23.1896L65.2955 22.4814C65.1309 23.6316 64.3717 24.6017 63.332 25.0574L65.3392 29.6368ZM67.7703 20.3355H65.3104V25.3355H67.7703V20.3355ZM65.3104 23.6688H67.7704V18.6688H65.3104V23.6688ZM62.0571 17.6854C62.4317 18.515 62.7387 19.7693 62.8134 21.2915L67.8074 21.0462C67.7094 19.0501 67.3028 17.1529 66.6141 15.6278L62.0571 17.6854ZM70.2452 20.815C69.8302 17.912 67.9264 15.5009 65.3392 14.3669L63.332 18.9463C64.3718 19.4021 65.1311 20.3723 65.2956 21.5227L70.2452 20.815ZM56.2218 23.6688H58.6844V18.6688H56.2218V23.6688ZM58.6576 14.3649C56.0681 15.498 54.1623 17.9102 53.747 20.815L58.6966 21.5227C58.8612 20.3716 59.6213 19.4009 60.662 18.9455L58.6576 14.3649ZM61.1814 21.2915C61.2562 19.7687 61.5633 18.514 61.9381 17.6844L57.3815 15.6259C56.6924 17.1514 56.2855 19.0493 56.1874 21.0462L61.1814 21.2915ZM61.997 12.0018H61.9961V17.0018H61.997V12.0018ZM71.9961 22.0018C71.9961 16.4794 67.5196 12.0025 61.9973 12.0018L61.9967 17.0018C64.7578 17.0022 66.9961 19.2406 66.9961 22.0018H71.9961ZM61.9961 32.0018C67.5189 32.0018 71.9961 27.5247 71.9961 22.0018H66.9961C66.9961 24.7633 64.7575 27.0018 61.9961 27.0018V32.0018ZM51.9961 22.0018C51.9961 27.5247 56.4732 32.0018 61.9961 32.0018V27.0018C59.2347 27.0018 56.9961 24.7633 56.9961 22.0018H51.9961ZM61.9961 12.0018C56.4732 12.0018 51.9961 16.479 51.9961 22.0018H56.9961C56.9961 19.2404 59.2347 17.0018 61.9961 17.0018V12.0018Z" fill="white" mask="url(#path-10-outside-1_1316_17281)"/>
<path fill-rule="evenodd" clip-rule="evenodd" d="M31.3406 33.2334C32.5369 28.503 36.8545 25 42 25C47.1455 25 51.4631 28.503 52.6593 33.2334C56.5626 34.0171 59.5 37.4342 59.5 41.5323C59.5 46.2089 55.6736 50 50.9535 50H33.0465C28.3264 50 24.5 46.2089 24.5 41.5323C24.5 37.4342 27.4374 34.0171 31.3406 33.2334ZM42 27.4194C37.7568 27.4194 34.2337 30.4843 33.5671 34.5017C33.477 35.0448 33.0282 35.4592 32.475 35.51C29.3721 35.7947 26.9419 38.383 26.9419 41.5323C26.9419 44.8727 29.675 47.5806 33.0465 47.5806H50.9535C54.325 47.5806 57.0581 44.8727 57.0581 41.5323C57.0581 38.383 54.6279 35.7947 51.525 35.51C50.9718 35.4592 50.523 35.0448 50.4329 34.5017C49.7663 30.4843 46.2432 27.4194 42 27.4194Z" fill="#5498EE" stroke="#5498EE" stroke-linecap="round" stroke-linejoin="round"/>
</g>
<rect x="0.5" y="0.5" width="83" height="83" rx="7.5" stroke="black" stroke-opacity="0.1"/>
<defs>
<clipPath id="clip0_1316_17281">
<rect width="60" height="60" fill="white" transform="translate(12 12)"/>
</clipPath>
</defs>
</svg>
