<svg width="120" height="120" viewBox="0 0 120 120" fill="none" xmlns="http://www.w3.org/2000/svg">
<g filter="url(#filter0_d_1316_17299)">
<rect x="20" y="16" width="80" height="80" rx="8" fill="white" shape-rendering="crispEdges"/>
<rect width="56" height="56" transform="translate(32 28)" fill="white"/>
<path d="M79.8333 44.9814L59.9999 55.9999M59.9999 55.9999L40.1666 44.9814M59.9999 55.9999L60 78.1667M81 56V46.53C81 45.7305 81 45.3308 80.8822 44.9743C80.778 44.6588 80.6076 44.3693 80.3825 44.125C80.1281 43.8489 79.7786 43.6548 79.0797 43.2665L61.8131 33.6739C61.1513 33.3063 60.8205 33.1225 60.4701 33.0504C60.1599 32.9866 59.8401 32.9866 59.53 33.0504C59.1796 33.1225 58.8487 33.3063 58.1869 33.6739L40.9203 43.2665C40.2214 43.6548 39.8719 43.8489 39.6175 44.125C39.3924 44.3693 39.222 44.6588 39.1178 44.9743C39 45.3308 39 45.7305 39 46.53V65.47C39 66.2695 39 66.6692 39.1178 67.0257C39.222 67.3411 39.3924 67.6307 39.6175 67.8749C39.8719 68.1511 40.2214 68.3452 40.9203 68.7335L58.1869 78.3261C58.8487 78.6937 59.1796 78.8775 59.53 78.9496C59.8401 79.0134 60.1599 79.0134 60.4701 78.9496C60.8205 78.8775 61.1513 78.6937 61.8131 78.3261L62.3333 78.037M49.5 38.5L70.5 50.1667M83.3333 78.1667L81 75.8333M83.3333 70C83.3333 73.866 80.1993 77 76.3333 77C72.4673 77 69.3333 73.866 69.3333 70C69.3333 66.134 72.4673 63 76.3333 63C80.1993 63 83.3333 66.134 83.3333 70Z" stroke="#5498EE" stroke-width="3.5" stroke-linecap="round" stroke-linejoin="round"/>
<rect x="20.5" y="16.5" width="79" height="79" rx="7.5" stroke="black" stroke-opacity="0.1" shape-rendering="crispEdges"/>
</g>
<defs>
<filter id="filter0_d_1316_17299" x="0" y="0" width="120" height="120" filterUnits="userSpaceOnUse" color-interpolation-filters="sRGB">
<feFlood flood-opacity="0" result="BackgroundImageFix"/>
<feColorMatrix in="SourceAlpha" type="matrix" values="0 0 0 0 0 0 0 0 0 0 0 0 0 0 0 0 0 0 127 0" result="hardAlpha"/>
<feOffset dy="4"/>
<feGaussianBlur stdDeviation="10"/>
<feComposite in2="hardAlpha" operator="out"/>
<feColorMatrix type="matrix" values="0 0 0 0 0 0 0 0 0 0 0 0 0 0 0 0 0 0 0.06 0"/>
<feBlend mode="normal" in2="BackgroundImageFix" result="effect1_dropShadow_1316_17299"/>
<feBlend mode="normal" in="SourceGraphic" in2="effect1_dropShadow_1316_17299" result="shape"/>
</filter>
</defs>
</svg>
