<svg width="70" height="74" viewBox="0 0 70 74" fill="none" xmlns="http://www.w3.org/2000/svg">
<rect x="11" y="4" width="56" height="56" rx="8" fill="#5498EE"/>
<g filter="url(#filter0_bd_1174_7515)">
<rect x="6" y="8" width="56" height="56" rx="8" fill="white" fill-opacity="0.3" shape-rendering="crispEdges"/>
<path d="M28.3849 23.9426C28.4724 23.5052 28.5161 23.2865 28.4569 23.1154C28.405 22.9653 28.3012 22.8387 28.1642 22.7583C28.008 22.6667 27.785 22.6667 27.339 22.6667H27.0115C25.9382 22.6667 25.0524 22.6667 24.3308 22.7256C23.5814 22.7869 22.8924 22.9183 22.2453 23.248C21.2418 23.7593 20.4259 24.5752 19.9146 25.5787C19.5848 26.2259 19.4534 26.9148 19.3922 27.6643C19.3725 27.9054 19.3626 28.026 19.3788 28.16C19.4444 28.7023 19.9002 29.1968 20.4353 29.3063C20.5675 29.3334 20.7136 29.3334 21.0059 29.3334H26.4323C26.7438 29.3334 26.8995 29.3334 27.0272 29.2776C27.1398 29.2284 27.2365 29.149 27.3069 29.0483C27.3866 28.9341 27.4172 28.7813 27.4782 28.4759L28.3849 23.9426Z" fill="white"/>
<path d="M30.2814 28.0575C30.1939 28.4949 30.1502 28.7135 30.2094 28.8847C30.2613 29.0348 30.3651 29.1614 30.5021 29.2417C30.6583 29.3334 30.8813 29.3334 31.3274 29.3334H35.7656C36.0771 29.3334 36.2329 29.3334 36.3605 29.2776C36.4731 29.2284 36.5699 29.149 36.6402 29.0483C36.7199 28.9341 36.7505 28.7813 36.8116 28.4759L37.7182 23.9426C37.8057 23.5052 37.8494 23.2865 37.7902 23.1154C37.7383 22.9653 37.6345 22.8387 37.4975 22.7583C37.3413 22.6667 37.1183 22.6667 36.6723 22.6667H32.234C31.9225 22.6667 31.7668 22.6667 31.6391 22.7225C31.5265 22.7717 31.4298 22.851 31.3594 22.9518C31.2797 23.066 31.2492 23.2187 31.1881 23.5242L30.2814 28.0575Z" fill="white"/>
<path d="M41.5673 22.6642C41.2553 22.6649 41.0993 22.6652 40.9719 22.7211C40.8594 22.7704 40.7632 22.8495 40.6929 22.9503C40.6133 23.0644 40.5827 23.2177 40.5214 23.5242L39.6147 28.0575C39.5273 28.4949 39.4835 28.7135 39.5427 28.8847C39.5947 29.0348 39.6985 29.1614 39.8355 29.2417C39.9917 29.3334 40.2147 29.3334 40.6607 29.3334H46.994C47.2862 29.3334 47.4323 29.3334 47.5645 29.3063C48.0997 29.1968 48.5555 28.7023 48.621 28.16C48.6372 28.026 48.6274 27.9054 48.6077 27.6643C48.5464 26.9149 48.415 26.2259 48.0853 25.5787C47.574 24.5752 46.7581 23.7593 45.7545 23.248C45.1074 22.9183 44.4185 22.7869 43.669 22.7256C42.9707 22.6686 42.2687 22.6627 41.5673 22.6642Z" fill="white"/>
<path d="M48.5213 32.728C48.6666 33.0133 48.6666 33.3866 48.6666 34.1334V41.6551C48.6666 42.7284 48.6666 43.6142 48.6077 44.3358C48.5464 45.0853 48.415 45.7742 48.0853 46.4213C47.574 47.4248 46.7581 48.2407 45.7545 48.7521C45.1074 49.0818 44.4185 49.2132 43.669 49.2744C42.9474 49.3334 42.0616 49.3334 40.9884 49.3334H27.0115C25.9382 49.3334 25.0524 49.3334 24.3308 49.2744C23.5814 49.2132 22.8924 49.0818 22.2453 48.7521C21.2418 48.2407 20.4259 47.4248 19.9146 46.4213C19.5848 45.7742 19.4534 45.0853 19.3922 44.3358C19.3332 43.6142 19.3332 42.7284 19.3333 41.6551V34.1334C19.3333 33.3866 19.3333 33.0133 19.4786 32.728C19.6064 32.4772 19.8104 32.2732 20.0613 32.1454C20.3465 32 20.7198 32 21.4666 32H46.5333C47.28 32 47.6534 32 47.9386 32.1454C48.1895 32.2732 48.3934 32.4772 48.5213 32.728Z" fill="white"/>
<rect x="6.5" y="8.5" width="55" height="55" rx="7.5" stroke="white" stroke-opacity="0.1" shape-rendering="crispEdges"/>
</g>
<defs>
<filter id="filter0_bd_1174_7515" x="-6" y="-4" width="80" height="80" filterUnits="userSpaceOnUse" color-interpolation-filters="sRGB">
<feFlood flood-opacity="0" result="BackgroundImageFix"/>
<feGaussianBlur in="BackgroundImageFix" stdDeviation="6"/>
<feComposite in2="SourceAlpha" operator="in" result="effect1_backgroundBlur_1174_7515"/>
<feColorMatrix in="SourceAlpha" type="matrix" values="0 0 0 0 0 0 0 0 0 0 0 0 0 0 0 0 0 0 127 0" result="hardAlpha"/>
<feOffset dy="4"/>
<feGaussianBlur stdDeviation="3"/>
<feComposite in2="hardAlpha" operator="out"/>
<feColorMatrix type="matrix" values="0 0 0 0 0 0 0 0 0 0 0 0 0 0 0 0 0 0 0.12 0"/>
<feBlend mode="normal" in2="effect1_backgroundBlur_1174_7515" result="effect2_dropShadow_1174_7515"/>
<feBlend mode="normal" in="SourceGraphic" in2="effect2_dropShadow_1174_7515" result="shape"/>
</filter>
</defs>
</svg>
