<svg width="124" height="124" viewBox="0 0 124 124" fill="none" xmlns="http://www.w3.org/2000/svg">
<g filter="url(#filter0_d_1316_17281)">
<rect x="20" y="16" width="84" height="84" rx="8" fill="white" shape-rendering="crispEdges"/>
<g clip-path="url(#clip0_1316_17281)">
<circle cx="62" cy="58" r="28.75" stroke="#5498EE" stroke-width="2.5"/>
<path fill-rule="evenodd" clip-rule="evenodd" d="M60.75 75.5V65.5H63.25V75.5H60.75Z" fill="#5498EE"/>
<path fill-rule="evenodd" clip-rule="evenodd" d="M65.75 65.5H68.25V71.75H72V74.25H65.75V65.5Z" fill="#5498EE"/>
<path fill-rule="evenodd" clip-rule="evenodd" d="M58.25 65.5H55.75V71.75H52V74.25H58.25V65.5Z" fill="#5498EE"/>
<circle cx="52" cy="73" r="2.5" fill="#5498EE"/>
<circle cx="72" cy="73" r="2.5" fill="#5498EE"/>
<circle cx="62" cy="75.5" r="2.5" fill="#5498EE"/>
<mask id="path-10-outside-1_1316_17281" maskUnits="userSpaceOnUse" x="71.4961" y="27.5018" width="21" height="21" fill="black">
<rect fill="white" x="71.4961" y="27.5018" width="21" height="21"/>
<path fill-rule="evenodd" clip-rule="evenodd" d="M78.6844 38.8355C78.7709 40.595 79.1279 42.1711 79.6598 43.3485C77.8449 42.5543 76.512 40.8631 76.2219 38.8355H78.6844ZM80.3533 38.8355C80.4373 40.3737 80.7484 41.6946 81.1634 42.6282C81.4084 43.1796 81.657 43.5225 81.8489 43.7051C81.9171 43.7701 81.9665 43.8047 81.9974 43.8225C82.0283 43.8047 82.0777 43.7701 82.1459 43.7051C82.3378 43.5225 82.5864 43.1796 82.8314 42.6282C83.2464 41.6946 83.5575 40.3737 83.6415 38.8355H80.3533ZM83.6415 37.1688H80.3533C80.4372 35.6303 80.7484 34.3092 81.1634 33.3754C81.4084 32.8241 81.657 32.4811 81.8489 32.2985C81.9171 32.2336 81.9665 32.199 81.9974 32.1811C82.0283 32.199 82.0777 32.2336 82.1459 32.2985C82.3378 32.4811 82.5864 32.8241 82.8314 33.3754C83.2464 34.3092 83.5576 35.6303 83.6415 37.1688ZM85.3104 38.8355C85.2239 40.5943 84.8672 42.1699 84.3356 43.3471C86.1489 42.5523 87.4803 40.8619 87.7703 38.8355H85.3104ZM87.7704 37.1688H85.3104C85.224 35.4097 84.8672 33.834 84.3356 32.6566C86.1491 33.4515 87.4806 35.1421 87.7704 37.1688ZM78.6844 37.1688H76.2218C76.5117 35.1409 77.8447 33.4494 79.6598 32.6552C79.1279 33.8327 78.7708 35.409 78.6844 37.1688ZM81.9961 30.5018H81.997C86.1387 30.5023 89.4961 33.86 89.4961 38.0018C89.4961 42.144 86.1382 45.5018 81.9961 45.5018C77.854 45.5018 74.4961 42.144 74.4961 38.0018C74.4961 33.8597 77.854 30.5018 81.9961 30.5018Z"/>
</mask>
<path fill-rule="evenodd" clip-rule="evenodd" d="M78.6844 38.8355C78.7709 40.595 79.1279 42.1711 79.6598 43.3485C77.8449 42.5543 76.512 40.8631 76.2219 38.8355H78.6844ZM80.3533 38.8355C80.4373 40.3737 80.7484 41.6946 81.1634 42.6282C81.4084 43.1796 81.657 43.5225 81.8489 43.7051C81.9171 43.7701 81.9665 43.8047 81.9974 43.8225C82.0283 43.8047 82.0777 43.7701 82.1459 43.7051C82.3378 43.5225 82.5864 43.1796 82.8314 42.6282C83.2464 41.6946 83.5575 40.3737 83.6415 38.8355H80.3533ZM83.6415 37.1688H80.3533C80.4372 35.6303 80.7484 34.3092 81.1634 33.3754C81.4084 32.8241 81.657 32.4811 81.8489 32.2985C81.9171 32.2336 81.9665 32.199 81.9974 32.1811C82.0283 32.199 82.0777 32.2336 82.1459 32.2985C82.3378 32.4811 82.5864 32.8241 82.8314 33.3754C83.2464 34.3092 83.5576 35.6303 83.6415 37.1688ZM85.3104 38.8355C85.2239 40.5943 84.8672 42.1699 84.3356 43.3471C86.1489 42.5523 87.4803 40.8619 87.7703 38.8355H85.3104ZM87.7704 37.1688H85.3104C85.224 35.4097 84.8672 33.834 84.3356 32.6566C86.1491 33.4515 87.4806 35.1421 87.7704 37.1688ZM78.6844 37.1688H76.2218C76.5117 35.1409 77.8447 33.4494 79.6598 32.6552C79.1279 33.8327 78.7708 35.409 78.6844 37.1688ZM81.9961 30.5018H81.997C86.1387 30.5023 89.4961 33.86 89.4961 38.0018C89.4961 42.144 86.1382 45.5018 81.9961 45.5018C77.854 45.5018 74.4961 42.144 74.4961 38.0018C74.4961 33.8597 77.854 30.5018 81.9961 30.5018Z" fill="#5498EE"/>
<path d="M79.6598 43.3485L78.6576 45.6388L84.6155 48.2459L81.9381 42.3193L79.6598 43.3485ZM78.6844 38.8355L81.1814 38.7128L81.0646 36.3355H78.6844V38.8355ZM76.2219 38.8355V36.3355H73.3387L73.7471 39.1896L76.2219 38.8355ZM81.1634 42.6282L78.8789 43.6436L78.8789 43.6436L81.1634 42.6282ZM80.3533 38.8355V36.3355H77.7131L77.857 38.9718L80.3533 38.8355ZM81.8489 43.7051L83.5724 41.8941L83.5724 41.8941L81.8489 43.7051ZM81.9974 43.8225L80.7456 45.9865L81.9974 46.7107L83.2492 45.9865L81.9974 43.8225ZM82.1459 43.7051L83.8694 45.5161L83.8694 45.5161L82.1459 43.7051ZM82.8314 42.6282L80.5469 41.6129L80.5469 41.6129L82.8314 42.6282ZM83.6415 38.8355L86.1378 38.9718L86.2817 36.3355H83.6415V38.8355ZM80.3533 37.1688L77.857 37.0326L77.7131 39.6688H80.3533V37.1688ZM83.6415 37.1688V39.6688H86.2816L86.1378 37.0326L83.6415 37.1688ZM81.1634 33.3754L78.8789 32.3601L78.8789 32.3601L81.1634 33.3754ZM81.8489 32.2985L83.5723 34.1095L83.5724 34.1095L81.8489 32.2985ZM81.9974 32.1811L83.2492 30.0171L81.9974 29.293L80.7456 30.0171L81.9974 32.1811ZM82.1459 32.2985L80.4224 34.1095L80.4224 34.1095L82.1459 32.2985ZM82.8314 33.3754L80.5469 34.3908L80.5469 34.3908L82.8314 33.3754ZM85.3104 38.8355V36.3355H82.9302L82.8134 38.7128L85.3104 38.8355ZM84.3356 43.3471L82.0571 42.3183L79.3793 48.2491L85.3392 45.6368L84.3356 43.3471ZM87.7703 38.8355L90.2451 39.1896L90.6535 36.3355H87.7703V38.8355ZM85.3104 37.1688L82.8134 37.2915L82.9302 39.6688H85.3104V37.1688ZM87.7704 37.1688V39.6688H90.6533L90.2452 36.815L87.7704 37.1688ZM84.3356 32.6566L85.3392 30.3669L79.3793 27.7546L82.0571 33.6854L84.3356 32.6566ZM76.2218 37.1688L73.747 36.815L73.3389 39.6688H76.2218V37.1688ZM78.6844 37.1688V39.6688H81.0646L81.1814 37.2915L78.6844 37.1688ZM79.6598 32.6552L81.9381 33.6844L84.6155 27.7578L78.6576 30.3649L79.6598 32.6552ZM81.997 30.5018L81.9973 28.0018H81.997V30.5018ZM81.9381 42.3193C81.5634 41.4898 81.2562 40.2353 81.1814 38.7128L76.1874 38.9582C76.2856 40.9548 76.6924 42.8524 77.3815 44.3777L81.9381 42.3193ZM73.7471 39.1896C74.1627 42.0939 76.0684 44.5058 78.6576 45.6388L80.662 41.0582C79.6214 40.6028 78.8614 39.6323 78.6967 38.4814L73.7471 39.1896ZM78.6844 36.3355H76.2219V41.3355H78.6844V36.3355ZM83.4479 41.6129C83.1831 41.017 82.921 40.0073 82.8496 38.6992L77.857 38.9718C77.9536 40.7401 78.3138 42.3721 78.8789 43.6436L83.4479 41.6129ZM83.5724 41.8941C83.6432 41.9615 83.6511 41.9864 83.6146 41.9309C83.5818 41.8809 83.522 41.7795 83.4479 41.6129L78.8789 43.6436C79.2088 44.3859 79.6232 45.0381 80.1254 45.5161L83.5724 41.8941ZM83.2492 41.6585C83.4233 41.7592 83.5298 41.8536 83.5724 41.8941L80.1254 45.5161C80.3045 45.6865 80.5098 45.8501 80.7456 45.9865L83.2492 41.6585ZM80.4224 41.8941C80.465 41.8537 80.5715 41.7592 80.7456 41.6585L83.2492 45.9865C83.4851 45.8501 83.6904 45.6865 83.8694 45.5161L80.4224 41.8941ZM80.5469 41.6129C80.4728 41.7795 80.413 41.8809 80.3802 41.9309C80.3437 41.9864 80.3516 41.9615 80.4224 41.8941L83.8694 45.5161C84.3716 45.0381 84.786 44.3859 85.1159 43.6436L80.5469 41.6129ZM81.1452 38.6992C81.0738 40.0074 80.8117 41.017 80.5469 41.6129L85.1159 43.6436C85.681 42.3721 86.0412 40.7401 86.1378 38.9718L81.1452 38.6992ZM83.6415 36.3355H80.3533V41.3355H83.6415V36.3355ZM80.3533 39.6688H83.6415V34.6688H80.3533V39.6688ZM82.8496 37.305C82.9209 35.9966 83.183 34.9868 83.4479 34.3908L78.8789 32.3601C78.3137 33.6317 77.9535 35.264 77.857 37.0326L82.8496 37.305ZM83.4479 34.3908C83.522 34.2241 83.5818 34.1227 83.6146 34.0727C83.6511 34.0173 83.6432 34.0421 83.5723 34.1095L80.1254 30.4876C79.6232 30.9655 79.2088 31.6178 78.8789 32.3601L83.4479 34.3908ZM83.5724 34.1095C83.5299 34.15 83.4233 34.2444 83.2492 34.3452L80.7456 30.0171C80.5097 30.1536 80.3044 30.3172 80.1254 30.4876L83.5724 34.1095ZM80.7456 34.3452C80.5715 34.2444 80.4649 34.15 80.4224 34.1095L83.8694 30.4876C83.6904 30.3172 83.4851 30.1536 83.2492 30.0171L80.7456 34.3452ZM80.4224 34.1095C80.3516 34.0421 80.3437 34.0173 80.3802 34.0727C80.413 34.1227 80.4728 34.2241 80.5469 34.3908L85.1159 32.3601C84.786 31.6178 84.3716 30.9655 83.8694 30.4876L80.4224 34.1095ZM80.5469 34.3908C80.8118 34.9868 81.0739 35.9966 81.1452 37.305L86.1378 37.0326C86.0413 35.264 85.6811 33.6317 85.1159 32.3601L80.5469 34.3908ZM82.8134 38.7128C82.7386 40.2346 82.4317 41.4888 82.0571 42.3183L86.6141 44.3758C87.3027 42.8509 87.7093 40.954 87.8074 38.9582L82.8134 38.7128ZM85.3392 45.6368C87.9261 44.5029 89.8297 42.0922 90.2451 39.1896L85.2955 38.4814C85.1309 39.6316 84.3717 40.6017 83.332 41.0574L85.3392 45.6368ZM87.7703 36.3355H85.3104V41.3355H87.7703V36.3355ZM85.3104 39.6688H87.7704V34.6688H85.3104V39.6688ZM82.0571 33.6854C82.4317 34.515 82.7387 35.7693 82.8134 37.2915L87.8074 37.0462C87.7094 35.0501 87.3028 33.1529 86.6141 31.6278L82.0571 33.6854ZM90.2452 36.815C89.8302 33.912 87.9264 31.5009 85.3392 30.3669L83.332 34.9463C84.3718 35.4021 85.1311 36.3723 85.2956 37.5227L90.2452 36.815ZM76.2218 39.6688H78.6844V34.6688H76.2218V39.6688ZM78.6576 30.3649C76.0681 31.498 74.1623 33.9102 73.747 36.815L78.6966 37.5227C78.8612 36.3716 79.6213 35.4009 80.662 34.9455L78.6576 30.3649ZM81.1814 37.2915C81.2562 35.7687 81.5633 34.514 81.9381 33.6844L77.3815 31.6259C76.6924 33.1514 76.2855 35.0493 76.1874 37.0462L81.1814 37.2915ZM81.997 28.0018H81.9961V33.0018H81.997V28.0018ZM91.9961 38.0018C91.9961 32.4794 87.5196 28.0025 81.9973 28.0018L81.9967 33.0018C84.7578 33.0022 86.9961 35.2406 86.9961 38.0018H91.9961ZM81.9961 48.0018C87.5189 48.0018 91.9961 43.5247 91.9961 38.0018H86.9961C86.9961 40.7633 84.7575 43.0018 81.9961 43.0018V48.0018ZM71.9961 38.0018C71.9961 43.5247 76.4732 48.0018 81.9961 48.0018V43.0018C79.2347 43.0018 76.9961 40.7633 76.9961 38.0018H71.9961ZM81.9961 28.0018C76.4732 28.0018 71.9961 32.479 71.9961 38.0018H76.9961C76.9961 35.2404 79.2347 33.0018 81.9961 33.0018V28.0018Z" fill="white" mask="url(#path-10-outside-1_1316_17281)"/>
<path fill-rule="evenodd" clip-rule="evenodd" d="M51.3406 49.2334C52.5369 44.503 56.8545 41 62 41C67.1455 41 71.4631 44.503 72.6593 49.2334C76.5626 50.0171 79.5 53.4342 79.5 57.5323C79.5 62.2089 75.6736 66 70.9535 66H53.0465C48.3264 66 44.5 62.2089 44.5 57.5323C44.5 53.4342 47.4374 50.0171 51.3406 49.2334ZM62 43.4194C57.7568 43.4194 54.2337 46.4843 53.5671 50.5017C53.477 51.0448 53.0282 51.4592 52.475 51.51C49.3721 51.7947 46.9419 54.383 46.9419 57.5323C46.9419 60.8727 49.675 63.5806 53.0465 63.5806H70.9535C74.325 63.5806 77.0581 60.8727 77.0581 57.5323C77.0581 54.383 74.6279 51.7947 71.525 51.51C70.9718 51.4592 70.523 51.0448 70.4329 50.5017C69.7663 46.4843 66.2432 43.4194 62 43.4194Z" fill="#5498EE" stroke="#5498EE" stroke-linecap="round" stroke-linejoin="round"/>
</g>
<rect x="20.5" y="16.5" width="83" height="83" rx="7.5" stroke="black" stroke-opacity="0.1" shape-rendering="crispEdges"/>
</g>
<defs>
<filter id="filter0_d_1316_17281" x="0" y="0" width="124" height="124" filterUnits="userSpaceOnUse" color-interpolation-filters="sRGB">
<feFlood flood-opacity="0" result="BackgroundImageFix"/>
<feColorMatrix in="SourceAlpha" type="matrix" values="0 0 0 0 0 0 0 0 0 0 0 0 0 0 0 0 0 0 127 0" result="hardAlpha"/>
<feOffset dy="4"/>
<feGaussianBlur stdDeviation="10"/>
<feComposite in2="hardAlpha" operator="out"/>
<feColorMatrix type="matrix" values="0 0 0 0 0 0 0 0 0 0 0 0 0 0 0 0 0 0 0.06 0"/>
<feBlend mode="normal" in2="BackgroundImageFix" result="effect1_dropShadow_1316_17281"/>
<feBlend mode="normal" in="SourceGraphic" in2="effect1_dropShadow_1316_17281" result="shape"/>
</filter>
<clipPath id="clip0_1316_17281">
<rect width="60" height="60" fill="white" transform="translate(32 28)"/>
</clipPath>
</defs>
</svg>
