<svg width="120" height="120" viewBox="0 0 120 120" fill="none" xmlns="http://www.w3.org/2000/svg">
<g filter="url(#filter0_d_1316_17305)">
<rect x="20" y="16" width="80" height="80" rx="8" fill="white" shape-rendering="crispEdges"/>
<path d="M43.5009 72.4992C34.3887 63.387 34.3887 48.6131 43.5009 39.5009C45.3632 37.6387 46.9223 36.1659 48.2252 35L41.3334 35C40.0448 35 39.0001 33.9553 39.0001 32.6666C39.0001 31.378 40.0448 30.3333 41.3334 30.3333L55.3334 30.3333C56.6221 30.3333 57.6667 31.378 57.6667 32.6666V46.6666C57.6667 47.9553 56.6221 49 55.3334 49C54.0448 49 53.0001 47.9553 53.0001 46.6666L53.0001 37.0401C51.56 38.2352 49.5497 40.0518 46.8008 42.8007C39.511 50.0905 39.511 61.9096 46.8008 69.1994C49.3861 71.7847 52.5347 73.4502 55.8497 74.2023C57.1064 74.4874 57.8941 75.7374 57.6089 76.9941C57.3238 78.2508 56.0738 79.0384 54.8171 78.7533C50.6688 77.8121 46.7269 75.7252 43.5009 72.4992Z" fill="#5498EE"/>
<path d="M64.1504 37.7978C62.8937 37.5127 62.1061 36.2627 62.3912 35.006C62.6763 33.7493 63.9263 32.9617 65.183 33.2468C69.3313 34.188 73.2732 36.2749 76.4992 39.5009C85.6114 48.6131 85.6114 63.387 76.4992 72.4992C74.6377 74.3607 73.0786 75.8335 71.775 77H78.6667C79.9554 77 81.0001 78.0446 81.0001 79.3333C81.0001 80.622 79.9554 81.6666 78.6667 81.6666H64.6667C63.3781 81.6666 62.3334 80.622 62.3334 79.3333V65.3333C62.3334 64.0446 63.3781 63 64.6667 63C65.9554 63 67.0001 64.0446 67.0001 65.3333V74.96C68.4383 73.7664 70.4485 71.9502 73.1993 69.1994C80.4891 61.9096 80.4891 50.0905 73.1993 42.8007C70.614 40.2154 67.4654 38.5499 64.1504 37.7978Z" fill="#5498EE"/>
<rect x="20.5" y="16.5" width="79" height="79" rx="7.5" stroke="black" stroke-opacity="0.1" shape-rendering="crispEdges"/>
</g>
<defs>
<filter id="filter0_d_1316_17305" x="0" y="0" width="120" height="120" filterUnits="userSpaceOnUse" color-interpolation-filters="sRGB">
<feFlood flood-opacity="0" result="BackgroundImageFix"/>
<feColorMatrix in="SourceAlpha" type="matrix" values="0 0 0 0 0 0 0 0 0 0 0 0 0 0 0 0 0 0 127 0" result="hardAlpha"/>
<feOffset dy="4"/>
<feGaussianBlur stdDeviation="10"/>
<feComposite in2="hardAlpha" operator="out"/>
<feColorMatrix type="matrix" values="0 0 0 0 0 0 0 0 0 0 0 0 0 0 0 0 0 0 0.06 0"/>
<feBlend mode="normal" in2="BackgroundImageFix" result="effect1_dropShadow_1316_17305"/>
<feBlend mode="normal" in="SourceGraphic" in2="effect1_dropShadow_1316_17305" result="shape"/>
</filter>
</defs>
</svg>
