<svg width="80" height="80" viewBox="0 0 80 80" fill="none" xmlns="http://www.w3.org/2000/svg">
<rect width="80" height="80" rx="8" fill="white"/>
<rect width="56" height="56" transform="translate(12 12)" fill="white"/>
<path d="M59.8333 28.9814L39.9999 39.9999M39.9999 39.9999L20.1666 28.9814M39.9999 39.9999L40 62.1667M61 40V30.53C61 29.7305 61 29.3308 60.8822 28.9743C60.778 28.6588 60.6076 28.3693 60.3825 28.125C60.1281 27.8489 59.7786 27.6548 59.0797 27.2665L41.8131 17.6739C41.1513 17.3063 40.8205 17.1225 40.4701 17.0504C40.1599 16.9866 39.8401 16.9866 39.53 17.0504C39.1796 17.1225 38.8487 17.3063 38.1869 17.6739L20.9203 27.2665C20.2214 27.6548 19.8719 27.8489 19.6175 28.125C19.3924 28.3693 19.222 28.6588 19.1178 28.9743C19 29.3308 19 29.7305 19 30.53V49.47C19 50.2695 19 50.6692 19.1178 51.0257C19.222 51.3411 19.3924 51.6307 19.6175 51.8749C19.8719 52.1511 20.2214 52.3452 20.9203 52.7335L38.1869 62.3261C38.8487 62.6937 39.1796 62.8775 39.53 62.9496C39.8401 63.0134 40.1599 63.0134 40.4701 62.9496C40.8205 62.8775 41.1513 62.6937 41.8131 62.3261L42.3333 62.037M29.5 22.5L50.5 34.1667M63.3333 62.1667L61 59.8333M63.3333 54C63.3333 57.866 60.1993 61 56.3333 61C52.4673 61 49.3333 57.866 49.3333 54C49.3333 50.134 52.4673 47 56.3333 47C60.1993 47 63.3333 50.134 63.3333 54Z" stroke="#5498EE" stroke-width="3.5" stroke-linecap="round" stroke-linejoin="round"/>
<rect x="0.5" y="0.5" width="79" height="79" rx="7.5" stroke="black" stroke-opacity="0.1"/>
</svg>
