<svg width="80" height="80" viewBox="0 0 80 80" fill="none" xmlns="http://www.w3.org/2000/svg">
<rect width="80" height="80" rx="8" fill="white"/>
<path d="M23.5009 56.4992C14.3887 47.387 14.3887 32.6131 23.5009 23.5009C25.3632 21.6387 26.9223 20.1659 28.2252 19L21.3334 19C20.0448 19 19.0001 17.9553 19.0001 16.6666C19.0001 15.378 20.0448 14.3333 21.3334 14.3333L35.3334 14.3333C36.6221 14.3333 37.6667 15.378 37.6667 16.6666V30.6666C37.6667 31.9553 36.6221 33 35.3334 33C34.0447 33 33.0001 31.9553 33.0001 30.6666L33.0001 21.0401C31.56 22.2352 29.5497 24.0518 26.8008 26.8007C19.511 34.0905 19.511 45.9096 26.8008 53.1994C29.3861 55.7847 32.5347 57.4502 35.8497 58.2023C37.1064 58.4875 37.8941 59.7374 37.6089 60.9941C37.3238 62.2508 36.0738 63.0384 34.8171 62.7533C30.6688 61.8121 26.7269 59.7252 23.5009 56.4992Z" fill="#5498EE"/>
<path d="M44.1504 21.7978C42.8937 21.5127 42.106 20.2627 42.3912 19.006C42.6763 17.7493 43.9263 16.9617 45.183 17.2468C49.3313 18.188 53.2732 20.2749 56.4992 23.5009C65.6114 32.6131 65.6114 47.387 56.4992 56.4992C54.6377 58.3607 53.0786 59.8335 51.775 61H58.6667C59.9554 61 61.0001 62.0446 61.0001 63.3333C61.0001 64.622 59.9554 65.6666 58.6667 65.6666H44.6667C43.3781 65.6666 42.3334 64.622 42.3334 63.3333V49.3333C42.3334 48.0446 43.3781 47 44.6667 47C45.9554 47 47.0001 48.0446 47.0001 49.3333V58.96C48.4383 57.7664 50.4485 55.9502 53.1993 53.1994C60.4891 45.9096 60.4891 34.0905 53.1993 26.8007C50.614 24.2154 47.4654 22.5499 44.1504 21.7978Z" fill="#5498EE"/>
<rect x="0.5" y="0.5" width="79" height="79" rx="7.5" stroke="black" stroke-opacity="0.1"/>
</svg>
