<svg width="70" height="74" viewBox="0 0 70 74" fill="none" xmlns="http://www.w3.org/2000/svg">
<rect x="11" y="4" width="56" height="56" rx="8" fill="#5498EE"/>
<g filter="url(#filter0_bd_1174_7523)">
<rect x="6" y="8" width="56" height="56" rx="8" fill="white" fill-opacity="0.3" shape-rendering="crispEdges"/>
<path fill-rule="evenodd" clip-rule="evenodd" d="M44.6667 38.6667C41.7212 38.6667 39.3334 41.0545 39.3334 44C39.3334 46.9455 41.7212 49.3333 44.6667 49.3333C45.4799 49.3333 46.2506 49.1513 46.9403 48.8258L47.7239 49.6095C48.2446 50.1302 49.0889 50.1302 49.6096 49.6095C50.1303 49.0888 50.1303 48.2446 49.6096 47.7239L48.9982 47.1125C49.6287 46.2366 50.0001 45.1617 50.0001 44C50.0001 41.0545 47.6123 38.6667 44.6667 38.6667ZM42.0001 44C42.0001 42.5272 43.194 41.3333 44.6667 41.3333C46.1395 41.3333 47.3334 42.5272 47.3334 44C47.3334 45.4728 46.1395 46.6667 44.6667 46.6667C43.194 46.6667 42.0001 45.4728 42.0001 44Z" fill="white"/>
<path d="M33.4629 21.5801C33.8173 21.5072 34.1829 21.5072 34.5373 21.5801C34.947 21.6643 35.3132 21.8694 35.6043 22.0325L35.6837 22.0768C38.0342 23.3827 42.0106 25.5929 44.2525 26.839C44.7968 27.1416 45.069 27.2929 45.1599 27.4928C45.2392 27.6671 45.2397 27.8671 45.1613 28.0418C45.0714 28.2422 44.7997 28.395 44.2565 28.7006L41.151 30.4474L29.2006 23.8083L32.3165 22.0768L32.3959 22.0325C32.687 21.8694 33.0532 21.6643 33.4629 21.5801Z" fill="white"/>
<path d="M26.4557 25.3338L38.4226 31.9822L34.523 34.1757C34.3322 34.283 34.2369 34.3366 34.1357 34.3577C34.0462 34.3763 33.9539 34.3763 33.8644 34.3577C33.7632 34.3366 33.6678 34.283 33.4771 34.1757L23.7437 28.7006C23.2004 28.395 22.9288 28.2422 22.8388 28.0418C22.7604 27.8671 22.7609 27.6671 22.8402 27.4928C22.9312 27.2929 23.2033 27.1416 23.7477 26.839L26.4557 25.3338Z" fill="white"/>
<path d="M47.328 31.8535C47.3275 31.2557 47.3272 30.9568 47.2011 30.7823C47.0912 30.6301 46.9221 30.5313 46.7354 30.5102C46.5215 30.4861 46.2605 30.6329 45.7384 30.9266L35.8771 36.4736C35.6792 36.5849 35.5802 36.6406 35.5082 36.7194C35.4444 36.789 35.3962 36.8715 35.3667 36.9612C35.3334 37.0626 35.3334 37.1761 35.3334 37.4033V48.3036C35.3334 48.8999 35.3334 49.198 35.4588 49.3724C35.5682 49.5245 35.7365 49.6236 35.9226 49.6454C36.136 49.6703 36.3958 49.5261 36.9154 49.2375C36.9662 49.2093 37.018 49.1805 37.0707 49.1513C37.428 48.9529 37.6067 48.8536 37.6952 48.726C37.7807 48.6026 37.8146 48.4936 37.8139 48.3434C37.8133 48.1881 37.7092 47.9791 37.5012 47.5613C36.9671 46.4888 36.6667 45.2795 36.6667 44C36.6667 39.5817 40.2485 36 44.6667 36C45.0756 36 45.4772 36.0307 45.8695 36.0898C46.449 36.1772 46.7388 36.2209 46.9031 36.1578C47.0637 36.0961 47.1593 36.0138 47.2441 35.8642C47.3309 35.711 47.3307 35.4558 47.3304 34.9455C47.3295 33.7863 47.3287 32.7049 47.328 31.8535Z" fill="white"/>
<path d="M31.0848 49.2375C31.6044 49.526 31.8642 49.6703 32.0775 49.6454C32.2636 49.6236 32.432 49.5245 32.5414 49.3724C32.6667 49.198 32.6667 48.8999 32.6667 48.3036V37.4033C32.6667 37.1762 32.6667 37.0626 32.6334 36.9612C32.6039 36.8715 32.5557 36.7891 32.492 36.7194C32.42 36.6407 32.321 36.585 32.123 36.4736L22.2617 30.9266C21.7397 30.633 21.4787 30.4861 21.2647 30.5103C21.0781 30.5313 20.909 30.6301 20.799 30.7824C20.673 30.9569 20.6727 31.2558 20.6722 31.8536C20.6701 34.3418 20.6668 38.7941 20.6668 41.4115L20.6665 41.5077C20.6652 41.8595 20.6636 42.3019 20.8014 42.7188C20.9205 43.0793 21.1152 43.4102 21.3724 43.6894C21.67 44.0122 22.0575 44.2257 22.3656 44.3954L22.4499 44.4419C24.8248 45.7613 28.863 48.0038 31.0848 49.2375Z" fill="white"/>
<rect x="6.5" y="8.5" width="55" height="55" rx="7.5" stroke="white" stroke-opacity="0.1" shape-rendering="crispEdges"/>
</g>
<defs>
<filter id="filter0_bd_1174_7523" x="-6" y="-4" width="80" height="80" filterUnits="userSpaceOnUse" color-interpolation-filters="sRGB">
<feFlood flood-opacity="0" result="BackgroundImageFix"/>
<feGaussianBlur in="BackgroundImageFix" stdDeviation="6"/>
<feComposite in2="SourceAlpha" operator="in" result="effect1_backgroundBlur_1174_7523"/>
<feColorMatrix in="SourceAlpha" type="matrix" values="0 0 0 0 0 0 0 0 0 0 0 0 0 0 0 0 0 0 127 0" result="hardAlpha"/>
<feOffset dy="4"/>
<feGaussianBlur stdDeviation="3"/>
<feComposite in2="hardAlpha" operator="out"/>
<feColorMatrix type="matrix" values="0 0 0 0 0 0 0 0 0 0 0 0 0 0 0 0 0 0 0.12 0"/>
<feBlend mode="normal" in2="effect1_backgroundBlur_1174_7523" result="effect2_dropShadow_1174_7523"/>
<feBlend mode="normal" in="SourceGraphic" in2="effect2_dropShadow_1174_7523" result="shape"/>
</filter>
</defs>
</svg>
