<svg width="71" height="74" viewBox="0 0 71 74" fill="none" xmlns="http://www.w3.org/2000/svg">
<rect x="11.6666" y="4" width="56" height="56" rx="8" fill="#34C347"/>
<g filter="url(#filter0_bd_1174_7495)">
<rect x="6.66663" y="8" width="56" height="56" rx="8" fill="white" fill-opacity="0.3" shape-rendering="crispEdges"/>
<path d="M40.6667 22.6667C37.353 22.6667 34.6667 25.353 34.6667 28.6667C34.6667 31.9804 37.353 34.6667 40.6667 34.6667C43.9804 34.6667 46.6667 31.9804 46.6667 28.6667C46.6667 25.353 43.9804 22.6667 40.6667 22.6667Z" fill="white"/>
<path d="M34.7091 22.3724C33.0407 23.952 32 26.1878 32 28.6667C32 30.2628 32.4315 31.7582 33.1842 33.0425C32.6012 33.2313 31.9792 33.3334 31.3333 33.3334C28.0196 33.3334 25.3333 30.6471 25.3333 27.3334C25.3333 24.0197 28.0196 21.3334 31.3333 21.3334C32.5851 21.3334 33.7473 21.7167 34.7091 22.3724Z" fill="white"/>
<path d="M42.2785 41.1911C42.2785 42.2462 41.5807 43.1385 40.6187 43.4368L41.2372 43.4081C41.9132 43.4081 42.5705 43.1955 43.1107 42.8006L46.8825 40.0488C47.8239 39.3624 49.1415 39.4535 49.9736 40.2629C50.8979 41.162 50.8979 42.6184 49.9736 43.5159L46.7373 46.6641C45.8662 47.5115 44.7546 48.0902 43.5462 48.3255L38.972 49.2155C38.0649 49.3917 37.1298 49.3704 36.2321 49.1517L32.0949 48.1463C31.6 48.0249 31.0926 47.9641 30.5821 47.9641C30.0401 47.9641 29.7691 47.9641 29.5517 47.8865C29.1751 47.752 28.8787 47.4557 28.7443 47.0791C28.6667 46.8616 28.6667 46.5906 28.6667 46.0486V41.4765C28.6667 41.0954 28.6667 40.9048 28.7156 40.7292C28.759 40.5736 28.8302 40.4272 28.9259 40.2972C29.0339 40.1503 29.1838 40.0327 29.4837 39.7976L31.0645 38.5582C31.0645 38.5582 33.6842 37.3334 35.1314 37.3334C35.7309 37.3334 36.3273 37.4063 36.9096 37.5507L40.4879 38.4402C41.5401 38.701 42.2785 39.6418 42.2785 40.7207V41.1911Z" fill="white"/>
<path fill-rule="evenodd" clip-rule="evenodd" d="M23.298 37.3334C23.3098 37.3334 23.3216 37.3334 23.3333 37.3334C23.3451 37.3334 23.3569 37.3334 23.3686 37.3334C23.6487 37.3333 23.9215 37.3333 24.1536 37.3491C24.4075 37.3665 24.7084 37.4071 25.0205 37.5363C25.6739 37.807 26.193 38.3261 26.4637 38.9795C26.5929 39.2916 26.6336 39.5926 26.6509 39.8464C26.6667 40.0785 26.6667 40.3513 26.6667 40.6314C26.6667 40.6431 26.6667 40.6549 26.6667 40.6667L26.6667 47.3687C26.6667 47.6487 26.6667 47.9216 26.6509 48.1537C26.6336 48.4075 26.5929 48.7085 26.4637 49.0205C26.193 49.6739 25.6739 50.1931 25.0205 50.4637C24.7084 50.593 24.4075 50.6336 24.1536 50.6509C23.9215 50.6667 23.6487 50.6667 23.3686 50.6667H23.298C23.018 50.6667 22.7451 50.6667 22.513 50.6509C22.2592 50.6336 21.9582 50.593 21.6462 50.4637C20.9928 50.1931 20.4736 49.6739 20.203 49.0205C20.0737 48.7085 20.0331 48.4075 20.0158 48.1537C19.9999 47.9215 20 47.6487 20 47.3687L20 40.6667C20 40.6549 20 40.6431 20 40.6314C20 40.3513 19.9999 40.0785 20.0158 39.8464C20.0331 39.5926 20.0737 39.2916 20.203 38.9795C20.4736 38.3261 20.9928 37.807 21.6462 37.5363C21.9582 37.4071 22.2592 37.3665 22.513 37.3491C22.7451 37.3333 23.018 37.3333 23.298 37.3334Z" fill="white"/>
<rect x="7.16663" y="8.5" width="55" height="55" rx="7.5" stroke="white" stroke-opacity="0.1" shape-rendering="crispEdges"/>
</g>
<defs>
<filter id="filter0_bd_1174_7495" x="-5.33337" y="-4" width="80" height="80" filterUnits="userSpaceOnUse" color-interpolation-filters="sRGB">
<feFlood flood-opacity="0" result="BackgroundImageFix"/>
<feGaussianBlur in="BackgroundImageFix" stdDeviation="6"/>
<feComposite in2="SourceAlpha" operator="in" result="effect1_backgroundBlur_1174_7495"/>
<feColorMatrix in="SourceAlpha" type="matrix" values="0 0 0 0 0 0 0 0 0 0 0 0 0 0 0 0 0 0 127 0" result="hardAlpha"/>
<feOffset dy="4"/>
<feGaussianBlur stdDeviation="3"/>
<feComposite in2="hardAlpha" operator="out"/>
<feColorMatrix type="matrix" values="0 0 0 0 0 0 0 0 0 0 0 0 0 0 0 0 0 0 0.12 0"/>
<feBlend mode="normal" in2="effect1_backgroundBlur_1174_7495" result="effect2_dropShadow_1174_7495"/>
<feBlend mode="normal" in="SourceGraphic" in2="effect2_dropShadow_1174_7495" result="shape"/>
</filter>
</defs>
</svg>
