<svg width="71" height="74" viewBox="0 0 71 74" fill="none" xmlns="http://www.w3.org/2000/svg">
<rect x="11.3334" y="4" width="56" height="56" rx="8" fill="#34C347"/>
<g filter="url(#filter0_bd_1174_7503)">
<rect x="6.33337" y="8" width="56" height="56" rx="8" fill="white" fill-opacity="0.3" shape-rendering="crispEdges"/>
<path d="M47.354 28.9335C48.0653 29.1241 48.4874 29.8552 48.2968 30.5665C48.1062 31.2778 47.3751 31.6999 46.6638 31.5093L46.1231 31.3644C48.3884 37.1047 46.1717 43.7913 40.6667 46.9697C37.0193 49.0755 32.7595 49.1599 29.1879 47.5754C28.5148 47.2768 28.2112 46.489 28.5098 45.8159C28.8084 45.1428 29.5962 44.8392 30.2693 45.1378C33.0953 46.3916 36.4554 46.3219 39.3333 44.6603C43.5413 42.2308 45.3156 37.2049 43.8009 32.7746L43.678 33.2331C43.4874 33.9444 42.7563 34.3665 42.045 34.176C41.3337 33.9854 40.9116 33.2542 41.1022 32.543L42.0783 28.9002C42.2689 28.1889 43 27.7668 43.7113 27.9574L47.354 28.9335Z" fill="white"/>
<path d="M39.4788 24.4247C40.1519 24.7233 40.4555 25.5111 40.1568 26.1842C39.8582 26.8573 39.0705 27.1609 38.3974 26.8623C35.5713 25.6085 32.2113 25.6782 29.3333 27.3398C25.1253 29.7693 23.351 34.7952 24.8658 39.2256L24.9887 38.7669C25.1793 38.0556 25.9104 37.6335 26.6217 37.8241C27.3329 38.0147 27.7551 38.7458 27.5645 39.4571L26.5884 43.0998C26.3978 43.8111 25.6667 44.2332 24.9554 44.0426L21.3127 43.0666C20.6014 42.876 20.1793 42.1449 20.3699 41.4336C20.5605 40.7223 21.2916 40.3002 22.0029 40.4908L22.5435 40.6356C20.2782 34.8954 22.4949 28.2087 28 25.0304C31.6473 22.9246 35.9071 22.8402 39.4788 24.4247Z" fill="white"/>
<rect x="6.83337" y="8.5" width="55" height="55" rx="7.5" stroke="white" stroke-opacity="0.1" shape-rendering="crispEdges"/>
</g>
<defs>
<filter id="filter0_bd_1174_7503" x="-5.66663" y="-4" width="80" height="80" filterUnits="userSpaceOnUse" color-interpolation-filters="sRGB">
<feFlood flood-opacity="0" result="BackgroundImageFix"/>
<feGaussianBlur in="BackgroundImageFix" stdDeviation="6"/>
<feComposite in2="SourceAlpha" operator="in" result="effect1_backgroundBlur_1174_7503"/>
<feColorMatrix in="SourceAlpha" type="matrix" values="0 0 0 0 0 0 0 0 0 0 0 0 0 0 0 0 0 0 127 0" result="hardAlpha"/>
<feOffset dy="4"/>
<feGaussianBlur stdDeviation="3"/>
<feComposite in2="hardAlpha" operator="out"/>
<feColorMatrix type="matrix" values="0 0 0 0 0 0 0 0 0 0 0 0 0 0 0 0 0 0 0.12 0"/>
<feBlend mode="normal" in2="effect1_backgroundBlur_1174_7503" result="effect2_dropShadow_1174_7503"/>
<feBlend mode="normal" in="SourceGraphic" in2="effect2_dropShadow_1174_7503" result="shape"/>
</filter>
</defs>
</svg>
