<svg width="77" height="78" viewBox="0 0 77 78" fill="none" xmlns="http://www.w3.org/2000/svg">
<rect x="10.0013" width="64" height="64" rx="8" fill="#34C347"/>
<g filter="url(#filter0_bd_1316_17399)">
<rect x="6.33337" y="4" width="64" height="64" rx="8" fill="white" fill-opacity="0.3" shape-rendering="crispEdges"/>
<path fill-rule="evenodd" clip-rule="evenodd" d="M36.6693 37.837V37.8363C36.8868 38.0584 37.0956 38.289 37.295 38.5278C37.0718 38.857 36.8629 39.1967 36.6693 39.546V39.5389C36.245 40.3031 35.8937 41.1133 35.6247 41.9602C34.2026 39.3999 31.471 37.6673 28.3346 37.6673H24.168V34.334H28.3346C31.5998 34.334 34.5517 35.6753 36.6693 37.837ZM40.0026 46.0007V46.0013L40.0026 52.6662L40.0026 52.6673H40.0013H36.6693H36.668V46.0013C36.668 43.8017 37.2767 41.7443 38.3348 39.9883C38.335 39.9886 38.3351 39.9888 38.3353 39.9891C40.3766 36.6004 44.0916 34.334 48.3359 34.334H51.6693V37.6673H48.3359C43.7336 37.6673 40.0026 41.3983 40.0026 46.0007ZM38.3372 37.1834C37.8282 36.6065 37.27 36.0739 36.6693 35.5924V22.667H40.0026V35.5944C39.4028 36.0755 38.8455 36.6073 38.3372 37.1834Z" fill="white"/>
<path d="M47.5052 41V31L55.0052 36L47.5052 41Z" fill="white"/>
<path d="M29.1693 41V31L21.6693 36L29.1693 41Z" fill="white"/>
<path d="M33.3334 26.834L43.3334 26.834L38.3334 19.334L33.3334 26.834Z" fill="white"/>
<rect x="6.83337" y="4.5" width="63" height="63" rx="7.5" stroke="white" stroke-opacity="0.1" shape-rendering="crispEdges"/>
</g>
<defs>
<filter id="filter0_bd_1316_17399" x="-5.66663" y="-8" width="88" height="88" filterUnits="userSpaceOnUse" color-interpolation-filters="sRGB">
<feFlood flood-opacity="0" result="BackgroundImageFix"/>
<feGaussianBlur in="BackgroundImageFix" stdDeviation="6"/>
<feComposite in2="SourceAlpha" operator="in" result="effect1_backgroundBlur_1316_17399"/>
<feColorMatrix in="SourceAlpha" type="matrix" values="0 0 0 0 0 0 0 0 0 0 0 0 0 0 0 0 0 0 127 0" result="hardAlpha"/>
<feOffset dy="4"/>
<feGaussianBlur stdDeviation="3"/>
<feComposite in2="hardAlpha" operator="out"/>
<feColorMatrix type="matrix" values="0 0 0 0 0 0 0 0 0 0 0 0 0 0 0 0 0 0 0.12 0"/>
<feBlend mode="normal" in2="effect1_backgroundBlur_1316_17399" result="effect2_dropShadow_1316_17399"/>
<feBlend mode="normal" in="SourceGraphic" in2="effect2_dropShadow_1316_17399" result="shape"/>
</filter>
</defs>
</svg>
