<svg width="70" height="74" viewBox="0 0 70 74" fill="none" xmlns="http://www.w3.org/2000/svg">
<rect x="11" y="4" width="56" height="56" rx="8" fill="#34C347"/>
<g filter="url(#filter0_bd_1174_7487)">
<rect x="6" y="8" width="56" height="56" rx="8" fill="white" fill-opacity="0.3" shape-rendering="crispEdges"/>
<path d="M44.2761 39.0572C44.026 38.8071 43.6869 38.6666 43.3333 38.6666C42.9796 38.6666 42.6405 38.8071 42.3904 39.0572L38.3904 43.0572C37.8697 43.5779 37.8697 44.4221 38.3904 44.9428C38.9111 45.4635 39.7554 45.4635 40.2761 44.9428L41.9999 43.2189V48C41.9999 48.7363 42.5969 49.3333 43.3333 49.3333C44.0696 49.3333 44.6666 48.7363 44.6666 48V43.2189L46.3904 44.9428C46.9111 45.4635 47.7554 45.4635 48.2761 44.9428C48.7968 44.4221 48.7968 43.5779 48.2761 43.0572L44.2761 39.0572Z" fill="white"/>
<path fill-rule="evenodd" clip-rule="evenodd" d="M27.048 39.3333C29.0201 39.3337 30.9921 39.334 32.9642 39.3333C33.123 39.3332 33.3127 39.3332 33.4798 39.3468C33.6734 39.3626 33.9507 39.4032 34.2413 39.5513C34.6176 39.743 34.9236 40.049 35.1153 40.4253C35.2634 40.7159 35.304 40.9932 35.3198 41.1869C35.3335 41.354 35.3334 41.5436 35.3333 41.7025C35.3327 43.4564 35.3327 45.2102 35.3333 46.9641C35.3334 47.123 35.3335 47.3126 35.3198 47.4797C35.304 47.6734 35.2634 47.9507 35.1153 48.2413C34.9236 48.6176 34.6176 48.9236 34.2413 49.1153C33.9507 49.2634 33.6734 49.304 33.4798 49.3198C33.3127 49.3334 33.123 49.3334 32.9642 49.3333C29.1276 49.3319 25.2905 49.3129 21.454 49.3334C21.3589 49.3339 21.1676 49.3349 20.986 49.3029C20.158 49.1569 19.5097 48.5086 19.3637 47.6806C19.3317 47.499 19.3327 47.3078 19.3332 47.2126C19.3374 46.4248 19.2972 45.6217 19.4346 44.8423C19.9213 42.0822 22.0823 39.9213 24.8423 39.4346C25.4189 39.3329 26.0791 39.3331 27.048 39.3333Z" fill="white"/>
<path fill-rule="evenodd" clip-rule="evenodd" d="M24 30C24 25.9499 27.2832 22.6666 31.3333 22.6666C35.3834 22.6666 38.6667 25.9499 38.6667 30C38.6667 34.05 35.3834 37.3333 31.3333 37.3333C27.2832 37.3333 24 34.05 24 30Z" fill="white"/>
<rect x="6.5" y="8.5" width="55" height="55" rx="7.5" stroke="white" stroke-opacity="0.1" shape-rendering="crispEdges"/>
</g>
<defs>
<filter id="filter0_bd_1174_7487" x="-6" y="-4" width="80" height="80" filterUnits="userSpaceOnUse" color-interpolation-filters="sRGB">
<feFlood flood-opacity="0" result="BackgroundImageFix"/>
<feGaussianBlur in="BackgroundImageFix" stdDeviation="6"/>
<feComposite in2="SourceAlpha" operator="in" result="effect1_backgroundBlur_1174_7487"/>
<feColorMatrix in="SourceAlpha" type="matrix" values="0 0 0 0 0 0 0 0 0 0 0 0 0 0 0 0 0 0 127 0" result="hardAlpha"/>
<feOffset dy="4"/>
<feGaussianBlur stdDeviation="3"/>
<feComposite in2="hardAlpha" operator="out"/>
<feColorMatrix type="matrix" values="0 0 0 0 0 0 0 0 0 0 0 0 0 0 0 0 0 0 0.12 0"/>
<feBlend mode="normal" in2="effect1_backgroundBlur_1174_7487" result="effect2_dropShadow_1174_7487"/>
<feBlend mode="normal" in="SourceGraphic" in2="effect2_dropShadow_1174_7487" result="shape"/>
</filter>
</defs>
</svg>
