<svg width="64" height="64" viewBox="0 0 64 64" fill="none" xmlns="http://www.w3.org/2000/svg">
<path fill-rule="evenodd" clip-rule="evenodd" d="M49.4091 5.33374C53.3997 5.37116 56.4145 8.34697 58.2806 11.8126C60.217 15.4089 61.333 20.194 61.333 25.3334C61.333 30.4728 60.217 35.2579 58.2806 38.8542C56.4105 42.3271 53.387 45.3081 49.384 45.3332C42.9839 45.4491 35.8662 42.9284 29.5809 41.7856L30.3121 51.2908C30.5785 54.7487 29.5991 58.2718 25.4904 58.6175C22.6401 58.8574 19.6268 58.8504 16.785 58.6253C13.3911 58.3565 11.9527 55.4415 11.7293 52.3083L10.7286 38.299C9.95364 38.104 9.26438 37.8755 8.63009 37.5639C5.91772 36.2315 3.89777 33.8112 3.07212 30.9043C2.18035 27.7645 2.17566 22.9184 3.07212 19.7621C3.89777 16.8552 5.91772 14.4348 8.63009 13.1025C9.97086 12.4439 11.5572 12.1564 13.6796 11.7718C25.4159 9.63793 45.3328 5.33349 49.4091 5.33374ZM49.5272 39.9915L48.2685 39.7626C47.2948 39.3434 46.1559 38.3214 45.0812 36.3256C43.6397 33.6485 42.6663 29.7669 42.6663 25.3334C42.6663 20.8999 43.6397 17.0183 45.0812 14.3411C45.971 12.6888 46.9048 11.7039 47.7524 11.1759C48.0829 10.9701 48.4634 10.8683 48.8464 10.7987C49.2973 10.7167 49.766 10.6722 50.1979 10.8257C51.2133 11.1866 52.4358 12.2074 53.5847 14.3411C55.0263 17.0183 55.9997 20.8999 55.9997 25.3334C55.9997 29.7669 55.0263 33.6485 53.5847 36.3256C52.1689 38.9551 50.6413 39.8943 49.5272 39.9915Z" fill="#5498EE"/>
</svg>
