<svg width="64" height="64" viewBox="0 0 64 64" fill="none" xmlns="http://www.w3.org/2000/svg">
<path d="M8.00018 5.3335C9.47294 5.3335 10.6668 6.5274 10.6668 8.00016V51.7335C10.6668 52.5242 10.6689 52.9569 10.6943 53.2678L10.6974 53.3029L10.7325 53.306C11.0434 53.3314 11.4761 53.3335 12.2668 53.3335H56.0002C57.4729 53.3335 58.6668 54.5274 58.6668 56.0002C58.6668 57.4729 57.4729 58.6668 56.0002 58.6668L12.1819 58.6668C11.5089 58.6669 10.8533 58.667 10.2982 58.6216C9.68865 58.5718 8.96936 58.4543 8.24556 58.0855C7.24203 57.5742 6.42613 56.7583 5.91481 55.7548C5.54602 55.031 5.4285 54.3117 5.3787 53.7021C5.33334 53.147 5.33342 52.4916 5.3335 51.8186L5.33351 8.00016C5.33351 6.5274 6.52742 5.3335 8.00018 5.3335Z" fill="#5498EE"/>
<path d="M53.3335 25.1047V29.3335C53.3335 30.8063 54.5274 32.0002 56.0002 32.0002C57.4729 32.0002 58.6668 30.8063 58.6668 29.3335V18.6668C58.6668 17.1941 57.4729 16.0002 56.0002 16.0002H45.3335C43.8607 16.0002 42.6668 17.1941 42.6668 18.6668C42.6668 20.1396 43.8607 21.3335 45.3335 21.3335H49.5623L40.0002 30.8956L35.3506 26.2461C35.1261 26.0214 34.858 25.753 34.6024 25.536C34.3062 25.2846 33.8566 24.9498 33.2362 24.7482C32.4329 24.4872 31.5675 24.4872 30.7641 24.7482C30.1437 24.9498 29.6941 25.2846 29.3979 25.536C29.1423 25.753 28.8742 26.0214 28.6497 26.2461L16.7812 38.1145C15.7398 39.1559 15.7398 40.8444 16.7812 41.8858C17.8226 42.9272 19.5111 42.9272 20.5524 41.8858L32.0002 30.4381L36.6497 35.0876C36.8742 35.3123 37.1423 35.5806 37.3979 35.7976C37.6941 36.0491 38.1437 36.3839 38.7641 36.5854C39.5675 36.8465 40.4329 36.8465 41.2362 36.5854C41.8566 36.3839 42.3062 36.0491 42.6024 35.7976C42.8579 35.5807 43.126 35.3124 43.3505 35.0877L53.3335 25.1047Z" fill="#5498EE"/>
</svg>
