<svg width="65" height="64" viewBox="0 0 65 64" fill="none" xmlns="http://www.w3.org/2000/svg">
<path fill-rule="evenodd" clip-rule="evenodd" d="M19.4306 5.3335H45.2361C46.6418 5.33345 47.8546 5.33342 48.8534 5.41502C49.9077 5.50116 50.9562 5.69134 51.9653 6.20545C53.4706 6.97244 54.6944 8.19628 55.4614 9.70158C55.9755 10.7106 56.1657 11.7592 56.2518 12.8134C56.3334 13.8123 56.3334 15.025 56.3333 16.4307V53.3335H59C60.4728 53.3335 61.6667 54.5274 61.6667 56.0002C61.6667 57.4729 60.4728 58.6668 59 58.6668H5.66667C4.19391 58.6668 3 57.4729 3 56.0002C3 54.5274 4.19391 53.3335 5.66667 53.3335H8.33334L8.33334 16.4307C8.33329 15.025 8.33325 13.8123 8.41486 12.8134C8.50099 11.7592 8.69117 10.7106 9.20529 9.70158C9.97227 8.19628 11.1961 6.97244 12.7014 6.20545C13.7104 5.69134 14.759 5.50116 15.8133 5.41502C16.8121 5.33342 18.0249 5.33345 19.4306 5.3335ZM19.6667 16.0002C18.1939 16.0002 17 17.1941 17 18.6668C17 20.1396 18.1939 21.3335 19.6667 21.3335H27C28.4728 21.3335 29.6667 20.1396 29.6667 18.6668C29.6667 17.1941 28.4728 16.0002 27 16.0002H19.6667ZM19.6667 26.6668C18.1939 26.6668 17 27.8607 17 29.3335C17 30.8063 18.1939 32.0002 19.6667 32.0002H27C28.4728 32.0002 29.6667 30.8063 29.6667 29.3335C29.6667 27.8607 28.4728 26.6668 27 26.6668H19.6667ZM17 40.0002C17 38.5274 18.1939 37.3335 19.6667 37.3335H27C28.4728 37.3335 29.6667 38.5274 29.6667 40.0002C29.6667 41.4729 28.4728 42.6668 27 42.6668H19.6667C18.1939 42.6668 17 41.4729 17 40.0002ZM37.6667 16.0002C36.1939 16.0002 35 17.1941 35 18.6668C35 20.1396 36.1939 21.3335 37.6667 21.3335H45C46.4728 21.3335 47.6667 20.1396 47.6667 18.6668C47.6667 17.1941 46.4728 16.0002 45 16.0002H37.6667ZM35 29.3335C35 27.8607 36.1939 26.6668 37.6667 26.6668H45C46.4728 26.6668 47.6667 27.8607 47.6667 29.3335C47.6667 30.8063 46.4728 32.0002 45 32.0002H37.6667C36.1939 32.0002 35 30.8063 35 29.3335ZM37.6667 37.3335C36.1939 37.3335 35 38.5274 35 40.0002C35 41.4729 36.1939 42.6668 37.6667 42.6668H45C46.4728 42.6668 47.6667 41.4729 47.6667 40.0002C47.6667 38.5274 46.4728 37.3335 45 37.3335H37.6667Z" fill="#5498EE"/>
</svg>
