<svg width="65" height="64" viewBox="0 0 65 64" fill="none" xmlns="http://www.w3.org/2000/svg">
<path d="M25.7203 51.6565L27.2788 55.1616C27.7421 56.205 28.4982 57.0916 29.4554 57.7138C30.4126 58.3359 31.5298 58.667 32.6714 58.6668C33.813 58.667 34.9302 58.3359 35.8874 57.7138C36.8446 57.0916 37.6007 56.205 38.064 55.1616L39.6225 51.6565C40.1773 50.4127 41.1105 49.3758 42.2892 48.6935C43.4753 48.0093 44.8474 47.7179 46.2092 47.8609L50.0225 48.2668C51.1576 48.3869 52.3032 48.1751 53.3203 47.657C54.3375 47.139 55.1825 46.337 55.7529 45.3483C56.324 44.3602 56.5961 43.2276 56.5362 42.0879C56.4762 40.9481 56.0868 39.8503 55.4151 38.9276L53.1573 35.8254C52.3534 34.7125 51.9238 33.373 51.9306 32.0002C51.9304 30.6311 52.364 29.2971 53.1692 28.1898L55.4269 25.0876C56.0986 24.1648 56.488 23.067 56.548 21.9273C56.608 20.7876 56.3359 19.6549 55.7647 18.6668C55.1943 17.6781 54.3493 16.8761 53.3322 16.3581C52.315 15.8401 51.1695 15.6282 50.0344 15.7483L46.221 16.1542C44.8592 16.2973 43.4871 16.0058 42.301 15.3216C41.12 14.6355 40.1865 13.5931 39.6344 12.3439L38.064 8.83868C37.6007 7.79529 36.8446 6.90874 35.8874 6.28656C34.9302 5.66438 33.813 5.33331 32.6714 5.3335C31.5298 5.33331 30.4126 5.66438 29.4554 6.28656C28.4982 6.90874 27.7421 7.79529 27.2788 8.83868L25.7203 12.3439C25.1681 13.5931 24.2346 14.6355 23.0536 15.3216C21.8675 16.0058 20.4954 16.2973 19.1336 16.1542L15.3084 15.7483C14.1733 15.6282 13.0277 15.8401 12.0106 16.3581C10.9935 16.8761 10.1485 17.6781 9.57805 18.6668C9.00691 19.6549 8.73481 20.7876 8.79477 21.9273C8.85472 23.067 9.24416 24.1648 9.91583 25.0876L12.1736 28.1898C12.9788 29.2971 13.4124 30.6311 13.4121 32.0002C13.4124 33.3693 12.9788 34.7032 12.1736 35.8105L9.91583 38.9128C9.24416 39.8355 8.85472 40.9333 8.79477 42.073C8.73481 43.2128 9.00691 44.3454 9.57805 45.3335C10.149 46.3217 10.9941 47.1233 12.0111 47.6412C13.0281 48.1592 14.1734 48.3713 15.3084 48.252L19.1218 47.8461C20.4835 47.7031 21.8557 47.9945 23.0418 48.6787C24.2272 49.3629 25.165 50.4055 25.7203 51.6565Z" stroke="#5498EE" stroke-width="5" stroke-linecap="round" stroke-linejoin="round"/>
<path d="M32.6666 40.0002C37.0849 40.0002 40.6666 36.4184 40.6666 32.0002C40.6666 27.5819 37.0849 24.0002 32.6666 24.0002C28.2483 24.0002 24.6666 27.5819 24.6666 32.0002C24.6666 36.4184 28.2483 40.0002 32.6666 40.0002Z" stroke="#5498EE" stroke-width="5" stroke-linecap="round" stroke-linejoin="round"/>
</svg>
