<svg width="65" height="64" viewBox="0 0 65 64" fill="none" xmlns="http://www.w3.org/2000/svg">
<path d="M46.6435 5.33325H18.6899C16.5433 5.33322 14.7716 5.33319 13.3285 5.45111C11.8295 5.57357 10.4517 5.83641 9.15743 6.49585C7.15036 7.5185 5.51857 9.15029 4.49592 11.1574C3.83648 12.4516 3.57364 13.8295 3.45117 15.3284C3.40391 15.9068 3.37415 16.4865 3.35571 17.0669C3.30978 18.5124 3.28682 19.2352 3.57056 19.8241C3.815 20.3314 4.24037 20.7705 4.73967 21.031C5.31924 21.3333 6.07949 21.3333 7.59999 21.3333H57.7333C59.2538 21.3333 60.0141 21.3333 60.5936 21.031C61.0929 20.7705 61.5183 20.3314 61.7627 19.8241C62.0465 19.2352 62.0235 18.5125 61.9776 17.0669C61.9592 16.4866 61.9294 15.9068 61.8821 15.3284C61.7597 13.8295 61.4968 12.4516 60.8374 11.1574C59.8147 9.1503 58.1829 7.51851 56.1759 6.49586C54.8817 5.83642 53.5038 5.57358 52.0049 5.45111C50.5617 5.3332 48.7899 5.33322 46.6435 5.33325Z" fill="#5498EE"/>
<path fill-rule="evenodd" clip-rule="evenodd" d="M62 30.9332C62 29.4398 62 28.693 61.7093 28.1226C61.4537 27.6208 61.0457 27.2129 60.544 26.9572C59.9735 26.6666 59.2268 26.6666 57.7333 26.6666H7.59999C6.10651 26.6666 5.35978 26.6666 4.78935 26.9572C4.28758 27.2129 3.87963 27.6208 3.62397 28.1226C3.33332 28.693 3.33332 29.4398 3.33332 30.9333V43.31C3.33329 45.4566 3.33326 47.2283 3.45117 48.6714C3.57364 50.1704 3.83648 51.5482 4.49592 52.8425C5.51857 54.8495 7.15036 56.4813 9.15742 57.504C10.4517 58.1634 11.8295 58.4263 13.3284 58.5487C14.7717 58.6666 16.5434 58.6666 18.69 58.6666L46.6433 58.6666C48.7899 58.6666 50.5616 58.6666 52.0049 58.5487C53.5038 58.4263 54.8817 58.1634 56.1759 57.504C58.1829 56.4813 59.8147 54.8495 60.8374 52.8425C61.4968 51.5483 61.7597 50.1704 61.8821 48.6715C62 47.2283 62 45.4567 62 43.3101V30.9332ZM36.1144 32.781C37.1558 31.7396 38.8442 31.7396 39.8856 32.781L46.5523 39.4476C47.5937 40.489 47.5937 42.1775 46.5523 43.2189L39.8856 49.8855C38.8442 50.9269 37.1558 50.9269 36.1144 49.8855C35.073 48.8441 35.073 47.1557 36.1144 46.1143L40.8954 41.3332L36.1144 36.5522C35.073 35.5108 35.073 33.8224 36.1144 32.781ZM29.2189 36.5522C30.2603 35.5108 30.2603 33.8224 29.2189 32.781C28.1775 31.7396 26.4891 31.7396 25.4477 32.781L18.781 39.4476C17.7396 40.489 17.7396 42.1775 18.781 43.2189L25.4477 49.8855C26.4891 50.9269 28.1775 50.9269 29.2189 49.8855C30.2603 48.8441 30.2603 47.1557 29.2189 46.1143L24.4379 41.3332L29.2189 36.5522Z" fill="#5498EE"/>
</svg>
