<svg width="65" height="64" viewBox="0 0 65 64" fill="none" xmlns="http://www.w3.org/2000/svg">
<path d="M49.667 42.6662C54.8216 42.6662 59.0003 34.9058 59.0003 25.3328C59.0003 15.7599 54.8216 7.99951 49.667 7.99951M49.667 42.6662C44.5123 42.6662 40.3337 34.9058 40.3337 25.3328C40.3337 15.7599 44.5123 7.99951 49.667 7.99951M49.667 42.6662L14.8498 36.3358C12.3765 35.8861 11.1398 35.6612 10.1399 35.1701C8.10558 34.1708 6.59062 32.3555 5.97138 30.1753C5.66699 29.1036 5.66699 27.8467 5.66699 25.3328C5.66699 22.819 5.66699 21.5621 5.97138 20.4904C6.59062 18.3101 8.10558 16.4949 10.1399 15.4956C11.1398 15.0045 12.3765 14.7796 14.8498 14.3299L49.667 7.99951M13.667 37.3328L14.7173 52.0368C14.817 53.4332 14.8669 54.1314 15.1707 54.6605C15.4381 55.1264 15.84 55.5006 16.3238 55.7342C16.8732 55.9995 17.5732 55.9995 18.9731 55.9995H23.7262C25.3266 55.9995 26.1268 55.9995 26.719 55.6804C27.2394 55.3999 27.6519 54.9545 27.8916 54.4141C28.1644 53.7991 28.103 53.0013 27.9803 51.4056L27.0003 38.6662" stroke="#5498EE" stroke-width="5" stroke-linecap="round" stroke-linejoin="round"/>
</svg>
