<svg width="137" height="137" viewBox="0 0 137 137" fill="none" xmlns="http://www.w3.org/2000/svg">
<g filter="url(#filter0_d_1152_2744)">
<rect x="12.3334" y="6" width="112" height="112" rx="56" fill="white" shape-rendering="crispEdges"/>
<path fill-rule="evenodd" clip-rule="evenodd" d="M55.4306 35.3333H81.2362C82.6418 35.3332 83.8547 35.3332 84.8535 35.4148C85.9077 35.5009 86.9563 35.6911 87.9653 36.2052C89.4706 36.9722 90.6945 38.196 91.4614 39.7013C91.9756 40.7103 92.1657 41.7589 92.2519 42.8132C92.3335 43.812 92.3334 45.0247 92.3334 46.4304V83.3333H95.0001C96.4728 83.3333 97.6667 84.5272 97.6667 85.9999C97.6667 87.4727 96.4728 88.6666 95.0001 88.6666H41.6667C40.194 88.6666 39.0001 87.4727 39.0001 85.9999C39.0001 84.5272 40.194 83.3333 41.6667 83.3333H44.3334L44.3334 46.4305C44.3333 45.0247 44.3333 43.812 44.4149 42.8132C44.5011 41.7589 44.6912 40.7103 45.2053 39.7013C45.9723 38.196 47.1962 36.9722 48.7015 36.2052C49.7105 35.6911 50.7591 35.5009 51.8133 35.4148C52.8121 35.3332 54.025 35.3332 55.4306 35.3333ZM55.6667 45.9999C54.194 45.9999 53.0001 47.1938 53.0001 48.6666C53.0001 50.1393 54.194 51.3333 55.6667 51.3333H63.0001C64.4728 51.3333 65.6667 50.1393 65.6667 48.6666C65.6667 47.1938 64.4728 45.9999 63.0001 45.9999H55.6667ZM55.6667 56.6666C54.194 56.6666 53.0001 57.8605 53.0001 59.3333C53.0001 60.806 54.194 61.9999 55.6667 61.9999H63.0001C64.4728 61.9999 65.6667 60.806 65.6667 59.3333C65.6667 57.8605 64.4728 56.6666 63.0001 56.6666H55.6667ZM53.0001 69.9999C53.0001 68.5272 54.194 67.3333 55.6667 67.3333H63.0001C64.4728 67.3333 65.6667 68.5272 65.6667 69.9999C65.6667 71.4727 64.4728 72.6666 63.0001 72.6666H55.6667C54.194 72.6666 53.0001 71.4727 53.0001 69.9999ZM73.6667 45.9999C72.194 45.9999 71.0001 47.1938 71.0001 48.6666C71.0001 50.1393 72.194 51.3333 73.6667 51.3333H81.0001C82.4728 51.3333 83.6667 50.1393 83.6667 48.6666C83.6667 47.1938 82.4728 45.9999 81.0001 45.9999H73.6667ZM71.0001 59.3333C71.0001 57.8605 72.194 56.6666 73.6667 56.6666H81.0001C82.4728 56.6666 83.6667 57.8605 83.6667 59.3333C83.6667 60.806 82.4728 61.9999 81.0001 61.9999H73.6667C72.194 61.9999 71.0001 60.806 71.0001 59.3333ZM73.6667 67.3333C72.194 67.3333 71.0001 68.5272 71.0001 69.9999C71.0001 71.4727 72.194 72.6666 73.6667 72.6666H81.0001C82.4728 72.6666 83.6667 71.4727 83.6667 69.9999C83.6667 68.5272 82.4728 67.3333 81.0001 67.3333H73.6667Z" fill="#5498EE"/>
</g>
<defs>
<filter id="filter0_d_1152_2744" x="0.333374" y="0.666667" width="136" height="136" filterUnits="userSpaceOnUse" color-interpolation-filters="sRGB">
<feFlood flood-opacity="0" result="BackgroundImageFix"/>
<feColorMatrix in="SourceAlpha" type="matrix" values="0 0 0 0 0 0 0 0 0 0 0 0 0 0 0 0 0 0 127 0" result="hardAlpha"/>
<feOffset dy="6.66667"/>
<feGaussianBlur stdDeviation="6"/>
<feComposite in2="hardAlpha" operator="out"/>
<feColorMatrix type="matrix" values="0 0 0 0 0 0 0 0 0 0 0 0 0 0 0 0 0 0 0.08 0"/>
<feBlend mode="normal" in2="BackgroundImageFix" result="effect1_dropShadow_1152_2744"/>
<feBlend mode="normal" in="SourceGraphic" in2="effect1_dropShadow_1152_2744" result="shape"/>
</filter>
</defs>
</svg>
