<svg width="231" height="196" viewBox="0 0 231 196" fill="none" xmlns="http://www.w3.org/2000/svg">
<rect width="231" height="196" rx="10" fill="white"/>
<path d="M54.0511 113.423V93.3097H59.1364V113.423H54.0511ZM46.5369 105.909V100.824H66.6506V105.909H46.5369ZM73.8466 115V104.364L98.6989 81.3523C100.813 79.3068 102.585 77.4659 104.017 75.8295C105.472 74.1932 106.574 72.5909 107.324 71.0227C108.074 69.4318 108.449 67.7159 108.449 65.875C108.449 63.8295 107.983 62.0682 107.051 60.5909C106.119 59.0909 104.847 57.9432 103.233 57.1477C101.619 56.3295 99.7898 55.9205 97.7443 55.9205C95.608 55.9205 93.7443 56.3523 92.1534 57.2159C90.5625 58.0795 89.3352 59.3182 88.4716 60.9318C87.608 62.5455 87.1761 64.4659 87.1761 66.6932H73.1648C73.1648 62.125 74.1989 58.1591 76.267 54.7955C78.3352 51.4318 81.233 48.8295 84.9602 46.9886C88.6875 45.1477 92.983 44.2273 97.8466 44.2273C102.847 44.2273 107.199 45.1136 110.903 46.8864C114.631 48.6364 117.528 51.0682 119.597 54.1818C121.665 57.2955 122.699 60.8636 122.699 64.8864C122.699 67.5227 122.176 70.125 121.131 72.6932C120.108 75.2614 118.278 78.1136 115.642 81.25C113.006 84.3636 109.29 88.1023 104.494 92.4659L94.3011 102.455V102.932H123.619V115H73.8466ZM155.561 115.955C150.311 115.955 145.64 115.102 141.549 113.398C137.481 111.67 134.288 109.318 131.97 106.341C129.652 103.364 128.493 99.9886 128.493 96.2159C128.493 93.3068 129.152 90.6364 130.47 88.2045C131.811 85.75 133.629 83.7159 135.924 82.1023C138.22 80.4659 140.788 79.4205 143.629 78.9659V78.4886C139.902 77.7386 136.879 75.9318 134.561 73.0682C132.243 70.1818 131.084 66.8295 131.084 63.0114C131.084 59.3977 132.14 56.1818 134.254 53.3636C136.368 50.5227 139.265 48.2955 142.947 46.6818C146.652 45.0455 150.856 44.2273 155.561 44.2273C160.265 44.2273 164.459 45.0455 168.14 46.6818C171.845 48.3182 174.754 50.5568 176.868 53.3977C178.981 56.2159 180.049 59.4205 180.072 63.0114C180.049 66.8523 178.868 70.2045 176.527 73.0682C174.186 75.9318 171.186 77.7386 167.527 78.4886V78.9659C170.322 79.4205 172.856 80.4659 175.129 82.1023C177.424 83.7159 179.243 85.75 180.584 88.2045C181.947 90.6364 182.64 93.3068 182.663 96.2159C182.64 99.9886 181.47 103.364 179.152 106.341C176.834 109.318 173.629 111.67 169.538 113.398C165.47 115.102 160.811 115.955 155.561 115.955ZM155.561 105.114C157.902 105.114 159.947 104.693 161.697 103.852C163.447 102.989 164.811 101.807 165.788 100.307C166.788 98.7841 167.288 97.0341 167.288 95.0568C167.288 93.0341 166.777 91.25 165.754 89.7045C164.731 88.1364 163.345 86.9091 161.595 86.0227C159.845 85.1136 157.834 84.6591 155.561 84.6591C153.311 84.6591 151.299 85.1136 149.527 86.0227C147.754 86.9091 146.356 88.1364 145.334 89.7045C144.334 91.25 143.834 93.0341 143.834 95.0568C143.834 97.0341 144.322 98.7841 145.299 100.307C146.277 101.807 147.652 102.989 149.424 103.852C151.197 104.693 153.243 105.114 155.561 105.114ZM155.561 73.9205C157.515 73.9205 159.254 73.5227 160.777 72.7273C162.299 71.9318 163.493 70.8295 164.356 69.4205C165.22 68.0114 165.652 66.3864 165.652 64.5455C165.652 62.7273 165.22 61.1364 164.356 59.7727C163.493 58.3864 162.311 57.3068 160.811 56.5341C159.311 55.7386 157.561 55.3409 155.561 55.3409C153.584 55.3409 151.834 55.7386 150.311 56.5341C148.788 57.3068 147.595 58.3864 146.731 59.7727C145.89 61.1364 145.47 62.7273 145.47 64.5455C145.47 66.3864 145.902 68.0114 146.765 69.4205C147.629 70.8295 148.822 71.9318 150.345 72.7273C151.868 73.5227 153.606 73.9205 155.561 73.9205Z" fill="black"/>
<path d="M63.2713 160H59.9759L64.9972 145.455H68.9602L73.9744 160H70.679L67.0355 148.778H66.9219L63.2713 160ZM63.0653 154.283H70.8494V156.683H63.0653V154.283ZM79.0895 160.213C77.9721 160.213 77.0109 159.976 76.206 159.503C75.4058 159.025 74.7902 158.362 74.3594 157.514C73.9332 156.667 73.7202 155.691 73.7202 154.588C73.7202 153.471 73.9356 152.491 74.3665 151.648C74.8021 150.8 75.42 150.14 76.2202 149.666C77.0204 149.188 77.9721 148.949 79.0753 148.949C80.027 148.949 80.8603 149.122 81.5753 149.467C82.2902 149.813 82.8561 150.298 83.2727 150.923C83.6894 151.548 83.919 152.282 83.9616 153.125H81.1065C81.026 152.58 80.813 152.143 80.4673 151.811C80.1264 151.475 79.679 151.307 79.125 151.307C78.6562 151.307 78.2467 151.435 77.8963 151.69C77.5507 151.941 77.2808 152.308 77.0866 152.791C76.8925 153.274 76.7955 153.859 76.7955 154.545C76.7955 155.241 76.8902 155.833 77.0795 156.321C77.2737 156.809 77.5459 157.18 77.8963 157.436C78.2467 157.692 78.6562 157.82 79.125 157.82C79.4706 157.82 79.7808 157.749 80.0554 157.607C80.3348 157.464 80.5644 157.259 80.7443 156.989C80.929 156.714 81.0497 156.385 81.1065 156.001H83.9616C83.9143 156.835 83.687 157.569 83.2798 158.203C82.8774 158.833 82.321 159.325 81.6108 159.68C80.9006 160.036 80.0601 160.213 79.0895 160.213ZM90.7013 149.091V151.364H84.1317V149.091H90.7013ZM85.6232 146.477H88.6488V156.648C88.6488 156.927 88.6914 157.145 88.7766 157.301C88.8619 157.453 88.9802 157.559 89.1317 157.621C89.288 157.682 89.4679 157.713 89.6715 157.713C89.8136 157.713 89.9556 157.701 90.0977 157.678C90.2397 157.649 90.3486 157.628 90.4244 157.614L90.9002 159.865C90.7487 159.912 90.5356 159.967 90.261 160.028C89.9864 160.095 89.6526 160.135 89.2596 160.149C88.5304 160.178 87.8912 160.08 87.342 159.858C86.7975 159.635 86.3737 159.29 86.0707 158.821C85.7676 158.352 85.6185 157.76 85.6232 157.045V146.477ZM91.6722 160V149.091H94.6978V160H91.6722ZM93.1921 147.685C92.7423 147.685 92.3564 147.536 92.0344 147.237C91.7172 146.934 91.5586 146.572 91.5586 146.151C91.5586 145.734 91.7172 145.376 92.0344 145.078C92.3564 144.775 92.7423 144.624 93.1921 144.624C93.6419 144.624 94.0254 144.775 94.3427 145.078C94.6647 145.376 94.8256 145.734 94.8256 146.151C94.8256 146.572 94.6647 146.934 94.3427 147.237C94.0254 147.536 93.6419 147.685 93.1921 147.685ZM106.292 149.091L102.478 160H99.0689L95.255 149.091H98.451L100.717 156.896H100.83L103.089 149.091H106.292ZM111.46 160.213C110.338 160.213 109.372 159.986 108.562 159.531C107.758 159.072 107.137 158.423 106.702 157.585C106.266 156.742 106.048 155.746 106.048 154.595C106.048 153.473 106.266 152.488 106.702 151.641C107.137 150.793 107.75 150.133 108.541 149.659C109.337 149.186 110.269 148.949 111.339 148.949C112.059 148.949 112.729 149.065 113.349 149.297C113.974 149.524 114.519 149.867 114.983 150.327C115.452 150.786 115.816 151.364 116.077 152.06C116.337 152.751 116.467 153.561 116.467 154.489V155.32H107.256V153.445H113.619C113.619 153.009 113.525 152.623 113.335 152.287C113.146 151.951 112.883 151.688 112.547 151.499C112.215 151.304 111.83 151.207 111.389 151.207C110.93 151.207 110.523 151.314 110.168 151.527C109.817 151.735 109.543 152.017 109.344 152.372C109.145 152.723 109.043 153.113 109.038 153.544V155.327C109.038 155.866 109.138 156.333 109.337 156.726C109.54 157.119 109.827 157.422 110.196 157.635C110.565 157.848 111.003 157.955 111.51 157.955C111.846 157.955 112.154 157.907 112.433 157.812C112.713 157.718 112.952 157.576 113.151 157.386C113.349 157.197 113.501 156.965 113.605 156.69L116.403 156.875C116.261 157.547 115.97 158.134 115.53 158.636C115.094 159.134 114.531 159.522 113.839 159.801C113.153 160.076 112.36 160.213 111.46 160.213ZM128.066 155.355V149.091H131.092V160H128.187V158.018H128.074C127.827 158.658 127.418 159.171 126.845 159.56C126.277 159.948 125.583 160.142 124.764 160.142C124.035 160.142 123.393 159.976 122.839 159.645C122.285 159.313 121.852 158.842 121.539 158.232C121.232 157.621 121.075 156.889 121.071 156.037V149.091H124.096V155.497C124.101 156.141 124.274 156.65 124.615 157.024C124.956 157.398 125.413 157.585 125.985 157.585C126.35 157.585 126.691 157.502 127.008 157.337C127.325 157.166 127.581 156.915 127.775 156.584C127.974 156.252 128.071 155.843 128.066 155.355ZM141.589 152.202L138.819 152.372C138.772 152.135 138.67 151.922 138.513 151.733C138.357 151.539 138.151 151.385 137.896 151.271C137.645 151.153 137.344 151.094 136.994 151.094C136.525 151.094 136.129 151.193 135.808 151.392C135.486 151.586 135.325 151.847 135.325 152.173C135.325 152.434 135.429 152.654 135.637 152.834C135.845 153.014 136.203 153.158 136.71 153.267L138.684 153.665C139.745 153.883 140.535 154.233 141.056 154.716C141.577 155.199 141.837 155.833 141.837 156.619C141.837 157.334 141.627 157.962 141.205 158.501C140.789 159.041 140.216 159.463 139.487 159.766C138.762 160.064 137.926 160.213 136.979 160.213C135.535 160.213 134.385 159.912 133.528 159.311C132.675 158.705 132.176 157.881 132.029 156.839L135.005 156.683C135.095 157.124 135.313 157.46 135.658 157.692C136.004 157.919 136.447 158.033 136.987 158.033C137.517 158.033 137.943 157.931 138.265 157.727C138.592 157.519 138.757 157.251 138.762 156.925C138.757 156.65 138.641 156.425 138.414 156.25C138.187 156.07 137.836 155.933 137.363 155.838L135.474 155.462C134.408 155.249 133.615 154.879 133.094 154.354C132.578 153.828 132.32 153.158 132.32 152.344C132.32 151.643 132.51 151.039 132.888 150.533C133.272 150.026 133.809 149.635 134.501 149.361C135.197 149.086 136.011 148.949 136.944 148.949C138.322 148.949 139.406 149.24 140.197 149.822C140.992 150.405 141.456 151.198 141.589 152.202ZM147.714 160.213C146.592 160.213 145.626 159.986 144.816 159.531C144.011 159.072 143.391 158.423 142.956 157.585C142.52 156.742 142.302 155.746 142.302 154.595C142.302 153.473 142.52 152.488 142.956 151.641C143.391 150.793 144.004 150.133 144.795 149.659C145.591 149.186 146.523 148.949 147.593 148.949C148.313 148.949 148.983 149.065 149.603 149.297C150.228 149.524 150.773 149.867 151.237 150.327C151.706 150.786 152.07 151.364 152.331 152.06C152.591 152.751 152.721 153.561 152.721 154.489V155.32H143.51V153.445H149.873C149.873 153.009 149.779 152.623 149.589 152.287C149.4 151.951 149.137 151.688 148.801 151.499C148.469 151.304 148.083 151.207 147.643 151.207C147.184 151.207 146.777 151.314 146.422 151.527C146.071 151.735 145.797 152.017 145.598 152.372C145.399 152.723 145.297 153.113 145.292 153.544V155.327C145.292 155.866 145.392 156.333 145.591 156.726C145.794 157.119 146.081 157.422 146.45 157.635C146.819 157.848 147.257 157.955 147.764 157.955C148.1 157.955 148.408 157.907 148.687 157.812C148.967 157.718 149.206 157.576 149.404 157.386C149.603 157.197 149.755 156.965 149.859 156.69L152.657 156.875C152.515 157.547 152.224 158.134 151.784 158.636C151.348 159.134 150.785 159.522 150.093 159.801C149.407 160.076 148.614 160.213 147.714 160.213ZM153.696 160V149.091H156.629V150.994H156.743C156.941 150.317 157.275 149.806 157.744 149.46C158.213 149.11 158.752 148.935 159.363 148.935C159.515 148.935 159.678 148.944 159.853 148.963C160.029 148.982 160.182 149.008 160.315 149.041V151.726C160.173 151.683 159.976 151.645 159.725 151.612C159.475 151.579 159.245 151.562 159.037 151.562C158.592 151.562 158.194 151.66 157.843 151.854C157.498 152.043 157.223 152.308 157.02 152.649C156.821 152.99 156.721 153.383 156.721 153.828V160H153.696ZM169.956 152.202L167.186 152.372C167.139 152.135 167.037 151.922 166.881 151.733C166.724 151.539 166.518 151.385 166.263 151.271C166.012 151.153 165.711 151.094 165.361 151.094C164.892 151.094 164.497 151.193 164.175 151.392C163.853 151.586 163.692 151.847 163.692 152.173C163.692 152.434 163.796 152.654 164.004 152.834C164.213 153.014 164.57 153.158 165.077 153.267L167.051 153.665C168.112 153.883 168.902 154.233 169.423 154.716C169.944 155.199 170.205 155.833 170.205 156.619C170.205 157.334 169.994 157.962 169.572 158.501C169.156 159.041 168.583 159.463 167.854 159.766C167.129 160.064 166.294 160.213 165.347 160.213C163.902 160.213 162.752 159.912 161.895 159.311C161.043 158.705 160.543 157.881 160.396 156.839L163.372 156.683C163.462 157.124 163.68 157.46 164.026 157.692C164.371 157.919 164.814 158.033 165.354 158.033C165.884 158.033 166.31 157.931 166.632 157.727C166.959 157.519 167.125 157.251 167.129 156.925C167.125 156.65 167.009 156.425 166.781 156.25C166.554 156.07 166.204 155.933 165.73 155.838L163.841 155.462C162.776 155.249 161.982 154.879 161.462 154.354C160.946 153.828 160.688 153.158 160.688 152.344C160.688 151.643 160.877 151.039 161.256 150.533C161.639 150.026 162.177 149.635 162.868 149.361C163.564 149.086 164.378 148.949 165.311 148.949C166.689 148.949 167.773 149.24 168.564 149.822C169.359 150.405 169.823 151.198 169.956 152.202Z" fill="black"/>
<rect x="0.5" y="0.5" width="230" height="195" rx="9.5" stroke="black" stroke-opacity="0.1"/>
</svg>
