<svg width="240" height="165" viewBox="0 0 240 165" fill="none" xmlns="http://www.w3.org/2000/svg">
<rect width="240" height="165" rx="10" fill="white"/>
<path d="M89.2045 94.9545C83.9545 94.9545 79.2841 94.1023 75.1932 92.3977C71.125 90.6705 67.9318 88.3182 65.6136 85.3409C63.2955 82.3636 62.1364 78.9886 62.1364 75.2159C62.1364 72.3068 62.7955 69.6364 64.1136 67.2045C65.4545 64.75 67.2727 62.7159 69.5682 61.1023C71.8636 59.4659 74.4318 58.4205 77.2727 57.9659V57.4886C73.5455 56.7386 70.5227 54.9318 68.2045 52.0682C65.8864 49.1818 64.7273 45.8295 64.7273 42.0114C64.7273 38.3977 65.7841 35.1818 67.8977 32.3636C70.0114 29.5227 72.9091 27.2955 76.5909 25.6818C80.2955 24.0455 84.5 23.2273 89.2045 23.2273C93.9091 23.2273 98.1023 24.0455 101.784 25.6818C105.489 27.3182 108.398 29.5568 110.511 32.3977C112.625 35.2159 113.693 38.4205 113.716 42.0114C113.693 45.8523 112.511 49.2045 110.17 52.0682C107.83 54.9318 104.83 56.7386 101.17 57.4886V57.9659C103.966 58.4205 106.5 59.4659 108.773 61.1023C111.068 62.7159 112.886 64.75 114.227 67.2045C115.591 69.6364 116.284 72.3068 116.307 75.2159C116.284 78.9886 115.114 82.3636 112.795 85.3409C110.477 88.3182 107.273 90.6705 103.182 92.3977C99.1136 94.1023 94.4545 94.9545 89.2045 94.9545ZM89.2045 84.1136C91.5455 84.1136 93.5909 83.6932 95.3409 82.8523C97.0909 81.9886 98.4545 80.8068 99.4318 79.3068C100.432 77.7841 100.932 76.0341 100.932 74.0568C100.932 72.0341 100.42 70.25 99.3977 68.7045C98.375 67.1364 96.9886 65.9091 95.2386 65.0227C93.4886 64.1136 91.4773 63.6591 89.2045 63.6591C86.9545 63.6591 84.9432 64.1136 83.1705 65.0227C81.3977 65.9091 80 67.1364 78.9773 68.7045C77.9773 70.25 77.4773 72.0341 77.4773 74.0568C77.4773 76.0341 77.9659 77.7841 78.9432 79.3068C79.9205 80.8068 81.2955 81.9886 83.0682 82.8523C84.8409 83.6932 86.8864 84.1136 89.2045 84.1136ZM89.2045 52.9205C91.1591 52.9205 92.8977 52.5227 94.4205 51.7273C95.9432 50.9318 97.1364 49.8295 98 48.4205C98.8636 47.0114 99.2955 45.3864 99.2955 43.5455C99.2955 41.7273 98.8636 40.1364 98 38.7727C97.1364 37.3864 95.9545 36.3068 94.4545 35.5341C92.9545 34.7386 91.2045 34.3409 89.2045 34.3409C87.2273 34.3409 85.4773 34.7386 83.9545 35.5341C82.4318 36.3068 81.2386 37.3864 80.375 38.7727C79.5341 40.1364 79.1136 41.7273 79.1136 43.5455C79.1136 45.3864 79.5455 47.0114 80.4091 48.4205C81.2727 49.8295 82.4659 50.9318 83.9886 51.7273C85.5114 52.5227 87.25 52.9205 89.2045 52.9205ZM149.203 95.5341C143.339 95.5114 138.294 94.0682 134.066 91.2045C129.862 88.3409 126.623 84.1932 124.351 78.7614C122.101 73.3295 120.987 66.7955 121.01 59.1591C121.01 51.5455 122.135 45.0568 124.385 39.6932C126.657 34.3295 129.896 30.25 134.101 27.4545C138.328 24.6364 143.362 23.2273 149.203 23.2273C155.044 23.2273 160.066 24.6364 164.271 27.4545C168.498 30.2727 171.748 34.3636 174.021 39.7273C176.294 45.0682 177.419 51.5455 177.396 59.1591C177.396 66.8182 176.26 73.3636 173.987 78.7955C171.737 84.2273 168.51 88.375 164.305 91.2386C160.101 94.1023 155.066 95.5341 149.203 95.5341ZM149.203 83.2955C153.203 83.2955 156.396 81.2841 158.782 77.2614C161.169 73.2386 162.351 67.2045 162.328 59.1591C162.328 53.8636 161.782 49.4545 160.691 45.9318C159.623 42.4091 158.101 39.7614 156.123 37.9886C154.169 36.2159 151.862 35.3295 149.203 35.3295C145.226 35.3295 142.044 37.3182 139.657 41.2955C137.271 45.2727 136.066 51.2273 136.044 59.1591C136.044 64.5227 136.578 69 137.646 72.5909C138.737 76.1591 140.271 78.8409 142.248 80.6364C144.226 82.4091 146.544 83.2955 149.203 83.2955Z" fill="black"/>
<path d="M74.6509 128V113.455H80.3896C81.4928 113.455 82.4326 113.665 83.2092 114.087C83.9857 114.503 84.5775 115.083 84.9847 115.827C85.3967 116.565 85.6026 117.418 85.6026 118.384C85.6026 119.349 85.3943 120.202 84.9776 120.94C84.561 121.679 83.9573 122.254 83.1665 122.666C82.3806 123.078 81.4289 123.284 80.3114 123.284H76.6538V120.82H79.8143C80.4061 120.82 80.8938 120.718 81.2773 120.514C81.6656 120.306 81.9544 120.019 82.1438 119.655C82.3379 119.286 82.435 118.862 82.435 118.384C82.435 117.901 82.3379 117.479 82.1438 117.119C81.9544 116.755 81.6656 116.473 81.2773 116.274C80.8891 116.071 80.3967 115.969 79.8001 115.969H77.7262V128H74.6509ZM86.5433 128V117.091H89.4766V118.994H89.5902C89.7891 118.317 90.1229 117.806 90.5916 117.46C91.0604 117.11 91.6001 116.935 92.2109 116.935C92.3625 116.935 92.5258 116.944 92.701 116.963C92.8762 116.982 93.0301 117.008 93.1626 117.041V119.726C93.0206 119.683 92.8241 119.645 92.5732 119.612C92.3222 119.579 92.0926 119.562 91.8842 119.562C91.4392 119.562 91.0414 119.66 90.6911 119.854C90.3454 120.043 90.0708 120.308 89.8672 120.649C89.6683 120.99 89.5689 121.383 89.5689 121.828V128H86.5433ZM98.1481 128.213C97.0449 128.213 96.0908 127.979 95.2859 127.51C94.4857 127.036 93.8678 126.378 93.4322 125.536C92.9966 124.688 92.7788 123.705 92.7788 122.588C92.7788 121.461 92.9966 120.476 93.4322 119.634C93.8678 118.786 94.4857 118.128 95.2859 117.659C96.0908 117.186 97.0449 116.949 98.1481 116.949C99.2513 116.949 100.203 117.186 101.003 117.659C101.808 118.128 102.428 118.786 102.864 119.634C103.3 120.476 103.517 121.461 103.517 122.588C103.517 123.705 103.3 124.688 102.864 125.536C102.428 126.378 101.808 127.036 101.003 127.51C100.203 127.979 99.2513 128.213 98.1481 128.213ZM98.1623 125.869C98.6642 125.869 99.0832 125.727 99.4194 125.443C99.7556 125.154 100.009 124.761 100.179 124.264C100.355 123.767 100.442 123.201 100.442 122.567C100.442 121.932 100.355 121.366 100.179 120.869C100.009 120.372 99.7556 119.979 99.4194 119.69C99.0832 119.402 98.6642 119.257 98.1623 119.257C97.6557 119.257 97.2295 119.402 96.8839 119.69C96.543 119.979 96.2849 120.372 96.1097 120.869C95.9393 121.366 95.854 121.932 95.854 122.567C95.854 123.201 95.9393 123.767 96.1097 124.264C96.2849 124.761 96.543 125.154 96.8839 125.443C97.2295 125.727 97.6557 125.869 98.1623 125.869ZM109.414 128.213C108.296 128.213 107.335 127.976 106.53 127.503C105.73 127.025 105.114 126.362 104.684 125.514C104.257 124.667 104.044 123.691 104.044 122.588C104.044 121.471 104.26 120.491 104.691 119.648C105.126 118.8 105.744 118.14 106.544 117.666C107.345 117.188 108.296 116.949 109.4 116.949C110.351 116.949 111.185 117.122 111.9 117.467C112.614 117.813 113.18 118.298 113.597 118.923C114.014 119.548 114.243 120.282 114.286 121.125H111.431C111.35 120.58 111.137 120.143 110.792 119.811C110.451 119.475 110.003 119.307 109.449 119.307C108.98 119.307 108.571 119.435 108.221 119.69C107.875 119.941 107.605 120.308 107.411 120.791C107.217 121.274 107.12 121.859 107.12 122.545C107.12 123.241 107.214 123.833 107.404 124.321C107.598 124.809 107.87 125.18 108.221 125.436C108.571 125.692 108.98 125.82 109.449 125.82C109.795 125.82 110.105 125.749 110.38 125.607C110.659 125.464 110.889 125.259 111.069 124.989C111.253 124.714 111.374 124.385 111.431 124.001H114.286C114.239 124.835 114.011 125.569 113.604 126.203C113.202 126.833 112.645 127.325 111.935 127.68C111.225 128.036 110.384 128.213 109.414 128.213ZM120.195 128.213C119.072 128.213 118.107 127.986 117.297 127.531C116.492 127.072 115.872 126.423 115.436 125.585C115 124.742 114.783 123.746 114.783 122.595C114.783 121.473 115 120.488 115.436 119.641C115.872 118.793 116.485 118.133 117.276 117.659C118.071 117.186 119.004 116.949 120.074 116.949C120.794 116.949 121.464 117.065 122.084 117.297C122.709 117.524 123.253 117.867 123.717 118.327C124.186 118.786 124.551 119.364 124.811 120.06C125.071 120.751 125.202 121.561 125.202 122.489V123.32H115.99V121.445H122.354C122.354 121.009 122.259 120.623 122.07 120.287C121.88 119.951 121.617 119.688 121.281 119.499C120.95 119.304 120.564 119.207 120.124 119.207C119.664 119.207 119.257 119.314 118.902 119.527C118.552 119.735 118.277 120.017 118.078 120.372C117.879 120.723 117.777 121.113 117.773 121.544V123.327C117.773 123.866 117.872 124.333 118.071 124.726C118.275 125.119 118.561 125.422 118.93 125.635C119.3 125.848 119.738 125.955 120.244 125.955C120.58 125.955 120.888 125.907 121.168 125.812C121.447 125.718 121.686 125.576 121.885 125.386C122.084 125.197 122.235 124.965 122.339 124.69L125.138 124.875C124.996 125.547 124.705 126.134 124.264 126.636C123.829 127.134 123.265 127.522 122.574 127.801C121.887 128.076 121.094 128.213 120.195 128.213ZM135.253 120.202L132.483 120.372C132.436 120.135 132.334 119.922 132.178 119.733C132.021 119.539 131.815 119.385 131.56 119.271C131.309 119.153 131.008 119.094 130.658 119.094C130.189 119.094 129.794 119.193 129.472 119.392C129.15 119.586 128.989 119.847 128.989 120.173C128.989 120.434 129.093 120.654 129.301 120.834C129.509 121.014 129.867 121.158 130.374 121.267L132.348 121.665C133.409 121.883 134.199 122.233 134.72 122.716C135.241 123.199 135.501 123.833 135.501 124.619C135.501 125.334 135.291 125.962 134.869 126.501C134.453 127.041 133.88 127.463 133.151 127.766C132.426 128.064 131.59 128.213 130.643 128.213C129.199 128.213 128.049 127.912 127.192 127.311C126.339 126.705 125.84 125.881 125.693 124.839L128.669 124.683C128.759 125.124 128.977 125.46 129.322 125.692C129.668 125.919 130.111 126.033 130.651 126.033C131.181 126.033 131.607 125.931 131.929 125.727C132.256 125.519 132.421 125.251 132.426 124.925C132.421 124.65 132.305 124.425 132.078 124.25C131.851 124.07 131.5 123.933 131.027 123.838L129.138 123.462C128.072 123.249 127.279 122.879 126.759 122.354C126.242 121.828 125.984 121.158 125.984 120.344C125.984 119.643 126.174 119.039 126.553 118.533C126.936 118.026 127.473 117.635 128.165 117.361C128.861 117.086 129.675 116.949 130.608 116.949C131.986 116.949 133.07 117.24 133.861 117.822C134.656 118.405 135.12 119.198 135.253 120.202ZM145.483 120.202L142.713 120.372C142.666 120.135 142.564 119.922 142.408 119.733C142.252 119.539 142.046 119.385 141.79 119.271C141.539 119.153 141.239 119.094 140.888 119.094C140.419 119.094 140.024 119.193 139.702 119.392C139.38 119.586 139.219 119.847 139.219 120.173C139.219 120.434 139.323 120.654 139.532 120.834C139.74 121.014 140.097 121.158 140.604 121.267L142.578 121.665C143.639 121.883 144.43 122.233 144.951 122.716C145.471 123.199 145.732 123.833 145.732 124.619C145.732 125.334 145.521 125.962 145.1 126.501C144.683 127.041 144.11 127.463 143.381 127.766C142.657 128.064 141.821 128.213 140.874 128.213C139.43 128.213 138.279 127.912 137.422 127.311C136.57 126.705 136.07 125.881 135.924 124.839L138.9 124.683C138.989 125.124 139.207 125.46 139.553 125.692C139.899 125.919 140.341 126.033 140.881 126.033C141.411 126.033 141.837 125.931 142.159 125.727C142.486 125.519 142.652 125.251 142.657 124.925C142.652 124.65 142.536 124.425 142.309 124.25C142.081 124.07 141.731 123.933 141.257 123.838L139.368 123.462C138.303 123.249 137.51 122.879 136.989 122.354C136.473 121.828 136.215 121.158 136.215 120.344C136.215 119.643 136.404 119.039 136.783 118.533C137.167 118.026 137.704 117.635 138.395 117.361C139.091 117.086 139.906 116.949 140.838 116.949C142.216 116.949 143.301 117.24 144.091 117.822C144.887 118.405 145.351 119.198 145.483 120.202ZM151.609 128.213C150.487 128.213 149.521 127.986 148.711 127.531C147.906 127.072 147.286 126.423 146.85 125.585C146.415 124.742 146.197 123.746 146.197 122.595C146.197 121.473 146.415 120.488 146.85 119.641C147.286 118.793 147.899 118.133 148.69 117.659C149.485 117.186 150.418 116.949 151.488 116.949C152.208 116.949 152.878 117.065 153.498 117.297C154.123 117.524 154.667 117.867 155.131 118.327C155.6 118.786 155.965 119.364 156.225 120.06C156.486 120.751 156.616 121.561 156.616 122.489V123.32H147.404V121.445H153.768C153.768 121.009 153.673 120.623 153.484 120.287C153.294 119.951 153.031 119.688 152.695 119.499C152.364 119.304 151.978 119.207 151.538 119.207C151.078 119.207 150.671 119.314 150.316 119.527C149.966 119.735 149.691 120.017 149.492 120.372C149.293 120.723 149.192 121.113 149.187 121.544V123.327C149.187 123.866 149.286 124.333 149.485 124.726C149.689 125.119 149.975 125.422 150.344 125.635C150.714 125.848 151.152 125.955 151.658 125.955C151.995 125.955 152.302 125.907 152.582 125.812C152.861 125.718 153.1 125.576 153.299 125.386C153.498 125.197 153.649 124.965 153.754 124.69L156.552 124.875C156.41 125.547 156.119 126.134 155.678 126.636C155.243 127.134 154.679 127.522 153.988 127.801C153.301 128.076 152.508 128.213 151.609 128.213ZM166.667 120.202L163.897 120.372C163.85 120.135 163.748 119.922 163.592 119.733C163.435 119.539 163.229 119.385 162.974 119.271C162.723 119.153 162.422 119.094 162.072 119.094C161.603 119.094 161.208 119.193 160.886 119.392C160.564 119.586 160.403 119.847 160.403 120.173C160.403 120.434 160.507 120.654 160.715 120.834C160.924 121.014 161.281 121.158 161.788 121.267L163.762 121.665C164.823 121.883 165.613 122.233 166.134 122.716C166.655 123.199 166.915 123.833 166.915 124.619C166.915 125.334 166.705 125.962 166.283 126.501C165.867 127.041 165.294 127.463 164.565 127.766C163.84 128.064 163.004 128.213 162.058 128.213C160.613 128.213 159.463 127.912 158.606 127.311C157.754 126.705 157.254 125.881 157.107 124.839L160.083 124.683C160.173 125.124 160.391 125.46 160.737 125.692C161.082 125.919 161.525 126.033 162.065 126.033C162.595 126.033 163.021 125.931 163.343 125.727C163.67 125.519 163.835 125.251 163.84 124.925C163.835 124.65 163.719 124.425 163.492 124.25C163.265 124.07 162.915 123.933 162.441 123.838L160.552 123.462C159.487 123.249 158.693 122.879 158.173 122.354C157.656 121.828 157.398 121.158 157.398 120.344C157.398 119.643 157.588 119.039 157.967 118.533C158.35 118.026 158.888 117.635 159.579 117.361C160.275 117.086 161.089 116.949 162.022 116.949C163.4 116.949 164.484 117.24 165.275 117.822C166.07 118.405 166.534 119.198 166.667 120.202ZM78.7211 150V139.091H81.7466V150H78.7211ZM80.2409 137.685C79.7911 137.685 79.4052 137.536 79.0833 137.237C78.766 136.934 78.6074 136.572 78.6074 136.151C78.6074 135.734 78.766 135.376 79.0833 135.078C79.4052 134.775 79.7911 134.624 80.2409 134.624C80.6908 134.624 81.0743 134.775 81.3915 135.078C81.7135 135.376 81.8745 135.734 81.8745 136.151C81.8745 136.572 81.7135 136.934 81.3915 137.237C81.0743 137.536 80.6908 137.685 80.2409 137.685ZM83.1703 150V139.091H86.0538V141.016H86.1816C86.4089 140.376 86.7877 139.872 87.318 139.503C87.8483 139.134 88.4828 138.949 89.2214 138.949C89.9695 138.949 90.6064 139.136 91.1319 139.51C91.6575 139.879 92.0079 140.381 92.1831 141.016H92.2967C92.5192 140.391 92.9217 139.891 93.5041 139.517C94.0912 139.138 94.7849 138.949 95.5851 138.949C96.603 138.949 97.4293 139.273 98.0637 139.922C98.7029 140.566 99.0226 141.48 99.0226 142.663V150H96.0041V143.26C96.0041 142.654 95.8431 142.199 95.5211 141.896C95.1992 141.593 94.7967 141.442 94.3137 141.442C93.7645 141.442 93.336 141.617 93.0282 141.967C92.7205 142.313 92.5666 142.77 92.5666 143.338V150H89.6333V143.196C89.6333 142.661 89.4795 142.235 89.1717 141.918C88.8687 141.6 88.4686 141.442 87.9714 141.442C87.6352 141.442 87.3322 141.527 87.0623 141.697C86.7972 141.863 86.5865 142.098 86.4302 142.401C86.274 142.699 86.1958 143.049 86.1958 143.452V150H83.1703ZM100.412 154.091V139.091H103.395V140.923H103.53C103.663 140.63 103.855 140.331 104.106 140.028C104.361 139.721 104.693 139.465 105.1 139.261C105.512 139.053 106.023 138.949 106.634 138.949C107.43 138.949 108.163 139.157 108.836 139.574C109.508 139.986 110.046 140.608 110.448 141.442C110.85 142.27 111.052 143.31 111.052 144.56C111.052 145.777 110.855 146.804 110.462 147.642C110.074 148.475 109.544 149.107 108.871 149.538C108.204 149.964 107.456 150.178 106.627 150.178C106.04 150.178 105.54 150.08 105.128 149.886C104.721 149.692 104.387 149.448 104.127 149.155C103.867 148.857 103.668 148.556 103.53 148.253H103.438V154.091H100.412ZM103.374 144.545C103.374 145.194 103.464 145.76 103.644 146.243C103.824 146.726 104.084 147.102 104.425 147.372C104.766 147.637 105.18 147.77 105.668 147.77C106.161 147.77 106.577 147.635 106.918 147.365C107.259 147.09 107.517 146.712 107.692 146.229C107.872 145.741 107.962 145.18 107.962 144.545C107.962 143.916 107.875 143.362 107.699 142.884C107.524 142.405 107.266 142.031 106.925 141.761C106.584 141.491 106.165 141.357 105.668 141.357C105.176 141.357 104.759 141.487 104.418 141.747C104.082 142.008 103.824 142.377 103.644 142.855C103.464 143.333 103.374 143.897 103.374 144.545ZM112.069 150V139.091H115.002V140.994H115.116C115.314 140.317 115.648 139.806 116.117 139.46C116.586 139.11 117.126 138.935 117.736 138.935C117.888 138.935 118.051 138.944 118.226 138.963C118.402 138.982 118.555 139.008 118.688 139.041V141.726C118.546 141.683 118.349 141.645 118.099 141.612C117.848 141.579 117.618 141.562 117.41 141.562C116.965 141.562 116.567 141.66 116.216 141.854C115.871 142.043 115.596 142.308 115.393 142.649C115.194 142.99 115.094 143.383 115.094 143.828V150H112.069ZM123.673 150.213C122.57 150.213 121.616 149.979 120.811 149.51C120.011 149.036 119.393 148.378 118.958 147.536C118.522 146.688 118.304 145.705 118.304 144.588C118.304 143.461 118.522 142.476 118.958 141.634C119.393 140.786 120.011 140.128 120.811 139.659C121.616 139.186 122.57 138.949 123.673 138.949C124.777 138.949 125.728 139.186 126.529 139.659C127.334 140.128 127.954 140.786 128.389 141.634C128.825 142.476 129.043 143.461 129.043 144.588C129.043 145.705 128.825 146.688 128.389 147.536C127.954 148.378 127.334 149.036 126.529 149.51C125.728 149.979 124.777 150.213 123.673 150.213ZM123.688 147.869C124.19 147.869 124.609 147.727 124.945 147.443C125.281 147.154 125.534 146.761 125.705 146.264C125.88 145.767 125.968 145.201 125.968 144.567C125.968 143.932 125.88 143.366 125.705 142.869C125.534 142.372 125.281 141.979 124.945 141.69C124.609 141.402 124.19 141.257 123.688 141.257C123.181 141.257 122.755 141.402 122.409 141.69C122.068 141.979 121.81 142.372 121.635 142.869C121.465 143.366 121.379 143.932 121.379 144.567C121.379 145.201 121.465 145.767 121.635 146.264C121.81 146.761 122.068 147.154 122.409 147.443C122.755 147.727 123.181 147.869 123.688 147.869ZM139.829 139.091L136.015 150H132.606L128.792 139.091H131.988L134.254 146.896H134.367L136.626 139.091H139.829ZM144.997 150.213C143.875 150.213 142.909 149.986 142.1 149.531C141.295 149.072 140.674 148.423 140.239 147.585C139.803 146.742 139.585 145.746 139.585 144.595C139.585 143.473 139.803 142.488 140.239 141.641C140.674 140.793 141.288 140.133 142.078 139.659C142.874 139.186 143.807 138.949 144.877 138.949C145.596 138.949 146.266 139.065 146.887 139.297C147.512 139.524 148.056 139.867 148.52 140.327C148.989 140.786 149.353 141.364 149.614 142.06C149.874 142.751 150.004 143.561 150.004 144.489V145.32H140.793V143.445H147.156C147.156 143.009 147.062 142.623 146.872 142.287C146.683 141.951 146.42 141.688 146.084 141.499C145.753 141.304 145.367 141.207 144.926 141.207C144.467 141.207 144.06 141.314 143.705 141.527C143.354 141.735 143.08 142.017 142.881 142.372C142.682 142.723 142.58 143.113 142.575 143.544V145.327C142.575 145.866 142.675 146.333 142.874 146.726C143.077 147.119 143.364 147.422 143.733 147.635C144.102 147.848 144.54 147.955 145.047 147.955C145.383 147.955 145.691 147.907 145.97 147.812C146.25 147.718 146.489 147.576 146.688 147.386C146.887 147.197 147.038 146.965 147.142 146.69L149.941 146.875C149.798 147.547 149.507 148.134 149.067 148.636C148.631 149.134 148.068 149.522 147.377 149.801C146.69 150.076 145.897 150.213 144.997 150.213ZM154.999 150.178C154.17 150.178 153.42 149.964 152.747 149.538C152.08 149.107 151.549 148.475 151.156 147.642C150.768 146.804 150.574 145.777 150.574 144.56C150.574 143.31 150.775 142.27 151.178 141.442C151.58 140.608 152.115 139.986 152.783 139.574C153.455 139.157 154.191 138.949 154.992 138.949C155.602 138.949 156.111 139.053 156.519 139.261C156.931 139.465 157.262 139.721 157.513 140.028C157.769 140.331 157.963 140.63 158.095 140.923H158.188V135.455H161.206V150H158.223V148.253H158.095C157.953 148.556 157.752 148.857 157.492 149.155C157.236 149.448 156.902 149.692 156.49 149.886C156.083 150.08 155.586 150.178 154.999 150.178ZM155.958 147.77C156.445 147.77 156.857 147.637 157.193 147.372C157.534 147.102 157.795 146.726 157.975 146.243C158.159 145.76 158.252 145.194 158.252 144.545C158.252 143.897 158.162 143.333 157.982 142.855C157.802 142.377 157.541 142.008 157.2 141.747C156.86 141.487 156.445 141.357 155.958 141.357C155.46 141.357 155.041 141.491 154.7 141.761C154.36 142.031 154.102 142.405 153.926 142.884C153.751 143.362 153.664 143.916 153.664 144.545C153.664 145.18 153.751 145.741 153.926 146.229C154.106 146.712 154.364 147.09 154.7 147.365C155.041 147.635 155.46 147.77 155.958 147.77Z" fill="black"/>
<rect x="0.5" y="0.5" width="239" height="164" rx="9.5" stroke="black" stroke-opacity="0.1"/>
</svg>
