<svg width="218" height="270" viewBox="0 0 218 270" fill="none" xmlns="http://www.w3.org/2000/svg">
<rect width="218" height="270" rx="10" fill="white"/>
<path d="M42.2486 40.4545H45.3239V49.9006C45.3239 50.9612 45.0705 51.8892 44.5639 52.6847C44.062 53.4801 43.3589 54.1004 42.4545 54.5455C41.5502 54.9858 40.4967 55.206 39.294 55.206C38.0866 55.206 37.0308 54.9858 36.1264 54.5455C35.2221 54.1004 34.5189 53.4801 34.017 52.6847C33.5152 51.8892 33.2642 50.9612 33.2642 49.9006V40.4545H36.3395V49.6378C36.3395 50.1918 36.4602 50.6842 36.7017 51.1151C36.9479 51.5459 37.2936 51.8845 37.7386 52.1307C38.1837 52.3769 38.7022 52.5 39.294 52.5C39.8906 52.5 40.4091 52.3769 40.8494 52.1307C41.2945 51.8845 41.6378 51.5459 41.8793 51.1151C42.1255 50.6842 42.2486 50.1918 42.2486 49.6378V40.4545ZM55.8739 47.2017L53.104 47.3722C53.0567 47.1354 52.9549 46.9223 52.7987 46.733C52.6424 46.5388 52.4364 46.3849 52.1808 46.2713C51.9298 46.1529 51.6291 46.0938 51.2788 46.0938C50.81 46.0938 50.4147 46.1932 50.0927 46.392C49.7707 46.5862 49.6097 46.8466 49.6097 47.1733C49.6097 47.4337 49.7139 47.6539 49.9222 47.8338C50.1306 48.0137 50.488 48.1581 50.9947 48.267L52.9691 48.6648C54.0297 48.8826 54.8204 49.233 55.3413 49.7159C55.8621 50.1989 56.1225 50.8333 56.1225 51.6193C56.1225 52.3343 55.9118 52.9616 55.4904 53.5014C55.0737 54.0412 54.5008 54.4626 53.7717 54.7656C53.0472 55.0639 52.2115 55.2131 51.2646 55.2131C49.8204 55.2131 48.6699 54.9124 47.8129 54.3111C46.9606 53.705 46.4611 52.8812 46.3143 51.8395L49.2901 51.6832C49.3801 52.1236 49.5979 52.4598 49.9435 52.6918C50.2892 52.919 50.7319 53.0327 51.2717 53.0327C51.802 53.0327 52.2281 52.9309 52.5501 52.7273C52.8768 52.5189 53.0425 52.2514 53.0472 51.9247C53.0425 51.6501 52.9265 51.4252 52.6992 51.25C52.4719 51.0701 52.1216 50.9328 51.6481 50.8381L49.7589 50.4616C48.6935 50.2486 47.9004 49.8793 47.3796 49.3537C46.8635 48.8281 46.6055 48.1581 46.6055 47.3438C46.6055 46.643 46.7949 46.0393 47.1737 45.5327C47.5572 45.026 48.0946 44.6354 48.7859 44.3608C49.4819 44.0862 50.2963 43.9489 51.229 43.9489C52.6069 43.9489 53.6912 44.2401 54.4819 44.8224C55.2773 45.4048 55.7414 46.1979 55.8739 47.2017ZM60.1385 55.206C59.4425 55.206 58.8222 55.0852 58.2777 54.8438C57.7332 54.5975 57.3023 54.2353 56.9851 53.7571C56.6726 53.2741 56.5163 52.6728 56.5163 51.9531C56.5163 51.3471 56.6276 50.8381 56.8501 50.4261C57.0727 50.0142 57.3757 49.6828 57.7592 49.4318C58.1428 49.1809 58.5784 48.9915 59.0661 48.8636C59.5585 48.7358 60.0746 48.6458 60.6143 48.5938C61.2488 48.5275 61.7602 48.4659 62.1484 48.4091C62.5367 48.3475 62.8184 48.2576 62.9936 48.1392C63.1688 48.0208 63.2564 47.8456 63.2564 47.6136V47.571C63.2564 47.1212 63.1143 46.7732 62.8303 46.527C62.5509 46.2808 62.1532 46.1577 61.6371 46.1577C61.0926 46.1577 60.6593 46.2784 60.3374 46.5199C60.0154 46.7566 59.8023 47.0549 59.6982 47.4148L56.8999 47.1875C57.0419 46.5246 57.3213 45.9517 57.7379 45.4688C58.1546 44.9811 58.692 44.607 59.3501 44.3466C60.013 44.0814 60.7801 43.9489 61.6513 43.9489C62.2573 43.9489 62.8374 44.0199 63.3913 44.1619C63.95 44.304 64.4448 44.5241 64.8757 44.8224C65.3113 45.1207 65.6546 45.5043 65.9055 45.973C66.1565 46.437 66.282 46.9934 66.282 47.642V55H63.4126V53.4872H63.3274C63.1522 53.8281 62.9179 54.1288 62.6243 54.3892C62.3307 54.6449 61.978 54.8461 61.5661 54.9929C61.1541 55.1349 60.6783 55.206 60.1385 55.206ZM61.005 53.1179C61.45 53.1179 61.843 53.0303 62.1839 52.8551C62.5249 52.6752 62.7924 52.4337 62.9865 52.1307C63.1806 51.8277 63.2777 51.4844 63.2777 51.1009V49.9432C63.183 50.0047 63.0528 50.0616 62.8871 50.1136C62.7261 50.161 62.5438 50.206 62.3402 50.2486C62.1366 50.2865 61.933 50.322 61.7294 50.3551C61.5258 50.3835 61.3411 50.4096 61.1754 50.4332C60.8203 50.4853 60.5102 50.5682 60.245 50.6818C59.9799 50.7955 59.7739 50.9493 59.6271 51.1435C59.4804 51.3329 59.407 51.5696 59.407 51.8537C59.407 52.2656 59.5561 52.5805 59.8544 52.7983C60.1574 53.0114 60.541 53.1179 61.005 53.1179ZM72.544 59.3182C71.5639 59.3182 70.7235 59.1832 70.0227 58.9134C69.3267 58.6482 68.7727 58.286 68.3608 57.8267C67.9489 57.3674 67.6813 56.8513 67.5582 56.2784L70.3565 55.902C70.4418 56.1198 70.5767 56.3234 70.7614 56.5128C70.946 56.7022 71.1899 56.8537 71.4929 56.9673C71.8007 57.0857 72.1747 57.1449 72.6151 57.1449C73.2732 57.1449 73.8153 56.9839 74.2415 56.6619C74.6723 56.3447 74.8878 55.812 74.8878 55.0639V53.0682H74.7599C74.6274 53.3712 74.4285 53.6577 74.1634 53.9276C73.8982 54.1974 73.5573 54.4176 73.1406 54.5881C72.724 54.7585 72.2268 54.8438 71.6491 54.8438C70.83 54.8438 70.0843 54.6544 69.4119 54.2756C68.7443 53.892 68.2116 53.3073 67.8139 52.5213C67.4209 51.7306 67.2244 50.7315 67.2244 49.5241C67.2244 48.2884 67.4257 47.2562 67.8281 46.4276C68.2306 45.599 68.7656 44.9787 69.4332 44.5668C70.1056 44.1548 70.8419 43.9489 71.642 43.9489C72.2528 43.9489 72.7642 44.053 73.1761 44.2614C73.5881 44.465 73.9195 44.7206 74.1705 45.0284C74.4261 45.3314 74.6226 45.6297 74.7599 45.9233H74.8736V44.0909H77.8778V55.1065C77.8778 56.0346 77.6506 56.8111 77.196 57.4361C76.7415 58.0611 76.1117 58.5298 75.3068 58.8423C74.5066 59.1596 73.5857 59.3182 72.544 59.3182ZM72.608 52.571C73.0956 52.571 73.5076 52.4503 73.8438 52.2088C74.1847 51.9626 74.4451 51.6122 74.625 51.1577C74.8097 50.6984 74.902 50.1491 74.902 49.5099C74.902 48.8707 74.812 48.3168 74.6321 47.848C74.4522 47.3745 74.1918 47.0076 73.8509 46.7472C73.5099 46.4867 73.0956 46.3565 72.608 46.3565C72.1108 46.3565 71.6918 46.4915 71.3509 46.7614C71.0099 47.0265 70.7519 47.3958 70.5767 47.8693C70.4015 48.3428 70.3139 48.8897 70.3139 49.5099C70.3139 50.1397 70.4015 50.6842 70.5767 51.1435C70.7566 51.598 71.0147 51.9508 71.3509 52.2017C71.6918 52.4479 72.1108 52.571 72.608 52.571ZM84.2571 55.2131C83.1349 55.2131 82.169 54.9858 81.3594 54.5312C80.5545 54.072 79.9342 53.4233 79.4986 52.5852C79.063 51.7424 78.8452 50.7457 78.8452 49.5952C78.8452 48.473 79.063 47.4882 79.4986 46.6406C79.9342 45.7931 80.5473 45.1326 81.3381 44.6591C82.1335 44.1856 83.0663 43.9489 84.1364 43.9489C84.8561 43.9489 85.526 44.0649 86.1463 44.2969C86.7713 44.5241 87.3158 44.8674 87.7798 45.3267C88.2486 45.786 88.6132 46.3636 88.8736 47.0597C89.134 47.7509 89.2642 48.5606 89.2642 49.4886V50.3196H80.0526V48.4446H86.4162C86.4162 48.009 86.3215 47.6231 86.1321 47.2869C85.9427 46.9508 85.6799 46.688 85.3438 46.4986C85.0123 46.3045 84.6264 46.2074 84.1861 46.2074C83.7268 46.2074 83.3196 46.3139 82.9645 46.527C82.6141 46.7353 82.3395 47.017 82.1406 47.3722C81.9418 47.7225 81.84 48.1132 81.8352 48.544V50.3267C81.8352 50.8665 81.9347 51.3329 82.1335 51.7259C82.3371 52.1188 82.6236 52.4219 82.9929 52.6349C83.3622 52.848 83.8002 52.9545 84.3068 52.9545C84.643 52.9545 84.9508 52.9072 85.2301 52.8125C85.5095 52.7178 85.7486 52.5758 85.9474 52.3864C86.1463 52.197 86.2978 51.965 86.402 51.6903L89.2003 51.875C89.0582 52.5473 88.767 53.1345 88.3267 53.6364C87.8911 54.1335 87.3277 54.5218 86.6364 54.8011C85.9498 55.0758 85.1567 55.2131 84.2571 55.2131ZM93.8675 59.0909V44.0909H96.8505V45.9233H96.9854C97.118 45.6297 97.3098 45.3314 97.5607 45.0284C97.8164 44.7206 98.1478 44.465 98.555 44.2614C98.967 44.053 99.4783 43.9489 100.089 43.9489C100.885 43.9489 101.618 44.1572 102.291 44.5739C102.963 44.9858 103.501 45.6084 103.903 46.4418C104.306 47.2704 104.507 48.3097 104.507 49.5597C104.507 50.7765 104.31 51.804 103.917 52.642C103.529 53.4754 102.999 54.1075 102.326 54.5384C101.659 54.9645 100.911 55.1776 100.082 55.1776C99.4949 55.1776 98.9954 55.0805 98.5835 54.8864C98.1763 54.6922 97.8424 54.4484 97.582 54.1548C97.3216 53.8565 97.1228 53.5559 96.9854 53.2528H96.8931V59.0909H93.8675ZM96.8292 49.5455C96.8292 50.1941 96.9192 50.7599 97.0991 51.2429C97.279 51.7259 97.5394 52.1023 97.8803 52.3722C98.2212 52.6373 98.6355 52.7699 99.1232 52.7699C99.6156 52.7699 100.032 52.6349 100.373 52.3651C100.714 52.0904 100.972 51.7116 101.147 51.2287C101.327 50.741 101.417 50.1799 101.417 49.5455C101.417 48.9157 101.33 48.3617 101.154 47.8835C100.979 47.4053 100.721 47.0312 100.38 46.7614C100.039 46.4915 99.6204 46.3565 99.1232 46.3565C98.6308 46.3565 98.2141 46.4867 97.8732 46.7472C97.5371 47.0076 97.279 47.3769 97.0991 47.8551C96.9192 48.3333 96.8292 48.8968 96.8292 49.5455ZM110.495 55.2131C109.373 55.2131 108.407 54.9858 107.598 54.5312C106.793 54.072 106.172 53.4233 105.737 52.5852C105.301 51.7424 105.083 50.7457 105.083 49.5952C105.083 48.473 105.301 47.4882 105.737 46.6406C106.172 45.7931 106.786 45.1326 107.576 44.6591C108.372 44.1856 109.305 43.9489 110.375 43.9489C111.094 43.9489 111.764 44.0649 112.385 44.2969C113.01 44.5241 113.554 44.8674 114.018 45.3267C114.487 45.786 114.851 46.3636 115.112 47.0597C115.372 47.7509 115.502 48.5606 115.502 49.4886V50.3196H106.291V48.4446H112.654C112.654 48.009 112.56 47.6231 112.37 47.2869C112.181 46.9508 111.918 46.688 111.582 46.4986C111.251 46.3045 110.865 46.2074 110.424 46.2074C109.965 46.2074 109.558 46.3139 109.203 46.527C108.852 46.7353 108.578 47.017 108.379 47.3722C108.18 47.7225 108.078 48.1132 108.074 48.544V50.3267C108.074 50.8665 108.173 51.3329 108.372 51.7259C108.575 52.1188 108.862 52.4219 109.231 52.6349C109.6 52.848 110.038 52.9545 110.545 52.9545C110.881 52.9545 111.189 52.9072 111.468 52.8125C111.748 52.7178 111.987 52.5758 112.186 52.3864C112.385 52.197 112.536 51.965 112.64 51.6903L115.439 51.875C115.297 52.5473 115.005 53.1345 114.565 53.6364C114.129 54.1335 113.566 54.5218 112.875 54.8011C112.188 55.0758 111.395 55.2131 110.495 55.2131ZM116.477 55V44.0909H119.41V45.9943H119.524C119.723 45.3172 120.056 44.8059 120.525 44.4602C120.994 44.1098 121.534 43.9347 122.145 43.9347C122.296 43.9347 122.459 43.9441 122.635 43.9631C122.81 43.982 122.964 44.008 123.096 44.0412V46.7259C122.954 46.6832 122.758 46.6454 122.507 46.6122C122.256 46.5791 122.026 46.5625 121.818 46.5625C121.373 46.5625 120.975 46.6596 120.625 46.8537C120.279 47.0431 120.004 47.3082 119.801 47.6491C119.602 47.9901 119.502 48.383 119.502 48.8281V55H116.477ZM127.289 55V44.0909H130.173V46.0156H130.301C130.528 45.3764 130.907 44.8722 131.437 44.5028C131.967 44.1335 132.602 43.9489 133.341 43.9489C134.089 43.9489 134.725 44.1359 135.251 44.5099C135.777 44.8793 136.127 45.3812 136.302 46.0156H136.416C136.638 45.3906 137.041 44.8911 137.623 44.517C138.21 44.1383 138.904 43.9489 139.704 43.9489C140.722 43.9489 141.548 44.2732 142.183 44.9219C142.822 45.5658 143.142 46.4796 143.142 47.6634V55H140.123V48.2599C140.123 47.6539 139.962 47.1993 139.64 46.8963C139.318 46.5933 138.916 46.4418 138.433 46.4418C137.884 46.4418 137.455 46.617 137.147 46.9673C136.84 47.313 136.686 47.7699 136.686 48.3381V55H133.752V48.196C133.752 47.661 133.599 47.2348 133.291 46.9176C132.988 46.6004 132.588 46.4418 132.091 46.4418C131.754 46.4418 131.451 46.527 131.181 46.6974C130.916 46.8632 130.706 47.0975 130.549 47.4006C130.393 47.6989 130.315 48.0492 130.315 48.4517V55H127.289ZM149.461 55.2131C148.357 55.2131 147.403 54.9787 146.598 54.5099C145.798 54.0365 145.18 53.3783 144.745 52.5355C144.309 51.688 144.091 50.7055 144.091 49.5881C144.091 48.4612 144.309 47.4763 144.745 46.6335C145.18 45.786 145.798 45.1278 146.598 44.6591C147.403 44.1856 148.357 43.9489 149.461 43.9489C150.564 43.9489 151.516 44.1856 152.316 44.6591C153.121 45.1278 153.741 45.786 154.176 46.6335C154.612 47.4763 154.83 48.4612 154.83 49.5881C154.83 50.7055 154.612 51.688 154.176 52.5355C153.741 53.3783 153.121 54.0365 152.316 54.5099C151.516 54.9787 150.564 55.2131 149.461 55.2131ZM149.475 52.8693C149.977 52.8693 150.396 52.7273 150.732 52.4432C151.068 52.1544 151.321 51.7614 151.492 51.2642C151.667 50.767 151.755 50.2012 151.755 49.5668C151.755 48.9323 151.667 48.3665 151.492 47.8693C151.321 47.3722 151.068 46.9792 150.732 46.6903C150.396 46.4015 149.977 46.2571 149.475 46.2571C148.968 46.2571 148.542 46.4015 148.196 46.6903C147.855 46.9792 147.597 47.3722 147.422 47.8693C147.252 48.3665 147.167 48.9323 147.167 49.5668C147.167 50.2012 147.252 50.767 147.422 51.2642C147.597 51.7614 147.855 52.1544 148.196 52.4432C148.542 52.7273 148.968 52.8693 149.475 52.8693ZM158.823 48.6932V55H155.797V44.0909H158.681V46.0156H158.809C159.05 45.3812 159.455 44.8793 160.023 44.5099C160.591 44.1359 161.28 43.9489 162.09 43.9489C162.847 43.9489 163.508 44.1146 164.071 44.446C164.635 44.7775 165.073 45.2509 165.385 45.8665C165.698 46.4773 165.854 47.2064 165.854 48.054V55H162.828V48.5938C162.833 47.9261 162.663 47.4053 162.317 47.0312C161.971 46.6525 161.496 46.4631 160.89 46.4631C160.482 46.4631 160.123 46.5507 159.81 46.7259C159.502 46.901 159.261 47.1567 159.086 47.4929C158.915 47.8243 158.828 48.2244 158.823 48.6932ZM173.041 44.0909V46.3636H166.472V44.0909H173.041ZM167.963 41.4773H170.989V51.6477C170.989 51.9271 171.031 52.1449 171.116 52.3011C171.202 52.4527 171.32 52.5592 171.472 52.6207C171.628 52.6823 171.808 52.7131 172.011 52.7131C172.153 52.7131 172.295 52.7012 172.438 52.6776C172.58 52.6491 172.688 52.6278 172.764 52.6136L173.24 54.8651C173.089 54.9124 172.875 54.9669 172.601 55.0284C172.326 55.0947 171.992 55.1349 171.599 55.1491C170.87 55.1776 170.231 55.0805 169.682 54.858C169.137 54.6354 168.714 54.2898 168.411 53.821C168.107 53.3523 167.958 52.7604 167.963 52.0455V41.4773ZM177.272 48.6932V55H174.246V40.4545H177.187V46.0156H177.315C177.561 45.3717 177.959 44.8674 178.508 44.5028C179.057 44.1335 179.746 43.9489 180.575 43.9489C181.332 43.9489 181.993 44.1146 182.556 44.446C183.124 44.7727 183.565 45.2438 183.877 45.8594C184.194 46.4702 184.351 47.2017 184.346 48.054V55H181.32V48.5938C181.325 47.9214 181.155 47.3982 180.809 47.0241C180.468 46.6501 179.99 46.4631 179.374 46.4631C178.962 46.4631 178.598 46.5507 178.281 46.7259C177.968 46.901 177.722 47.1567 177.542 47.4929C177.367 47.8243 177.277 48.2244 177.272 48.6932Z" fill="black"/>
<rect x="32" y="76" width="146" height="162" rx="10" fill="white"/>
<rect x="32" y="149" width="42" height="89" rx="8" fill="#5498EE"/>
<rect x="32" y="172" width="42" height="60" rx="8" fill="url(#paint0_linear_1284_8020)"/>
<rect x="82" y="107" width="44" height="131" rx="8" fill="#5498EE"/>
<rect x="82" y="136" width="44" height="93" rx="8" fill="url(#paint1_linear_1284_8020)"/>
<rect x="134" y="76" width="44" height="162" rx="8" fill="#5498EE"/>
<rect x="134" y="106" width="44" height="113" rx="8" fill="url(#paint2_linear_1284_8020)"/>
<rect x="0.5" y="0.5" width="217" height="269" rx="9.5" stroke="black" stroke-opacity="0.1"/>
<defs>
<linearGradient id="paint0_linear_1284_8020" x1="53" y1="172" x2="53" y2="232" gradientUnits="userSpaceOnUse">
<stop stop-color="#5498EE"/>
<stop offset="1" stop-color="#95BCEE"/>
</linearGradient>
<linearGradient id="paint1_linear_1284_8020" x1="104" y1="136" x2="104" y2="229" gradientUnits="userSpaceOnUse">
<stop stop-color="#5498EE"/>
<stop offset="1" stop-color="#95BCEE"/>
</linearGradient>
<linearGradient id="paint2_linear_1284_8020" x1="156" y1="106" x2="156" y2="219" gradientUnits="userSpaceOnUse">
<stop stop-color="#5498EE"/>
<stop offset="1" stop-color="#95BCEE"/>
</linearGradient>
</defs>
</svg>
