<svg width="209" height="126" viewBox="0 0 209 126" fill="none" xmlns="http://www.w3.org/2000/svg">
<rect width="209" height="126" rx="10" fill="white"/>
<path d="M15.7713 35H12.4759L17.4972 20.4545H21.4602L26.4744 35H23.179L19.5355 23.7784H19.4219L15.7713 35ZM15.5653 29.2827H23.3494V31.6832H15.5653V29.2827ZM27.1683 39.0909V24.0909H30.1513V25.9233H30.2862C30.4188 25.6297 30.6106 25.3314 30.8615 25.0284C31.1172 24.7206 31.4486 24.465 31.8558 24.2614C32.2678 24.053 32.7791 23.9489 33.3899 23.9489C34.1854 23.9489 34.9193 24.1572 35.5916 24.5739C36.264 24.9858 36.8014 25.6084 37.2038 26.4418C37.6063 27.2704 37.8075 28.3097 37.8075 29.5597C37.8075 30.7765 37.611 31.804 37.218 32.642C36.8298 33.4754 36.2995 34.1075 35.6271 34.5384C34.9595 34.9645 34.2114 35.1776 33.3828 35.1776C32.7957 35.1776 32.2962 35.0805 31.8842 34.8864C31.477 34.6922 31.1432 34.4484 30.8828 34.1548C30.6224 33.8565 30.4235 33.5559 30.2862 33.2528H30.1939V39.0909H27.1683ZM30.13 29.5455C30.13 30.1941 30.2199 30.7599 30.3999 31.2429C30.5798 31.7259 30.8402 32.1023 31.1811 32.3722C31.522 32.6373 31.9363 32.7699 32.424 32.7699C32.9164 32.7699 33.3331 32.6349 33.674 32.3651C34.0149 32.0904 34.273 31.7116 34.4482 31.2287C34.6281 30.741 34.718 30.1799 34.718 29.5455C34.718 28.9157 34.6304 28.3617 34.4553 27.8835C34.2801 27.4053 34.022 27.0312 33.6811 26.7614C33.3402 26.4915 32.9212 26.3565 32.424 26.3565C31.9316 26.3565 31.5149 26.4867 31.174 26.7472C30.8378 27.0076 30.5798 27.3769 30.3999 27.8551C30.2199 28.3333 30.13 28.8968 30.13 29.5455ZM38.8246 39.0909V24.0909H41.8075V25.9233H41.9425C42.075 25.6297 42.2668 25.3314 42.5178 25.0284C42.7734 24.7206 43.1049 24.465 43.5121 24.2614C43.924 24.053 44.4354 23.9489 45.0462 23.9489C45.8416 23.9489 46.5755 24.1572 47.2479 24.5739C47.9202 24.9858 48.4576 25.6084 48.8601 26.4418C49.2625 27.2704 49.4638 28.3097 49.4638 29.5597C49.4638 30.7765 49.2673 31.804 48.8743 32.642C48.486 33.4754 47.9557 34.1075 47.2834 34.5384C46.6158 34.9645 45.8677 35.1776 45.0391 35.1776C44.4519 35.1776 43.9524 35.0805 43.5405 34.8864C43.1333 34.6922 42.7995 34.4484 42.5391 34.1548C42.2786 33.8565 42.0798 33.5559 41.9425 33.2528H41.8501V39.0909H38.8246ZM41.7862 29.5455C41.7862 30.1941 41.8762 30.7599 42.0561 31.2429C42.236 31.7259 42.4964 32.1023 42.8374 32.3722C43.1783 32.6373 43.5926 32.7699 44.0803 32.7699C44.5727 32.7699 44.9893 32.6349 45.3303 32.3651C45.6712 32.0904 45.9292 31.7116 46.1044 31.2287C46.2843 30.741 46.3743 30.1799 46.3743 29.5455C46.3743 28.9157 46.2867 28.3617 46.1115 27.8835C45.9363 27.4053 45.6783 27.0312 45.3374 26.7614C44.9964 26.4915 44.5774 26.3565 44.0803 26.3565C43.5878 26.3565 43.1712 26.4867 42.8303 26.7472C42.4941 27.0076 42.236 27.3769 42.0561 27.8551C41.8762 28.3333 41.7862 28.8968 41.7862 29.5455ZM54.1097 39.0909V24.0909H57.0927V25.9233H57.2276C57.3602 25.6297 57.552 25.3314 57.8029 25.0284C58.0586 24.7206 58.39 24.465 58.7972 24.2614C59.2092 24.053 59.7205 23.9489 60.3313 23.9489C61.1268 23.9489 61.8607 24.1572 62.533 24.5739C63.2054 24.9858 63.7428 25.6084 64.1452 26.4418C64.5477 27.2704 64.7489 28.3097 64.7489 29.5597C64.7489 30.7765 64.5524 31.804 64.1594 32.642C63.7712 33.4754 63.2409 34.1075 62.5685 34.5384C61.9009 34.9645 61.1528 35.1776 60.3242 35.1776C59.7371 35.1776 59.2376 35.0805 58.8256 34.8864C58.4184 34.6922 58.0846 34.4484 57.8242 34.1548C57.5638 33.8565 57.3649 33.5559 57.2276 33.2528H57.1353V39.0909H54.1097ZM57.0714 29.5455C57.0714 30.1941 57.1613 30.7599 57.3413 31.2429C57.5212 31.7259 57.7816 32.1023 58.1225 32.3722C58.4634 32.6373 58.8777 32.7699 59.3654 32.7699C59.8578 32.7699 60.2745 32.6349 60.6154 32.3651C60.9563 32.0904 61.2144 31.7116 61.3896 31.2287C61.5695 30.741 61.6594 30.1799 61.6594 29.5455C61.6594 28.9157 61.5719 28.3617 61.3967 27.8835C61.2215 27.4053 60.9634 27.0312 60.6225 26.7614C60.2816 26.4915 59.8626 26.3565 59.3654 26.3565C58.873 26.3565 58.4563 26.4867 58.1154 26.7472C57.7792 27.0076 57.5212 27.3769 57.3413 27.8551C57.1613 28.3333 57.0714 28.8968 57.0714 29.5455ZM70.7376 35.2131C69.6154 35.2131 68.6495 34.9858 67.8398 34.5312C67.0349 34.072 66.4147 33.4233 65.979 32.5852C65.5434 31.7424 65.3256 30.7457 65.3256 29.5952C65.3256 28.473 65.5434 27.4882 65.979 26.6406C66.4147 25.7931 67.0278 25.1326 67.8185 24.6591C68.614 24.1856 69.5468 23.9489 70.6168 23.9489C71.3365 23.9489 72.0065 24.0649 72.6268 24.2969C73.2518 24.5241 73.7963 24.8674 74.2603 25.3267C74.729 25.786 75.0936 26.3636 75.354 27.0597C75.6145 27.7509 75.7447 28.5606 75.7447 29.4886V30.3196H66.533V28.4446H72.8967C72.8967 28.009 72.802 27.6231 72.6126 27.2869C72.4232 26.9508 72.1604 26.688 71.8242 26.4986C71.4928 26.3045 71.1069 26.2074 70.6665 26.2074C70.2073 26.2074 69.8001 26.3139 69.445 26.527C69.0946 26.7353 68.82 27.017 68.6211 27.3722C68.4222 27.7225 68.3204 28.1132 68.3157 28.544V30.3267C68.3157 30.8665 68.4151 31.3329 68.614 31.7259C68.8176 32.1188 69.104 32.4219 69.4734 32.6349C69.8427 32.848 70.2807 32.9545 70.7873 32.9545C71.1235 32.9545 71.4312 32.9072 71.7106 32.8125C71.9899 32.7178 72.229 32.5758 72.4279 32.3864C72.6268 32.197 72.7783 31.965 72.8825 31.6903L75.6808 31.875C75.5387 32.5473 75.2475 33.1345 74.8072 33.6364C74.3716 34.1335 73.8081 34.5218 73.1168 34.8011C72.4303 35.0758 71.6372 35.2131 70.7376 35.2131ZM76.7191 35V24.0909H79.6523V25.9943H79.766C79.9648 25.3172 80.2987 24.8059 80.7674 24.4602C81.2362 24.1098 81.7759 23.9347 82.3867 23.9347C82.5382 23.9347 82.7016 23.9441 82.8768 23.9631C83.052 23.982 83.2058 24.008 83.3384 24.0412V26.7259C83.1964 26.6832 82.9999 26.6454 82.7489 26.6122C82.498 26.5791 82.2683 26.5625 82.06 26.5625C81.6149 26.5625 81.2172 26.6596 80.8668 26.8537C80.5212 27.0431 80.2466 27.3082 80.043 27.6491C79.8441 27.9901 79.7447 28.383 79.7447 28.8281V35H76.7191ZM90.3161 24.0909V26.3636H83.5831V24.0909H90.3161ZM85.1243 35V23.3026C85.1243 22.5118 85.2782 21.8561 85.5859 21.3352C85.8984 20.8144 86.3246 20.4238 86.8643 20.1634C87.4041 19.9029 88.0173 19.7727 88.7038 19.7727C89.1679 19.7727 89.5916 19.8082 89.9751 19.8793C90.3634 19.9503 90.6522 20.0142 90.8416 20.071L90.3018 22.3438C90.1835 22.3059 90.0367 22.2704 89.8615 22.2372C89.6911 22.2041 89.5159 22.1875 89.3359 22.1875C88.8909 22.1875 88.5807 22.2917 88.4055 22.5C88.2304 22.7036 88.1428 22.9901 88.1428 23.3594V35H85.1243ZM95.7028 35.2131C94.5996 35.2131 93.6455 34.9787 92.8406 34.5099C92.0404 34.0365 91.4225 33.3783 90.9869 32.5355C90.5513 31.688 90.3335 30.7055 90.3335 29.5881C90.3335 28.4612 90.5513 27.4763 90.9869 26.6335C91.4225 25.786 92.0404 25.1278 92.8406 24.6591C93.6455 24.1856 94.5996 23.9489 95.7028 23.9489C96.806 23.9489 97.7577 24.1856 98.5579 24.6591C99.3628 25.1278 99.9831 25.786 100.419 26.6335C100.854 27.4763 101.072 28.4612 101.072 29.5881C101.072 30.7055 100.854 31.688 100.419 32.5355C99.9831 33.3783 99.3628 34.0365 98.5579 34.5099C97.7577 34.9787 96.806 35.2131 95.7028 35.2131ZM95.717 32.8693C96.2189 32.8693 96.6379 32.7273 96.9741 32.4432C97.3103 32.1544 97.5636 31.7614 97.734 31.2642C97.9092 30.767 97.9968 30.2012 97.9968 29.5668C97.9968 28.9323 97.9092 28.3665 97.734 27.8693C97.5636 27.3722 97.3103 26.9792 96.9741 26.6903C96.6379 26.4015 96.2189 26.2571 95.717 26.2571C95.2103 26.2571 94.7842 26.4015 94.4386 26.6903C94.0977 26.9792 93.8396 27.3722 93.6644 27.8693C93.494 28.3665 93.4087 28.9323 93.4087 29.5668C93.4087 30.2012 93.494 30.767 93.6644 31.2642C93.8396 31.7614 94.0977 32.1544 94.4386 32.4432C94.7842 32.7273 95.2103 32.8693 95.717 32.8693ZM102.039 35V24.0909H104.973V25.9943H105.086C105.285 25.3172 105.619 24.8059 106.088 24.4602C106.556 24.1098 107.096 23.9347 107.707 23.9347C107.859 23.9347 108.022 23.9441 108.197 23.9631C108.372 23.982 108.526 24.008 108.659 24.0412V26.7259C108.517 26.6832 108.32 26.6454 108.069 26.6122C107.818 26.5791 107.589 26.5625 107.38 26.5625C106.935 26.5625 106.538 26.6596 106.187 26.8537C105.842 27.0431 105.567 27.3082 105.363 27.6491C105.164 27.9901 105.065 28.383 105.065 28.8281V35H102.039ZM109.223 35V24.0909H112.107V26.0156H112.234C112.462 25.3764 112.84 24.8722 113.371 24.5028C113.901 24.1335 114.536 23.9489 115.274 23.9489C116.022 23.9489 116.659 24.1359 117.185 24.5099C117.71 24.8793 118.061 25.3812 118.236 26.0156H118.349C118.572 25.3906 118.974 24.8911 119.557 24.517C120.144 24.1383 120.838 23.9489 121.638 23.9489C122.656 23.9489 123.482 24.2732 124.116 24.9219C124.756 25.5658 125.075 26.4796 125.075 27.6634V35H122.057V28.2599C122.057 27.6539 121.896 27.1993 121.574 26.8963C121.252 26.5933 120.849 26.4418 120.366 26.4418C119.817 26.4418 119.389 26.617 119.081 26.9673C118.773 27.313 118.619 27.7699 118.619 28.3381V35H115.686V28.196C115.686 27.661 115.532 27.2348 115.224 26.9176C114.921 26.6004 114.521 26.4418 114.024 26.4418C113.688 26.4418 113.385 26.527 113.115 26.6974C112.85 26.8632 112.639 27.0975 112.483 27.4006C112.327 27.6989 112.249 28.0492 112.249 28.4517V35H109.223ZM129.576 35.206C128.88 35.206 128.26 35.0852 127.715 34.8438C127.171 34.5975 126.74 34.2353 126.423 33.7571C126.11 33.2741 125.954 32.6728 125.954 31.9531C125.954 31.3471 126.065 30.8381 126.288 30.4261C126.51 30.0142 126.813 29.6828 127.197 29.4318C127.58 29.1809 128.016 28.9915 128.504 28.8636C128.996 28.7358 129.512 28.6458 130.052 28.5938C130.686 28.5275 131.198 28.4659 131.586 28.4091C131.974 28.3475 132.256 28.2576 132.431 28.1392C132.606 28.0208 132.694 27.8456 132.694 27.6136V27.571C132.694 27.1212 132.552 26.7732 132.268 26.527C131.988 26.2808 131.591 26.1577 131.075 26.1577C130.53 26.1577 130.097 26.2784 129.775 26.5199C129.453 26.7566 129.24 27.0549 129.136 27.4148L126.337 27.1875C126.479 26.5246 126.759 25.9517 127.175 25.4688C127.592 24.9811 128.129 24.607 128.788 24.3466C129.451 24.0814 130.218 23.9489 131.089 23.9489C131.695 23.9489 132.275 24.0199 132.829 24.1619C133.388 24.304 133.882 24.5241 134.313 24.8224C134.749 25.1207 135.092 25.5043 135.343 25.973C135.594 26.437 135.719 26.9934 135.719 27.642V35H132.85V33.4872H132.765C132.59 33.8281 132.355 34.1288 132.062 34.3892C131.768 34.6449 131.415 34.8461 131.004 34.9929C130.592 35.1349 130.116 35.206 129.576 35.206ZM130.442 33.1179C130.888 33.1179 131.281 33.0303 131.621 32.8551C131.962 32.6752 132.23 32.4337 132.424 32.1307C132.618 31.8277 132.715 31.4844 132.715 31.1009V29.9432C132.621 30.0047 132.49 30.0616 132.325 30.1136C132.164 30.161 131.981 30.206 131.778 30.2486C131.574 30.2865 131.371 30.322 131.167 30.3551C130.963 30.3835 130.779 30.4096 130.613 30.4332C130.258 30.4853 129.948 30.5682 129.683 30.6818C129.417 30.7955 129.211 30.9493 129.065 31.1435C128.918 31.3329 128.844 31.5696 128.844 31.8537C128.844 32.2656 128.994 32.5805 129.292 32.7983C129.595 33.0114 129.978 33.1179 130.442 33.1179ZM140.092 28.6932V35H137.067V24.0909H139.95V26.0156H140.078C140.32 25.3812 140.724 24.8793 141.293 24.5099C141.861 24.1359 142.55 23.9489 143.359 23.9489C144.117 23.9489 144.777 24.1146 145.341 24.446C145.904 24.7775 146.342 25.2509 146.655 25.8665C146.967 26.4773 147.124 27.2064 147.124 28.054V35H144.098V28.5938C144.103 27.9261 143.932 27.4053 143.587 27.0312C143.241 26.6525 142.765 26.4631 142.159 26.4631C141.752 26.4631 141.392 26.5507 141.08 26.7259C140.772 26.901 140.53 27.1567 140.355 27.4929C140.185 27.8243 140.097 28.2244 140.092 28.6932ZM153.437 35.2131C152.32 35.2131 151.359 34.9763 150.554 34.5028C149.753 34.0246 149.138 33.3617 148.707 32.5142C148.281 31.6667 148.068 30.6913 148.068 29.5881C148.068 28.4706 148.283 27.4905 148.714 26.6477C149.15 25.8002 149.768 25.1397 150.568 24.6662C151.368 24.188 152.32 23.9489 153.423 23.9489C154.375 23.9489 155.208 24.1217 155.923 24.4673C156.638 24.813 157.204 25.2983 157.62 25.9233C158.037 26.5483 158.267 27.2822 158.309 28.125H155.454C155.374 27.5805 155.161 27.1425 154.815 26.8111C154.474 26.4749 154.027 26.3068 153.473 26.3068C153.004 26.3068 152.594 26.4347 152.244 26.6903C151.898 26.9413 151.628 27.3082 151.434 27.7912C151.24 28.2741 151.143 28.8589 151.143 29.5455C151.143 30.2415 151.238 30.8333 151.427 31.321C151.621 31.8087 151.894 32.1804 152.244 32.4361C152.594 32.6918 153.004 32.8196 153.473 32.8196C153.818 32.8196 154.128 32.7486 154.403 32.6065C154.682 32.4645 154.912 32.2585 155.092 31.9886C155.277 31.714 155.397 31.3849 155.454 31.0014H158.309C158.262 31.8348 158.035 32.5687 157.627 33.2031C157.225 33.8329 156.669 34.3253 155.958 34.6804C155.248 35.0355 154.408 35.2131 153.437 35.2131ZM164.218 35.2131C163.096 35.2131 162.13 34.9858 161.32 34.5312C160.515 34.072 159.895 33.4233 159.46 32.5852C159.024 31.7424 158.806 30.7457 158.806 29.5952C158.806 28.473 159.024 27.4882 159.46 26.6406C159.895 25.7931 160.508 25.1326 161.299 24.6591C162.094 24.1856 163.027 23.9489 164.097 23.9489C164.817 23.9489 165.487 24.0649 166.107 24.2969C166.732 24.5241 167.277 24.8674 167.741 25.3267C168.21 25.786 168.574 26.3636 168.835 27.0597C169.095 27.7509 169.225 28.5606 169.225 29.4886V30.3196H160.013V28.4446H166.377C166.377 28.009 166.282 27.6231 166.093 27.2869C165.904 26.9508 165.641 26.688 165.305 26.4986C164.973 26.3045 164.587 26.2074 164.147 26.2074C163.688 26.2074 163.281 26.3139 162.925 26.527C162.575 26.7353 162.3 27.017 162.102 27.3722C161.903 27.7225 161.801 28.1132 161.796 28.544V30.3267C161.796 30.8665 161.896 31.3329 162.094 31.7259C162.298 32.1188 162.585 32.4219 162.954 32.6349C163.323 32.848 163.761 32.9545 164.268 32.9545C164.604 32.9545 164.912 32.9072 165.191 32.8125C165.47 32.7178 165.71 32.5758 165.908 32.3864C166.107 32.197 166.259 31.965 166.363 31.6903L169.161 31.875C169.019 32.5473 168.728 33.1345 168.288 33.6364C167.852 34.1335 167.289 34.5218 166.597 34.8011C165.911 35.0758 165.118 35.2131 164.218 35.2131Z" fill="black"/>
<path d="M85.9503 85.686L12.7524 113.221H197V56L175.442 72.1337H121.045L102.996 85.686H85.9503Z" fill="url(#paint0_linear_1284_8010)" fill-opacity="0.3"/>
<path d="M12 113.221L85.1978 85.686H102.244L120.293 72.1337H174.69L196.248 56" stroke="#5498EE" stroke-width="1.43172"/>
<g filter="url(#filter0_f_1284_8010)">
<path d="M12 113.221L85.1978 85.686H102.244L120.293 72.1337H174.69L196.248 56" stroke="#5498EE" stroke-width="1.43172"/>
</g>
<rect x="0.5" y="0.5" width="208" height="125" rx="9.5" stroke="black" stroke-opacity="0.1"/>
<defs>
<filter id="filter0_f_1284_8010" x="6.02108" y="49.7" width="196.383" height="69.9179" filterUnits="userSpaceOnUse" color-interpolation-filters="sRGB">
<feFlood flood-opacity="0" result="BackgroundImageFix"/>
<feBlend mode="normal" in="SourceGraphic" in2="BackgroundImageFix" result="shape"/>
<feGaussianBlur stdDeviation="2.86344" result="effect1_foregroundBlur_1284_8010"/>
</filter>
<linearGradient id="paint0_linear_1284_8010" x1="97.2307" y1="84.6105" x2="101.394" y2="113.337" gradientUnits="userSpaceOnUse">
<stop stop-color="#5498EE"/>
<stop offset="1" stop-color="#5498EE" stop-opacity="0.03"/>
</linearGradient>
</defs>
</svg>
